<svg xmlns="http://www.w3.org/2000/svg" width="27.908" height="43.966" viewBox="0 0 27.908 43.966">
  <g id="Group_147" data-name="Group 147" transform="translate(-773.334 -575.687)">
    <path id="Path_92" data-name="Path 92" d="M353.457,301.893a24.9,24.9,0,0,0-4.063-3.179l-8.943,3.3-3.143,2.031a7.869,7.869,0,0,1,1.283-1.623l-.005,0v-6.882l.986,6.1a51.34,51.34,0,0,1,9.48-3.7c.023-2.55-.066-12.446-.355-13.547-.336-1.274-1.275-3.955-2.75-3.217a8.366,8.366,0,0,0-2.749,2.413c-.67.738-.336,7.041-.336,7.041a14.63,14.63,0,0,0-2.883.334c-.067.2-1.676,2.549-1.676,2.549s-2.078-1.007-3.42-.537-1.274,2.48-1.274,2.48-.535-6.57-.871-7.241-3.218-3.822-3.755-2.816-2.48,3.754-2.346,3.821S325.7,309,325.7,309s4.828,9.989,5.029,10.191v1.275s17.7.066,17.9,0,5.967-17.3,4.828-18.573m-20.733,3.136.774-7.205s-.489,6.431-.245,7a6.968,6.968,0,0,0,1.385,1.548Zm3.724,11.95a20.572,20.572,0,0,1-1.363-4.024c-.336-1.81,2.75-5.363,2.75-5.363-2.817,3.888-1.387,9.387-1.387,9.387m.527-10.968,10.543-.44c0,.586-10.543.44-10.543.44" transform="translate(447.636 294.638)" fill="#e2e2e2"/>
    <path id="Path_93" data-name="Path 93" d="M329.909,311.1c-.163.081-2.32.611-2.32.611l1.872.935Z" transform="translate(448.335 305.742)" fill="#e2e2e2"/>
    <path id="Path_94" data-name="Path 94" d="M342.835,311.1l2.442.774-2.768.935Z" transform="translate(453.848 305.742)" fill="#e2e2e2"/>
    <path id="Path_95" data-name="Path 95" d="M348.422,310.359H329.453l-1.18,3.826h20.352Zm-14.736,2.565h-1.913l1.3-1.263s.935-.163,1.261.489-.652.774-.652.774m4.336.529a2.094,2.094,0,0,1-.427-1.17c0-.64.772-.337.855-.337,0,0,.937.082.937.718s-1.364.789-1.364.789m5.678-.789c-.089-.118.529-1.327,1.181-1.287s1.424,1.711,1.424,1.711-2.035.334-2.6-.423" transform="translate(448.587 305.468)" fill="#e2e2e2"/>
  </g>
</svg>
