<svg xmlns="http://www.w3.org/2000/svg" xmlns:xlink="http://www.w3.org/1999/xlink" width="37.564" height="52.381" viewBox="0 0 37.564 52.381">
  <defs>
    <clipPath id="clip-path">
      <rect id="Rectangle_145" data-name="Rectangle 145" width="37.564" height="52.381" fill="#e2e2e2"/>
    </clipPath>
  </defs>
  <g id="Group_234" data-name="Group 234" transform="translate(0 0)">
    <g id="Group_233" data-name="Group 233" transform="translate(0 0)" clip-path="url(#clip-path)">
      <path id="Path_222" data-name="Path 222" d="M20.956,15.626a1.132,1.132,0,0,0-.222.093l-.043-.179Z" transform="translate(-5.904 -4.433)" fill="#e2e2e2"/>
      <path id="Path_223" data-name="Path 223" d="M20.956,15.626a1.132,1.132,0,0,0-.222.093l-.043-.179Z" transform="translate(-5.904 -4.433)" fill="#e2e2e2"/>
      <path id="Path_224" data-name="Path 224" d="M33.254,22.027c-.493-.779-1.722.243-2.83,1.458.007-.086.007-.164.007-.236,0-.922.05-2.709-.05-4.453l2.873-10.57L28.5,14.115a8.266,8.266,0,0,1-2.373-.436L24.035,1.83,22.569,12.5c-.693-.236-1.387-.479-2.044-.686L13.063,0l2.587,11.106.265.086a1.119,1.119,0,0,0-.222.093l-.043-.179L3.022,6.918l7.254,8.162C8.732,16.4,7.567,17.517,7.567,17.517s.272,4.167.936,8.462c-1.487-.579-4.11-1.344-4.21.436-.143,2.494,1.916,2.4,1.916,2.4l2.894.515c.536,2.5,1.222,4.646,2.1,5.482,2.666,2.544,8.133,3.566,8.133,3.566s8.634-2.194,8.97-3.566c.193-.779.858-3.731,1.394-6.525a4.72,4.72,0,0,0,1.379.243A4.18,4.18,0,0,0,33.7,27.3s.544-3.709-.45-5.274M12.377,27.545l1.214-1.8-2.482-1.159,1.014-.93,1.928,1.407,1.226-1.819,1.156.75-1.75,1.532,2.764,2.018L14.141,26ZM22.79,32.728,16.4,33.9V32.339l8.121-1.523Zm2.095-6.113-2.6-1.22,1.121-2.15.5-.434,1.791.944-.486.43-.682-.359L23.406,25.4H24.8L27,23.4l-2.964-2.722-3.739,1.347v-.738l3.739-1.437,3.809,3.719Z" transform="translate(-0.862 0)" fill="#e2e2e2"/>
      <path id="Path_225" data-name="Path 225" d="M31.242,55.8,29.3,56.8v1.093H20.786V56.454l-1.043-.286,1.043-.629V54.117L24.552,55.8,29.3,53.71v1.7Z" transform="translate(-5.633 -15.324)" fill="#e2e2e2"/>
      <path id="Path_226" data-name="Path 226" d="M14.113,58.235s-6.075-1.086-7.4.863S0,68.909,0,68.909H37.564S33.032,59.091,30.72,59.1s-5.827,0-5.827,0l-2.867,2.227-6.337.462L14.113,59.1Z" transform="translate(0 -16.528)" fill="#e2e2e2"/>
    </g>
  </g>
</svg>
