<svg xmlns="http://www.w3.org/2000/svg" width="40.862" height="32.933" viewBox="0 0 40.862 32.933">
  <g id="Group_148" data-name="Group 148" transform="translate(-804.263 -515.041)">
    <path id="Path_83" data-name="Path 83" d="M357.82,259.391a15.85,15.85,0,0,0-3.712,3.022h-6.734v-6.045l3.248-.389v-5.292l-6.383-.815v-2.094h13.469l-5.568,2.91v5.1l6.722-.815s1.053,3.248-1.041,4.414" transform="translate(461.996 267.263)" fill="#e2e2e2"/>
    <path id="Path_84" data-name="Path 84" d="M370.69,255.867l2.746.276v6.27s-6.5.8-6.735,0-4.176-2.445-4.991-3.135,0-4.3,0-4.3l7.2.715-.464-3.963-4.063-1.969v-1.981l11.964.577-5.982,2.558Z" transform="translate(466.345 267.263)" fill="#e2e2e2"/>
    <path id="Path_85" data-name="Path 85" d="M367.707,261.387l9.635.929v8.125l-5.34.929v4.062s4.411,1.724,4.411,1.791-9.4,0-9.4,0l3.366-2.138s.232-4.412-.117-4.412-3.249.117-3.249.117,1.976-7.309.7-9.4" transform="translate(467.783 270.721)" fill="#e2e2e2"/>
    <path id="Path_86" data-name="Path 86" d="M352.533,261.968s-3.251,6.5-1.393,8.359-2.089,0-2.089,0v4.643l3.483,1.161-6.965,1.094,2.206-2.836-.581-4.179-4.527.232v-9.055Z" transform="translate(461.597 270.721)" fill="#e2e2e2"/>
    <path id="Path_87" data-name="Path 87" d="M357.688,265.05c-.522.487-.9,1.564-.522,1.911s1.216.626,1.564,0-1.042-1.911-1.042-1.911" transform="translate(465.242 271.652)" fill="#e2e2e2"/>
    <path id="Path_88" data-name="Path 88" d="M360.484,264.774c-.908-.09-1.146,1.807-.765,2.155s1.426.556,1.634.174a7.584,7.584,0,0,0,0-2.19s-.522-.1-.869-.139" transform="translate(465.886 271.581)" fill="#e2e2e2"/>
    <path id="Path_89" data-name="Path 89" d="M358.97,267.017s-.757.938-.535,1.252.535-1.252.535-1.252" transform="translate(465.593 272.152)" fill="#e2e2e2"/>
    <path id="Path_90" data-name="Path 90" d="M359.089,266.793a10.426,10.426,0,0,1,.191,1.742s.765.069.661-.347a6.744,6.744,0,0,0-.852-1.395" transform="translate(465.77 272.095)" fill="#e2e2e2"/>
    <path id="Path_91" data-name="Path 91" d="M369.983,264.621c-1.154-2.207-8.942-6.383-8.942-6.383-.69.113-8,3.712-8.816,7.662s-1.041,7.775,1.166,9.167,11.839,4.653,13.695,1.856,4.063-10.1,2.9-12.3m-6.158,10.3a12.323,12.323,0,0,1-1.706-.063l-.978-2.546.176,2.508c-.464-.025-.941-.063-1.367-.075l-.176-2.847-.514,2.8-.84-.063.213-2.772a11.753,11.753,0,0,1-2.3-4.665c-.351-2.282,4.176-3.123,4.176-3.123s4.264.9,5.029,2.471S361.932,272,361.932,272s1.806,2.809,1.894,2.922" transform="translate(463.879 269.921)" fill="#e2e2e2"/>
  </g>
</svg>
