<svg xmlns="http://www.w3.org/2000/svg" width="26.171" height="47.166" viewBox="0 0 26.171 47.166">
  <g id="Group_146" data-name="Group 146" transform="translate(-845.375 -580.147)">
    <path id="Path_128" data-name="Path 128" d="M365.6,291.827s1.28-7.345,5.9-8.068a23.775,23.775,0,0,1,8.568.278s4.619,4.452,4.451,5.621-.389,2.447-.389,2.447Z" transform="translate(480.333 296.651)" fill="#e2e2e2"/>
    <path id="Path_129" data-name="Path 129" d="M365.221,290.031c.168.043,19.643.043,19.643,0s.676,4.225.282,4.31-18.924.21-18.924.21Z" transform="translate(480.154 299.721)" fill="#e2e2e2"/>
    <path id="Path_130" data-name="Path 130" d="M367.162,294.5c.445-.112,13.744,0,13.744,0v5.174c0,.056-3.394.725-3.394.725l-10.35-.725Z" transform="translate(481.066 301.798)" fill="#e2e2e2"/>
    <path id="Path_131" data-name="Path 131" d="M369.531,299.134c-.168.056.557,13.744.557,13.744l3.619,2.671,4.282-2.671-.613-14.27Z" transform="translate(482.168 303.752)" fill="#e2e2e2"/>
    <path id="Path_132" data-name="Path 132" d="M371.756,312.933l.453,8.235,6,1.782,4.618-3.618s-.891-13.966-1.113-14.077,5.731-3.172,6.454-3.06-1.391-2.281-1.391-2.281-4.4.891-5.675,2.281-.669,15.358-.669,15.358-1.892,3-2.781,2.783a11.192,11.192,0,0,1-2.727-1.948c-.168-.112-1.336-6.844-1.5-6.956s-1.67,1.5-1.67,1.5" transform="translate(483.225 304.365)" fill="#e2e2e2"/>
    <path id="Path_133" data-name="Path 133" d="M371.837,300.691l.3-1.4,1.6.456-.175,2.062-1.424.245Z" transform="translate(483.263 304.073)" fill="#e2e2e2"/>
    <path id="Path_134" data-name="Path 134" d="M372.04,301.669l1.6-.14.594,5.315-.944,2.309-.733-1.784Z" transform="translate(483.358 305.125)" fill="#e2e2e2"/>
  </g>
</svg>
