<svg xmlns="http://www.w3.org/2000/svg" width="46.843" height="43.381" viewBox="0 0 46.843 43.381">
  <g id="Group_149" data-name="Group 149" transform="translate(-716.668 -496.573)">
    <path id="Path_113" data-name="Path 113" d="M329.752,250.195a12.424,12.424,0,0,0-.53-3.129l-25.469,1.074s.265.835.716,2.082c-1.405.252-3.9.756-3.553,1.671.464,1.206,2.678,3.991,3.977,4.084a6.043,6.043,0,0,0,1.869-.318c1.313,2.638,2.917,5.1,4.548,5.767a16.947,16.947,0,0,0,7.875.928s6.735-3.792,9.254-7.014a2.616,2.616,0,0,0,1.326,1.008c1.127.093,2.638-2.453,2.917-3.341.239-.742-1.458-2.32-2.93-2.811m-9.93,9.188c-.8.4-6.536.2-6.6.172a8.162,8.162,0,0,1-.477-.941c1.883-.119,6.125-.4,8.273-.557a5.716,5.716,0,0,1-1.193,1.326m1.75-2.095c-2.426.265-7.544.517-9.161.623-.278-.583-.517-1.114-.517-1.114l1.193.053s7.557-.57,8.565-1.286c.955-.689,2.028-1.5,2.161-1.591-.106.172-1.193,1.869-2.241,3.315" transform="translate(424.102 261.996)" fill="#e2e2e2"/>
    <path id="Path_114" data-name="Path 114" d="M310.005,260.709l6.214-.278s-2.272,3.8-3.108,3.9-3.106-3.617-3.106-3.617" transform="translate(427.075 266.351)" fill="#e2e2e2"/>
    <path id="Path_115" data-name="Path 115" d="M300.325,264.978s3.015-3.431,5.148-3.988,6.213,0,6.213,0,.046,4.684,3.015,5.054,7.1.65,7.651-1.344a9.69,9.69,0,0,0,0-4.266s6.446.139,6.539,0a20.841,20.841,0,0,1,4.545,3.9,89.738,89.738,0,0,1,5.843,9.273c-.186-.046-43.685-.464-43.685-.464Z" transform="translate(422.379 266.35)" fill="#e2e2e2"/>
    <path id="Path_116" data-name="Path 116" d="M326.69,245.811l-2.161-7.41s-15.129-1.7-18.216,0S304,246.891,304,246.891l-.085,2.006h32.812l1.7-2.006Zm-15.885,1.716s1.572-5.869,1.59-5.989-.829-.354-1.066-.219-1.826,1.826-1.826,1.826v-.9s1.657-2.554,2.148-2.673a6.885,6.885,0,0,1,2.283.8c.068.034-1.725,5.751-1.725,5.751l3.112-1.692.187.609Zm9.016-.152c-.034-.05-1.709-.456-1.692-.541s1.726-6.412,1.726-6.412l-2.632,2.475-.118-1.042.37-.495,3.191-2.291s-.811,8.355-.846,8.305" transform="translate(425.089 258.927)" fill="#e2e2e2"/>
    <path id="Path_117" data-name="Path 117" d="M306.979,256.073c-.231.115-7.114,1.922-7.114,1.922l1.354,1.962,6.607-3.268Z" transform="translate(423.771 264.931)" fill="#e2e2e2"/>
    <path id="Path_118" data-name="Path 118" d="M300.115,261.533c-.077-.384-6.076-6.884-5.461-9.192a64.67,64.67,0,0,0,1.615-8.114c-.115-.384,1.924.769,2.116,3.076a44.832,44.832,0,0,1-.577,7.27Z" transform="translate(422.058 261.048)" fill="#e2e2e2"/>
  </g>
</svg>
