<?xml version="1.0" encoding="UTF-8"?><svg id="Layer_2" xmlns="http://www.w3.org/2000/svg" width="38.68mm" height="19.51mm" viewBox="0 0 109.63 55.3"><defs><style>.cls-1{fill:#e2e2e1;}</style></defs><g id="Layer_1-2"><g><polygon class="cls-1" points="25.24 21.88 2.89 0 0 19.62 9.14 25.72 11.19 21.16 25.24 21.88"/><polygon class="cls-1" points="9.73 29.58 3.35 34.47 4.2 48.72 12.62 40.51 11.64 28.52 9.73 29.58"/><path class="cls-1" d="m13.7,25.72l.96,21.87,75.25-20.67-76.21-1.2Zm17.52,13.94h-14.05l5.87-11.15h10.5l-9.11,8.15h9.11l-2.32,3Z"/><path class="cls-1" d="m100.74,25.72L26.69,47.6l74.29,7.7,8.66-25.72-8.9-3.85Zm-28.76,12.89l-9.73,3.51,1.24,2.78,3.09-.93.93,1.54-2.62.46,2.16,4.17h-7.26v-2.56l-2.01-7.09,14.2-3.85v1.96Zm24.7,14.01l-12.97-2.47v-14.36l10.96-5.09,1.39,2.16-10.19,5.75.62,7.37,10.81,4.17-.62,2.47Z"/></g></g></svg>