<?xml version="1.0" encoding="UTF-8"?><svg id="Layer_2" xmlns="http://www.w3.org/2000/svg" width="17.56mm" height="52.16mm" viewBox="0 0 49.76 147.85"><defs><style>.cls-1{fill:#e2e2e1;}</style></defs><g id="Layer_1-2"><g><polygon class="cls-1" points="30.22 83.37 0 0 27.05 0 30.22 83.37"/><polygon class="cls-1" points="46.41 13.2 32.87 99.77 32.87 78.29 30.22 11 46.41 13.2"/><g><path class="cls-1" d="m19.15,102.33l-11.57,35.79,42.19,9.73v-48.07l-30.62,2.55Zm4.81,34.98l-7.82-9.29,1.76-4.21,6.07,7.72-2.55-11.04,2.55-3.01,2.72,18.32-2.72,1.51Zm4.71-18.07l3.78-1.76,2.76,3.89-6.55,3.89v-6.02Zm5.54,18.07l-3.01-9.92,2.64-2.13,2.64,10.79-2.28,1.26Zm8.28-21.84v11.92l-7.28-18.95,11.2-1.76-3.92,8.79Z"/><polygon class="cls-1" points="39.73 113.71 40.81 109.44 38.32 110.45 39.73 113.71"/></g></g></g></svg>