<svg xmlns="http://www.w3.org/2000/svg" width="29.762" height="59.836" viewBox="0 0 29.762 59.836">
  <path id="Path_171" data-name="Path 171" d="M4.085,62.566c-1.8.046,26.656,1.908,26.656,1.908L21.583,27.62,15.86,24.19,13.407,4.639,7.193,7.28V26.361L.979,33.881S5.884,62.521,4.085,62.566M19.168,41.745l1.817,2.978.948-2.415-.643,2.915L24.7,50.809l-.716.92-2.935-5.41-.753,3.414-1.075-.512,1.429-3.64L18.707,42Zm-6.35-.614,1.56,3.516c.561-.972,1.043-1.786,1.1-1.826l.379.563L14.812,45.62l2.871,6.469H16.76L14.6,46.076l-1.114,2.377-1.024-.434s.915-1.624,1.737-3.057ZM6.365,42.308l2.36,3.844,1.019-3.844-.7,4.358,3.111,5.064L8.979,47.058,7.9,53.728l-1.075-.41,1.8-6.781L5.751,42.308Z" transform="translate(-0.979 -4.639)" fill="#fc07b3"/>
</svg>
