<svg xmlns="http://www.w3.org/2000/svg" width="51.219" height="42.867" viewBox="0 0 51.219 42.867">
  <g id="Group_111" data-name="Group 111" transform="translate(-185.604 -351.109)">
    <path id="Path_139" data-name="Path 139" d="M5.324,168.57c.837-.419,43.05,0,43.05,0v4.923H5.324Z" transform="translate(184.048 201.942)" fill="#fc07b3"/>
    <path id="Path_140" data-name="Path 140" d="M3.257,177.291c.312-.838,5.025-4.61,5.025-4.61H50.915l3.562,4.61s-6.81-1.467-7.646,0-1.99,3.875-4.5,4.085-7.648-1.885-8.275-2.933-5.658-.419-6.391-.419a4.278,4.278,0,0,0-3.981,1.362c-1.675,1.781-7.331,3.277-9.112,2.005a9.652,9.652,0,0,1-3.039-4.118c0-.3-6.6,1.589-7.018,1.589s-1.254-1.571-1.254-1.571" transform="translate(182.347 205.477)" fill="#fc07b3"/>
    <path id="Path_141" data-name="Path 141" d="M5.324,178.131s5.76,2.025,7.856,2.967,8.17-.348,9.114-1.484a9.6,9.6,0,0,1,5.758-2.391,11.021,11.021,0,0,1,5.342,2.1c1.467,1.148,9.743,1.987,11,.835a26.024,26.024,0,0,1,3.981-2.619s-1.256,3.771-2.514,4.923-6.285,2.306-6.285,2.306-28.178-.414-28.6-.468-2.723.4-5.654-6.166" transform="translate(184.048 209.21)" fill="#fc07b3"/>
    <path id="Path_142" data-name="Path 142" d="M48.057,165.85c-.829-1.362-9.121-6.494-11.793-7.543s-21.19,0-21.19,0-9.95,7.123-10.687,9.218,3.316,4.819,4.054,5.342l.643,1.467s37.314,0,38.972-1.467.829-5.656,0-7.018m-35.378,2.723c-.461.21-1.475-1.048-1.475-2.484l2.579.6s-.645,1.675-1.1,1.885m4.145-4.191c-.461.21-1.475-1.046-1.475-2.484l2.581.6s-.645,1.675-1.106,1.885m2.027,5.445c-.461.21-1.475-1.048-1.475-2.484l2.581.6s-.645,1.677-1.106,1.887m5.528-2.936c-.461.21-1.475-1.048-1.475-2.484l2.579.6s-.643,1.675-1.1,1.885m0-3.762c-.461.21-1.475-1.046-1.475-2.484l2.579.6s-.643,1.675-1.1,1.885m4.79,7.953c-.461.21-1.475-1.048-1.475-2.486l2.581.6s-.645,1.677-1.106,1.887m.922-6.7c-.461.21-1.475-1.046-1.475-2.484l2.579.6s-.645,1.675-1.1,1.885m4.329,4.191c-.459.21-1.473-1.048-1.473-2.484l2.579.6s-.645,1.675-1.106,1.885m1.291-4.191c-.461.21-1.475-1.046-1.475-2.484l2.579.6s-.643,1.675-1.1,1.885m2.579,7.953c-.461.21-1.475-1.048-1.475-2.486l2.581.6s-.645,1.677-1.106,1.887m3.87-4.191c-.461.21-1.475-1.048-1.475-2.484l2.581.6s-.645,1.675-1.106,1.885" transform="translate(183.204 193.268)" fill="#fc07b3"/>
  </g>
</svg>
