<svg xmlns="http://www.w3.org/2000/svg" width="88.296" height="49.049" viewBox="0 0 88.296 49.049">
  <g id="Group_103" data-name="Group 103" transform="translate(-729.122 -345.801)">
    <path id="Path_103" data-name="Path 103" d="M301.442,171.917l4.725-6.2,1.161,1.471-2.4,7.745,6.505-4.608v2.749l-8.984,5.578,1.7-7.435-2.246,2.322Z" transform="translate(427.68 199.751)" fill="#e2e2e2"/>
    <path id="Path_104" data-name="Path 104" d="M305.861,166.9l3.131-4.107.769.975L308.17,168.9l4.313-3.053v1.823l-5.955,3.695,1.13-4.927-1.489,1.538Z" transform="translate(431.315 197.339)" fill="#e2e2e2"/>
    <path id="Path_105" data-name="Path 105" d="M306.753,161.125l4.725-6.2,1.161,1.471-2.4,7.745,6.505-4.608v2.749l-8.984,5.578,1.7-7.435-2.246,2.322Z" transform="translate(432.049 190.872)" fill="#e2e2e2"/>
    <path id="Path_106" data-name="Path 106" d="M323.02,173.935c.139.341.281.682.439,1.021q.107-.623.219-1.267Z" transform="translate(445.433 206.306)" fill="#e2e2e2"/>
    <path id="Path_107" data-name="Path 107" d="M324.87,175.739c-.392,1.216-.775,2.415-1.136,3.549a16.736,16.736,0,0,0,2.175,2.953c4.98,5.332,15.526-.383,21.508-5.6-2.632-1.994-5.556-4.2-8.277-6.256Z" transform="translate(446.021 203.591)" fill="#e2e2e2"/>
    <path id="Path_108" data-name="Path 108" d="M340.28,177.417c3.166-3.066,1.846-5.169-1.052-8.64l-6.088,2.284Z" transform="translate(453.759 202.265)" fill="#e2e2e2"/>
    <path id="Path_109" data-name="Path 109" d="M326.817,166.171a11.565,11.565,0,0,0-4.278,3.751c-.545.851-.62,3.888.275,7.362l2.185-.848c.634-3.616,1.292-7.326,1.817-10.266" transform="translate(444.704 200.121)" fill="#e2e2e2"/>
    <path id="Path_110" data-name="Path 110" d="M341.637,169.387a17.822,17.822,0,0,1-1.187-1.784c-.95-1.662-3.7-2.71-7.351-2.8a22.657,22.657,0,0,0-5.5.56l7.409,6.591Z" transform="translate(449.205 198.988)" fill="#e2e2e2"/>
    <path id="Path_111" data-name="Path 111" d="M325.013,175.38l10.1-3.908c-3.877-2.926-6.813-5.1-6.945-5.135a94.912,94.912,0,0,0-3.152,9.043" transform="translate(447.073 200.258)" fill="#e2e2e2"/>
    <path id="Path_112" data-name="Path 112" d="M366.6,164.562l-43.673.693v-1.7l12.085-3.281-12.085-3.153v-.091s-1.7-.4-1.476-.31c.164.055-.4,5.322-.547,8.567l-7.2.109-5.341,34.778,1.239,1.4,5.5-32.153s8.439,30.294,8.439,30.6c0,0,59.95,2.315,60.479,2.479.547.146-17.425-37.95-17.425-37.95m-5.049,24.753c-5.322,4.684-12.085,8.348-17.662,8.348a8.967,8.967,0,0,1-6.835-2.771,20.4,20.4,0,0,1-1.476-1.841c-.857,2.734-1.458,4.648-1.458,4.648-.055-.146.31-2.37.838-5.541a23.955,23.955,0,0,1-1.8-3.536l-6.088,2.278v-3.1l5.14-1.987c-1.094-4.047-1-7.765-.073-9.2a14.416,14.416,0,0,1,6.453-5.158c.365-1.987.583-3.226.583-3.226l2.424,2.151a25.4,25.4,0,0,1,7.382-.966c4.448.109,7.747,1.513,9.077,3.828a20.152,20.152,0,0,0,1.385,2.041l3.026-1.185,2.406,2.643-3.226,1.2c2.534,3.08,4.757,6.562.547,10.754l6,5.359c-.875-.656-3.354-2.552-6.471-4.9a1.393,1.393,0,0,1-.164.164" transform="translate(433.376 192.337)" fill="#e2e2e2"/>
  </g>
</svg>
