<svg id="Group_215" data-name="Group 215" xmlns="http://www.w3.org/2000/svg" width="76.844" height="62.779" viewBox="0 0 76.844 62.779">
  <path id="Path_173" data-name="Path 173" d="M80.542,61.863l-5.377,3.575,6.913,6.151,3.456-3.93Z" transform="translate(-12.939 -10.649)" fill="#2ffe04"/>
  <path id="Path_174" data-name="Path 174" d="M23.959,67.66l6.913,6.151,3.457-3.929-4.994-5.8Z" transform="translate(-4.124 -11.032)" fill="#2ffe04"/>
  <path id="Path_175" data-name="Path 175" d="M34.713,16.789h1.555V43.226l-4.385.868Zm-9.693.839,4.386-.868L26.578,44.066H25.02Zm24.608-1.252h1.357V40.471l-3.817.79Zm14.793,0h1.21V38.345l-3.4.724ZM41.2,17.144l3.816-.793-2.46,24.885H41.2ZM56.9,17.071l3.4-.72-2.2,22.693H56.9ZM0,0,16.8,4.623l2.72,6.966-2.72-.028,3.455,37.76,49.639-8.086L76.844,12.2,22.6,11.624,19.836,1.474Z" fill="#2ffe04"/>
</svg>
