<svg xmlns="http://www.w3.org/2000/svg" width="22.478" height="71.467" viewBox="0 0 22.478 71.467">
  <g id="Group_123" data-name="Group 123" transform="translate(-179.667 -489.266)">
    <path id="Path_135" data-name="Path 135" d="M4.943,240.687S3.419,237,3.66,236.121s3.365-2.484,3.365-2.484l6.649,4.406s-.642,3.206-.879,3.206-7.852-.561-7.852-.561" transform="translate(182.657 255.629)" fill="#fc07b3"/>
    <path id="Path_136" data-name="Path 136" d="M4.988,238.164h6.73s1.843,5.689,1.522,7.131-1.2,7.211-1.2,7.211l-6.168-.4s-2.4-8.332-2.484-9.934,1.6-4.006,1.6-4.006" transform="translate(182.451 259.353)" fill="#fc07b3"/>
    <path id="Path_137" data-name="Path 137" d="M6.166,247.867l8.335,1.362,3.766-.68,3.605,3.325s1.362,3.926,0,4.807-5.208,0-5.208,0l-.6-2.964,1.4-.882s-11.857-.961-13.138-.961S0,249.63,0,247.466s.16-3.044,1.682-3.525,4.322.4,4.484.8a5.107,5.107,0,0,1-1.039,2.723c-.321.08,1.039.4,1.039.4" transform="translate(179.667 263.991)" fill="#fc07b3"/>
    <path id="Path_138" data-name="Path 138" d="M8.787,249.18,7.911,287.2V249.127c-1.684-.1-3.241-.182-3.2-.146l-.882,31.406,4.528,12.1L12,283.112v-33.73s-1.544-.1-3.21-.2" transform="translate(182.814 268.246)" fill="#fc07b3"/>
  </g>
</svg>
