<svg xmlns="http://www.w3.org/2000/svg" width="59.391" height="47.866" viewBox="0 0 59.391 47.866">
  <g id="Group_139" data-name="Group 139" transform="translate(-804.263 -515.041)">
    <path id="Path_83" data-name="Path 83" d="M363.978,264.657a23.038,23.038,0,0,0-5.4,4.393h-9.788v-8.786l4.721-.565v-7.692l-9.278-1.185v-3.044h19.576l-8.093,4.229v7.419l9.77-1.185s1.531,4.721-1.513,6.416" transform="translate(462.89 267.263)" fill="#f2fe04"/>
    <path id="Path_84" data-name="Path 84" d="M374.923,259.535l3.992.4v9.114s-9.442,1.167-9.788,0c-.328-1.185-6.07-3.554-7.255-4.557-1.167-1.021,0-6.252,0-6.252l10.463,1.039-.674-5.76-5.906-2.862v-2.88l17.389.838-8.695,3.718Z" transform="translate(476.972 267.263)" fill="#f2fe04"/>
    <path id="Path_85" data-name="Path 85" d="M368.023,261.387l14,1.351v11.81l-7.761,1.351v5.9s6.411,2.506,6.411,2.6-13.665,0-13.665,0L371.9,281.3s.337-6.412-.169-6.412-4.723.17-4.723.17,2.873-10.623,1.012-13.667" transform="translate(481.627 278.46)" fill="#f2fe04"/>
    <path id="Path_86" data-name="Path 86" d="M357.007,262.231s-4.725,9.449-2.025,12.149-3.037,0-3.037,0v6.748l5.062,1.688L346.884,284.4l3.206-4.121-.844-6.073-6.58.337v-13.16Z" transform="translate(461.597 278.46)" fill="#f2fe04"/>
    <path id="Path_87" data-name="Path 87" d="M357.995,265.05c-.758.707-1.312,2.273-.758,2.778s1.768.91,2.273,0-1.515-2.778-1.515-2.778" transform="translate(473.4 281.474)" fill="#f2fe04"/>
    <path id="Path_88" data-name="Path 88" d="M360.91,264.775c-1.32-.131-1.666,2.627-1.112,3.131s2.073.807,2.375.253,0-3.183,0-3.183-.758-.151-1.263-.2" transform="translate(475.484 281.244)" fill="#f2fe04"/>
    <path id="Path_89" data-name="Path 89" d="M359.231,267.017s-1.1,1.363-.778,1.819.778-1.819.778-1.819" transform="translate(474.537 283.092)" fill="#f2fe04"/>
    <path id="Path_90" data-name="Path 90" d="M359.089,266.793a15.151,15.151,0,0,1,.277,2.532s1.112.1.961-.5a9.8,9.8,0,0,0-1.238-2.027" transform="translate(475.109 282.908)" fill="#f2fe04"/>
    <path id="Path_91" data-name="Path 91" d="M378.3,267.516c-1.677-3.208-13-9.278-13-9.278-1,.164-11.629,5.4-12.814,11.137s-1.513,11.3,1.7,13.324c3.19,2.023,17.207,6.762,19.9,2.7,2.7-4.047,5.906-14.673,4.211-17.881m-8.95,14.965a17.91,17.91,0,0,1-2.479-.091l-1.422-3.7.255,3.646c-.674-.036-1.367-.091-1.987-.109l-.255-4.138-.747,4.065-1.221-.091.31-4.028s-2.825-3.445-3.336-6.781c-.51-3.317,6.07-4.539,6.07-4.539s6.2,1.312,7.309,3.591-5.25,7.929-5.25,7.929,2.625,4.083,2.752,4.247" transform="translate(468.986 275.869)" fill="#f2fe04"/>
  </g>
</svg>
