<svg xmlns="http://www.w3.org/2000/svg" width="66.366" height="46.9" viewBox="0 0 66.366 46.9">
  <g id="Group_130" data-name="Group 130" transform="translate(-208.589 -689.333)">
    <path id="Path_152" data-name="Path 152" d="M31.2,352.938s-.787-6.093-3.58-5.9-3.268,3.671-2.714,4.845,6.826,11.983,6.826,11.983,8.718-10.33,8.782-13.59-.793-7.207-2.669-6.855-6.646,9.518-6.646,9.518" transform="translate(199.992 345.935)" fill="#f2fe04"/>
    <path id="Path_153" data-name="Path 153" d="M68.545,353.454l-11.1,6.981,1.075.948,9.114-5.669c-2.789,6.562-9.788,32.3-9.788,32.3S43.9,381.451,35.7,375.837l-14.673,9.114c1.531.419,4.52,1.258,4.52,1.331s-9.679,1.768-9.679,1.768,3.591-6.525,3.682-6.671l.456,2.57,14.382-9.041q-1.2-.875-2.133-1.7c-6.762-5.96-6.453-18.574-3.536-20.962.747-.62,2.515-.219,4.7.711A62.373,62.373,0,0,0,38.8,364.408s2.351-2.989,4.484-6.124c3.573,2.151,6.38,3.919,6.434,3.554,1.823-14.181,8.676-15.238,13.142-15.676,4.01-.4,6.926,2.953,5.687,7.291" transform="translate(192.722 348.183)" fill="#f2fe04"/>
    <path id="Path_154" data-name="Path 154" d="M55.094,349.658l-1.513.93c1.221.2,3.1.474,3.245.474a6.859,6.859,0,0,1-.182.966s-2.406-.674-3.718-1.021l-1.969,1.2-.766.492-5.924,3.664a6.677,6.677,0,0,1,.328-.711,9.532,9.532,0,0,0,.583-1.549l3.536-2.224a47.446,47.446,0,0,1,1.75-4.593l.82.6L49.972,351.1l1.987-1.239.82-3.518H53.8l-.893,2.916,1.6-1,1.094-2.916.711.365s-.437,1.057-.8,1.914l.583-.365.6,1.4-.857.529,3.026-.109-.292,1Z" transform="translate(216.088 347.531)" fill="#f2fe04"/>
  </g>
</svg>
