<svg xmlns="http://www.w3.org/2000/svg" width="60.644" height="67.673" viewBox="0 0 60.644 67.673">
  <g id="Group_106" data-name="Group 106" transform="translate(-663.889 -326.773)">
    <path id="Path_96" data-name="Path 96" d="M282.636,172H269.078s6.81,3.687,6.779,6.347-4.395,4.894-4.395,4.894l8.62-3.83,4.043-4.045Z" transform="translate(401.052 204.914)" fill="#111010"/>
    <path id="Path_97" data-name="Path 97" d="M281.391,173.325l7.023-.532s3.192,8.512,2.873,8.3-10.109-3.086-11.279-.427-1.916,4.3-1.916,4.3Z" transform="translate(408.468 205.569)" fill="#111010"/>
    <path id="Path_98" data-name="Path 98" d="M287.4,172.447c-.319-.357,16.387-.889,16.068-1s-9.363,4.043-8.033,7.555,2.393,5.64,2.393,5.64l-11.385-8.193Z" transform="translate(415.338 204.464)" fill="#111010"/>
    <path id="Path_99" data-name="Path 99" d="M269.7,172.385l5.321,4.894-4.683,6.066s-4.469,2.98-4.681-1.383,4.043-9.577,4.043-9.577" transform="translate(398.235 205.234)" fill="#111010"/>
    <path id="Path_100" data-name="Path 100" d="M285.686,176.716s-6.141,1.114-6.248,4.057,1.141,4.54,3.124,4.859,7.092-4.278,7.092-3.9-3.481-3.148-3.726-4.085Z" transform="translate(409.571 208.797)" fill="#111010"/>
    <path id="Path_101" data-name="Path 101" d="M298.038,172c-.536.175-5.751,3.724-4.9,5.621s.762,5.514,2.4,5.62a52.06,52.06,0,0,0,6.961-.851s2.129-2.614.851-4.765S298.038,172,298.038,172" transform="translate(420.771 204.914)" fill="#111010"/>
    <path id="Path_102" data-name="Path 102" d="M301.374,178.083c4.885-3.828,5.96-17.754,4.994-14.892-.638,1.9-5.359,4.047-8.494,5.268a61.747,61.747,0,0,0,1.258-6.325c1.75-11.356-14.218-17.3-15.184-17.644,5.614,4.192,4.539,20.506,1.039,18.392-3.518-2.133-4.265-10.226-4.265-10.226s-1.385.219-3.08,10.226a13.684,13.684,0,0,0,.4,6.781c-4.575-2.242-10.5-3.828-8.6-1.786,2.88,3.08.109,8.84,5.541,18.519s14.254,7.874,14.582,8.093c0,0,4.994,1.476,13.288-5.122,8.312-6.6,8.512-16.7,8.512-16.7s-14.892,9.26-9.989,5.414m-4.3,3.463c-.182-.237-.346-.492-.529-.747-.766-1.075-1.586-2.206-2.388-3.336l1.513-.474,2.06-.638a16.559,16.559,0,0,1-.656,5.195m-.273-7.492a1.226,1.226,0,0,1,.255.273c-.966.346-2.114.766-3.372,1.221-.219.073-.456.164-.711.255-.219-.31-.437-.62-.656-.911-.766-1.075-1.476-2.078-2.114-2.971,1.969.273,5.013.893,6.6,2.133m-8.421-2.351,2.042,2.5c.474.583,1.021,1.258,1.586,1.969-1.549.547-3.208,1.148-4.794,1.732l.747-3.955Zm-1.476.346c-.128.6-.255,1.258-.383,1.932-.292,1.422-.6,2.971-.911,4.5-1.239.456-2.442.875-3.481,1.258-.638.237-1.221.456-1.732.656-3.336-5.049,3.39-7.51,6.507-8.348m-5.687,9.442,1.713-.529,2.315-.729c-.182.875-.365,1.732-.529,2.515-.128.656-.255,1.258-.383,1.823a18.418,18.418,0,0,1-3.117-3.08m13.671,5.541c-1.075,1.586-5.177,1.075-9.132-1.476l.346-1.877.747-3.937,6.453-2.005c.966,1.185,1.969,2.406,2.935,3.573.219.292.456.565.674.82a19.626,19.626,0,0,1-2.023,4.9" transform="translate(401.051 182.283)" fill="#111010"/>
  </g>
</svg>
