<svg xmlns="http://www.w3.org/2000/svg" width="72.102" height="69.038" viewBox="0 0 72.102 69.038">
  <g id="Group_118" data-name="Group 118" transform="translate(-214.402 -485.431)">
    <path id="Path_157" data-name="Path 157" d="M25.716,244.3l-4.048,6.852.312,2.413,4.2-8.02Z" transform="translate(197.495 264.404)" fill="#f2fe04"/>
    <path id="Path_158" data-name="Path 158" d="M48.365,241.063l2.958-1.245,9.265,3.192-1.167,1.323Z" transform="translate(219.46 260.714)" fill="#f2fe04"/>
    <path id="Path_159" data-name="Path 159" d="M52.848,249.664c-1.478.521-3.523,1.728-2.871,2.995s2.74,3.224,3.784,2.442,3.306-1.343,2.827-2.628-3.74-2.809-3.74-2.809" transform="translate(220.684 268.815)" fill="#f2fe04"/>
    <path id="Path_160" data-name="Path 160" d="M27.98,252.337c-1.478.521-3.523,1.728-2.871,2.995s2.74,3.224,3.784,2.443,3.306-1.343,2.827-2.628-3.74-2.809-3.74-2.809" transform="translate(200.224 271.014)" fill="#f2fe04"/>
    <path id="Path_161" data-name="Path 161" d="M85.488,251.893l-19.175-3.627L57.272,249.8l-.365-1.531-3.882.547-4.684-8.257,5.687-7.473-1.95-1.549s-6.854,6.617-5.523,8.877c.966,1.659,2.953,6.38,3.937,8.767l-2.935.419-.6,1.8c-5.651,1.057-17.116,3.682-17.116,3.682s-11.611,24.7-10.736,28.326c.857,3.646,5.085,16.715,5.942,17.152.875.437,13.671-13.379,14.108-17.152a8.409,8.409,0,0,1,3.481-5.705S64,272.964,64.143,272.527s8.567,5.5,8.567,5.45c.018,0,2.461,9.077,2.461,9.515s3.062,2.133,3.062,2.133,13.069-8.676,12.923-15.348c-.146-6.69-5.669-22.383-5.669-22.383M34.05,276.755c-.857.529-5.3-1.641-6.033-2.825-.747-1.167,4.028-5.778,4.028-5.778s6.234,1.859,6.525,3.39c.31,1.513-3.646,4.7-4.52,5.213M35.143,263.1l1.112,2.552H32.883l.383-2.552L29.857,264.4v-2.515l3.409-.164.474-2.752,2.169-.328-1.276,2.752s3.536-1.2,3.627-1.2a17.244,17.244,0,0,1,.328,2.133Zm9,2.825v-2.953l4.047-1.094.51,1.877Zm16.04-3.573-5.778-.474-.383-1.659,6.161-.784Zm15.876-9.715a18.022,18.022,0,0,1,1.987.857c.729.383-.036,1.312-.4,1.95s-2.023-.273-2.716-.693,1.039-2.133,1.13-2.114M68.518,257.2c-.346.638-2.005-.273-2.7-.693s1.021-2.133,1.112-2.114a18.014,18.014,0,0,1,1.987.857c.747.383-.036,1.312-.4,1.95m2.114-5.6a16.33,16.33,0,0,1,2.005.838c.729.383-.036,1.331-.4,1.95-.365.638-2.023-.273-2.716-.693s1.021-2.133,1.112-2.1m1.659,4.63s1.258.456,2.005.839c.729.4-.055,1.331-.4,1.969-.365.62-2.023-.273-2.716-.693s1.021-2.151,1.112-2.114m13.087,10.736c-.565,2.005-5.523,4.7-7.747,5.049-2.206.346-3.955-2.3-4.867-3.864s3.044-4.7,5.833-5.049c0,0,7.346,1.877,6.781,3.864" transform="translate(195.346 253.898)" fill="#f2fe04"/>
  </g>
</svg>
