<svg xmlns="http://www.w3.org/2000/svg" width="69.952" height="61.977" viewBox="0 0 69.952 61.977">
  <g id="Group_155" data-name="Group 155" transform="translate(749.531 -1759.771)">
    <path id="Path_54" data-name="Path 54" d="M303.386,287.441c-.478-.514-1.863-3.288,0-6.686s13.7-4.273,13.7-4.273-8.168,5.589-7.318,8.328,2.386,2.082,2.386,2.082-4.6,5.042-8.767.549" transform="translate(-998.099 1483.88)" fill="#fc07b3"/>
    <path id="Path_55" data-name="Path 55" d="M294.032,289.47c-.678.826-1.4,1.7-2.12,2.585l4.347,4.365c1.177-.9,2.326-1.783,3.379-2.583Z" transform="translate(-1006.762 1494.566)" fill="#fc07b3"/>
    <path id="Path_56" data-name="Path 56" d="M299.192,295.545c2.306-1.744,3.974-2.977,4.09-2.977.408,0-6.237-5.968-6.237-5.968s-1.522,1.834-3.547,4.291c1.6,1.334,3.939,3.237,5.694,4.654" transform="translate(-1005.457 1492.205)" fill="#fc07b3"/>
    <path id="Path_57" data-name="Path 57" d="M293.137,298.624c1.207-.931,2.49-1.919,3.769-2.9l-3.85-4.561c-1.044,1.278-2.08,2.552-3.033,3.735Z" transform="translate(-1008.316 1495.958)" fill="#fc07b3"/>
    <path id="Path_58" data-name="Path 58" d="M291.71,293.279a52.069,52.069,0,0,0-3.855,5.055l.813,3.39s2.419-1.879,5.538-4.287Z" transform="translate(-1010.101 1497.699)" fill="#fc07b3"/>
    <path id="Path_59" data-name="Path 59" d="M302.115,292.184c.818-.864,1.682-1.777,2.557-2.7l-4.553-5.138c-1.383.913-2.732,1.8-3.968,2.61Z" transform="translate(-1003.275 1490.346)" fill="#fc07b3"/>
    <path id="Path_60" data-name="Path 60" d="M303.337,282.345c-1.418.942-2.925,1.943-4.426,2.936l3.981,5.319c1.26-1.336,2.508-2.67,3.66-3.91Z" transform="translate(-1001.004 1488.703)" fill="#fc07b3"/>
    <path id="Path_61" data-name="Path 61" d="M316.556,311.863l-.733-8.06-18.311,9.63-1.389-5.018,8.443-19.666c-.272-.272-5.7-6.646-8.139-5.424s-6.374,18.444-6.374,18.444-10.986-1.219-13.426,3.8-2.443,14.239,0,17.223,13.292,11.394,18.853,9.223,10.443-10.579,10.036-13.833c-.332-2.645,7.227-4.433,10.076-5.011a1.212,1.212,0,0,0,.964-1.307m-35.981,4.947-1.486-.2a12.378,12.378,0,0,1,0-1.947s1.947,1.024,2.1,1.074-.614,1.077-.614,1.077m6.76-5.838c-.257,0-4.3,4.353-4.3,4.353l-.667-1.126v-.461l4.969-4.61s.255,1.845,0,1.845" transform="translate(-1020.845 1489.381)" fill="#fc07b3"/>
    <path id="Path_62" data-name="Path 62" d="M304.822,278.344l-.569-1.108,1.035-.374v1.482Z" transform="translate(-996.608 1484.192)" fill="#fc07b3"/>
    <path id="Path_63" data-name="Path 63" d="M306.606,277.789l-.786-.74.786-.414Z" transform="translate(-995.319 1484.006)" fill="#fc07b3"/>
    <path id="Path_64" data-name="Path 64" d="M308.069,277.605l-.456-1.447h.993l-.166,1.447Z" transform="translate(-993.844 1483.613)" fill="#fc07b3"/>
    <path id="Path_65" data-name="Path 65" d="M306.71,283.578a16.7,16.7,0,0,0,.53,1.73s.828-.857.7-.946-1.486-1.868-1.486-1.868Z" transform="translate(-994.794 1488.825)" fill="#fc07b3"/>
    <path id="Path_66" data-name="Path 66" d="M301.653,295.943s17.26-5.173,17.464-5.275a27.3,27.3,0,0,1-.408,5.275c-.155.1-17.055,0-17.055,0" transform="translate(-998.748 1495.55)" fill="#fc07b3"/>
    <path id="Path_67" data-name="Path 67" d="M301.991,294.207c.153-.051,10.089,2.1,10.089,2.1l-2.918,4.457Z" transform="translate(-998.47 1498.463)" fill="#fc07b3"/>
    <path id="Path_68" data-name="Path 68" d="M301.063,295.612l1.69,5.428,3.893-2.2Z" transform="translate(-999.233 1499.619)" fill="#fc07b3"/>
    <path id="Path_69" data-name="Path 69" d="M284.357,292.794s-11.316-2.632-11.463-2.639a17.583,17.583,0,0,1,1.919-2.822c.119-.009,9.544,5.461,9.544,5.461" transform="translate(-1022.416 1492.807)" fill="#fc07b3"/>
    <path id="Path_70" data-name="Path 70" d="M281.442,292.551c-.1-.02-4.974-4.406-4.974-4.406l3.06-1.558Z" transform="translate(-1019.469 1492.193)" fill="#fc07b3"/>
    <path id="Path_71" data-name="Path 71" d="M281.11,290.991l.793-3.58-2.884-.013Z" transform="translate(-1017.37 1492.861)" fill="#fc07b3"/>
  </g>
</svg>
