<svg xmlns="http://www.w3.org/2000/svg" width="84.926" height="68.293" viewBox="0 0 84.926 68.293">
  <g id="Group_83" data-name="Group 83" transform="translate(-670.897 -63.401)">
    <path id="Path_143" data-name="Path 143" d="M278.559,45.378l.891,9.24,5.133-38s-5.494,28.787-6.024,28.758" transform="translate(408.853 77.077)" fill="#2ffe04"/>
    <path id="Path_144" data-name="Path 144" d="M278.688,12.767c-.047.288-9.36,14.061-9.187,14.445s2.027,19.172,2.027,19.172l12.446,1.626.578.075s7.182-32.664,7.045-32.923-12.858-2.685-12.909-2.4M277.694,43.2l-.8-3.833,1.712-9.369c-.009-.013.452.084.952.191l-1.752,11.407,2.012-11.35.955.208L279.22,40.555Zm4.249-14.126.924,1.161s.228,1.239-.221,1.442-1.558-.241-1.558-.241l-.046-.917.463-.2s-3.511-.833-3.9-.893a1.72,1.72,0,0,1-1.092-1.518c.1-.649.188-.906.665-.979a1.886,1.886,0,0,1,1.307.447,1.548,1.548,0,0,1-.436.767c-.1.009.292.168.292.168l2.435.793Zm-.312-2.468c-.162.417-.691,2.105-.691,2.105l-1.83-.4s-.337-2.607-.284-3.091a2.657,2.657,0,0,1,.662-1.126l2.018.31a8.56,8.56,0,0,1,.126,2.207m.7-3.259a4.72,4.72,0,0,1-.412.919c-.073-.011-2.328-.529-2.328-.529a4.833,4.833,0,0,1-.175-1.427c.115-.253,1.123-.589,1.123-.589Z" transform="translate(401.398 73.888)" fill="#2ffe04"/>
    <path id="Path_145" data-name="Path 145" d="M283.528,9.746c-.219-.055-2.844-.091-5.414-.328l-1.641-4.028c1.458-.62,2.844-1.075,2.844-1.075s-1.786-1.057-2.825-.729a5.824,5.824,0,0,0-.656.273l-.729-1.786L274.323,4s.109.2.273.565c-.31.182-.656.4-.984.62l-1.021-2.151c.128.365.437,1.185.857,2.278-1.513,1.075-2.971,2.424-2.789,3.445.146.82,2.242,1.294,4.666,1.586.875,2.37,1.8,4.83,2.461,6.617-3.281.82-6.726,1.513-6.726,1.513s3.664.036,7.2-.219c.328.838.51,1.349.51,1.349l1.969.729L279.7,18.112q.9-.082,1.7-.219c.456.893.8,1.568.948,1.859l-.766-1.877a10.365,10.365,0,0,0,2.351-.6c2.916-1.294,0-7.455-.4-7.528M273.083,8.124c-.292-.437.146-.93.875-1.44.255.693.529,1.44.82,2.224a3.04,3.04,0,0,1-1.7-.784M274.232,6.5a11.853,11.853,0,0,1,1.075-.583c.456.911,1.057,2.1,1.713,3.372-.565-.055-1.094-.146-1.586-.237Zm4.776,10.135-2.916-6.179c.529.055,1.075.109,1.6.146.966,1.914,1.987,3.919,2.843,5.6-.474.146-1,.292-1.531.437m4.593-1.877c0,.365-1.148.838-2.734,1.349l-2.224-5.432c1.914.164,3.518.255,3.919.365,1.13.31,1.039,2.5,1.039,3.718" transform="translate(402.34 65.108)" fill="#2ffe04"/>
    <path id="Path_146" data-name="Path 146" d="M301.52,30.1c-.146-.581-.4-1.05-.873-1.187-.406-.115-2.01-.2-3.91-.348l.423,1.032c1.5.171,2.962.341,4.36.5" transform="translate(423.809 86.909)" fill="#2ffe04"/>
    <path id="Path_147" data-name="Path 147" d="M346.327,25.922,329.343,6.568l-8.2-3.013-4.223,6.564s-7.2-2.333-8.25-3.031-.749-4.584-.749-4.584L296.358,0s-17.2,9.6-17.015,9.6,7.182,12.566,7.182,12.566,9.139-3.633,9.208-3.483-9.176,31.6-9.176,31.6,10.968,1.225,21.534,2.432c-.12-.323-.241-.642-.361-.962-2.411-.3-4.524-.776-4.668-1.6-.177-1.019,1.269-2.373,2.785-3.447-.57-1.526-.944-2.521-.924-2.461l1.1,2.337c.332-.23.665-.447.984-.642-.171-.334-.281-.55-.281-.55l.789-1.941.738,1.8a4.769,4.769,0,0,1,.634-.275c1.052-.323,2.823.729,2.823.729s-1.369.447-2.833,1.072l1.646,4.017c2.572.244,5.189.29,5.4.332a6.982,6.982,0,0,1,1.261,2.639c5.835.682,10.175,1.21,10.191,1.276.049.206-3.062-29.033-3.062-29.033s5.589,6.363,5.858,6.649,16.15-6.737,16.15-6.737m-45.95,15.43L295.9,44.133l1.914-6.5,10.262-12.889c0-.027.623.5,1.3,1.07L297.377,41.778l12.342-15.663c.667.567,1.283,1.1,1.283,1.1Zm12.486-10.745c-.848-.058-2.182-1.64-2.182-1.64l.68-1.433.866.073s-4.668-4.138-5.206-4.542a2.969,2.969,0,0,1-.425-3.21c.682-.906,1.026-1.225,1.815-.948a3.275,3.275,0,0,1,1.628,1.748,2.669,2.669,0,0,1-1.294.815c-.159-.067.31.5.31.5l3.066,3.2,1.794.9.463,2.53s-.665,2.074-1.515,2.014m2.6-8.56c-.589.5-2.774,2.645-2.774,2.645l-2.461-2.111s1.617-4.251,2.089-4.949a4.621,4.621,0,0,1,1.934-1.174l2.82,2.12s-1.019,2.966-1.608,3.469m2.348-3.334c-.1-.077-3.115-2.709-3.115-2.709a8.319,8.319,0,0,1,.9-2.319c.379-.293,2.195.02,2.195.02l1.4,3.941s-1.28,1.143-1.38,1.066" transform="translate(409.496 63.402)" fill="#2ffe04"/>
    <path id="Path_148" data-name="Path 148" d="M295.384,25.958c-.383.19-.744.385-1.066.585l1.192,2.532c.494.095,1.028.175,1.588.244-.654-1.287-1.245-2.444-1.713-3.361" transform="translate(421.818 84.76)" fill="#2ffe04"/>
    <path id="Path_149" data-name="Path 149" d="M293.727,27.805a3.052,3.052,0,0,0,1.7.784c-.288-.773-.569-1.524-.826-2.209-.729.5-1.154,1-.869,1.425" transform="translate(421.259 85.108)" fill="#2ffe04"/>
    <path id="Path_150" data-name="Path 150" d="M296.934,28.6c-.529-.046-1.065-.1-1.6-.155l.458.975q.831.093,1.655.19c-.171-.339-.344-.676-.514-1.01" transform="translate(422.655 86.803)" fill="#2ffe04"/>
    <path id="Path_151" data-name="Path 151" d="M305.432,34.864a10.914,10.914,0,0,1-2.333.6l.784,1.914c-.146-.292-.492-.966-.966-1.9-.547.091-1.112.164-1.713.219l1.039,2.224-1.95-.729s-.2-.529-.51-1.367c-3.536.273-7.2.237-7.2.237s3.427-.693,6.708-1.513c-.565-1.549-1.331-3.591-2.1-5.632.292.036.583.073.875.091l2.443,5.213c.529-.146,1.057-.292,1.531-.437-.693-1.367-1.513-2.989-2.333-4.575.292.036.583.055.875.091L302.37,33.7c1.6-.51,2.752-.984,2.752-1.349a11.144,11.144,0,0,0-.182-2.534c.456.055.911.109,1.349.164.583,1.859.8,4.156-.857,4.885" transform="translate(420.39 87.199)" fill="#2ffe04"/>
  </g>
</svg>
