<svg xmlns="http://www.w3.org/2000/svg" width="32.453" height="58.488" viewBox="0 0 32.453 58.488">
  <g id="Group_145" data-name="Group 145" transform="translate(-845.375 -580.147)">
    <path id="Path_128" data-name="Path 128" d="M365.6,293.827s1.588-9.108,7.315-10.005a29.482,29.482,0,0,1,10.625.345s5.727,5.521,5.519,6.97-.483,3.035-.483,3.035Z" transform="translate(480.468 296.651)" fill="#111010"/>
    <path id="Path_129" data-name="Path 129" d="M365.221,290.031c.208.053,24.357.053,24.357,0s.838,5.239.35,5.344-23.466.261-23.466.261Z" transform="translate(480.154 302.027)" fill="#111010"/>
    <path id="Path_130" data-name="Path 130" d="M367.162,294.512c.552-.139,17.043,0,17.043,0v6.416c0,.069-4.209.9-4.209.9l-12.834-.9Z" transform="translate(481.751 305.663)" fill="#111010"/>
    <path id="Path_131" data-name="Path 131" d="M369.537,299.261c-.208.069.691,17.043.691,17.043l4.488,3.312,5.31-3.312-.76-17.7Z" transform="translate(483.679 309.084)" fill="#111010"/>
    <path id="Path_132" data-name="Path 132" d="M371.756,316.058l.561,10.211,7.442,2.209,5.727-4.486s-1.1-17.318-1.38-17.456,7.107-3.934,8-3.795-1.724-2.829-1.724-2.829-5.452,1.1-7.038,2.829-.829,19.044-.829,19.044-2.346,3.726-3.449,3.451-3.175-2.278-3.381-2.415-1.657-8.487-1.863-8.625-2.071,1.863-2.071,1.863" transform="translate(485.531 310.157)" fill="#111010"/>
    <path id="Path_133" data-name="Path 133" d="M371.837,301.027l.37-1.735,1.983.565-.217,2.557-1.766.3Z" transform="translate(485.597 309.646)" fill="#111010"/>
    <path id="Path_134" data-name="Path 134" d="M372.04,301.7l1.983-.173.736,6.591-1.17,2.864-.91-2.213Z" transform="translate(485.764 311.487)" fill="#111010"/>
  </g>
</svg>
