<svg xmlns="http://www.w3.org/2000/svg" width="64.4" height="59.64" viewBox="0 0 64.4 59.64">
  <g id="Group_154" data-name="Group 154" transform="translate(-716.668 -496.573)">
    <path id="Path_113" data-name="Path 113" d="M340.572,251.368a17.082,17.082,0,0,0-.729-4.3l-35.015,1.476s.365,1.148.984,2.862c-1.932.346-5.359,1.039-4.885,2.3.638,1.659,3.682,5.486,5.468,5.614a8.307,8.307,0,0,0,2.57-.437c1.8,3.627,4.01,7.018,6.252,7.929a23.3,23.3,0,0,0,10.827,1.276s9.26-5.213,12.723-9.642a3.6,3.6,0,0,0,1.823,1.385c1.549.128,3.627-3.372,4.01-4.593.328-1.021-2.005-3.19-4.028-3.864M326.92,264c-1.094.547-8.986.273-9.077.237a11.233,11.233,0,0,1-.656-1.294c2.588-.164,8.421-.547,11.374-.766A7.858,7.858,0,0,1,326.92,264m2.406-2.88c-3.336.365-10.372.711-12.6.857-.383-.8-.711-1.531-.711-1.531l1.64.073s10.39-.784,11.775-1.768c1.312-.948,2.789-2.06,2.971-2.187-.146.237-1.641,2.57-3.08,4.557" transform="translate(427.219 266.677)" fill="#fc07b3"/>
    <path id="Path_114" data-name="Path 114" d="M310.005,260.814l8.543-.383s-3.124,5.228-4.273,5.355-4.271-4.972-4.271-4.972" transform="translate(434.725 277.674)" fill="#fc07b3"/>
    <path id="Path_115" data-name="Path 115" d="M302.1,266.683s4.145-4.717,7.078-5.483,8.541,0,8.541,0,.064,6.44,4.145,6.948,9.755.893,10.519-1.848a13.322,13.322,0,0,0,0-5.866s8.862.191,8.99,0,4.273,3,6.248,5.359a123.366,123.366,0,0,1,8.033,12.748c-.255-.064-60.058-.638-60.058-.638Z" transform="translate(422.868 277.67)" fill="#fc07b3"/>
    <path id="Path_116" data-name="Path 116" d="M335.227,248.871l-2.971-10.187s-20.8-2.335-25.043,0-3.184,11.673-3.184,11.673l-.117,2.758h45.109l2.335-2.758Zm-21.838,2.359s2.162-8.069,2.185-8.233-1.139-.487-1.466-.3-2.51,2.51-2.51,2.51v-1.232s2.278-3.511,2.953-3.675,3.046,1.048,3.139,1.094-2.371,7.907-2.371,7.907l4.278-2.326.257.837Zm12.395-.21c-.047-.069-2.349-.627-2.326-.744s2.373-8.815,2.373-8.815l-3.618,3.4-.162-1.433.509-.68,4.387-3.15s-1.115,11.487-1.163,11.418" transform="translate(429.711 258.927)" fill="#fc07b3"/>
    <path id="Path_117" data-name="Path 117" d="M309.646,256.073c-.317.159-9.781,2.643-9.781,2.643l1.861,2.7,9.083-4.493Z" transform="translate(426.382 274.088)" fill="#fc07b3"/>
    <path id="Path_118" data-name="Path 118" d="M302.178,268.047c-.106-.529-8.354-9.464-7.508-12.637s2.379-10.627,2.22-11.155,2.645,1.057,2.909,4.229-.793,9.994-.793,9.994Z" transform="translate(422.058 264.282)" fill="#fc07b3"/>
  </g>
</svg>
