<svg xmlns="http://www.w3.org/2000/svg" width="37.144" height="58.516" viewBox="0 0 37.144 58.516">
  <g id="Group_158" data-name="Group 158" transform="translate(-773.334 -575.687)">
    <path id="Path_92" data-name="Path 92" d="M362.643,308.791a33.137,33.137,0,0,0-5.408-4.231l-11.9,4.393-4.183,2.7a10.472,10.472,0,0,1,1.708-2.16l-.007.005v-9.159l1.312,8.119c2.1-1.316,8.952-3.961,12.617-4.931.031-3.394-.087-16.565-.472-18.031-.447-1.7-1.7-5.264-3.66-4.282a11.134,11.134,0,0,0-3.658,3.212c-.891.982-.447,9.371-.447,9.371s-3.748.177-3.837.445-2.231,3.392-2.231,3.392-2.765-1.34-4.551-.715-1.7,3.3-1.7,3.3-.713-8.744-1.159-9.637-4.283-5.087-5-3.748-3.3,5-3.122,5.085-1.25,26.326-1.25,26.326,6.425,13.3,6.693,13.563v1.7s23.559.087,23.827,0,7.942-23.023,6.425-24.72m-27.595,4.174,1.03-9.589s-.651,8.56-.326,9.318a9.275,9.275,0,0,0,1.843,2.06ZM340,328.87a27.377,27.377,0,0,1-1.814-5.355c-.447-2.41,3.66-7.138,3.66-7.138C338.1,321.552,340,328.87,340,328.87m.7-14.6,14.032-.585c0,.78-14.032.585-14.032.585" transform="translate(447.636 294.638)" fill="#d5001c"/>
    <path id="Path_93" data-name="Path 93" d="M330.677,311.1c-.217.108-3.088.813-3.088.813l2.492,1.245Z" transform="translate(449.192 319.363)" fill="#d5001c"/>
    <path id="Path_94" data-name="Path 94" d="M342.943,311.1l3.25,1.03-3.684,1.245Z" transform="translate(461.467 319.363)" fill="#d5001c"/>
    <path id="Path_95" data-name="Path 95" d="M355.09,310.359H329.843l-1.571,5.093H355.36Zm-19.613,3.414h-2.546l1.735-1.681s1.245-.217,1.679.651-.868,1.03-.868,1.03m5.771.7a2.788,2.788,0,0,1-.569-1.557c0-.851,1.028-.448,1.137-.448,0,0,1.247.109,1.247.955s-1.815,1.05-1.815,1.05m7.557-1.05c-.118-.157.7-1.766,1.571-1.713s1.9,2.277,1.9,2.277-2.709.445-3.467-.563" transform="translate(449.754 318.752)" fill="#d5001c"/>
  </g>
</svg>
