<svg xmlns="http://www.w3.org/2000/svg" width="25.224" height="90.249" viewBox="0 0 25.224 90.249">
  <g id="Group_82" data-name="Group 82" transform="translate(-219.811 -195.834)">
    <path id="Path_72" data-name="Path 72" d="M29.227,92.87s-6.258,7.712-7.08,10.683H46.672s-.379-4.8-6.89-10.683Z" transform="translate(197.889 139.812)" fill="#d5001c"/>
    <path id="Path_73" data-name="Path 73" d="M22.486,113.078s-.822,6.258,0,6.954,23.009,0,23.009,0,2.032-5.878,1.522-6.954-24.531,0-24.531,0" transform="translate(197.867 156.045)" fill="#d5001c"/>
    <path id="Path_74" data-name="Path 74" d="M22.389,118.4s-.822,6.258,0,6.954,23.009,0,23.009,0,2.032-5.878,1.522-6.954-24.531,0-24.531,0" transform="translate(197.787 160.422)" fill="#d5001c"/>
    <path id="Path_75" data-name="Path 75" d="M24.811,106.027c-1.6,3.241-3.43,7.174-2.457,10.021H46.372a52.676,52.676,0,0,0-1.624-9.788c-4.766-.073-15.027-.182-19.937-.233" transform="translate(197.835 150.637)" fill="#d5001c"/>
    <path id="Path_76" data-name="Path 76" d="M42.072,107.5c-.084-.139-.159-.284-.246-.417,0,0,5.435-7.08,5.246-6.89s-24.84,0-24.84,0a54.848,54.848,0,0,0,3.879,7.335c3.41.04,10.805.005,15.962-.027" transform="translate(197.958 145.83)" fill="#d5001c"/>
    <path id="Path_77" data-name="Path 77" d="M27.782,87.743,24.74,87.65v7.459h2.67c.02-1.418.095-4.44.372-7.366" transform="translate(200.022 135.518)" fill="#d5001c"/>
    <path id="Path_78" data-name="Path 78" d="M27.2,95.048h4.644l-.2-7.189L27.2,87.725Z" transform="translate(202.044 135.579)" fill="#d5001c"/>
    <path id="Path_79" data-name="Path 79" d="M30.2,87.816l.784,7.156h3.859V87.957Z" transform="translate(204.517 135.654)" fill="#d5001c"/>
    <path id="Path_80" data-name="Path 80" d="M26.674,78.1c-.662.131-5.195,9.373-2.2,11.471s4.952-1.91,4.952-1.91Z" transform="translate(198.971 127.657)" fill="#d5001c"/>
    <path id="Path_81" data-name="Path 81" d="M33.2,78.646c-.467.093-3.452,7.692-1.269,9.52S35.406,86.7,35.406,86.7Z" transform="translate(205.291 128.109)" fill="#d5001c"/>
    <path id="Path_82" data-name="Path 82" d="M30.306,72.654c.662.131,4.659,12.072,1.491,15.041S26.9,85.483,26.9,85.483Z" transform="translate(201.802 123.18)" fill="#d5001c"/>
  </g>
</svg>
