<svg xmlns="http://www.w3.org/2000/svg" width="49.018" height="56.651" viewBox="0 0 49.018 56.651">
  <g id="Group_89" data-name="Group 89" transform="translate(-724.174 -218.255)">
    <path id="Path_119" data-name="Path 119" d="M342.752,88.236l.164-.437s-2.3-1.148-3.445-1.7c-.766-.365-1.021.674-1.112,1.44l-9.2-1.44s-4.028,18.173-4.356,23.277a4.488,4.488,0,0,0,0,1v.018a.164.164,0,0,1,.018.091.064.064,0,0,1,.018.036l.055.164a.243.243,0,0,1-.073-.182v-.018a.138.138,0,0,1-.036-.073c-.091-.219-.237-.565-.419-1.021-7.929.31-22.967.456-24.243.583-1.7.182-2,4.721,0,7.2,2.023,2.479,6.052,13.634,12.96,12.7a10.264,10.264,0,0,1,1.075-.091c-3.317,2.461-8.968,6.89-9.223,8.476-.365,2.224,15.8,2.607,18.41,2.406,2.607-.182,12.814-1.476,12.923-2.607.091-.857-2.916-8.439-5.742-12.358a12.669,12.669,0,0,0,.638-1.221,33.572,33.572,0,0,0,2.953-10.244c2.9-.219,8.038-.857,9.588-4.63,2.133-5.213,4.047-20.6,4.047-20.6Zm-14.4,28.945c-.62,1.7-2.224-1.9-2.479-1.859-.273.018-1.586,7.965-.346,10.1a2.185,2.185,0,0,1-.638,3.172s-2.552-1.586-2.37-3.974a41.806,41.806,0,0,0-.529-7.947c-.182-.273-5.122.091-4.338,1.458a15.042,15.042,0,0,1,1.24,4.466,5.815,5.815,0,0,1-2.351-2.479c-.656-1.422-1.786-4.247-1.786-4.247s-5.213.091-5.486.273c-.255.182.893,3.682,0,3.39-.875-.31-2.206-3.135-2.206-3.135l-2.151-1.877h4.356l18.464-1.057s1.24,2.005.62,3.718" transform="translate(425.446 134.183)" fill="#fc07b3"/>
    <path id="Path_120" data-name="Path 120" d="M313.038,99.4a.164.164,0,0,1,.018.091.138.138,0,0,1-.036-.073Z" transform="translate(437.205 145.184)" fill="#fc07b3"/>
    <path id="Path_121" data-name="Path 121" d="M313.04,99.467v-.018a.064.064,0,0,1,.018.036l.055.164a.243.243,0,0,1-.073-.182" transform="translate(437.222 145.225)" fill="#fc07b3"/>
    <path id="Path_122" data-name="Path 122" d="M317.281,111.283a.164.164,0,0,1,.018.091.138.138,0,0,1-.036-.073c-.091-.219-.237-.565-.419-1.021-2.114-5.177-9.77-24.151-8.913-25.282.875-1.13,7.364,19.813,9.041,25.282.128.419.237.766.31.984Z" transform="translate(432.963 133.3)" fill="#fc07b3"/>
    <path id="Path_123" data-name="Path 123" d="M313.04,99.467v-.018a.064.064,0,0,1,.018.036Z" transform="translate(437.222 145.225)" fill="#fc07b3"/>
    <path id="Path_124" data-name="Path 124" d="M313.319,100.151l-.055-.164a.064.064,0,0,0-.018-.036v.018a.243.243,0,0,0,.073.182m-.091-.31a4.488,4.488,0,0,1,0-1,1.667,1.667,0,0,1-.31.018h-.128c.182.456.328.8.419,1.021a.138.138,0,0,0,.036.073.164.164,0,0,0-.018-.091Z" transform="translate(437.016 144.723)" fill="#fc07b3"/>
    <path id="Path_125" data-name="Path 125" d="M308.5,99.094s-.933-8.479-2.987-8.689,2.987,8.689,2.987,8.689" transform="translate(430.624 137.781)" fill="#fc07b3"/>
    <path id="Path_126" data-name="Path 126" d="M308.772,99.549s-1.1-4.623-3.505-4.737,3.505,4.737,3.505,4.737" transform="translate(430.351 141.408)" fill="#fc07b3"/>
    <path id="Path_127" data-name="Path 127" d="M309.036,99.64s-6.489-5.538-8.129-4.285,8.129,4.285,8.129,4.285" transform="translate(427.087 141.705)" fill="#fc07b3"/>
  </g>
</svg>
