<svg xmlns="http://www.w3.org/2000/svg" width="94.565" height="105.526" viewBox="0 0 94.565 105.526">
  <g id="Group_104" data-name="Group 104" transform="translate(0 0)">
    <path id="Path_96" data-name="Path 96" d="M290.219,172H269.078s10.619,5.75,10.571,9.9-6.853,7.632-6.853,7.632l13.441-5.972,6.3-6.307Z" transform="translate(-259.345 -93.814)" fill="#111010"/>
    <path id="Path_97" data-name="Path 97" d="M283.236,173.623l10.952-.83s4.977,13.274,4.479,12.944-15.763-4.812-17.588-.665-2.987,6.7-2.987,6.7Z" transform="translate(-242.739 -92.347)" fill="#111010"/>
    <path id="Path_98" data-name="Path 98" d="M287.933,173c-.5-.557,25.552-1.387,25.055-1.552s-14.6,6.3-12.526,11.781,3.732,8.794,3.732,8.794l-17.753-12.776Z" transform="translate(-227.357 -94.822)" fill="#111010"/>
    <path id="Path_99" data-name="Path 99" d="M271.97,172.385l8.3,7.632-7.3,9.459s-6.969,4.647-7.3-2.157,6.3-14.933,6.3-14.933" transform="translate(-265.654 -93.099)" fill="#111010"/>
    <path id="Path_100" data-name="Path 100" d="M289.185,176.716s-9.576,1.737-9.743,6.327,1.779,7.08,4.872,7.578,11.059-6.671,11.059-6.074-5.429-4.909-5.81-6.37Z" transform="translate(-240.271 -85.12)" fill="#111010"/>
    <path id="Path_101" data-name="Path 101" d="M300.831,172c-.836.273-8.967,5.807-7.64,8.766s1.188,8.6,3.746,8.763,10.855-1.327,10.855-1.327,3.32-4.076,1.327-7.43S300.831,172,300.831,172" transform="translate(-215.191 -93.814)" fill="#111010"/>
    <path id="Path_102" data-name="Path 102" d="M319.44,196.874c7.617-5.969,9.294-27.684,7.788-23.222-.995,2.956-8.356,6.31-13.245,8.214A96.241,96.241,0,0,0,315.944,172c2.729-17.708-22.17-26.974-23.676-27.514,8.754,6.537,7.077,31.976,1.62,28.679-5.486-3.325-6.651-15.945-6.651-15.945s-2.16.341-4.8,15.945a21.338,21.338,0,0,0,.625,10.573c-7.134-3.5-16.372-5.969-13.416-2.786,4.491,4.8.171,13.785,8.641,28.878s22.227,12.279,22.739,12.62c0,0,7.788,2.3,20.72-7.987,12.961-10.289,13.274-26.036,13.274-26.036s-23.222,14.439-15.576,8.442m-6.708,5.4c-.284-.37-.54-.767-.824-1.165-1.194-1.677-2.473-3.439-3.723-5.2l2.359-.739,3.212-.995a25.817,25.817,0,0,1-1.023,8.1m-.426-11.682a1.912,1.912,0,0,1,.4.426c-1.507.54-3.3,1.194-5.258,1.9-.341.114-.711.256-1.109.4-.341-.483-.682-.966-1.023-1.421-1.194-1.677-2.3-3.24-3.3-4.633,3.07.426,7.816,1.393,10.289,3.326m-13.132-3.667s1.279,1.563,3.184,3.894c.739.91,1.592,1.961,2.473,3.07-2.416.853-5,1.791-7.475,2.7l1.165-6.168Zm-2.3.54c-.2.938-.4,1.961-.6,3.013-.455,2.217-.938,4.633-1.421,7.021-1.933.711-3.809,1.364-5.429,1.961-.995.37-1.9.711-2.7,1.023-5.2-7.873,5.287-11.71,10.147-13.018M288,202.189l2.672-.824,3.61-1.137c-.284,1.364-.569,2.7-.824,3.922-.2,1.023-.4,1.961-.6,2.842a28.717,28.717,0,0,1-4.86-4.8m21.317,8.641c-1.677,2.473-8.072,1.677-14.24-2.3l.54-2.928,1.165-6.139,10.062-3.127c1.506,1.848,3.07,3.752,4.576,5.571.341.455.711.881,1.052,1.279a30.609,30.609,0,0,1-3.155,7.646" transform="translate(-259.347 -144.49)" fill="#111010"/>
  </g>
</svg>
