<svg id="Group_211" data-name="Group 211" xmlns="http://www.w3.org/2000/svg" width="96.906" height="79.17" viewBox="0 0 96.906 79.17">
  <path id="Path_173" data-name="Path 173" d="M81.945,61.863l-6.781,4.508,8.718,7.757,4.359-4.956Z" transform="translate(3.307 2.722)" fill="#111010"/>
  <path id="Path_174" data-name="Path 174" d="M23.959,68.593l8.717,7.757,4.36-4.955-6.3-7.31Z" transform="translate(1.054 2.82)" fill="#111010"/>
  <path id="Path_175" data-name="Path 175" d="M43.776,21.172h1.961V54.511l-5.53,1.1ZM31.552,22.231l5.531-1.1L33.518,55.571H31.552Zm31.033-1.579H64.3V51.037l-4.814,1Zm18.655-.005h1.525V48.356l-4.294.912Zm-29.287.973,4.813-1L53.664,52H51.953Zm19.806-.092,4.294-.908L73.284,49.237H71.758ZM0,0,21.183,5.83l3.43,8.785-3.43-.035L25.539,62.2,88.139,52l8.768-36.616-68.4-.727-3.49-12.8Z" fill="#111010"/>
</svg>
