<svg id="Group_236" data-name="Group 236" xmlns="http://www.w3.org/2000/svg" xmlns:xlink="http://www.w3.org/1999/xlink" width="84.776" height="105.009" viewBox="0 0 84.776 105.009">
  <defs>
    <clipPath id="clip-path">
      <rect id="Rectangle_146" data-name="Rectangle 146" width="84.776" height="105.009" fill="#111010"/>
    </clipPath>
  </defs>
  <g id="Group_235" data-name="Group 235" transform="translate(0 0)" clip-path="url(#clip-path)">
    <path id="Path_227" data-name="Path 227" d="M68.146,74.145,50.456,69.571s7.638-4.278,8.809-5.379c1.129-1.059,2.908-5.153,4.56-10.179a31.247,31.247,0,0,0,7.468,1.581c3.007,0,0-8.245,0-10.687,0-1.412-2.414-1.751-4.461-1.779.988-4.56,1.525-8.753,1.144-11.238L21.394,21.163a81.059,81.059,0,0,0-3.45,22.968c-2.061-.226-7.567-.551-7.468,2.485.113,3.741,4.108,8.315,4.108,8.315h2.824c.8,11.153,17.562,14.64,17.562,14.64S26.64,72.31,13.6,75.415,0,96.3,0,96.3l84.776-2ZM47.28,39.169a6.452,6.452,0,0,1,6.4,2.191c2.527,3.2-4.127,5.728-4.127,5.728s-4.379.926-5.475-3.032,3.2-4.886,3.2-4.886M27.74,44.055c-1.1-3.959,3.2-4.886,3.2-4.886a6.452,6.452,0,0,1,6.4,2.191c2.527,3.2-4.127,5.728-4.127,5.728s-4.381.926-5.475-3.032M29.3,56.021l23.377-.356s-9.51,8.276-14.6,7.82S29.3,56.021,29.3,56.021" transform="translate(0 8.714)" fill="#111010"/>
    <path id="Path_228" data-name="Path 228" d="M21.258,15.908l2.726-7.247,6.659,13.218s-.075-5.972,2.992-5.259,1.258,8.552-1.4,8.552-8.249-10.928-8.249-10.928Z" transform="translate(8.753 3.566)" fill="#111010"/>
    <path id="Path_229" data-name="Path 229" d="M43.38,14.509H56.874L50.127,28.984s-5.252,2.216-5.015-.517,4.4-2.85,4.4-2.85l3.8-7.722-9.206-.95-3.935,5.226s-4.53.476-4.426-1.187,1.6-2.97,2.216-2.852,1.578,1.34,1.578,1.34Z" transform="translate(14.717 5.974)" fill="#111010"/>
    <path id="Path_230" data-name="Path 230" d="M35.512,9.427s-2.781-1.069-2.55.713a2.679,2.679,0,0,0,2.55,2.613,1.472,1.472,0,0,0,1.379-1.823,7.052,7.052,0,0,0-1.379-1.5" transform="translate(13.567 3.751)" fill="#111010"/>
    <path id="Path_231" data-name="Path 231" d="M34.763,13.177,40.57,0l1.625.789L36.143,14.681Z" transform="translate(14.314 0)" fill="#111010"/>
  </g>
</svg>
