<svg id="Group_232" data-name="Group 232" xmlns="http://www.w3.org/2000/svg" xmlns:xlink="http://www.w3.org/1999/xlink" width="98.187" height="57.44" viewBox="0 0 98.187 57.44">
  <defs>
    <clipPath id="clip-path">
      <rect id="Rectangle_144" data-name="Rectangle 144" width="98.187" height="57.44" fill="#111010"/>
    </clipPath>
  </defs>
  <g id="Group_231" data-name="Group 231" clip-path="url(#clip-path)">
    <path id="Path_221" data-name="Path 221" d="M93.138,0,9.7,14.158,0,57.441,98.187,40.128ZM17.556,43.014V33.155l-.24-5.771-4.328,2.525V23.661L30.57,16.8l1.849,6.857L23.086,26.9,25.01,43.014Zm14.863,4.328H29.1v-10.1l3.321.962Zm0-14.668H29.1V28.721l4.328,1.188ZM44.574,44.215,38.139,45.9l-1.587-8.657,3.5-8.522,1.787,3.953-1.787,4.569.508,5.05,4.011-1.443Zm10.493-6.973-6.733-4.569.76,2.886H45.31L44.574,16.8h4.52l-1,5.29,5.05-5.29,2.4,2.645-6.454,7.574,7.9,7.334Zm10.1-3.367h5.161v3.367H61.559L57.952,23.661s3.847-4.453,6.973-4.453,5.4,6.973,5.4,6.973l-7.845.841c-.28,2.766,2.684,6.853,2.684,6.853m21.16-12.5h-6.09V36.04h-4.49V21.372l.241-2.164H71.418V16.8l3.366-2.4V7.9h5.775v8.9h5.767Z" transform="translate(0 0)" fill="#111010"/>
  </g>
</svg>
