<svg xmlns="http://www.w3.org/2000/svg" width="526.785" height="116.757" viewBox="0 0 526.785 116.757">
  <g id="Group_10" data-name="Group 10" transform="translate(566.964 -953.363)">
    <path id="Path_2" data-name="Path 2" d="M299.939,103.976h.471a14.757,14.757,0,0,0,4.021,3.638v.248a24.266,24.266,0,0,1-4.492.359l-.113-.719v-1.1l.113-1.439a.218.218,0,0,1-.248-.246h.248Zm3.144-46.923a1.017,1.017,0,0,0,.382.112v.225q-.27,0-.382.494h-.247l.135.247a1.319,1.319,0,0,1-.607.742,2.381,2.381,0,0,1-.381,1.189v.63h-.225v.089l.135.247q-.607,0-1.1,1.483h-.135v.337l.247.382v.135l-.359-.27h-.135c-.135.809-.292,1.212-.471,1.212v-.359c0-.074.044-.112.134-.112a6.07,6.07,0,0,1-.247-1.819l.113-.607a3.869,3.869,0,0,1-.113-.853.851.851,0,0,1,.113-.359c0-.09-.038-.136-.113-.136a1.011,1.011,0,0,1,.113-.359q-.114-1.324-.113-2.313v-.225h2.785a.955.955,0,0,0,.472-.112m-3.01,35.894h.09a5.341,5.341,0,0,0,.247,1.213,1,1,0,0,0-.112.494q.494.315.494,1.437l-.135.248a.937.937,0,0,1,.135.493q0,.114-.135.114a4.629,4.629,0,0,1,.472,2.065c-.18,0-.374-.4-.584-1.212v-.382q-.2,0-.606-1.82h.134l-.134-.224q.134-1.64.134-2.426m21.474-36.141h.336c.09,0,.135.038.135.112a.885.885,0,0,1,.36-.112,7.219,7.219,0,0,0,.741.112l.247-.112a.876.876,0,0,1,.337.112,16.6,16.6,0,0,1,1.707-.112,30.852,30.852,0,0,1,7.66,2.291l2.156,1.1-.113.246q1.618,0,6.806,4.605a7.348,7.348,0,0,1,2.292,2.785,9.849,9.849,0,0,0,1.347,2.9,82.181,82.181,0,0,1,.854,10.445l.112.247a1.1,1.1,0,0,0-.112.495v.246a3.911,3.911,0,0,0,.112.943q-.111,1.461-.248,1.46l.136.27a26.343,26.343,0,0,1-1.348,6.042,10.755,10.755,0,0,0-1.1,3.033,18.056,18.056,0,0,1-1.571,3.638q-3.258,4.4-4.247,4.852-4.47,2.875-5.93,3.64a5.05,5.05,0,0,1-1.953.853v.247h-.248a.1.1,0,0,1-.111-.113,22.25,22.25,0,0,1-3.281.719l-.606-.135H323.7l-.584.135v-.135a1.359,1.359,0,0,1-.629.248.1.1,0,0,1-.112-.113l-.607.113h-.854q-6.67-1.305-6.671-2.18a25.106,25.106,0,0,1-4.469-2.92,11.678,11.678,0,0,1-2.089-2.178,15.036,15.036,0,0,1-1.82-3.5q-.134,0-.584-1.348-.315,0-.629-.966a31.389,31.389,0,0,1-2.291-4.132l-.853-2.292q-.472-2.649-.472-3.033h.09c0-.089-.03-.134-.09-.134l.09-.853V83.49a17.132,17.132,0,0,1,.764-4.739V77.29a.829.829,0,0,0-.135-.471,47.159,47.159,0,0,0,.966-5.84,17.925,17.925,0,0,1,1.819-4.6q.178,0,.966-1.325,1.347-.942,1.348-1.46a58.811,58.811,0,0,1,8.715-5.817,5.217,5.217,0,0,1,1.954-.719c0-.09.037-.135.112-.135H318q3.032.022,3.032.247c.344-.045.517-.164.517-.359M301.983,92.7a40.96,40.96,0,0,0,2.313,4,1.982,1.982,0,0,0,.494,1.1v.111h-.359q-2.067-3.032-2.067-4c-.285-.643-.486-.966-.606-.966.029-.165.1-.248.225-.248M305.4,57.053v.224l-1.685,3.033a12.17,12.17,0,0,0-1.1,2.538h-.135a.218.218,0,0,1-.247-.247c.284-.389.45-.584.495-.584l-.113-.247a9.227,9.227,0,0,0,.719-1.708c.165,0,.247-.036.247-.112l-.112-.247a6.031,6.031,0,0,1,.966-1.819q0-.831.966-.831m3.863-.135a5.844,5.844,0,0,0,1.1.135l-4,3.009q0,.405-.965,1.1v-.246q1.527-3.864,2.785-3.864Zm25,49.484v.246h-.473v-.112a2.845,2.845,0,0,0,.473-.134m3.166-1.821v.248a11.137,11.137,0,0,1-2.92,1.573h-.246v-.113a10.335,10.335,0,0,0,2.313-1.326,2.208,2.208,0,0,0,.853-.382m8.737-1.571v.134q-.133,1.214-.134,1.819a12.648,12.648,0,0,1,.246,1.933v.359a.217.217,0,0,1-.246.247h-.719a.944.944,0,0,1-.495-.135c-.075,0-.111.045-.111.135l-1.685-.247-1.235.112-1.212-.112-2.18.247c0-.09-.038-.135-.112-.135a.12.12,0,0,1-.136.135v-.247a10.45,10.45,0,0,0,1.708-1.078q1.908,0,4.852-2.2.876-.967,1.459-.966m-5.1-46.586h.113l3.033.382.246-.135a11.3,11.3,0,0,0,2.674.494h.472l-.359,2.785v.742c0,.06-.038.089-.113.089l.113.247a7.562,7.562,0,0,0-.36,2.674h-.135q-.249-.045-1.078-2.292a10.1,10.1,0,0,1-1.819-2.313q-.406,0-.742-.854a14.291,14.291,0,0,1-2.045-1.819" transform="translate(-568 953.363)" fill="#db0000"/>
    <path id="Path_3" data-name="Path 3" d="M423.543,90.526a1.905,1.905,0,0,1-1.977-1.235,11.459,11.459,0,0,1-.494-3.582,26.977,26.977,0,0,0,.618-3.087c.617-9.757,1.112-19.389,1.606-29.023V45.572h-2.842a7.348,7.348,0,0,1-4.815-1.359,2.5,2.5,0,0,1-1.112-1.73,1.485,1.485,0,0,1,.247-.987,1.75,1.75,0,0,1,1.482-.865,2.985,2.985,0,0,1,1.6.495,5.778,5.778,0,0,0,3.458,1.11l2.224-.246c.123-2.223.247-4.569.247-6.916,0-6.793,0-13.585-.247-20.378a69.933,69.933,0,0,0-1.359-8.645,17.767,17.767,0,0,0-1.112-2.717,2.826,2.826,0,0,1-.369-1.359,1.709,1.709,0,0,1,.741-1.359A1.717,1.717,0,0,1,422.8,0a2.712,2.712,0,0,1,1.605.494,8.958,8.958,0,0,0,2.841,1.481c4.816,1.112,9.51,2.347,14.325,2.965l1.483.124c2.347,0,4.816-.618,7.286-.865a5.528,5.528,0,0,1,2.471.494,1.927,1.927,0,0,1,.741,1.481v.247c0,.371-.865.742-1.359.989-.371.247-.741.123-1.235.247a40.642,40.642,0,0,1-6.669.617,55.24,55.24,0,0,1-13.462-1.853c-1.606-.494-3.211-.863-5.187-1.357a86.662,86.662,0,0,1,1.853,19.389l-.247,12.6.123,4.693h2.346l14.08-1.359a2.2,2.2,0,0,1,2.346,1.852v.247c0,1.359-.987,1.853-2.593,1.977l-15.314.865-.988.247c-.124,2.222-.247,4.446-.247,6.545-.495,9.633-1.112,19.143-1.483,28.776v.988a47.969,47.969,0,0,0,.494,5.928v.5a1.9,1.9,0,0,1-1.481,2.1Z" transform="translate(-568 953.363)" fill="#db0000"/>
    <path id="Path_4" data-name="Path 4" d="M449.027,113.246h-.618a5.479,5.479,0,0,1-4.2-1.606,2.153,2.153,0,0,1-.865-1.728,2.714,2.714,0,0,1,.124-.989,11.165,11.165,0,0,0,.494-3.457c0-8.769-.247-17.661-.247-26.554v-5.68a6.736,6.736,0,0,1-2.47-.494c-.741-.371-1.606-1.236-1.606-1.853s.988-1.234,1.73-1.73a2.429,2.429,0,0,1,.987-.122h1.235V63.722a208.107,208.107,0,0,0-3.334-33.84,30.577,30.577,0,0,0-1.359-4.446l-.247-1.111a2.156,2.156,0,0,1,.865-1.729,1.966,1.966,0,0,1,1.235-.618,3.5,3.5,0,0,1,1.481.495c3.952,2.716,8.647,3.21,13.215,4.075a41.5,41.5,0,0,0,7.782.741c2.593,0,5.186-.247,7.78-.37a7.236,7.236,0,0,1,2.84.494,2.565,2.565,0,0,1,.989,1.975,2.3,2.3,0,0,1-1.483,1.112h-8.769a56.522,56.522,0,0,1-12.1-.988c-2.222-.494-4.569-1.112-6.792-1.73l-1.853-.493A238.664,238.664,0,0,1,447.3,66.933v1.976c1.606-.123,2.84-.37,4.076-.494l12.72-1.482,3.336-.618a1.773,1.773,0,0,1,1.852,1.606v.494c0,1.112-.865,1.852-2.346,1.976-1.977.123-3.952,0-5.929.247l-12.6,1.853-.988.247v8.645l.37,22.971a5.988,5.988,0,0,0,.124,1.482c.494,2.593,1.359,3.458,3.581,3.458h.865c7.163-.371,14.327-.865,21.613-1.359a2.761,2.761,0,0,0,1.728-.369,1.837,1.837,0,0,1,1.112-.247,2.274,2.274,0,0,1,1.729,1.11,2.929,2.929,0,0,1,.371,1.483l-.123.741c-.495,1.111-1.606,1.111-2.718,1.111-1.852-.124-3.7-.246-5.681-.246l-2.47.122c-6.3.371-12.6.988-18.895,1.606" transform="translate(-568 953.363)" fill="#db0000"/>
    <path id="Path_5" data-name="Path 5" d="M464.464,92.966a3.372,3.372,0,0,1-1.975-.493,2.6,2.6,0,0,1-.865-1.731,2.386,2.386,0,0,1,.371-1.234,2.637,2.637,0,0,0,.37-1.483l.74-17.537-.247-.987.124-.494c.123-.865.372-1.73.988-1.977a1.452,1.452,0,0,1,.865-.247,2.249,2.249,0,0,1,1.359.494,2.628,2.628,0,0,1,.863,1.853v.246a61.324,61.324,0,0,0-.987,13.339l.124,2.594-.124,2.716.124.989,8.4-1.235c1.234-.248,2.47-.5,3.581-.618,2.223-.371,2.346-.371,2.346-2.593l.124-2.348a69.006,69.006,0,0,1,.37-7.039c.371-2.469.989-4.94,1.606-7.41.865-2.84,1.236-4.322,1.976-7.285l1.112-4.077a5.263,5.263,0,0,0,.247-1.358v-.494h-.865c-5.187.37-10.5.617-15.808,1.111-.247,0-.371.124-.618.247a2.891,2.891,0,0,1-.988.248h-.369a2.561,2.561,0,0,1-1.853-.495,3.249,3.249,0,0,1-.865-1.975v-.371a23.725,23.725,0,0,0,1.112-7.78l-.124-3.459c0-7.534-1.729-15.191-3.087-21.984l-.741-3.457A16.988,16.988,0,0,0,459.4,9.6a1.989,1.989,0,0,1-.371-1.112,1.783,1.783,0,0,1,.247-.865,1.994,1.994,0,0,1,1.729-.864c4.817,0,8.646-1.112,13.339-2.471,1.234-.37,2.469-.74,3.7-.988A26.27,26.27,0,0,1,486.818,1.7h1.358a3.757,3.757,0,0,1,3.336,2.223A6.2,6.2,0,0,0,492.5,5.4a38.455,38.455,0,0,1,6.052,9.635l.247,1.109-.124.619a1.99,1.99,0,0,1-1.358.988h-.124a29.044,29.044,0,0,1-4.693,1.233,67.1,67.1,0,0,0-13.708,3.706c-.247.248-.618.248-.988.5h-.494a1.715,1.715,0,0,1-1.73-1.484v-.494c0-.988.741-1.234,1.483-1.481,5.187-1.236,10.5-2.593,15.56-3.953a11.806,11.806,0,0,0,2.1-.617l.371-.247-1.482-2.841-1.483-2.1L490.647,8a6.144,6.144,0,0,0-5.311-2.963,13.839,13.839,0,0,0-2.964.37L469.158,8.984l-5.311,1.359c.494,3.211,1.111,6.423,1.729,9.51,1.605,8.768,3.458,17.66,3.458,26.923l-.247,5.188h2.346l16.18-1.111a2.642,2.642,0,0,1,2.222.863,2.157,2.157,0,0,1,.494,1.483l-.123.987-1.73,6.175-2.346,9.015a37.512,37.512,0,0,0-1.112,7.164c-.247,2.717-.247,5.433-.37,8.028a13.817,13.817,0,0,0,.37,2.963l.124.989a3.573,3.573,0,0,1-.494,1.729,2.174,2.174,0,0,1-1.6.741,2.112,2.112,0,0,1-.865-.123,5.508,5.508,0,0,0-2.469-.493,23.783,23.783,0,0,0-3.089.368l-1.234.248c-1.977.246-3.953.74-5.8,1.112l-4.323.864Z" transform="translate(-568 953.363)" fill="#db0000"/>
    <path id="Path_6" data-name="Path 6" d="M496.451,116.757H496.2a3.9,3.9,0,0,1-2.1-.742,1.43,1.43,0,0,1-.741-1.357,4.406,4.406,0,0,1,.247-1.236,30.1,30.1,0,0,0,.987-3.581c2.965-11.734,4.448-23.837,5.435-35.94,1.112-13.215,2.223-26.553,3.212-39.767V31.293l-9.14.494c-3.212.247-6.546.371-9.88.371a16.679,16.679,0,0,1-3.458-.494,2.26,2.26,0,0,1-1.853-2.47l4.94-.124c1.73.124,3.336.618,5.064.618l12.721-.865c.37-.123.988-.247,1.235-.617q.927-1.484,1.852-1.483a2.658,2.658,0,0,1,1.606.741,4.184,4.184,0,0,0,2.593.742L525.1,26.847c1.235,0,2.717.988,2.717,1.729V28.7c0,.988-.988,1.482-2.594,1.482l-15.808.493-2.469.371c-.124,2.347-.371,4.57-.618,6.917-.618,8.274-1.235,16.672-1.977,25.07q-1.111,13.524-2.593,27.047c-.37,4.2-1.112,8.4-1.729,12.6-.371,2.471-1.111,4.94-1.6,7.411-.247,1.481-.247,2.964-.371,4.445,0,1.112-.494,2.1-1.606,2.224" transform="translate(-568 953.363)" fill="#db0000"/>
    <path id="Path_7" data-name="Path 7" d="M34.937,72.656q.777,0,1.552.043c.518.029,1.036.042,1.553.042q2.933-.084,2.761,2.761a79.315,79.315,0,0,0,.173,9.1,40.47,40.47,0,0,1-.346,9.1c-.057.573-.144,1.15-.258,1.725s-.26,1.15-.432,1.725q-.691,2.412-1.466,2.846T35.2,99.568a19.536,19.536,0,0,0-4.874-1.078,22.013,22.013,0,0,0-4.961.13,20.773,20.773,0,0,1-2.328.043q-1.209-.043-2.415-.043-3.192-.174-6.341-.085a34.262,34.262,0,0,0-6.34.775q-2.676.6-3.753-.258T2.933,95.341Q2.5,87.925,1.813,80.418t-.777-15.1a48.236,48.236,0,0,1,.646-7.936q.648-3.881,1.165-7.85.519-4.312.863-8.669a48.149,48.149,0,0,1,1.466-8.584,25.612,25.612,0,0,1,1.338-3.967,16.948,16.948,0,0,0,1.164-4.054,2,2,0,0,1,.949-1.424,5.062,5.062,0,0,1,1.639-.647q1.12-.172,2.242-.259t2.244-.172a2.928,2.928,0,0,1,.69.085.628.628,0,0,1,.431.26,3,3,0,0,0,1.639,1.681,4.3,4.3,0,0,0,2.027.13,13.359,13.359,0,0,1,2.114-.173,15.262,15.262,0,0,0,1.941-.128,14.667,14.667,0,0,1,1.94-.13,4.048,4.048,0,0,1,2.416.689,2.913,2.913,0,0,1,.689,2.244q-.085,5.175,0,10.307T28.3,47.035q-.26,3.45-.474,7.073a20.89,20.89,0,0,0,.818,7.161,16.17,16.17,0,0,1,.647,4.227q.044,2.155.044,4.4,0,1.811.431,2.2a4.184,4.184,0,0,0,2.329.388h1.423a11.4,11.4,0,0,0,1.424-.087ZM2.416,73.862a108.112,108.112,0,0,0,.777,11.473q.688,5.694,1.121,11.387c.056.919.374,1.467.949,1.64a3.525,3.525,0,0,0,1.9,0,29.814,29.814,0,0,1,7.031-1.035,48.041,48.041,0,0,1,7.03.343,19.018,19.018,0,0,0,3.839-.042q1.854-.216,3.752-.56a2.466,2.466,0,0,0,2.157-2.329q.171-3.193.388-6.341t.474-6.34q.26-2.587-2.243-2.5a18.584,18.584,0,0,1-3.794-.216,31.21,31.21,0,0,1-3.71-.819A5.828,5.828,0,0,1,19.367,77.1a5.005,5.005,0,0,1-.474-2.976,33.192,33.192,0,0,1,1.034-6.686,44.939,44.939,0,0,0,1.208-6.684q.431-3.8.863-7.635a69.466,69.466,0,0,0,.431-7.721,57.876,57.876,0,0,0-.475-8.625,56.916,56.916,0,0,1-.474-8.542q0-.859-.043-1.682T20.1,25.729a10.627,10.627,0,0,0-2.329.086c-.806.116-1.294.689-1.467,1.725q-.258,1.728-1.207,2.113a4.609,4.609,0,0,1-2.329.216,14.165,14.165,0,0,1-1.553-.258,3.539,3.539,0,0,0-1.553,0A8.144,8.144,0,0,0,7.894,30a1.884,1.884,0,0,0-1.165,1.595q-.259,1.209-.6,2.459A19,19,0,0,0,5.607,36.6Q5,42.808,4.055,48.976T2.589,61.354a90.711,90.711,0,0,0-.173,12.508m9.316-45.114a3.017,3.017,0,0,1,1.683-.043,1.084,1.084,0,0,0,1.337-.647,17.259,17.259,0,0,0,.732-2.158,2.961,2.961,0,0,0-.3-2.242,1.406,1.406,0,0,0-1.424-.862q-.906.087-1.767.173a3.75,3.75,0,0,0-2.718.991,4.376,4.376,0,0,0-.82,2.976c.057.806.272,1.293.647,1.466a2.259,2.259,0,0,0,1.338.13,1.741,1.741,0,0,1,1.293.216m14.493,4.917q.084-1.813.129-3.623t.043-3.623q0-1.984-2.329-1.985-1.122.087-1.381.648a3.411,3.411,0,0,0-.258,1.422q.172,1.9.3,3.711t.216,3.708q.429,6.127.431,12.293a80.239,80.239,0,0,1-.949,12.292q-.6,3.882-1.208,7.765T19.927,73.95a2.847,2.847,0,0,0,1.984,3.45,18.342,18.342,0,0,0,4.443,1.121,29.281,29.281,0,0,0,4.528.172,2.921,2.921,0,0,1,1.813.474q.6.476.431,1.856a2.671,2.671,0,0,0-.044.862c.028.346.187.519.475.519.919.056,1.84.1,2.76.128a8.269,8.269,0,0,0,2.761-.389c.286-.056.431-.343.431-.862V78.305q0-1.507-.086-2.976c0-.632-.145-1.02-.432-1.164a2.34,2.34,0,0,0-1.38-.043q-2.07.432-4.1.949a13.1,13.1,0,0,1-4.269.345A3.748,3.748,0,0,1,27,74.639,3.441,3.441,0,0,1,26.31,72.4q-.085-2.241-.085-4.443A27.407,27.407,0,0,1,26.57,63.6a16.6,16.6,0,0,0-.173-6.3,25.163,25.163,0,0,1-.6-6.21q.084-4.4.129-8.756t.3-8.669M32,93.962a13.034,13.034,0,0,0,.043,2.5,1.545,1.545,0,0,0,.906,1.164,22.385,22.385,0,0,0,2.587.992q2.589.775,3.192-1.725a18.906,18.906,0,0,0,.691-5.046,38.811,38.811,0,0,1,.344-5.133,5.779,5.779,0,0,0-.042-2.113q-.217-.991-2.027-1.078a8.355,8.355,0,0,0-3.667.3c-.661.316-1.078,1.109-1.251,2.372a34.069,34.069,0,0,0-.474,3.925q-.129,2.028-.3,3.839" transform="translate(-568 953.363)" fill="#db0000"/>
    <path id="Path_8" data-name="Path 8" d="M46.254,55.9a15.671,15.671,0,0,1,.6-8.842,63.177,63.177,0,0,1,3.709-7.893,73.893,73.893,0,0,1,4.314-6.945q2.328-3.318,4.571-6.771a22.463,22.463,0,0,1,8.713-7.936A20.564,20.564,0,0,1,79.981,15.7q1.554.087,3.107.3t3.105.388a9.714,9.714,0,0,1,5.736,2.329,11.618,11.618,0,0,1,3.235,5.434,35.269,35.269,0,0,1,1.251,6.6q.3,3.321.388,6.686.172,5.349.216,10.739a45.927,45.927,0,0,1-1.165,10.654,67.17,67.17,0,0,1-2.933,9.315,26.554,26.554,0,0,1-5.348,8.369q-.518.516-1.035,1.035a3.345,3.345,0,0,1-1.208.775,15.565,15.565,0,0,0-5.564,3.58q-2.373,2.375-4.528,4.874a11.913,11.913,0,0,1-6.125,4.1,19.216,19.216,0,0,1-7.419.389,6.547,6.547,0,0,1-4.011-1.941,31.926,31.926,0,0,1-2.8-3.407,37.987,37.987,0,0,1-4.7-8.627,28.281,28.281,0,0,1-1.856-9.833A18.2,18.2,0,0,0,47.2,61.633a15.105,15.105,0,0,1-.948-5.737m34.418,3.623q-.087-1.379-.216-2.675a18.7,18.7,0,0,0-.475-2.673,36.9,36.9,0,0,0-1.94-6.34A37.4,37.4,0,0,1,76.1,41.576q-.519-2.5-1.078-4.83T73.771,32a6.558,6.558,0,0,0-2.113-3.277,5.141,5.141,0,0,0-3.408-1.381,18.073,18.073,0,0,0-6.556,1.381A16.689,16.689,0,0,0,56.087,32.6a17.968,17.968,0,0,0-3.278,4.485q-1.294,2.5-2.761,4.917a22.131,22.131,0,0,0-3.1,9.619,26.246,26.246,0,0,0,1.294,9.964A111.427,111.427,0,0,0,53.37,74.7q2.976,6.387,5.65,12.854a3.211,3.211,0,0,0,.431.647,1.173,1.173,0,0,0,.6.389,17.937,17.937,0,0,0,7.806,0,9.9,9.9,0,0,0,6.254-4.659,48.467,48.467,0,0,0,5.391-11.645,31.984,31.984,0,0,0,1.165-12.767M52.55,79.446a12.156,12.156,0,0,0-.56-4.788,20.338,20.338,0,0,0-2.114-4.27,20.836,20.836,0,0,0,.518,4.788,10.924,10.924,0,0,0,2.156,4.27m19.668-15.7A12.26,12.26,0,0,1,72.3,68.1a27.645,27.645,0,0,1-1.121,4.616,6.51,6.51,0,0,1-3.019,3.839,11.46,11.46,0,0,1-5.435,1.6,5.147,5.147,0,0,1-3.8-1.165,9.112,9.112,0,0,1-2.243-3.322q-1.037-2.671-2.027-5.348a11.606,11.606,0,0,1-.647-5.521q.431-2.931.776-5.864A33.249,33.249,0,0,1,56,51.151a36.09,36.09,0,0,1,1.812-4.313,11.051,11.051,0,0,1,2.933-3.623,4.847,4.847,0,0,1,5-1.035A3.085,3.085,0,0,1,67.6,43.689a5.971,5.971,0,0,1,.647,2.372,23.572,23.572,0,0,0,.949,5.263q.777,2.587,1.639,5.176.518,1.638.949,3.363a16.088,16.088,0,0,1,.431,3.883M57.209,86.692a12.029,12.029,0,0,0-1.078-3.149,25.836,25.836,0,0,0-1.683-2.8q.43,1.638.906,3.191a5.954,5.954,0,0,0,1.855,2.761M71.183,63.4q-.087-1.206-.216-2.329a12.573,12.573,0,0,0-.474-2.242q-1.036-3.19-1.984-6.34a48.335,48.335,0,0,1-1.467-6.428q-.345-2.76-2.07-3.234T61.09,44.163a11.774,11.774,0,0,0-3.8,6.04q-.864,3.45-1.553,6.987-.345,1.9-.56,3.924a16.962,16.962,0,0,0,.042,4.011,22.948,22.948,0,0,0,1.165,4.659,37.133,37.133,0,0,0,1.941,4.4,5.068,5.068,0,0,0,1.208,1.767,4.013,4.013,0,0,0,1.9.993,7.931,7.931,0,0,0,8.884-5.09,24.055,24.055,0,0,0,.993-4.184,12.611,12.611,0,0,0-.13-4.27m7.85-16.389q-.087-1.295-.13-2.588a14.265,14.265,0,0,0-.3-2.5q-.69-3.191-1.38-6.3a22.237,22.237,0,0,0-2.329-6.038,8.189,8.189,0,0,0-3.623-3.58,8.669,8.669,0,0,0-4.485-.777A12.6,12.6,0,0,0,62.3,26.523a12.78,12.78,0,0,0-3.623,2.632,30.406,30.406,0,0,0,4.1-1.64,10.19,10.19,0,0,1,4.1-1.035,7.823,7.823,0,0,1,5.219,1.337A6.8,6.8,0,0,1,75.065,32q.43,2.242.906,4.485t.992,4.486q.429,1.552.733,3.106a7.1,7.1,0,0,0,1.337,2.933M59.71,26.136a5.479,5.479,0,0,0,2.113-.346q.819-.344,1.51-.6,7.331-2.759,11.3,1.984a22.209,22.209,0,0,1,3.795,7.85,40.781,40.781,0,0,1,1.25,7.247,29.822,29.822,0,0,0,1.511,7.246c.172.575.33,1.206.474,1.9a5.6,5.6,0,0,1,.043,2.069,47.635,47.635,0,0,0-.259,6.428,23.71,23.71,0,0,0,1.035,6.338,9.933,9.933,0,0,1,.3,4.919,38.446,38.446,0,0,1-1.25,4.744c-.173.516-.375,1.035-.605,1.552a2.744,2.744,0,0,0-.086,1.812,16.5,16.5,0,0,0,3.149-1.294,9.967,9.967,0,0,0,2.545-1.985,28.12,28.12,0,0,0,5.478-8.5,46,46,0,0,0,2.8-9.617,72.876,72.876,0,0,0,1.207-15.01,132.473,132.473,0,0,0-1.207-15.1,26.4,26.4,0,0,0-.863-4.227,9.4,9.4,0,0,0-2.027-3.666,7.037,7.037,0,0,0-4.011-2.113,52.928,52.928,0,0,0-8.239-1.251,28.815,28.815,0,0,0-8.41.646,13.921,13.921,0,0,0-6.383,3.322,47.354,47.354,0,0,0-5.176,5.651M76.445,82.9a19.509,19.509,0,0,0,3.623-6.513,33.867,33.867,0,0,0,1.467-7.289,47.411,47.411,0,0,1-2.243,6.987q-1.381,3.363-2.847,6.815" transform="translate(-568 953.363)" fill="#db0000"/>
    <path id="Path_9" data-name="Path 9" d="M119,101.954a20.439,20.439,0,0,1-3.709-.9,13.153,13.153,0,0,1-3.71-2.028q-2.069-1.728-4.1-3.322a14.793,14.793,0,0,1-3.493-4.009,25.919,25.919,0,0,1-2.287-5.305,24.506,24.506,0,0,1-.991-5.651v-.82a1.613,1.613,0,0,0-.173-.732,10.452,10.452,0,0,1-1.551-5.737q.084-2.978.343-5.909.258-3.191.345-6.341t.432-6.255q.43-3.534,1.164-7.03t1.338-6.943a.5.5,0,0,1,.085-.345q1.209-1.985,2.459-3.839a10.072,10.072,0,0,0,1.6-4.27,2.421,2.421,0,0,1,1.638-1.769,9.606,9.606,0,0,1,3.191-.775,3.967,3.967,0,0,1,2.675.559,3.236,3.236,0,0,1,1.423,2.071,4.3,4.3,0,0,1-.214,2.329,31.408,31.408,0,0,0-1.64,8.238q-.259,4.185-.431,8.412a50.219,50.219,0,0,1-.474,5.476q-.388,2.718-.563,5.478a49.944,49.944,0,0,0,.173,9.274,63.607,63.607,0,0,0,1.726,9.186,3.184,3.184,0,0,0,2.761,2.156,4.807,4.807,0,0,0,3.967-.862,13.936,13.936,0,0,0,4.054-5.132,22.093,22.093,0,0,0,1.726-6.254q.516-4.053.949-8.022t.517-7.938a65.444,65.444,0,0,1,.776-8.883q.69-4.4,1.813-8.713a3.162,3.162,0,0,1,1.293-2.07,6.538,6.538,0,0,1,2.157-.863q2.241-.43,2.632-.95t.043-2.76a3.775,3.775,0,0,1,2.069-4.054c.287-.173.575-.344.864-.517a5.683,5.683,0,0,1,.862-.431q3.277-1.465,4.744-.519t1.295,4.486a2.757,2.757,0,0,0,.345,1.639c.228.289.775.375,1.637.259a2.51,2.51,0,0,1,2.158.518,1.806,1.806,0,0,1,.345,1.9A53.024,53.024,0,0,0,149.839,45.8q-.045,5.952.3,11.818a61.011,61.011,0,0,1-.257,9.748q-.519,4.832-1.123,9.661-.171,1.552-.3,3.148a15.156,15.156,0,0,1-.561,3.064,5.172,5.172,0,0,1-4.14,4.227,24.068,24.068,0,0,1-2.717.517,21.068,21.068,0,0,1-2.718.172q-2.244.175-2.588,1.984a2.942,2.942,0,0,1-1.294,2.243,14.758,14.758,0,0,0-3.148,2.8q-1.338,1.593-2.545,3.321a7.888,7.888,0,0,1-3.882,2.846,16.248,16.248,0,0,1-5.866.6M101.574,53.992a20.306,20.306,0,0,0-.69,5.263q0,2.674-.085,5.348a35.535,35.535,0,0,1-.561,5.175,11.3,11.3,0,0,0,.3,5.262,59.078,59.078,0,0,0,.776-10.523q-.085-5.262.259-10.525m.259,23.2q-.691,6.816,2.027,11.388a21.091,21.091,0,0,0,8.152,7.591,10.075,10.075,0,0,0,5.09,1.337q2.586-.043,5.263-.13a10.17,10.17,0,0,0,4.916-1.683,14.9,14.9,0,0,0,4.011-3.838,11.6,11.6,0,0,0,2.114-4.744,42.341,42.341,0,0,0,.56-5.047q.129-2.544.042-5.046,0-5.52.389-10.955T135.13,55.2a3.223,3.223,0,0,1,.173-1.036q.947-4.743,2.2-9.316a52.526,52.526,0,0,1,3.321-8.886q1.119-2.069-1.207-1.725-1.383.26-2.717.517t-2.718.519a2.511,2.511,0,0,0-2.071,1.9q-1.209,4.056-2.028,8.194a43.105,43.105,0,0,0-.817,8.368q-.09,4.744-.606,9.488t-1.035,9.489a14.738,14.738,0,0,1-5.951,10.525,6.078,6.078,0,0,1-3.278,1.121,5.767,5.767,0,0,1-3.278-.777,3.948,3.948,0,0,1-1.9-2.415,68.094,68.094,0,0,1-1.9-9.618,39.1,39.1,0,0,1,0-9.7q.6-5.175.819-10.394t.821-10.4a14.627,14.627,0,0,0,.171-2.846.923.923,0,0,0-.949-.863,24.536,24.536,0,0,0-2.933,0,5.279,5.279,0,0,0-4.312,1.9,8.292,8.292,0,0,0-1.64,4.226A30.4,30.4,0,0,0,103,48.3q.042,2.415-.129,4.831-.259,6.125-.3,12.2a106.627,106.627,0,0,1-.733,11.861m5.435-42.181a1.877,1.877,0,0,0,.129,1.207,1.7,1.7,0,0,0,1.078.346,8.926,8.926,0,0,0,4.185-.389,2.322,2.322,0,0,0,1.681-2.026q.259-2.932-2.243-3.192-4.4-.431-4.83,4.054M128.66,96.348a17.907,17.907,0,0,1-4.226,1.6,29.714,29.714,0,0,1-4.228.647A31.486,31.486,0,0,1,116.2,98.5a17.7,17.7,0,0,1-4.272-.949,11.852,11.852,0,0,0,5.909,3.063,11.655,11.655,0,0,0,6.3-.431,8.278,8.278,0,0,0,4.528-3.839m7.677-37.525a108.748,108.748,0,0,0-.9,11.775q-.129,5.909-.043,11.861.258-5.867.819-11.774a70.954,70.954,0,0,0,.129-11.862M136.51,84.1q-.172,2.244.26,2.718t2.587.3c.633-.115,1.264-.216,1.9-.3s1.265-.187,1.9-.3a4.618,4.618,0,0,0,3.709-3.8,48.884,48.884,0,0,0,.862-5.693q.258-2.846.6-5.78.431-3.534.69-7.158a59.549,59.549,0,0,0,.087-7.16q-.347-5.607-.346-11.172a55.456,55.456,0,0,1,1.123-11.084q.518-2.847-2.243-2.071c-.634.231-1.265.447-1.9.647a14.176,14.176,0,0,1-1.983.476,1.329,1.329,0,0,0-1.034.862q-2.16,4.745-3.925,9.618a22.782,22.782,0,0,0-1.166,10.4q.171,2.156.3,4.312a32.4,32.4,0,0,1-.043,4.4q-.347,5.262-.517,10.48A101.944,101.944,0,0,1,136.51,84.1m8.972-54.345q.171-3.02-.906-3.71t-3.752.6a2.01,2.01,0,0,0-.517.346q-2.849,1.64-1.726,5.175.6,1.64,1.681,1.251a8.245,8.245,0,0,1,1.942-.474,5.1,5.1,0,0,0,2.717-.777,4.277,4.277,0,0,0,.561-2.415" transform="translate(-568 953.363)" fill="#db0000"/>
    <path id="Path_10" data-name="Path 10" d="M157.5,72.354a39.041,39.041,0,0,1,.518-6.34q.518-3.147.862-6.341a55.772,55.772,0,0,0,.087-11.171q-.518-5.563-1.38-11.085a31.568,31.568,0,0,1,1.293-15.612,23.042,23.042,0,0,1,2.114-4.443,40.027,40.027,0,0,0,2.373-4.53.925.925,0,0,1,.689-.559,4.178,4.178,0,0,1,1.036-.13q2.759-.085,5.52.087a28.933,28.933,0,0,1,5.435.862,9.2,9.2,0,0,0,2.242.259,48.545,48.545,0,0,1,12.336,1.208,32.7,32.7,0,0,1,11.3,5.09,37.834,37.834,0,0,0,3.838,2.241q2.025,1.035,3.925,2.244a12.4,12.4,0,0,1,5.952,7.935q1.121,4.315,2.2,8.714a26.866,26.866,0,0,1,.647,8.97,20.278,20.278,0,0,1-2.027,7.418,13.78,13.78,0,0,1-5.392,5.608q-2.33,1.382-4.658,2.846a48.82,48.82,0,0,1-4.83,2.675,12.87,12.87,0,0,0-3.71,3.062q-1.639,1.941-3.364,3.666c-.345.345-.677.705-.992,1.079a2.916,2.916,0,0,1-1.079.818,56.787,56.787,0,0,0-6.6,2.675q-3.234,1.554-6.555,2.761a25.779,25.779,0,0,1-7.031,1.466,21.994,21.994,0,0,1-6.987-.6,57.582,57.582,0,0,0-6.987-1.294,1.237,1.237,0,0,1-1.122-.949,7.129,7.129,0,0,1-.173-1.553q.173-1.725.3-3.492t.215-3.581m3.365.173a21.073,21.073,0,0,1-.087,3.235q-.173,1.769-.431,3.493-.087.6-.129,1.166c-.03.372.3.617.991.731q3.02.519,5.952,1.166a18.451,18.451,0,0,0,6.039.3,21.059,21.059,0,0,0,8.54-2.76q3.795-2.241,7.505-4.917a20.99,20.99,0,0,0,6.427-6.771A22.737,22.737,0,0,0,198.39,60.1a49.836,49.836,0,0,0,.431-8.8,29.185,29.185,0,0,0-3.537-12.854,40.582,40.582,0,0,0-8.453-10.523,25.045,25.045,0,0,0-10.912-6.04,37.284,37.284,0,0,0-12.466-.862,2.906,2.906,0,0,0-2.932,3.279q0,4.485.215,9.013a87.467,87.467,0,0,1-.043,9.1,135.7,135.7,0,0,0,.13,14.923,127.684,127.684,0,0,1,.043,15.183m9.23-52.878q2.33.344,4.658.6t4.572.691a37.3,37.3,0,0,1,10.567,3.752,17.766,17.766,0,0,1,7.548,8.065A51.566,51.566,0,0,1,202.1,47.985a46.1,46.1,0,0,1-.6,16.088,4.985,4.985,0,0,1-.344,1.121.863.863,0,0,0,.172,1.036.942.942,0,0,0,.991.13q.561-.216,1.165-.389a13.431,13.431,0,0,0,6.34-4.227,14.2,14.2,0,0,0,2.89-6.987,38.523,38.523,0,0,0-.517-14.1,52.045,52.045,0,0,0-5-13.155,11.368,11.368,0,0,0-3.579-4.315,15.755,15.755,0,0,0-5.3-2.329q-4.917-1.378-9.964-2.372a41.529,41.529,0,0,1-9.79-3.234,22.564,22.564,0,0,0-5.435-1.9,18.2,18.2,0,0,0-5.866-.259,5.623,5.623,0,0,0-3.278,1.337,5.32,5.32,0,0,0-1.121,3.322q0,1.9,1.811,1.81c.919,0,1.826.016,2.717.043s1.8.045,2.718.045m2.847,11.816a20.388,20.388,0,0,1,16.82,10.18,18.575,18.575,0,0,1,2.5,9.489,14.118,14.118,0,0,1-1.855,6.9,19.183,19.183,0,0,1-5.046,5.866,18.4,18.4,0,0,1-7.074,3.45,48.133,48.133,0,0,1-6.641,1.295,4.034,4.034,0,0,1-3.02-.6,3.978,3.978,0,0,1-.949-2.848q-.172-5.605-.3-11.214t-.3-11.215q0-1.466.043-2.931a9.377,9.377,0,0,0-.389-2.933q-.69-2.5.129-3.8t3.494-1.64a10.393,10.393,0,0,1,1.6-.042c.489.029.82.042.993.042m17.683,21.308q.519-6.9-2.545-11.344a22.938,22.938,0,0,0-7.893-7.116,14.6,14.6,0,0,0-8.8-1.812,3.925,3.925,0,0,0-2.632,1.078,3.178,3.178,0,0,0-.387,2.89,9.794,9.794,0,0,1,.258,2.2c0,.721-.03,1.482-.086,2.287a77.588,77.588,0,0,0,.259,12.119,96.351,96.351,0,0,1,.431,12.207q-.174,2.589,2.5,2.069,1.9-.258,3.8-.6a26.458,26.458,0,0,0,3.709-.948,17.555,17.555,0,0,0,7.98-5.132,14.512,14.512,0,0,0,3.407-7.893m-18.2.863a49.107,49.107,0,0,1-.216-5.521q.042-2.847-.043-5.824a21.148,21.148,0,0,0-1.035-5.909q-.347-1.119.388-1.206a11.119,11.119,0,0,1,1.251-.088,14.067,14.067,0,0,1,5.52.734,9.808,9.808,0,0,1,4.486,3.32q3.106,3.885,2.976,7.118t-3.148,7.2a13.274,13.274,0,0,1-3.192,3.149,20.147,20.147,0,0,1-3.968,2.113q-2.157.863-2.717.474t-.475-2.632q0-.516.044-1.163c.028-.432.071-1.02.129-1.768m2.933-17.167a2.632,2.632,0,0,0-1.51.086q-.646.26-.561,1.725.26,3.713.389,7.461t.215,7.549c.057.98.287,1.539.69,1.682a2.055,2.055,0,0,0,1.64-.388,21.233,21.233,0,0,0,3.579-2.718,12.312,12.312,0,0,0,2.631-3.665q.6-1.208,1.165-2.287a3.389,3.389,0,0,0,.215-2.457,8.8,8.8,0,0,0-3.148-4.53,10.276,10.276,0,0,0-5.3-2.458m6.383-22a8.712,8.712,0,0,0,2.89,1.509q2.2.822,4.96,1.6t5.3,1.251a23.1,23.1,0,0,0,3.925.474,18.344,18.344,0,0,0-8.281-3.623q-4.4-.69-8.8-1.208M199.684,46.39a36.48,36.48,0,0,0-1.942-9.188,23.3,23.3,0,0,0-4.7-8.066,14.414,14.414,0,0,0-7.85-4.485,50.709,50.709,0,0,1,9.188,9.79,33.8,33.8,0,0,1,5.305,11.949M198.3,67.007a8.056,8.056,0,0,0,1.811-3.279,19.6,19.6,0,0,0,.863-4.57,10.92,10.92,0,0,0-.432-4.228q-.347,3.018-.776,6.08a31.1,31.1,0,0,1-1.466,6m9.057-42.529a76.652,76.652,0,0,1,3.882,8.281,49.247,49.247,0,0,1,2.5,8.454,53.528,53.528,0,0,1,.863,8.627,31.407,31.407,0,0,1-1.294,9.229,14.7,14.7,0,0,0,3.062-6.34,28.4,28.4,0,0,0,.647-8.237,36.318,36.318,0,0,0-1.509-8.5,27.24,27.24,0,0,0-3.321-7.2,11.392,11.392,0,0,0-4.831-4.314" transform="translate(-568 953.363)" fill="#db0000"/>
    <path id="Path_11" data-name="Path 11" d="M200.61,86.47h.145a2.326,2.326,0,0,0,.147,1.144,1.058,1.058,0,0,0-.147.559,38.752,38.752,0,0,1,.439,5.721c.1.275.194.414.292.414l-.146.729V96.6a11.443,11.443,0,0,0,.146,1.582l-.146.268a7.285,7.285,0,0,1,.146,1.291v1.582l.146.267h-.292v-.267h-.146v.267h-.146v-.414h.292c-.389-.243-.585-.437-.585-.584h-.145v.292a.947.947,0,0,1-.561-1V97.886a76.417,76.417,0,0,1,.561-10.127c0-.1-.041-.145-.122-.145a5.381,5.381,0,0,0,.122-1.144m3.018-28.99h.122q0,8.811.292,9.711H203.9a.985.985,0,0,1,.147.438q-.245,1.559-.414,1.559l.122.292-.269,1v.439c-.1,0-.145.041-.145.121l-.147,1.291.147.291a7.093,7.093,0,0,0-.439,2.434h-.267q0-.583-.146-.584.146-1.412.268-1.412l-.122-.291v-.438c0-.1.04-.146.122-.146l-.122-.268q.121-1.461.122-2.289V69.48a.129.129,0,0,1,.145-.146l-.145-.293v-.146a1.066,1.066,0,0,1,.145-.559.129.129,0,0,0-.145-.147l.145-1v-1.7l.292-.439v-.291a1.078,1.078,0,0,0-.145-.561,1.115,1.115,0,0,0,.145-.584.978.978,0,0,0-.145-.414,3.5,3.5,0,0,0,.292-1.436l-.147-.56c.1-.567.2-.852.292-.852l-.145-.291v-.707c.032-.194.129-.291.292-.291Zm-.439,50.117h.439a6.04,6.04,0,0,1,1.7.561c0-.277.186-.414.559-.414,0,.178.147.266.439.266a.259.259,0,0,1-.292.293h-1.559l-1,.146a1.072,1.072,0,0,0-.292-.7Zm15.992-61.825,1,.145h.853a1.3,1.3,0,0,0,.705-.145l.877.145h.852a1.059,1.059,0,0,0,.559-.145,1.108,1.108,0,0,0,.584.145h.147l.267-.145v.292h1.729a1.06,1.06,0,0,1,.559.146l.292-.146.852.146.439-.293v.293c.081,0,.121-.049.121-.146l.73.146h1.145a.129.129,0,0,1,.145.146.978.978,0,0,1,.414-.146l.292.146.292-.146.56.146a7,7,0,0,1,1.144-.146v.146l.292-.146h.268c.487.033.731.129.731.291l.851-.291a1.07,1.07,0,0,0,.56.146h.146l.584-.439q0,.489,1.266.584l.292-.145,1.29.145,1-.145.852.145.293-.145.851.145h.438q0,1.706-.292,1.705l.146.291v.561a.129.129,0,0,1-.146.146l.146.291a.129.129,0,0,1-.146.147.129.129,0,0,0,.146.146,21.7,21.7,0,0,1-.292,2.264,29.2,29.2,0,0,0,.438,5.16v1h.268v.268H243.3v.291l.146.707c-.194.032-.292.129-.292.291V61.35c0,.179-.1.267-.292.267a1.124,1.124,0,0,0-.413-.121l-.585.267V61.5l-.413.267a.129.129,0,0,1-.147-.146q-.438,0-.438.584l-.292-.145h-1.266a.387.387,0,0,1-.438.438V62.2a6.763,6.763,0,0,1-2.434.56v-.146l-.268.146h-.292a2.326,2.326,0,0,1,.147-1.144q-.147-1.193-.292-4.7a16.882,16.882,0,0,0,.145-1.85q0-.243-.851-.877h-.147q0,.219-.438.584a.129.129,0,0,1,.146.146h-.706a.129.129,0,0,1-.146-.146l-.292.146h-1.29l.146-.291-1,.145h-1.851l-.852-.145c-.47.1-.706.194-.706.291l-.73-.146h-.852a18.764,18.764,0,0,0-2.141.146,4.539,4.539,0,0,0-1.145-.146.948.948,0,0,1-.413.146v-.146l-.292.146h-.147a.128.128,0,0,1-.145-.146l-.293.146h-1a10.817,10.817,0,0,1-1.559-.146,46.194,46.194,0,0,1-6.571,1l.146,1.7-.293-.147.147,1.436v.852a70.008,70.008,0,0,0-.852,9.274.985.985,0,0,0,.146.439l-.585,1.85.147.851v.147a.13.13,0,0,1-.147.146.129.129,0,0,0,.147.145,13.065,13.065,0,0,1-.414,2.848l.122.293a13.474,13.474,0,0,1-.269,2c.162,0,.3.235.414.705-.275,0-.414.146-.414.439l.147.291a6.922,6.922,0,0,0-.147,1.145,3.579,3.579,0,0,0,.269,1.143c-.066.373-.155.56-.269.56a.984.984,0,0,1,.147.438,14.412,14.412,0,0,0,.122,1.851L210.9,87.03l.147.291a5.505,5.505,0,0,1-.292,1.436c.1,0,.145.041.145.123a.128.128,0,0,0-.145.145h.145a.129.129,0,0,1,.147-.145v.145a5.151,5.151,0,0,0-.292,1.29l.145.292a1.069,1.069,0,0,0-.145.56v.584h.292v2l-.292.414v.147a13.059,13.059,0,0,0,.292,2.58l-.147.852a1.058,1.058,0,0,1,.147.559h-.439v1.023q7.278.12,10.711.121h1.29q1,0,5.281-.559v-.146h-.437l-.585.146c-.081,0-.121-.049-.121-.146l-2.435.291-.292-.145a1.078,1.078,0,0,1-.559.145.129.129,0,0,1-.147-.145l-.292.145h-3.14a.258.258,0,0,1-.292-.291h.292a.989.989,0,0,0,.439.146q0-.243,2.141-.585a.129.129,0,0,1,.147.146,45.356,45.356,0,0,0,5.136-.559l.267.145.877-.145a.98.98,0,0,1,.413.145l.852-.145h1.29l.147.559h-.147l-1.7.146v-.146a1.439,1.439,0,0,1-.73.146v.147h5.72v-.147q.146-2,.438-2l-.145-.291v-.269l.267-.438h-.267a1.727,1.727,0,0,0,.267-.852q0-6.425.731-6.426a40.483,40.483,0,0,0,4.551-.437.129.129,0,0,0,.146.146c0-.179.049-.269.146-.269l.585.269c.015-.179.1-.269.267-.269h1.29a12.969,12.969,0,0,0-.414,2.41,1.3,1.3,0,0,1,.122.584q-.414,0-.559,6.84l-.147.293a1.058,1.058,0,0,1,.147.559v.146a.13.13,0,0,1-.147.147l.147.291v2.142a.129.129,0,0,0,.145.147q0,.851-1.143.851v-.146a40.147,40.147,0,0,1-7.425.707,12,12,0,0,1-3.578,1.143q-.169,0-7.692,1.436v-.145l-1.435.437a.129.129,0,0,1-.147-.146q-5.743,1-11.123,1.412v-.146l-.292.146h-3.579a3.034,3.034,0,0,1-1.557-2.142v-.147l-.292.147h-.292v-1.85h-.269v-.559a.13.13,0,0,1,.147-.147,3.152,3.152,0,0,1-.292-1.29q.56-5.477,1.435-10.272a.128.128,0,0,0-.145-.145q.607-4.845.851-4.844a5.753,5.753,0,0,1-.292-1.291h.292v-.291c0-.293-.048-.439-.145-.439q.291-2.019.438-4.552l-.146-.291.146-.853V77.61a1.076,1.076,0,0,0-.146-.561c.064-.389.154-.584.267-.584l-.121-.267.121-.293c0-.194-.04-.291-.121-.291l.121-1.436V71.914l.147-.293h-.268c0-.195.138-.291.413-.291l-.145-.293.145-1.7a.129.129,0,0,1-.145-.146h.145a.129.129,0,0,0-.145-.147l.145-.559c0-.195-.048-.293-.145-.293l.145-1v-2h-.292c.033-.195.13-.291.292-.291a.128.128,0,0,0-.145-.146,12.4,12.4,0,0,1,.292-2,1.061,1.061,0,0,1-.147-.56,1.2,1.2,0,0,1,.147-.584.961.961,0,0,1-.147-.414,1.123,1.123,0,0,1,.147-.438,3.973,3.973,0,0,1-.147-1l.147-.291a.969.969,0,0,1-.147-.414l.147-.293-.147-.291q0-2.265.585-2.264a.258.258,0,0,0-.292-.292l.146-1V53.634a1.07,1.07,0,0,1,.146-.56,1.2,1.2,0,0,1-.146-.584v-.147l.267-.414-.121-1h.121l-.121-.291v-.147q0-.169.267-1.582V47.792c.032-.195.131-.293.293-.293h1.995a27.319,27.319,0,0,1,5.989-1.289.978.978,0,0,1,.145.438q.876,0,.876-.584l.269.146c0-.195.048-.293.145-.293.292.1.439.195.439.293q2-.243,1.995-.438m-14.41.292c.13,0,.269.146.414.437v.147a2.331,2.331,0,0,1-.851,1.849v.147l-.292-.147-.147.293c.1,0,.147.041.147.121h-.292a5.789,5.789,0,0,1,1.021-2.847m-.292,28.552q0,1.193.147,1.289a.129.129,0,0,1-.147.146l.147.707v.291c-.292,0-.439.188-.439.561h-.145v-.561a5.594,5.594,0,0,1,.292-1.728,1.058,1.058,0,0,1-.147-.559Zm10.833,4.576v1.557l-.122.293h.559v.146h-.437v1c0,.1-.041.145-.122.145l.267.853a2.427,2.427,0,0,0-.267,1.143l.122,1c-.082,0-.122.049-.122.147h.122a.129.129,0,0,1,.145-.147v.414l-.267-.121a4.2,4.2,0,0,1-.147,1c0,.081.049.121.147.121l-.147.731.147.7-.292.146a45.364,45.364,0,0,0-.584-5.574q.291-3.554,1-3.553m-.269,16.551h.853q2.409.561,5.841,1.145,0,.414-2.264.414a16.08,16.08,0,0,1-4.161-.414v-.439l.437.292.147-.292q0-.414-.853-.414Zm2.995-35.829v.291q0,.2-.293,2.289v.56a.128.128,0,0,0,.146.145l-.146.293v.414a7.514,7.514,0,0,1-.146,1.436v1h-.146c0,.275.049.414.146.414l-.267,2.141c.081,0,.121.049.121.146-.081,0-.121.049-.121.147h.121l.292-.147v.147a5.217,5.217,0,0,0-.413,1l.121.73c-.178,0-.267-.1-.267-.293V66.34a1.2,1.2,0,0,1,.146-.584l-.146-.268q.146-.439.267-.439a11.091,11.091,0,0,1-.267-1.7h.146l-.146-.292v-.146l.267.146v-.146a1.237,1.237,0,0,0-.121-.56,1.4,1.4,0,0,0,.121-.585V61.5l-.121-.293c.178,0,.267-.049.267-.145v-.439c.146-.469.292-.7.439-.7M228.455,43.63a.985.985,0,0,0,.439.146,4.208,4.208,0,0,1,1.119-.146q0,.219-.413.437l-.293-.145a11.259,11.259,0,0,1-1.849.731l-.706-.147H226.6a7.225,7.225,0,0,0-1.29.147l-.292-.147a.13.13,0,0,0-.146.147l-.705-.147h-.293a2.516,2.516,0,0,0-1.144.268,1.086,1.086,0,0,0-.413-.121l-.585.121c-.1,0-.146-.041-.146-.121a6.134,6.134,0,0,0-1.412.266,1.133,1.133,0,0,0-.437-.145c-.471,0-.706.145-.706.438a1.532,1.532,0,0,0-.706-.293q0-.243,4.284-1.143v.146a.971.971,0,0,1,.413-.146,1.133,1.133,0,0,1,.439.146l.851-.146h.56a1.124,1.124,0,0,1,.585.146,1.066,1.066,0,0,1,.559-.146c.292,0,.439.049.439.146Zm2.849,12a1.212,1.212,0,0,0,.584.145v.147c-.39,0-.584.1-.584.292a.13.13,0,0,1-.147-.146,9.832,9.832,0,0,1-1.557.414.984.984,0,0,0-.439-.147l-.852.438a.128.128,0,0,1-.146-.145q-.1,0-3.554.438V56.92l-.292.146h-.145v-.293a.538.538,0,0,0,.437-.291l.268.146a2.353,2.353,0,0,1,1.144-.293.13.13,0,0,0,.147.147q0-.513,4.575-.707v.147Zm12.851,50.239h1v1.436a8.325,8.325,0,0,0-1.85.292v-.292a6.563,6.563,0,0,1-2.58.439.965.965,0,0,0-.414-.147c0,.276-.194.413-.584.413v-.145l-.268.145h-.146a.128.128,0,0,1-.146-.145,20.072,20.072,0,0,1-4.137.584h-.439a.129.129,0,0,1-.146-.146,1.622,1.622,0,0,1-.852.293,1.119,1.119,0,0,1-.438-.147,1.622,1.622,0,0,1-.852.293h-1a8.532,8.532,0,0,0-1.291.121,1.224,1.224,0,0,0-.56-.121,4.965,4.965,0,0,0-1.558.266,10.5,10.5,0,0,0-2.019-.145v-.121a22.474,22.474,0,0,0,3.724-.877l4.137-.7a1,1,0,0,0,.438.145q1.973-.39,8.69-1a1.13,1.13,0,0,0,.438.146c0-.291.235-.438.706-.438a.13.13,0,0,0,.146.147Zm-13.7-9.979v.145l.292-.145h.706v.851h-.559l-1.729-.146v.293a7.139,7.139,0,0,0-1.411-.147c.015-.195.1-.292.267-.292a.129.129,0,0,1,.146.146,9.852,9.852,0,0,1,2.288-.705m3.724-39.676.706.121v.293q0,2.433-.292,2.434l.146.291v.123h-.292l.146.291a27.458,27.458,0,0,1-1,4.139.13.13,0,0,1-.146.146h-.292l-.267-.146q.412-2.142.705-5.428l-.146-.268a1.743,1.743,0,0,0,.292-.877v-.705q.243,0,.438-.414m-1.022,32.252,1.436.146-.292.413.146.292a30.556,30.556,0,0,0-1,5.72,1.233,1.233,0,0,0-.559.122q.146-1.411.145-2.117v-.73l.122-.707c-.178,0-.267-.1-.267-.292a10.532,10.532,0,0,1,.267-1.144c0-.1-.041-.146-.122-.146l.122-.706Zm9.444-26.41h.122a.129.129,0,0,1,.146.145l.292-.145h.146V62.2q0,.805-1.29,1.291h-.146a.129.129,0,0,1-.146-.146,14.269,14.269,0,0,1-2,.56h-1.7l-1.728.146v-.146l-.267.146h-.292V63.76h.292q1.41,0,1.411-.414l.292.146,1.29-.293a.13.13,0,0,0,.146.147c0-.147.138-.292.414-.438V63.2a21.44,21.44,0,0,1,3.018-1Zm2.848-11.416h.292q-.146,1.559-.292,1.558a1.286,1.286,0,0,1,.146.729h-.146v.147h.292a4.393,4.393,0,0,1-.292,1.265l.292,1h-.292v.293l.146.292H245.3v.292a.973.973,0,0,1,.292.559,4.309,4.309,0,0,0-.584,1.582l.292.561-.438,1a.129.129,0,0,0,.146.146,9.3,9.3,0,0,0-.292,2.141l.146.56-.268-.146q0,.439-.292.439h-.584v-.439l.146-.267a.13.13,0,0,1-.146-.147l.584-.438h.292q0-.705-.438-.705.147-.439.292-.439l-.146-.7c.016-.373.114-.561.292-.561l-.146-.291c.016-.471.106-.707.268-.707l-.122-.291v-.293l.122-.291h-.268a1.722,1.722,0,0,0,.268-.852V55.484l.292.146v-.146a.974.974,0,0,1-.146-.414q.438,0,.438-2.434l-.146-.293a6.364,6.364,0,0,0,.292-1.7m-.852,37.119h.56l-.146,1.412v1.85a7.3,7.3,0,0,0,.146,1.291,1.126,1.126,0,0,0-.146.437c.195.033.292.131.292.293,0,.7-.146,1.071-.438,1.119q-.268-4.722-.268-6.4m1-40.551h.268a1.307,1.307,0,0,0,.146.7h-.268a1.127,1.127,0,0,0,.122.439q-.121,1.023-.122,1.143l.122,1a.974.974,0,0,0-.414-.146.129.129,0,0,1,.146-.145l-.146-.707V49.35a.129.129,0,0,1,.146-.146.978.978,0,0,1-.146-.414l.146-.584-.146-.293.292-.559a.129.129,0,0,1-.146-.146" transform="translate(-568 953.363)" fill="#db0000"/>
    <path id="Path_12" data-name="Path 12" d="M240.616,33.2a7.643,7.643,0,0,0,.517,2.763h-.27a11.706,11.706,0,0,0,.27,2.358H241a3.089,3.089,0,0,1,.27,1.057q-.135,1.168-.135,1.325a16.048,16.048,0,0,1,.269,2.493,3.686,3.686,0,0,1-.134.921,4.158,4.158,0,0,1,.134,1.055v.27l-.134.787a1.022,1.022,0,0,1,.134.4h-.134l.134.246a.119.119,0,0,1-.134.136,4.522,4.522,0,0,1,.269,1.055H241.4l.135.269v.27a.984.984,0,0,1-.135.517l.27.786h-.135a1.035,1.035,0,0,0-.539-.247v-2.65l-.135-.652H241q-.225,0-.382-4.6l.135-.271a6.663,6.663,0,0,1-.135-1.189v-.921a.12.12,0,0,1,.135-.136,6.054,6.054,0,0,1-.27-1.3h.135a.119.119,0,0,0-.135-.134,7.352,7.352,0,0,1,.135-.787l-.135-1.189h.135a4.514,4.514,0,0,1-.269-1.056.119.119,0,0,1,.134-.135l-.134-.651v-.539a.257.257,0,0,1,.269-.248m.9,30.548h.269a.12.12,0,0,1-.134.136c.059.524.149.785.269.785q-.135,1.461-.269,1.461l.134.246q-.336,0-.651,5.93-.135,0-.135.539l-.27-.134a6.56,6.56,0,0,1,.4-2.247L241,70.193l.135-.517L241,69.407q.112-.516.27-.516l-.135-.27a.119.119,0,0,1,.135-.135l-.135-.27.517-3.818a.981.981,0,0,1-.135-.516Zm.157-11.86h.247v.539l-.112.787a4.582,4.582,0,0,1,.247,1.707v.673h.269l-.269,1.034a.119.119,0,0,1,.135.135q-.382,0-.382.27h.247v.4h-.247l.112.248a1.205,1.205,0,0,1-.112.539l.247.516c-.06.525-.143.786-.247.786l.247.81-.135.516a15.537,15.537,0,0,1,.135,1.707h-.247a.908.908,0,0,0-.135-.382.119.119,0,0,1,.135-.134l-.27-2.246a.12.12,0,0,1,.135-.136,6.408,6.408,0,0,1-.135-1.055q0-1.3.135-3.145a10.255,10.255,0,0,1-.135-1.46l.135-.27a.89.89,0,0,1-.135-.382l.135-.269v-.4h.135l-.135-.248Zm1.572-32.928c.344.134.517.269.517.405a.876.876,0,0,0-.382.134l.247,2.763-.135.786.135.921a1.033,1.033,0,0,1-.135.4,6.332,6.332,0,0,1,.135,1.168v.27a.119.119,0,0,1-.135.134l.135.27v.135c0,.075-.045.111-.135.111l.27,1.46h-.27l.135.27-.247.921a2.43,2.43,0,0,0,.382,1.3c-.09.63-.135.981-.135,1.055l.135.271a2.081,2.081,0,0,0-.27,1.055l.135.27c-.09.075-.135.426-.135,1.055h-.112a3.986,3.986,0,0,0-.135-1.055l.135-.27a6.408,6.408,0,0,1-.135-1.055.119.119,0,0,1,.135-.135l-.135-.786q0-.315-.27-5.391a.238.238,0,0,0-.269-.27l.135-.674v-.247l-.135-.269h.135l-.135-.27V20.013h.135l-.135-.65v-.271a4.1,4.1,0,0,0,.539-.134m.247,29.379h.4v.382a.119.119,0,0,1-.134.136q.269,1.054.4,1.055l-.135.673V50.7a13.417,13.417,0,0,1-.269,3.436.98.98,0,0,1,.134.516v.921l.135.27H243.9l.135.27v.134h-.651V55.57c0-.254-.045-.382-.135-.382l.247-2.245a1.022,1.022,0,0,1-.112-.382h.112l-.112-.27a1.19,1.19,0,0,1,.112-.4,7.939,7.939,0,0,1-.112-1.189v-.652c0-.09.037-.135.112-.135,0-.09-.037-.134-.112-.134a5.222,5.222,0,0,1,.247-1.057.886.886,0,0,1-.135-.382m-.112-13.7h.112q.135,1.551.135,2.246l-.247.134Zm6.963-15.544c.449.091.674.18.674.271a4.971,4.971,0,0,1,1.707-.271l.135.271a1.02,1.02,0,0,0-.539.246h-.135a1.133,1.133,0,0,1-.516-.112l-.517.247-.27-.135a4.052,4.052,0,0,1-.539.135.984.984,0,0,0-.517-.135.239.239,0,0,1-.269.27.119.119,0,0,1-.135-.135l-.651.135h-.135a.239.239,0,0,1-.27-.27.89.89,0,0,1-.382.135l-.673-.135a3.907,3.907,0,0,1-1.033.135v.269a.238.238,0,0,1-.27-.269l-.674.4h-.247l-.135-.651v-.27h1.573a6.606,6.606,0,0,1,1.19.136,1.545,1.545,0,0,1,.786-.136,1.017,1.017,0,0,1,.4.136.885.885,0,0,1,.382-.136v.136Zm-4.6,2.629h.651l.271.134a.118.118,0,0,1,.134-.134,1.485,1.485,0,0,0,.135.786,1.106,1.106,0,0,0-.135.539l.135.651h-.269l.134.674v.112q0,1.124.135,3.3h-.135a5.5,5.5,0,0,1,.4,1.46q-.18,0-.539,1.168a1.042,1.042,0,0,1,.134.405c0,.434-.09.65-.269.65l.135.675a6.514,6.514,0,0,1-.135,1.033,10.056,10.056,0,0,1,.269,1.325c-.269,0-.4.091-.4.27v.269l.136.248h-.247v.134h.247a.119.119,0,0,1,.135-.134l.134.269v.4l-.516-.269v.135c.074.628.111.981.111,1.055a1.152,1.152,0,0,0-.111.516h-.27V36.343a.119.119,0,0,1,.135-.134l-.27-1.573.135-.269-.135-.517a6.4,6.4,0,0,0,.135-1.056l-.135-.539c0-.074.045-.112.135-.112l-.135-1.6V28.189a.119.119,0,0,1,.135-.134l-.27-.539.135-.247-.135-.81.135-.246a1.1,1.1,0,0,1-.135-.539l.135-.247a1.031,1.031,0,0,1-.135-.405h.135l-.135-.269V24.1c0-.27.045-.4.135-.4l-.135-.651Zm.4,19.5a.9.9,0,0,0,.382.134v.134a.12.12,0,0,1-.136.136l.136.269v1.437a.12.12,0,0,0,.135.136l-.135.269v1.3a.218.218,0,0,1-.247-.247v-.674a1.153,1.153,0,0,1,.111-.517A7.493,7.493,0,0,1,246.142,42h.135l-.135-.247ZM248.118,63.1h.113a.984.984,0,0,0,.134.517.118.118,0,0,1-.134.134,12.437,12.437,0,0,0,.269,1.439l-.135.268.135.787v.134a.119.119,0,0,1-.135.135l.135.27v.382a10.255,10.255,0,0,1-.135,1.46.119.119,0,0,0,.135.134l-.135.921a12.761,12.761,0,0,0,.27,2.9A6.97,6.97,0,0,0,248.5,73.9v.65a.119.119,0,0,1-.135.135l.135.247a3.988,3.988,0,0,1-.135,1.056l.135.539a6.847,6.847,0,0,1-.269,1.843,4.133,4.133,0,0,1,.269,1.189h-.135l.135.248v.269a6.694,6.694,0,0,1-.135,1.191.9.9,0,0,1,.135.4l-.269.112a.118.118,0,0,0,.134.135l-.134.54q.27,2.088.269,2.223c-.089.464-.135.733-.135.808a3.909,3.909,0,0,1,.135,1.034h-.135l.135.269v1.976a1.11,1.11,0,0,1-.135.54.894.894,0,0,1,.135.382.119.119,0,0,0-.135.135c.18,0,.27.216.27.651h1.056a.119.119,0,0,1,.134.135.119.119,0,0,0,.135-.135q2.427.135,3.549.135h1.573a10.266,10.266,0,0,0,1.459-.135q.921.18.921.4a5.116,5.116,0,0,0-1.46.27c-.075,0-.112-.045-.112-.135a15.294,15.294,0,0,1-2.785.381v-.111l-.247.111H251.4a3.143,3.143,0,0,0-1.437.271q-3.167,0-3.167-1.056V89.038a.119.119,0,0,1,.135-.134l-.135-.27q0-.156.135-1.3l-.135-.269a3.212,3.212,0,0,0,.269-1.46v-.113a1.027,1.027,0,0,0-.134-.539l.134-.269a.889.889,0,0,0-.134-.382l.134-.786c0-.27-.044-.4-.134-.4l.134-.651v-.675a.978.978,0,0,0-.134-.516,7.2,7.2,0,0,0,.27-2.381h.246l-.134-.248a10.121,10.121,0,0,1,.539-2.38,1.02,1.02,0,0,0-.539-.135,52.071,52.071,0,0,0,.673-6.986l-.134-.246a1.108,1.108,0,0,0,.134-.539,5.739,5.739,0,0,0-.269-1.573.12.12,0,0,1,.135-.135l-.135-.652v-.921a4.874,4.874,0,0,1,.4-1.976m29.627-41.756q4.853.786,5.414.786l.246-.136c.7.091,1.056.18,1.056.271l.27-.135h.382a.119.119,0,0,1,.135.135,1.016,1.016,0,0,1,.4-.135c.179,0,.269.044.269.135l.921-.135H287.9c.075,0,.113.044.113.135l.269-.135a1.024,1.024,0,0,1,.4.135l.785-.135a18.184,18.184,0,0,1,4.875,1.706,9.091,9.091,0,0,1,2.628,1.843l1.594,1.977a8.236,8.236,0,0,1,.652,2.111q.854.606,1.325,3.032a15.219,15.219,0,0,1,.921,3.819,1.407,1.407,0,0,0-.135.785q.428,0,.517,1.978h-.135l.135.269v1.191q0,1.571-.269,1.571a.119.119,0,0,0,.134.136q0,1.617-1.977,6.312a14.825,14.825,0,0,1-4.874,5.66q-3.526,3.549-5.391,3.953-5.279,2.9-6.716,2.9-1.324,1.057-4.469,1.057l-4.875.673c0,.089-.134.135-.4.135a.908.908,0,0,0-.4-.135q0,.292-2.09.787l-.134.269q1.5.135,4.47,3.28a14.674,14.674,0,0,1,2.493,2.627q.36,0,.674.943a24.11,24.11,0,0,1,2.763,2.9q.27,0,1.325,1.437c.135,0,.351.261.651.786q.765.2,2.359,2.9,2.92,4.088,5.795,7.638.494.068,1.6,3.032a.9.9,0,0,1-.539.269q-1.663-1.146-4.47-2.762,0-.315-.517-.674,0-.2-.674-.652,0-.966-3.953-2.358a6.5,6.5,0,0,1-2.763-2.9,17.34,17.34,0,0,1-2.9-2.786q-.158,0-1.056-.92a86.533,86.533,0,0,0-6.581-6.312,15.49,15.49,0,0,1-1.438-2.627q-2.337-2.516-3.436-2.517l.134-.268-.4-.248h-.247a5.985,5.985,0,0,1-1.842.651l-.27-.135-2.38.675a.9.9,0,0,0-.382-.136q-.63,0-1.326,3.415a2.911,2.911,0,0,0,.27,1.19c-.075.525-.165.786-.27.786l.135.27a5.86,5.86,0,0,1-.269,1.438l.134.673-.785,4.2a1.345,1.345,0,0,1,.134.673q-.405,0-.539,1.977l.134.786v.382l-.134.809c0,.074.045.112.134.112l-.516,2.9a1.032,1.032,0,0,0,.112.4q0,1.887-1.572,2.111a4.529,4.529,0,0,1-1.19.135h-.652v-.135a16.181,16.181,0,0,0-.269-3.032l.134-.269-.134-.652.134-.539a.992.992,0,0,1-.134-.516l.134-.271a7.82,7.82,0,0,1-.269-1.167l.135-.27a.119.119,0,0,0-.135-.134q0-.27.135-.27l-.248-3.684c0-.089.038-.134.113-.134l-.113-.787q0-.763-.134-3.3h.134a2.924,2.924,0,0,1-.269-.921l.135-.652q-.135-.4-.269-.4l.134-.921q0-.113-.134-1.056h.134a2.892,2.892,0,0,1-.27-.921h.136l-.136-.246V67.7a20.471,20.471,0,0,0-.269-4.357l.134-.248a1.039,1.039,0,0,1-.134-.4h.134l-.65-4.336.134-.269a23.479,23.479,0,0,1-.539-4.874q.135-2.763.135-3.818l.135-.27a28.187,28.187,0,0,1-.652-4.6,1.028,1.028,0,0,0,.135-.4.9.9,0,0,0-.135-.382,1.024,1.024,0,0,1,.135-.539q-.27-4.65-.539-6.717a.9.9,0,0,1,.135-.381,13.9,13.9,0,0,0-.4-2.381V33.58a.119.119,0,0,1,.135-.134l-.135-.27c0-.074.045-.112.135-.112l-.135-.27V31.468a7.786,7.786,0,0,1-.382-2.223V28.84l-.269-.4q0-.427-.135-3.819,0-2.493.674-2.493a23.588,23.588,0,0,0,3.01-.539,31.818,31.818,0,0,1,7.39.674.12.12,0,0,0,.135-.135l.651.135q3.032-.27,3.549-.271v.136l.27-.136h.134a.12.12,0,0,1,.135.136.12.12,0,0,0,.135-.136l.651.136h1.056a.118.118,0,0,1,.134.135l.248-.135h1.055a.119.119,0,0,1,.135.135,30,30,0,0,1,4.223-.539.119.119,0,0,1,.135.134q5.3-.516,5.525-.516M253.779,16.6l.134.517a.238.238,0,0,1-.269-.27l-.27.135h-1.19l.135-.269-.517.269-1.6-.135-1.168.135a1.028,1.028,0,0,0-.4-.135v-.134a1.829,1.829,0,0,0,.786-.113l.539.113a35.376,35.376,0,0,1,3.819-.113m3.167,2.089.247.134.269-.134a.119.119,0,0,1,.135.134l.652-.134h.539c.075,0,.112.045.112.134l.27-.134.539.134.247-.134a9.141,9.141,0,0,0,2.515.4,3.645,3.645,0,0,0,.517-.134l5.548.539a1.03,1.03,0,0,0,.247-.539h1.056l.921-.136v.136a.119.119,0,0,0,.134-.136l.652.136.539-.136v.27h.135a.119.119,0,0,0,.135-.134.9.9,0,0,0,.381.134v.517h-.247l.113-.246-1.573.65q0-.291-.651-.4a4.536,4.536,0,0,1-1.19.27H268.4q0,.113-1.325.4,0-.539-2.493-.539v.135l-.27-.135h-.269l-.382.269v-.269q-1.977-.135-2.9-.135l-.271.135-.269-.135a6.408,6.408,0,0,1-1.055.135q-1.8-.246-1.977-.247v.112l-.247-.112h-.405c-.269,0-.4.038-.4.112a23.156,23.156,0,0,1-2.358-.246l-.27.134a.975.975,0,0,0-.517-.134v-.405c.075,0,.113.045.113.134a17.928,17.928,0,0,1,3.841-.4m3.548,49.8h.271a.12.12,0,0,1-.135.135,20.651,20.651,0,0,1,.246,2.493l-.111.674a1.021,1.021,0,0,1,.111.382h-.111l.111.27a11.8,11.8,0,0,0-.246,1.46c0,.074.044.111.135.111a42.54,42.54,0,0,1-.809,6.065h-.247v.135c.164,0,.247.044.247.135a14.185,14.185,0,0,1-.247,1.976.238.238,0,0,1-.27-.269V78.638l.135-.809a1.2,1.2,0,0,1-.135-.65v-.517l.517-1.46V72.843a15.87,15.87,0,0,0,.538-4.357m-.134,18.576q.27,0,.516,2.358l-.246.135h-.4v-.517a1.119,1.119,0,0,0-.134-.539,3.075,3.075,0,0,0,.269-1.437m3.032-17h.27a.89.89,0,0,0,.382.135v.269a.908.908,0,0,0-.27.539,41.7,41.7,0,0,1,.4,4.47l-.135.517c.12.988.209,1.6.269,1.841a10.648,10.648,0,0,0-.134,1.462v3.547l-.135.787a1.114,1.114,0,0,1,.135.539l-.135.27a.119.119,0,0,0,.135.134l-.135.652q0,1.3-.135,3.953h-.247V86.792c0-.089.037-.134.112-.134l-.112-.248v-.673a1.878,1.878,0,0,0-.135-.921,6.423,6.423,0,0,0,.135-1.191V80.076c0-.089.037-.135.112-.135,0-.089-.038-.134-.112-.134l.112-.516q0-1.283.135-2.764-.135-1.617-.135-3.166l-.112-.27a1.036,1.036,0,0,0,.112-.382l-.112-.269c0-.091.037-.136.112-.136a8.23,8.23,0,0,0-.382-2.246m.27-2.9a33.929,33.929,0,0,1,2.762,3.436,12.878,12.878,0,0,0,2.494,2.9,6.905,6.905,0,0,1,1.055,1.437v.135a47.657,47.657,0,0,1-3.953-3.953,6.861,6.861,0,0,1-1.572-1.438,3.427,3.427,0,0,1-.921-2.245c.09,0,.135-.091.135-.27M265.5,77.829a3.532,3.532,0,0,1,.921,1.462h-.269v1.055a7.9,7.9,0,0,0-.516,1.976q-.135,0-.136,1.191h-.134V82.7a21.109,21.109,0,0,0,.27-2.493.912.912,0,0,1-.136-.4h.136c0-.076-.046-.113-.136-.113l.136-.539a7.631,7.631,0,0,0-.27-.921.9.9,0,0,0,.134-.4m1.708.136c.344.18.516.405.516.673v.112h-.112c0-.149-.135-.367-.4-.65Zm.516.785c.18.046.36.27.54.675h-.135q-.292,0-.4-.675m.135,3.572h.27v.27a26.746,26.746,0,0,0,.269,4.47l-.134.269a6.4,6.4,0,0,1,.134,1.057.883.883,0,0,1-.134.38l.134.27a2.087,2.087,0,0,0-.269.787H268V88.252c0-.1-.09-.592-.27-1.46V85.22a.119.119,0,0,1,.135-.135l-.135-.269v-.382a1.024,1.024,0,0,1,.135-.539l-.135-.27.135-.246-.135-.27Zm.27-5.525h.135a19.088,19.088,0,0,1,3.279,3.683q.269,0,1.46,1.573c.18,0,.351.216.517.651a10.143,10.143,0,0,1,1.864,1.977q1.437,1.595,1.437,1.977a2.058,2.058,0,0,1-.921-.787l-1.572-1.19a8.468,8.468,0,0,1-2.246-2.9,1.584,1.584,0,0,1-.786-.921l-.27.135h-.135a2.091,2.091,0,0,0-1.055-1.706q0-.36-.921-1.191a2.311,2.311,0,0,0-.786-1.3m2.38-1.865h.113a12.472,12.472,0,0,1,1.19,1.326q0,.178,1.191,1.191,2.448,3.032,2.763,3.031v.135l-.135.247a9.779,9.779,0,0,1,3.033,2.763,50.244,50.244,0,0,0,8.31,7.121l2.224,1.707v.269h-.135c-.075,0-.112-.045-.112-.135l-.674.135a.894.894,0,0,1-.382-.135.12.12,0,0,0-.135.135q-1.032,0-2.65-1.842l-2.359-2.112q-1.459-1.212-1.46-1.571a1.651,1.651,0,0,1-1.168-1.191q-.584-.2-3.167-3.168-1.887-2-3.549-3.547a25.188,25.188,0,0,0-2.516-2.9c0-.1-.262-.412-.785-.921V75.2q.4,0,.4-.27m1.3,9.5h.135l6.447,5.795v.135q-2.09-.315-2.089-.539c0-.225-.225-.359-.674-.4a4.449,4.449,0,0,1-1.3-1.707q-.428-.426-2.516-3.145Zm18.576-67.722.27.134.651-.134.135.269v.135a.238.238,0,0,1-.269.269v-.269a9.24,9.24,0,0,1-2.629.651h-.786q0,.135-.673.27c-.076,0-.113-.045-.113-.136l-.674.136q-1.977-.09-1.976-.27a.643.643,0,0,1-.786,0,4.471,4.471,0,0,0-1.056.27.635.635,0,0,0-.786,0q-2.875-.27-7.907-.516v-.27h.135q.943.134,1.055.134c.031-.18.12-.269.27-.269l.651.269a.916.916,0,0,1,.4-.134v.134l.247-.134h.674c.074,0,.112.045.112.134l.27-.134h.539a1,1,0,0,1,.517.134.909.909,0,0,1,.4-.134v.134l.247-.134h.269a.119.119,0,0,1,.135.134,3.207,3.207,0,0,1,1.46-.269h1.438a.119.119,0,0,1,.134.135.9.9,0,0,1,.4-.135l.92.135.652-.135a.9.9,0,0,0,.382.135l.674-.27a.119.119,0,0,0,.134.135v-.27h.135a.258.258,0,0,1,.247.27,1.036,1.036,0,0,1,.4-.135.9.9,0,0,1,.382.135l.808-.135c.075,0,.113.045.113.135l.269-.135.921.135c.793-.06,1.19-.149,1.19-.27ZM281.7,65.588q.471,0,3.683,5.279c.09,0,.135.127.135.382h-.269a21.132,21.132,0,0,0-2.9-3.549l-1.438-1.842v-.135Zm1.842,6.582a4.128,4.128,0,0,1,1.707,1.594c.134,0,.4.308.808.921a3.944,3.944,0,0,1,1.168,1.168q2.65,2.7,2.651,3.033A15.642,15.642,0,0,1,291.964,81a13.96,13.96,0,0,1,2.246,3.3,7.7,7.7,0,0,1,1.707,2.627h-.135a32.857,32.857,0,0,1-4.874-5.525q-2.517-3.324-6.447-7.906a4.829,4.829,0,0,1-.92-1.191ZM293.154,91.8h.135a1.052,1.052,0,0,1,.4.134l.785-.134.27.134c.075,0,.112-.044.112-.134l.674.134,1.191-.134q1.257,1.146,1.3,1.46h-.269l-.517-.135a.119.119,0,0,0-.134.135l-4.089-.539V92.34l.27-.4a.119.119,0,0,1-.135-.134m0-72.057h2.112q1.257,0,3.3,1.729.225.787.787.787v.134h-.4a2.616,2.616,0,0,0-1.19-.673q-1.123-.426-1.168-.652a17,17,0,0,1-3.3-1.19h-.135ZM298.3,68.486h.134v.135a5.616,5.616,0,0,0-2.65,1.976v.786q.493,0,1.729,1.842h.248V73.9a25.306,25.306,0,0,0,1.46,3.549,3.888,3.888,0,0,0,.921,1.842c.09,0,.135.134.135.4h-.27a62.763,62.763,0,0,0-5.391-7.906,2.527,2.527,0,0,1-.674-1.326h.4q0-.156-.922-.516l-.269-.4v-.134l.674.134a28.426,28.426,0,0,0,4.47-1.055m-.539-50.965h.4a1.2,1.2,0,0,1,.651.134l.809-.134c.869.015,1.3.1,1.3.246l.27-.112a.993.993,0,0,0,.382.112l.269-.112a2.546,2.546,0,0,0,1.19.246v.271h-2.762a4.585,4.585,0,0,0-2.516-.405Zm4.222,32.658h.4q-1.549,3.551-2.246,3.549,0,.067-1.842,2.651c-.12.4-.3.622-.539.652v-.27a16.805,16.805,0,0,1,2.246-3.415q1.056-.919,1.056-1.594c.179,0,.269-.082.269-.248l-.134-.269a1.8,1.8,0,0,1,.785-1.056m2.382,2.494v.134a4.083,4.083,0,0,1-1.461,2.9q-2,3.031-3.548,3.031a17.859,17.859,0,0,1,1.976-2.111l1.19-1.3q0-.7,1.3-1.978a.637.637,0,0,1,.54-.673m-3.819-32.121h.247q2.718.808,3.032,1.842h.135l-.135.248q.675,0,1.056,2.785l1.326,4.065-.135.27a6.8,6.8,0,0,1,.517,2.381,6.43,6.43,0,0,1-.136,1.033v.674h-.112v.135c.015.164.1.246.248.246V33.85h.134q.4,0,.539,2.359h-.134l.134.268v.136a6.764,6.764,0,0,1-.134,1.19l.269.652a9.03,9.03,0,0,0-.269,2.246v1.976a.12.12,0,0,1-.136.135c0,.075.046.113.136.113q-.114,1.461-.4,1.46L306.2,40.7q.134-1.392.134-2.246h.112a31.4,31.4,0,0,0-.651-4.336l.135-.269q-1.529-7.053-2.628-8.693a21.608,21.608,0,0,0-2.763-4.6m.247,7.637a27.369,27.369,0,0,1,1.056,2.629q-.36,0-1.3-2.494Zm.921-2.9q.539.022,1.46,2.224h.135v.135a.119.119,0,0,1-.135.134,5.065,5.065,0,0,1,.517,1.573h-.248ZM303.689,67.7v.134q0,1.574-.248,1.573l.113.651V71a7.55,7.55,0,0,1-.113,1.169,1.556,1.556,0,0,1,.113.673c-.255,0-.382-.575-.382-1.729l.135-.247a6.936,6.936,0,0,1-.539-2.246q0-.248.921-.921m1.19-24.236h.135q0,.516.135.516l-.135.674V45.71l-.135.246c.18.031.27.121.27.271q-.63,1.975-1.46,1.976l-.248.134V48.2q.473-.493,1.169-4.088,0-.651.269-.651m1.842-24.506h.4c0,.359.126.539.381.539a1.015,1.015,0,0,1,.4-.134.258.258,0,0,0,.27.246c.09,0,.135-.037.135-.112a2.216,2.216,0,0,1,1.707,2.224q-.135,1.8-.135,2.515a.9.9,0,0,1,.135.382q-.225,0-1.056-3.032a5.644,5.644,0,0,1-2.246-2.628" transform="translate(-568 953.363)" fill="#db0000"/>
    <path id="Path_13" data-name="Path 13" d="M326.937,17.384l.517.114a1.024,1.024,0,0,1,.4-.114q.563,0,.787,1.955a.119.119,0,0,0-.136.135c.181.03.271.119.271.269v.92q-.406,0-.674.652h-.112v.135a37.87,37.87,0,0,1,1.842,6.716,39.669,39.669,0,0,1,2.088,9.367,22.723,22.723,0,0,1,1.864,6.986q1.168,3.57,2.493,9.613a35.088,35.088,0,0,1,1.573,6.043A16.292,16.292,0,0,1,339.18,64.8a8.884,8.884,0,0,1,1.056,4.334c.148,0,.321.4.515,1.191h.676a3.647,3.647,0,0,0,1.3-2.112c.269,0,.495-.658.673-1.976a23.283,23.283,0,0,0,1.573-3.167q2.382-4.357,2.382-5.795c-.09,0-.135-.037-.135-.112h.382v-.809A9.572,9.572,0,0,0,348.522,54q.7,0,1.191-3.168.2,0,.922-2.493a9.17,9.17,0,0,0,.787-1.977v-.539q.359,0,.806-1.707l.249-.134a.907.907,0,0,1-.136-.4,76.51,76.51,0,0,0,3.033-7.749v-.134h.269a34.31,34.31,0,0,0,1.573,7.5,32.414,32.414,0,0,0,.922,4.47A18.91,18.91,0,0,0,359.6,52.4a37.964,37.964,0,0,0,1.437,4.627,31.235,31.235,0,0,0,1.46,4.74c.133,0,.352.435.651,1.3v.269l-.136.27q.316.113.809,1.707.787.36.787.539v.382q.381,0,.382,1.055h.673a15.831,15.831,0,0,1,.518-2.11.12.12,0,0,0-.136-.136l.136-.651V62.69a4.682,4.682,0,0,0,1.191-3.167,25.3,25.3,0,0,0,1.57-5.278L368.807,54l.92-2.381a7.414,7.414,0,0,1,.944-1.842l-.135-.27a3.982,3.982,0,0,1,.65-1.572q.54-4.739.923-4.74a55.341,55.341,0,0,0,2.761-5.413q.316,0,1.327-3.931l.515-4.492-.133-.27a4.517,4.517,0,0,1,2.65-2.763q.607,0,1.842-3.414c.375-.883.636-1.324.787-1.324a.239.239,0,0,0,.268-.271V21.2l-.135-.27q.516,0,1.191-1.46a11.626,11.626,0,0,1,2.492-.921v.134a5.239,5.239,0,0,1,1.056-.382v.113a5.621,5.621,0,0,1-1.056,1.977,10.381,10.381,0,0,1-1.706,4.357,62.931,62.931,0,0,1-2.628,7.232,15.234,15.234,0,0,1-1.729,4.628l-.653,1.977a.12.12,0,0,1,.136.134q-.358,0-1.056,2.763a3.4,3.4,0,0,0-.922,2.762,19.982,19.982,0,0,0-1.57,3.954,3.463,3.463,0,0,0-.809,2.112q-.294,0-.651,2.088h-.136l.136.27q-2.115,4.74-2.113,7.121a25.65,25.65,0,0,1-1.437,3.167,5.024,5.024,0,0,0-.4,1.842,24.584,24.584,0,0,1-1.437,3.031,28.984,28.984,0,0,0-1.978,4.741,14.7,14.7,0,0,1-1.841,3.952q-.291,0-1.593-2.245c-.616-1.348-1.093-2.1-1.438-2.246,0-.225-.271-.577-.809-1.057a35.757,35.757,0,0,0-3.01-6.176,45.157,45.157,0,0,0-2.111-4.875,26.414,26.414,0,0,1-1.462-3.706l-.515-.382c0-.09-.136-.134-.4-.134h-.65a39.314,39.314,0,0,0-2.518,5.391q-1.976,2.649-1.975,3.167a12.364,12.364,0,0,0-2.224,4.222,28.88,28.88,0,0,0-1.841,5.009q-3.193,4.494-3.438,5.009H340.5a23.264,23.264,0,0,0-1.6-3.841,30.566,30.566,0,0,0-2.111-5.39.12.12,0,0,1,.136-.136,49.716,49.716,0,0,1-2.113-5.255c-.133,0-.262-.308-.382-.921q-2.11-4.537-2.111-5.795c-.344,0-.516-.316-.516-.944a10.938,10.938,0,0,1-.921-2.494q-.338,0-.539-1.325-.518-.56-1.325-4.065-.249,0-.921-3.707-.519,0-1.057-2.9c-.208,0-.382-.434-.515-1.3q-.539-.246-1.057-2.65v-.247q-.358,0-1.325-3.3a13.771,13.771,0,0,1-1.3-3.168h-.27v-.112a.119.119,0,0,1,.136-.134c-.091-.359-.262-.539-.518-.539l.113-.652q-.315,0-.516-1.572h-.652l.113-.674v-.269c-.166-.524-.337-.787-.518-.787H320.6l.133-.652-.269.136a8.361,8.361,0,0,0-.786-2.628q-.381,0-.786-1.865a7.558,7.558,0,0,1-1.056-2.089v-.269q0-.383,1.056-.539a.119.119,0,0,1,.135.135,18.99,18.99,0,0,0,5.391-1.055c.27.089.4.179.4.268a5,5,0,0,1,2.112-.382m-1.976,30.953h.246q.474.09,1.6,4.2.27,0,1.191,3.436a18.9,18.9,0,0,0,2.088,4.088,7.685,7.685,0,0,0,.809,3.01,11.435,11.435,0,0,0,1.573,3.818l.786,2.651a2.154,2.154,0,0,0,.269,1.055h-.269a7.942,7.942,0,0,0-1.191-2.381q-1.573-4.716-3.55-9.747Zm5.93-29.38H331q.2.022.808,1.438a1.045,1.045,0,0,0-.135.4,8.577,8.577,0,0,1,.382,1.572h-.652q-.405-2.942-.516-3.414M331,69q.65.36,1.975,3.953a3.575,3.575,0,0,0,.54,1.19V74.8q.381,0,2.36,4.088v.269c-.257,0-.382-.134-.382-.4a1.492,1.492,0,0,0-.787.27l.111.27v.134a13.244,13.244,0,0,1-1.166-2.651l.133-.65v-.541A37.1,37.1,0,0,1,331,69m3.03-44.25q.182,0,.787,1.977c.2,0,.374.966.54,2.9.178,0,.269.217.269.652v1.19q.249.583,1.437,5.144a15.867,15.867,0,0,1,1.055,4.2,33.065,33.065,0,0,0,1.191,4.357l1.709,7.638v.27h-.136q0-.337-1.573-5.661a63.687,63.687,0,0,0-2.379-7.906,49.372,49.372,0,0,0-1.709-7.121q-.132,0-.269-.405a.879.879,0,0,0,.136-.38,17.982,17.982,0,0,1-.786-3.55.118.118,0,0,0,.133-.135.238.238,0,0,1-.269-.269.119.119,0,0,1,.136-.135l-.136-.27a.119.119,0,0,1,.136-.134,3.049,3.049,0,0,1-.272-1.439ZM347.6,73.494v.247l-3.551,6.47h-.269v-.136a17.337,17.337,0,0,1,1.327-2.628,10.468,10.468,0,0,1,1.975-3.571Zm2.246-4.627V69q-1.123,2.763-1.46,2.763v-.112q1.1-2.786,1.46-2.786M356.161,20.8h.269v.651l.4,1.595h-.269v.135l.269.382v.4q-1.259,0-1.6,1.438l-1.975,5.413q0,.426-1.169,1.3c0,.329-.306.6-.922.808a9.326,9.326,0,0,1-1.191,4.065c-.178,0-.269.225-.269.675.091,0,.136.037.136.112-.344,0-.518.224-.518.674h-.269q.313-.921.518-.921a.12.12,0,0,0-.136-.135c0-.524.136-.786.4-.786v-.135l-.136-.269c.121,0,.254-.263.4-.787l-.136-.27a10.478,10.478,0,0,0,.787-2.492,32.375,32.375,0,0,0,1.191-3.3h.381V29.9h.269l-.133-.27a5.507,5.507,0,0,0,.787-2.111q.426-.022,1.055-2.493h.269v-.4q.832-3.143,1.573-3.818m-.787,51.775a32.1,32.1,0,0,1,2.764,4.986A6.489,6.489,0,0,1,359.462,81l-.269.136h-.381c-.212,0-.345-.225-.4-.675.09,0,.133-.038.133-.112q-.716-.292-1.57-3.3a18.8,18.8,0,0,1-1.6-4.47m1.191-47.418q.4,0,.4,1.439h.246v.785l.136,1.325-.249.135h-.133c-.181,0-.314-.576-.4-1.729-.226,0-.359-.172-.4-.516a8.07,8.07,0,0,0,.4-1.439m.538,4.47h.382a3.2,3.2,0,0,0,.4,1.437,1.114,1.114,0,0,0-.133.541v.134q.516,1.347.515,1.437l-.133.27a4.876,4.876,0,0,1,.4,1.976.119.119,0,0,0-.133.135,9.159,9.159,0,0,1,1.055,3.033h-.269a10.772,10.772,0,0,0-.786-2.112,28.3,28.3,0,0,1-1.055-5.278c-.091,0-.136-.083-.136-.248h.136a1.7,1.7,0,0,1-.249-.809c0-.089.038-.134.113-.134l-.113-.247Zm1.955,43.868q1.009.7,3.033,5.121c.268.839.4,1.28.4,1.326h-.4q-1.056,0-1.573-3.033a5.035,5.035,0,0,1-.92-2.493c-.359-.27-.54-.449-.54-.539Zm.54-48.742h.133a15.79,15.79,0,0,0,.651,3.3v1.3c.03.18.121.269.271.269l-.135,1.325a19.971,19.971,0,0,1,.65,3.415,1.053,1.053,0,0,1,.4.921q0,.292-.133,1.46a27.445,27.445,0,0,1,.919,4.739,29.574,29.574,0,0,1,1.191,4.47q.269,0,.269.652V48.45l.651,3.952c-.088.54-.224.809-.4.809a19.237,19.237,0,0,1-1.44-6.2h.136a4.414,4.414,0,0,1-.4-1.46l.136-.246a21.116,21.116,0,0,1-.651-2.381h.134a10.832,10.832,0,0,1-.674-3.414l.136-.271a14.159,14.159,0,0,1-.518-2.38.1.1,0,0,1,.113-.112,11.236,11.236,0,0,0-.653-3.3,1.017,1.017,0,0,1,.136-.4,8.819,8.819,0,0,0-.4-2.224h.136a10.876,10.876,0,0,1-.382-3.437.237.237,0,0,1-.269-.269.977.977,0,0,1,.133-.516A6.674,6.674,0,0,1,359.6,25.4Zm24.639,54.4c.254.091.382.352.382.787V81.4h-1.055a1.132,1.132,0,0,0-.518.113,1.171,1.171,0,0,0-.538-.113l-.65.113V81.4a11.74,11.74,0,0,1-1.46.247c-.076,0-.113-.045-.113-.134a37.193,37.193,0,0,1-4.739.268l-.809-.134-1.978.269v-.135a.881.881,0,0,1-.382.135q-1.032,0-3.683.136v-.136q.4-.921,2.359-.921l.269.136a3.691,3.691,0,0,0,1.191-.675c0,.21.171.344.515.4a4.7,4.7,0,0,0,1.978-.517l.268.112,1.056-.246v.134a2.693,2.693,0,0,1,1.44-.27l-.136-.269,1.324.135h.136c.105,0,.583-.091,1.437-.27h1.6l.382-.247q.5,1.033,1.191,1.033h.269v-.651l.136-.27c-.091,0-.136-.038-.136-.112a.238.238,0,0,0,.269-.27M375.792,58.6h.4v.134a10.333,10.333,0,0,1-.787,1.842,7.834,7.834,0,0,1-.809,2.246v.787q-.381,0-.651,1.842a9.362,9.362,0,0,1-1.706,3.3,2.52,2.52,0,0,1-.786,1.3v-.382q1.391-5.412,1.975-5.412a37.037,37.037,0,0,1,2.223-5.145Zm-1.573,11.455h.136v.4c0,.868-.091,1.3-.269,1.3a1.05,1.05,0,0,1,.133.4l-.133.269a1,1,0,0,1,.133.517q0,.358-1.191,1.46h-.269v-.27a16.824,16.824,0,0,1,1.191-3.413,1.54,1.54,0,0,0,.269-.675m4.875-8.827h.135q-.742,4.358-1.459,4.357l.133.27a6.633,6.633,0,0,0-.515,1.437c.072,0,.11.046.11.135q-.358,0-1.033,2.494l-.268.134v-.269a26.769,26.769,0,0,1,1.191-3.683.889.889,0,0,1-.136-.382q.227,0,.651-1.842.7-1.6.922-1.6v-.134a.885.885,0,0,1-.136-.382c.136-.359.269-.539.4-.539m8.422-23.046v.27l-.133.921a.913.913,0,0,1,.133.382h-.133a1.057,1.057,0,0,1,.133.4c0,.195-.088.855-.269,1.978a.119.119,0,0,0,.136.134l-.136.652v1.842H386.6l-.268-.136A21.627,21.627,0,0,0,386.6,42a.119.119,0,0,1-.135-.134h.135l.269.134.136-.269q-.271,0-.271-.382.294-3.168.786-3.167M387,45.305h.246v1.706q0,.652.136,1.978h-.136l.136.268v.652a.12.12,0,0,1-.136.135l.136.27v.246h-.249L387,49.909h.133l-.133-.27v-.134a1.585,1.585,0,0,1,.246-.787c-.075,0-.2-.172-.382-.516a1.039,1.039,0,0,1,.136-.4l-.136-1.842Z" transform="translate(-568 953.363)" fill="#db0000"/>
    <path id="Path_14" data-name="Path 14" d="M375.668,71.844l.27.134c-.091.63-.135.981-.135,1.057a1.791,1.791,0,0,0,.135.921q-.182,5.187-.4,6.985l.135.27q-.135.381-.269.381l.134.27-.269,2.628a.119.119,0,0,0,.135.134l-.27,1.842a.119.119,0,0,0,.135.135l-.135.652v1.864q-.383,3.864-.382,6.042c-.18.03-.269.12-.269.27a.909.909,0,0,1,.134.4h-.134l.134.247c-.06.614-.149.921-.27.921a13.742,13.742,0,0,1,.27,1.841c-.149,0-.285.316-.4.944.09.045.134.352.134.921h-.134v.786q0,.27-.246.27a1.331,1.331,0,0,0-.136-.674,3.369,3.369,0,0,1,.247-.921,12.123,12.123,0,0,1-.111-1.438l.111-.92-.247-.135v.246h-.269a2.045,2.045,0,0,0,.516-1.167l-.111-.27a1.2,1.2,0,0,0,.111-.539c-.164,0-.247-.262-.247-.786a.218.218,0,0,0,.247-.247V91.88a6.972,6.972,0,0,0-.516-1.595h.269v-.247h-.269q0-.539.516-.539v-.652a8.075,8.075,0,0,0-.111-1.19c.074-.27.157-.4.246-.4l-.246-1.977h.246a.905.905,0,0,1-.135-.381l.135-.271-.135-.268a58.98,58.98,0,0,0,1.191-7.1l-.135-.27v-.134q.4-2.022.4-2.112a.119.119,0,0,0-.134-.135l.269-2.089-.135-.269a.888.888,0,0,0,.135-.4m-1.056.27v.539c0,.074-.045.112-.134.112a1.039,1.039,0,0,1,.134.4l-.134.269a.912.912,0,0,1,.134.382,9.528,9.528,0,0,0-.27,2.112h-.134V74.741a.912.912,0,0,1,.134-.382l-.134-.269q.09-1.977.4-1.976m2.112-32.93v.135a7.761,7.761,0,0,1-.539,2.112,2.5,2.5,0,0,1,.135.786,1,1,0,0,1-.517.135,7.268,7.268,0,0,0-.135-.787q.314-2.245.652-2.246a1.045,1.045,0,0,1,.4-.135m.135,7.256a9.388,9.388,0,0,0,.111,1.437,1.205,1.205,0,0,0-.111.539,1.04,1.04,0,0,1,.111.382l-.246.134-.27-.785q0-1.707.4-1.707m.516-6.065.27.135.269-.135v1.3a.119.119,0,0,1-.134.135l.381,1.841-.247.135c.075.525.157.786.247.786l-.134.674v1.056l.269.382-.135.269a1.054,1.054,0,0,0,.135.4,16.945,16.945,0,0,1-.269,2.358,7.881,7.881,0,0,1,.269,1.595l-.135.246a6.994,6.994,0,0,1,.135,1.326l.27-.135v.135l-.136.27.136.651q-.27.045-.27.27v.134h.27v.112l-.27.4.134.652H378.3l.27.673c-.09.9-.136,1.6-.136,2.089l.136.674h-.136l.136.27v1.167a.238.238,0,0,1-.27.27h-.135v-.134l.135-.27a.908.908,0,0,1-.135-.382h.135l-.135-.269v-.136q0-.919-.134-2.9a.119.119,0,0,0,.134-.134q-.18,0-.381-.382a9.727,9.727,0,0,0,.247-1.708v-.134a1.188,1.188,0,0,0-.113-.539c0-.091.038-.136.113-.136l-.113-.921v-.246a1.191,1.191,0,0,1,.113-.539q-.2-1.057-.518-5.009h.136l-.136-.247a1.025,1.025,0,0,1,.136-.539,4,4,0,0,1-.27-1.573.118.118,0,0,0,.134-.135.237.237,0,0,1-.268-.27,4.606,4.606,0,0,1,.134-1.189l-.269-1.842Zm.27,44.654h.135a10.3,10.3,0,0,0,.134,1.437l-.134.27a.119.119,0,0,0,.134.135L377.78,88.2v1.572a21.986,21.986,0,0,0,.134,2.359,21.5,21.5,0,0,0-.269,2.247h-.136q0-1.1-.134-1.191a7.672,7.672,0,0,0,.27-1.708q-.135-1.167-.136-1.437,0-.248.136-2.381c-.09-.465-.136-.726-.136-.786a9.319,9.319,0,0,0,.136-1.842m.135-5.93q.246,1.259.247,1.437a8.144,8.144,0,0,0-.113,1.056l.113.27a1.037,1.037,0,0,0-.113.4h-.134l-.135-.921a.118.118,0,0,1,.135-.134,7.088,7.088,0,0,1-.271-1.977Zm.247-3.819a1.553,1.553,0,0,0,.134.786l-.381,1.708h-.135v-.651a.119.119,0,0,1,.135-.136l-.135-.269v-.135a.98.98,0,0,1,.135-.517l-.135-.269c.135-.344.261-.517.382-.517m.921-8.827a1.022,1.022,0,0,0,.134.4.984.984,0,0,0-.134.517l.134.27-.134.246a.119.119,0,0,0,.134.136,28.075,28.075,0,0,1-.516,2.763.118.118,0,0,0,.134.134,10.817,10.817,0,0,0-.27,1.594h-.269v-.134l.135-.674c-.18,0-.269-.083-.269-.247h.269v-.539c-.255,0-.382-.082-.382-.248v-.134l.382.248A1.572,1.572,0,0,1,378.43,70V69.62h.136v-.673l.134-.248h-.27a1.5,1.5,0,0,0,.4-.921.238.238,0,0,1-.269-.27l.134-.269-.134-.27q.2-.516.382-.516M393.57,39.589l1.73.247a.9.9,0,0,1,.381-.135c.614.075.922.166.922.27l.269-.135.652.4h2.245q1.821,0,6.312,2.112a3.359,3.359,0,0,1,2.785,1.841,7.293,7.293,0,0,1,3.01,3.684,22.481,22.481,0,0,1,1.865,3.549,28.3,28.3,0,0,0,2.493,4.223,32.958,32.958,0,0,0,1.438,6.065,7.024,7.024,0,0,1,.539,2.111l.27-.135h.134v.248h-.27v.269l.27-.135v.135a1.024,1.024,0,0,0-.134.539h.246v.135a7.52,7.52,0,0,0,.675,2.9c.253,1.363.382,2.149.382,2.358a.906.906,0,0,0-.136.4c.359,0,.539.263.539.786a5.509,5.509,0,0,0,.27,1.438l-.27.134.27,1.057a1.013,1.013,0,0,0-.135.4.12.12,0,0,1,.135.136c-.091,0-.135.037-.135.111h.135c0-.074.045-.111.134-.111l.113,1.3v.269a1.127,1.127,0,0,1-.113.517c0,.09.038.135.113.135l-.113.674v2.089l-.134.269h.134c0-.089.038-.135.113-.135l-.113.674.113.786a29.041,29.041,0,0,0-.382,4.74c-.09,0-.135.09-.135.269h.27a14.033,14.033,0,0,0-.921,2.9q-.2.022-.539,1.437c-.134,0-.308.352-.516,1.055q-.585.225-2.247,4.223c-.194,0-.682.434-1.459,1.3q-2.359,2.739-2.36,3.167l-.269-.135a17.893,17.893,0,0,1-2.762,2.247q0,.425-2.382,1.707,0,.539-4.987,2.246a11.843,11.843,0,0,0-1.841.382c-.09,0-.135-.038-.135-.113a9.809,9.809,0,0,1-2.246.248H396.6a.994.994,0,0,0-.518.134,1.033,1.033,0,0,0-.539-.134q-.921.133-1.055.134l-.247-.134a1.119,1.119,0,0,1-.539.134l-.787-.134a13.685,13.685,0,0,1-1.706.268q-.988-.269-1.056-.268l-.269.134-.787-.134a3.038,3.038,0,0,1-1.325.4c-.344-.075-.517-.166-.517-.27l-.27.134q-.494,0-2.762-.268a8.171,8.171,0,0,1-1.572.134.12.12,0,0,1-.136-.134.119.119,0,0,0-.134.134q-1.056-.09-1.055-.269l-.27.135c-.435,0-.651-.083-.651-.248l-.27.113h-.382a1.188,1.188,0,0,1-.539-.113,1.14,1.14,0,0,1-.517.113c-.179,0-.27-.083-.27-.247l.136-.539a2.087,2.087,0,0,1-.27-1.056v-.786l.27-1.573q0-.674-.136-1.976l.136-.539a4.006,4.006,0,0,1-.136-1.057l.27-.112-.134-.268.134-.271h-.27c.03-.179.121-.27.27-.27l-.134-.246V95.833a.119.119,0,0,1,.134-.135l-.134-.269v-.787l.269-.4v-.517h-.269v-.134a.118.118,0,0,1,.134-.134l-.134-.27V92.8c.18,0,.269-.046.269-.135a12.767,12.767,0,0,1,.113-1.46,12.2,12.2,0,0,1-.113-1.438l.113-.269a1.139,1.139,0,0,1-.113-.516v-.27l.247-.4a6.389,6.389,0,0,0-.134-1.167l.269-2.382-.135-.651a17.224,17.224,0,0,0,.135-1.976v-.54a.989.989,0,0,0-.135-.517.119.119,0,0,1,.135-.134l-.135-.652a.913.913,0,0,1,.135-.4,5.062,5.062,0,0,1-.269-1.326,21.291,21.291,0,0,1,.539-4.6h-.27q.291-.182.652-2.763c0-.09-.038-.136-.113-.136a34.671,34.671,0,0,1,.382-3.952c0-.075-.044-.427-.135-1.057l.135-.516q-.315-2.38-.517-2.381l.135-.652v-.134q-.27-2.225-.269-2.493v-.4a.119.119,0,0,1,.134-.136l-.134-.246v-.809l-.135-.787a1.275,1.275,0,0,0,.135-.65l-.135-.271q.359-2.111.517-2.11l-.113-.248q.09-.808.247-.809l-.134-.246a5,5,0,0,1,.269-1.325h-.269L380,51.56V49.854a.119.119,0,0,1,.135-.135,6.149,6.149,0,0,1-.382-2.247h.113a37.752,37.752,0,0,1-.787-5.794h.135l-.135-.247v-.787a.119.119,0,0,1,.135-.134l-.135-.27V40.1c.074,0,.427-.045,1.056-.134V40.1l.27-.134h2.9a22.348,22.348,0,0,0,2.381-.135l.517.135q1.459-.136,2.627-.135h1.461a.119.119,0,0,1,.135.135l.246-.135h2.246c.435,0,.652-.083.652-.247m-11.052-3.437q.945.135,1.057.135a.89.89,0,0,1,.382-.135v.135a.119.119,0,0,0,.134-.135l.651.135h1.864l.921.135v.134a4.394,4.394,0,0,0-1.324.248l-.27-.113a26.358,26.358,0,0,1-4.6.381,4.792,4.792,0,0,1-1.842.541.12.12,0,0,0-.135-.136l.135-.673-.27-.382q.764,0,2.112-.135v.135a2.907,2.907,0,0,1,1.189-.27m0,2.112h.652V38.4a24.771,24.771,0,0,1-3.3.382l-.113-.246a15.469,15.469,0,0,1,2.762-.27m-2.11,69.295q1.977.043,1.976.246a.119.119,0,0,0,.134-.135l1.3.135H385.8a1.029,1.029,0,0,0,.539-.135.886.886,0,0,0,.382.135v.27H386.2c-.27,0-.4-.045-.4-.136q-1.64.181-1.978.27c-.074,0-.112-.045-.112-.134l-.943.134h-.382a1.116,1.116,0,0,1-.539-.134.992.992,0,0,1-.516.134h-.135c-.434,0-.652-.09-.652-.27l-.269.136h-.135v-.27c.179,0,.27-.082.27-.246m4.088,2.223q.4,0,5.795.269a1.281,1.281,0,0,0-.135.652H388.7a.975.975,0,0,0-.517.135,8.8,8.8,0,0,0-2.246-.27l-.247.135-3.436-.517v-.135q2.111-.269,2.246-.269m18.171-2.628c.524.209.787.382.787.516v.135q-.114,0-3.167.134h-1.034v-.134a4.782,4.782,0,0,0,1.3-.135.12.12,0,0,0,.135.135.257.257,0,0,1,.27-.246l.247.111q1.459,0,1.46-.516m3.684-69.025q1.594.27,1.707.269v.382c-.166,0-.247.09-.247.27l-.269-.136a1.026,1.026,0,0,1-.54.136q0-.27-1.842-.516h-1.055l-.248.134V38.4l.652-.134h.787a.119.119,0,0,1,.134.134,2.135,2.135,0,0,1,.921-.269m5.525,65.858v.134a12.983,12.983,0,0,1-3.683,2.381l-1.056.787v.134a.119.119,0,0,1-.135-.134l-.651.134h-.382a62.747,62.747,0,0,1,5.907-3.436m.675-64.8.269.135h.516a10.658,10.658,0,0,1,2.763.517.119.119,0,0,1,.135-.135q0,.269,1.438.809h.134v-.27c.344.525.569.786.675.786.029-.179.112-.269.246-.269q0,.674.539.674a3.859,3.859,0,0,0,1.191.921.119.119,0,0,1,.134-.135q0,.36.652.785a16.627,16.627,0,0,1,1.056,3.82,1.028,1.028,0,0,0-.135.4h-.27q0-.405-1.055-1.325,0-.292-1.055-1.191l-1.978-2.629a8.061,8.061,0,0,0-2.763-1.571q-.133-.585-2.223-1.056h-.269Zm.269,8.963h.113q.246,0,1.46,1.976.92,0,1.841,3.954a2.29,2.29,0,0,1-.786-1.326,6.713,6.713,0,0,1-1.191-2.493,10.211,10.211,0,0,1-1.437-2.111m9.479,49.91h.134l-.134.673.134.517c-.089.27-.18.4-.269.4a.119.119,0,0,0,.135.135,4.607,4.607,0,0,1-.27,1.034.119.119,0,0,0,.135.134q0,2.38-.786,2.381h-.27v.136q0,.088.4.38l.248-.134h.134v.134q0,1.1-2.246,1.6l-.246-.135a28.536,28.536,0,0,0-2.9.651h-.269a8.3,8.3,0,0,1,1.708-1.707,7.942,7.942,0,0,0,1.46-1.976q.2,0,1.3-1.708a3.075,3.075,0,0,0,.921-1.73ZM419.536,39.7a.89.89,0,0,0,.382.135.119.119,0,0,1,.134-.135,4.12,4.12,0,0,1,.921,1.864c.2,0,.329.172.4.516h.134a1,1,0,0,0-.134.518h-.27c0-.075.045-.113.135-.113q-.045-.358-.652-.673c0-.195-.179-.322-.539-.382,0-.165-.306-.427-.921-.787,0,.076-.045.113-.134.113,0-.344-.09-.517-.27-.517,0,.09-.038.135-.112.135v-.539a3.892,3.892,0,0,0,.921-.135m-.921,17.789,1.033.652q1.324,4.47,1.325,4.627v.517l-.134.27c.179.03.269.119.269.269h-.135a.9.9,0,0,0-.516-.269l.134-.27a.7.7,0,0,1-.539-.517,1.092,1.092,0,0,0,.135-.539V62.1q-.293,0-.4-.652h-.136v-.651q0-.943-.517-1.056l.135-.269-.135-.27a.881.881,0,0,0,.135-.382q-.336,0-.651-1.326m4.47,6.851a31.012,31.012,0,0,1,.787,4.47h-.136a5.058,5.058,0,0,1,.27,1.325,17.1,17.1,0,0,0-.134,2.247l-.136.27q.27.022.27.246a8.173,8.173,0,0,0-.4,2.763h-.111l.111.27c0,.089-.037.134-.111.134,0,.091.036.136.111.136l-.111.785q-.562,0-.675-1.325a13.051,13.051,0,0,1,.27-2.088,4.855,4.855,0,0,1-.27-1.057.357.357,0,0,1,.4-.4v-.27c-.269,0-.4-.082-.4-.248v-.134c0-.269.045-.4.136-.4l-.518-4.334a1.192,1.192,0,0,0,.113-.4,1.028,1.028,0,0,1-.113-.4h.113l-.113-.248V64.477a1.272,1.272,0,0,0,.652-.136m.269-9.1h.382l.539,2.785-.269.113a12.8,12.8,0,0,1-.921-2.358v-.135c.18,0,.269-.135.269-.4" transform="translate(-568 953.363)" fill="#db0000"/>
  </g>
</svg>
