<svg id="Group_2" data-name="Group 2" xmlns="http://www.w3.org/2000/svg" width="595.721" height="132.036" viewBox="0 0 595.721 132.036">
  <path id="Path_28" data-name="Path 28" d="M432.12,314.74a2.155,2.155,0,0,1-2.236-1.4,12.961,12.961,0,0,1-.559-4.051,30.507,30.507,0,0,0,.7-3.491c.7-11.034,1.258-21.926,1.816-32.821V263.9h-3.214a8.309,8.309,0,0,1-5.445-1.537,2.823,2.823,0,0,1-1.258-1.956,1.679,1.679,0,0,1,.279-1.116,1.979,1.979,0,0,1,1.676-.978,3.376,3.376,0,0,1,1.815.56,6.534,6.534,0,0,0,3.911,1.255l2.515-.278c.139-2.514.279-5.167.279-7.821,0-7.682,0-15.363-.279-23.045a79.082,79.082,0,0,0-1.537-9.776,20.1,20.1,0,0,0-1.258-3.073,3.2,3.2,0,0,1-.417-1.537,2.708,2.708,0,0,1,2.374-2.233,3.066,3.066,0,0,1,1.815.559,10.129,10.129,0,0,0,3.213,1.675c5.446,1.258,10.755,2.654,16.2,3.353l1.677.14c2.654,0,5.446-.7,8.24-.978a6.252,6.252,0,0,1,2.794.559,2.179,2.179,0,0,1,.838,1.675v.279c0,.42-.978.839-1.537,1.118-.42.279-.838.139-1.4.279a45.96,45.96,0,0,1-7.542.7,62.468,62.468,0,0,1-15.224-2.1c-1.816-.559-3.631-.976-5.866-1.535a98,98,0,0,1,2.1,21.926l-.279,14.245.139,5.307H439.1l15.923-1.537a2.489,2.489,0,0,1,2.654,2.094v.279c0,1.537-1.117,2.1-2.934,2.236l-17.318.978-1.117.279c-.14,2.513-.279,5.028-.279,7.4-.56,10.894-1.258,21.648-1.677,32.542v1.117a54.252,54.252,0,0,0,.559,6.7v.56a2.148,2.148,0,0,1-1.675,2.374Z" transform="translate(45.679 -212.367)" fill="#f2fe04"/>
  <path id="Path_29" data-name="Path 29" d="M457.782,337.557h-.7a6.2,6.2,0,0,1-4.749-1.816,2.435,2.435,0,0,1-.978-1.954,3.07,3.07,0,0,1,.14-1.118,12.631,12.631,0,0,0,.559-3.909c0-9.917-.279-19.972-.279-30.029v-6.423a7.665,7.665,0,0,1-2.793-.559c-.838-.42-1.816-1.4-1.816-2.1s1.117-1.4,1.956-1.956a2.75,2.75,0,0,1,1.117-.138h1.4v-6.006a235.344,235.344,0,0,0-3.77-38.269,34.573,34.573,0,0,0-1.537-5.028L446.049,237a2.439,2.439,0,0,1,.978-1.955,2.224,2.224,0,0,1,1.4-.7,3.963,3.963,0,0,1,1.675.56c4.469,3.071,9.779,3.63,14.944,4.608a46.934,46.934,0,0,0,8.8.838c2.932,0,5.865-.279,8.8-.418a8.183,8.183,0,0,1,3.212.559,2.9,2.9,0,0,1,1.118,2.233,2.6,2.6,0,0,1-1.677,1.258h-9.917a63.917,63.917,0,0,1-13.687-1.117c-2.513-.559-5.167-1.257-7.681-1.956l-2.1-.558a269.9,269.9,0,0,1,3.911,44.832v2.235c1.816-.139,3.212-.418,4.609-.559l14.385-1.676,3.773-.7a2,2,0,0,1,2.094,1.816v.559c0,1.256-.978,2.094-2.653,2.235-2.236.139-4.469,0-6.7.279l-14.246,2.1-1.117.279v9.776l.418,25.977a6.773,6.773,0,0,0,.14,1.676c.559,2.932,1.537,3.911,4.05,3.911h.978c8.1-.42,16.2-.978,24.441-1.537a3.122,3.122,0,0,0,1.954-.417,2.078,2.078,0,0,1,1.258-.279,2.572,2.572,0,0,1,1.955,1.255,3.313,3.313,0,0,1,.42,1.677l-.139.838c-.56,1.256-1.816,1.256-3.074,1.256-2.094-.14-4.19-.278-6.424-.278l-2.793.138c-7.122.42-14.246,1.117-21.368,1.816" transform="translate(48.836 -209.491)" fill="#f2fe04"/>
  <path id="Path_30" data-name="Path 30" d="M472.571,317.277a3.8,3.8,0,0,1-2.233-.559,2.939,2.939,0,0,1-.978-1.956,2.685,2.685,0,0,1,.42-1.394,2.985,2.985,0,0,0,.418-1.677l.837-19.833-.279-1.116.14-.559c.139-.978.421-1.955,1.117-2.236a1.633,1.633,0,0,1,.978-.279,2.537,2.537,0,0,1,1.537.56,2.969,2.969,0,0,1,.976,2.094v.278c-1.116,5.028-1.116,10.2-1.116,15.085l.14,2.933-.14,3.073.14,1.118,9.5-1.4c1.4-.279,2.793-.559,4.05-.7,2.514-.42,2.653-.42,2.653-2.932l.14-2.656a78.03,78.03,0,0,1,.418-7.96c.42-2.792,1.118-5.586,1.816-8.38.978-3.212,1.4-4.888,2.235-8.239l1.258-4.609a5.95,5.95,0,0,0,.279-1.536v-.559H495.9c-5.865.418-11.871.7-17.877,1.256-.279,0-.42.141-.7.28a3.291,3.291,0,0,1-1.117.278h-.417a2.9,2.9,0,0,1-2.1-.559,3.678,3.678,0,0,1-.978-2.235v-.42a26.821,26.821,0,0,0,1.258-8.8l-.14-3.909c0-8.52-1.955-17.18-3.491-24.862l-.838-3.911a19.222,19.222,0,0,0-2.654-7.96,2.244,2.244,0,0,1-.42-1.258,2.012,2.012,0,0,1,.279-.977,2.254,2.254,0,0,1,1.955-.977c5.447,0,9.778-1.258,15.085-2.794,1.4-.418,2.792-.838,4.19-1.116a29.708,29.708,0,0,1,9.915-1.816h1.536c1.956.28,3.074.978,3.773,2.514a7.009,7.009,0,0,0,1.116,1.676,43.542,43.542,0,0,1,6.844,10.895l.279,1.255-.14.7a2.246,2.246,0,0,1-1.536,1.116h-.14a32.616,32.616,0,0,1-5.307,1.4,75.806,75.806,0,0,0-15.5,4.191c-.279.282-.7.282-1.117.56H487.1a1.939,1.939,0,0,1-1.956-1.677v-.559c0-1.117.838-1.4,1.677-1.674,5.866-1.4,11.872-2.935,17.6-4.47a13.469,13.469,0,0,0,2.375-.7l.42-.279-1.676-3.213-1.677-2.374-1.675-2.236a6.948,6.948,0,0,0-6.006-3.351,15.65,15.65,0,0,0-3.352.418l-14.943,4.051-6.006,1.536c.559,3.631,1.256,7.264,1.955,10.753,1.815,9.917,3.911,19.972,3.911,30.447l-.279,5.867h2.653l18.3-1.258a2.988,2.988,0,0,1,2.513.977,2.439,2.439,0,0,1,.559,1.677l-.139,1.116-1.956,6.984L496.733,290.6a42.416,42.416,0,0,0-1.258,8.1c-.279,3.071-.279,6.143-.418,9.079a15.625,15.625,0,0,0,.418,3.35l.14,1.118a4.049,4.049,0,0,1-.559,1.956,2.46,2.46,0,0,1-1.815.836,2.407,2.407,0,0,1-.978-.138,6.245,6.245,0,0,0-2.792-.559,27.092,27.092,0,0,0-3.493.417l-1.4.279c-2.236.28-4.47.839-6.565,1.258l-4.889.978Z" transform="translate(51.502 -212.145)" fill="#f2fe04"/>
  <path id="Path_31" data-name="Path 31" d="M506.142,340.906h-.279a4.406,4.406,0,0,1-2.374-.839,1.617,1.617,0,0,1-.838-1.535,4.982,4.982,0,0,1,.279-1.4,34.044,34.044,0,0,0,1.116-4.05c3.353-13.27,5.03-26.956,6.146-40.643,1.258-14.944,2.514-30.028,3.632-44.971v-3.213l-10.336.559c-3.632.279-7.4.42-11.173.42a18.862,18.862,0,0,1-3.911-.559,2.556,2.556,0,0,1-2.1-2.793l5.587-.14c1.956.14,3.771.7,5.727.7l14.386-.978c.418-.139,1.117-.279,1.4-.7q1.048-1.678,2.094-1.677a3.006,3.006,0,0,1,1.816.838,4.731,4.731,0,0,0,2.932.839l18.3-1.537c1.4,0,3.071,1.117,3.071,1.955v.14c0,1.117-1.116,1.676-2.932,1.676l-17.877.558-2.792.42c-.14,2.654-.42,5.168-.7,7.822-.7,9.357-1.4,18.854-2.236,28.351q-1.257,15.292-2.932,30.587c-.418,4.749-1.258,9.5-1.955,14.246-.419,2.794-1.256,5.587-1.815,8.38-.279,1.676-.279,3.353-.42,5.028,0,1.258-.559,2.375-1.816,2.515" transform="translate(54.105 -208.87)" fill="#f2fe04"/>
  <path id="Path_32" data-name="Path 32" d="M46.77,291.683q.879,0,1.755.049c.586.033,1.172.048,1.756.048q3.316-.095,3.122,3.122a89.7,89.7,0,0,0,.2,10.292,45.767,45.767,0,0,1-.391,10.292c-.064.648-.163,1.3-.292,1.951s-.294,1.3-.489,1.951q-.782,2.728-1.658,3.218t-3.707-.489a22.089,22.089,0,0,0-5.512-1.219,24.894,24.894,0,0,0-5.61.147,23.482,23.482,0,0,1-2.633.049q-1.367-.049-2.731-.049-3.61-.2-7.171-.1a38.75,38.75,0,0,0-7.17.876q-3.026.682-4.244-.292t-1.415-4.2q-.489-8.386-1.267-16.876t-.879-17.07a54.549,54.549,0,0,1,.731-8.975q.733-4.388,1.317-8.877.587-4.877.976-9.8a54.451,54.451,0,0,1,1.658-9.707,28.963,28.963,0,0,1,1.513-4.486,19.166,19.166,0,0,0,1.316-4.585,2.265,2.265,0,0,1,1.073-1.61,5.724,5.724,0,0,1,1.853-.732q1.267-.2,2.535-.293t2.538-.195a3.313,3.313,0,0,1,.78.1.71.71,0,0,1,.487.294,3.4,3.4,0,0,0,1.853,1.9,4.866,4.866,0,0,0,2.292.147,15.109,15.109,0,0,1,2.391-.2,17.258,17.258,0,0,0,2.2-.145,16.592,16.592,0,0,1,2.194-.147,4.578,4.578,0,0,1,2.732.779,3.3,3.3,0,0,1,.779,2.538q-.1,5.852,0,11.656t-.389,11.658q-.293,3.9-.536,8a23.623,23.623,0,0,0,.925,8.1,18.286,18.286,0,0,1,.732,4.78q.049,2.438.05,4.975,0,2.047.487,2.488a4.732,4.732,0,0,0,2.634.439H45.16a12.9,12.9,0,0,0,1.61-.1ZM9.994,293.047a122.26,122.26,0,0,0,.879,12.974q.779,6.439,1.268,12.877c.063,1.039.423,1.659,1.073,1.855a3.986,3.986,0,0,0,2.145,0,33.778,33.778,0,0,1,7.951-1.172,54.485,54.485,0,0,1,7.95.389,21.5,21.5,0,0,0,4.341-.048q2.1-.244,4.243-.633a2.789,2.789,0,0,0,2.439-2.634q.193-3.611.439-7.171t.536-7.17q.293-2.926-2.537-2.829a21.018,21.018,0,0,1-4.291-.244,35.289,35.289,0,0,1-4.2-.926,6.591,6.591,0,0,1-3.073-1.609q-.636-.829-.536-3.365A37.535,37.535,0,0,1,29.8,285.78a50.82,50.82,0,0,0,1.366-7.559q.487-4.293.976-8.634a78.557,78.557,0,0,0,.487-8.731,65.449,65.449,0,0,0-.537-9.754,64.365,64.365,0,0,1-.536-9.66q0-.972-.049-1.9t-1.512-.925a12.017,12.017,0,0,0-2.634.1c-.911.131-1.463.779-1.659,1.951q-.292,1.954-1.365,2.39a5.212,5.212,0,0,1-2.634.244,16.006,16.006,0,0,1-1.756-.292,4,4,0,0,0-1.756,0,9.21,9.21,0,0,0-2,.439,2.13,2.13,0,0,0-1.317,1.8q-.293,1.367-.683,2.781a21.487,21.487,0,0,0-.586,2.878q-.684,7.023-1.755,14t-1.658,14a102.583,102.583,0,0,0-.2,14.145m10.535-51.018a3.412,3.412,0,0,1,1.9-.049,1.226,1.226,0,0,0,1.512-.732,19.518,19.518,0,0,0,.828-2.44,3.348,3.348,0,0,0-.34-2.535,1.59,1.59,0,0,0-1.61-.975q-1.025.1-2,.2a4.241,4.241,0,0,0-3.074,1.121,4.948,4.948,0,0,0-.927,3.365c.064.911.308,1.462.732,1.658a2.554,2.554,0,0,0,1.513.147,1.97,1.97,0,0,1,1.462.244m16.39,5.56q.095-2.051.146-4.1t.049-4.1q0-2.244-2.634-2.245-1.269.1-1.562.733a3.857,3.857,0,0,0-.292,1.608q.2,2.149.342,4.2t.244,4.193q.485,6.929.487,13.9a90.739,90.739,0,0,1-1.073,13.9q-.684,4.39-1.366,8.781T29.8,293.147a3.22,3.22,0,0,0,2.244,3.9,20.741,20.741,0,0,0,5.024,1.268,33.116,33.116,0,0,0,5.121.194,3.305,3.305,0,0,1,2.05.536q.68.538.487,2.1a3.02,3.02,0,0,0-.05.975c.032.391.211.587.537.587,1.039.063,2.081.114,3.121.145a9.379,9.379,0,0,0,3.122-.439c.323-.064.487-.389.487-.976v-3.365q0-1.7-.1-3.365c0-.715-.164-1.153-.489-1.316a2.646,2.646,0,0,0-1.561-.049q-2.341.489-4.634,1.073a14.808,14.808,0,0,1-4.828.39,4.239,4.239,0,0,1-2.537-.879,3.891,3.891,0,0,1-.781-2.537q-.1-2.534-.1-5.024a30.993,30.993,0,0,1,.39-4.925,18.776,18.776,0,0,0-.2-7.122,28.455,28.455,0,0,1-.682-7.023q.095-4.977.146-9.9t.342-9.8m6.535,68.188a14.74,14.74,0,0,0,.049,2.829,1.747,1.747,0,0,0,1.025,1.316,25.3,25.3,0,0,0,2.926,1.122q2.928.877,3.61-1.951a21.381,21.381,0,0,0,.781-5.706,43.89,43.89,0,0,1,.389-5.8,6.535,6.535,0,0,0-.047-2.39q-.246-1.121-2.292-1.219a9.448,9.448,0,0,0-4.147.34c-.748.357-1.219,1.254-1.415,2.682a38.528,38.528,0,0,0-.536,4.439q-.146,2.293-.342,4.341" transform="translate(-8.433 -209.519)" fill="#f2fe04"/>
  <path id="Path_33" data-name="Path 33" d="M53.7,273.547a17.732,17.732,0,0,1,.682-10,71.444,71.444,0,0,1,4.194-8.926,83.57,83.57,0,0,1,4.879-7.854q2.633-3.752,5.169-7.657a25.4,25.4,0,0,1,9.853-8.975,23.255,23.255,0,0,1,13.363-2.049q1.757.1,3.514.343t3.511.439a10.986,10.986,0,0,1,6.487,2.634,13.138,13.138,0,0,1,3.658,6.145,39.883,39.883,0,0,1,1.415,7.463q.341,3.756.439,7.561.2,6.049.244,12.144a51.938,51.938,0,0,1-1.317,12.048,75.963,75.963,0,0,1-3.317,10.534,30.029,30.029,0,0,1-6.048,9.464q-.585.584-1.17,1.17a3.782,3.782,0,0,1-1.366.876,17.6,17.6,0,0,0-6.292,4.048q-2.684,2.685-5.121,5.512a13.472,13.472,0,0,1-6.927,4.633,21.731,21.731,0,0,1-8.39.44,7.4,7.4,0,0,1-4.536-2.2,36.112,36.112,0,0,1-3.17-3.853,42.959,42.959,0,0,1-5.316-9.756,31.981,31.981,0,0,1-2.1-11.12,20.586,20.586,0,0,0-1.268-6.584,17.082,17.082,0,0,1-1.072-6.488m38.922,4.1q-.1-1.559-.244-3.025a21.153,21.153,0,0,0-.537-3.023,41.735,41.735,0,0,0-2.194-7.17,42.3,42.3,0,0,1-2.2-7.074q-.587-2.828-1.219-5.462t-1.415-5.366a7.416,7.416,0,0,0-2.39-3.706,5.814,5.814,0,0,0-3.854-1.562,20.439,20.439,0,0,0-7.414,1.562,18.873,18.873,0,0,0-6.341,4.389,20.319,20.319,0,0,0-3.707,5.072q-1.464,2.831-3.122,5.56a25.027,25.027,0,0,0-3.511,10.878,29.681,29.681,0,0,0,1.463,11.268,126.009,126.009,0,0,0,5.8,14.826q3.365,7.223,6.389,14.536a3.631,3.631,0,0,0,.487.732,1.327,1.327,0,0,0,.684.44,20.285,20.285,0,0,0,8.828,0,11.188,11.188,0,0,0,7.072-5.269,54.809,54.809,0,0,0,6.1-13.169,36.149,36.149,0,0,0,1.317-14.438m-31.8,22.535a13.746,13.746,0,0,0-.633-5.415,23,23,0,0,0-2.391-4.829,23.562,23.562,0,0,0,.586,5.415,12.354,12.354,0,0,0,2.438,4.829M83.06,282.424a13.838,13.838,0,0,1,.1,4.925,31.262,31.262,0,0,1-1.268,5.22,7.356,7.356,0,0,1-3.414,4.34,12.948,12.948,0,0,1-6.146,1.806,5.821,5.821,0,0,1-4.292-1.317,10.3,10.3,0,0,1-2.537-3.757q-1.172-3.021-2.292-6.048a13.125,13.125,0,0,1-.732-6.243q.487-3.315.878-6.631a37.6,37.6,0,0,1,1.365-6.538,40.814,40.814,0,0,1,2.049-4.877,12.5,12.5,0,0,1,3.317-4.1,5.481,5.481,0,0,1,5.658-1.17,3.489,3.489,0,0,1,2.1,1.706,6.754,6.754,0,0,1,.732,2.682,26.657,26.657,0,0,0,1.073,5.952q.879,2.926,1.853,5.853.585,1.852,1.073,3.8a18.193,18.193,0,0,1,.487,4.391M66.087,308.373a13.6,13.6,0,0,0-1.219-3.561,29.216,29.216,0,0,0-1.9-3.17q.487,1.852,1.025,3.609a6.734,6.734,0,0,0,2.1,3.122m15.8-26.34q-.1-1.364-.244-2.634a14.218,14.218,0,0,0-.536-2.535q-1.172-3.608-2.244-7.17a54.662,54.662,0,0,1-1.659-7.269q-.39-3.121-2.341-3.657t-4.39,1.511a13.315,13.315,0,0,0-4.292,6.83q-.977,3.9-1.756,7.9-.39,2.146-.633,4.438a19.182,19.182,0,0,0,.047,4.536,25.952,25.952,0,0,0,1.317,5.269,41.992,41.992,0,0,0,2.2,4.976,5.732,5.732,0,0,0,1.366,2,4.538,4.538,0,0,0,2.146,1.123,8.969,8.969,0,0,0,10.047-5.756,27.2,27.2,0,0,0,1.123-4.732,14.261,14.261,0,0,0-.147-4.829M90.767,263.5q-.1-1.464-.147-2.927a16.133,16.133,0,0,0-.342-2.829q-.78-3.608-1.561-7.121a25.147,25.147,0,0,0-2.634-6.828,9.261,9.261,0,0,0-4.1-4.048,9.8,9.8,0,0,0-5.072-.879,14.248,14.248,0,0,0-5.073,1.463,14.452,14.452,0,0,0-4.1,2.976,34.387,34.387,0,0,0,4.633-1.855,11.523,11.523,0,0,1,4.634-1.17,8.847,8.847,0,0,1,5.9,1.512,7.687,7.687,0,0,1,3.365,4.732q.487,2.536,1.025,5.072t1.122,5.073q.485,1.756.829,3.512a8.029,8.029,0,0,0,1.512,3.317M68.915,239.893a6.2,6.2,0,0,0,2.39-.391q.926-.388,1.708-.683,8.29-3.119,12.78,2.244a25.116,25.116,0,0,1,4.292,8.877,46.015,46.015,0,0,1,1.414,8.2,33.726,33.726,0,0,0,1.709,8.194c.195.65.373,1.364.536,2.146a6.336,6.336,0,0,1,.049,2.34,53.869,53.869,0,0,0-.293,7.269,26.812,26.812,0,0,0,1.17,7.167,11.247,11.247,0,0,1,.343,5.563,43.684,43.684,0,0,1-1.415,5.365c-.2.583-.424,1.17-.684,1.755a3.1,3.1,0,0,0-.1,2.049,18.664,18.664,0,0,0,3.561-1.463,11.271,11.271,0,0,0,2.878-2.245,31.8,31.8,0,0,0,6.195-9.609,52.027,52.027,0,0,0,3.17-10.876,82.417,82.417,0,0,0,1.365-16.975,149.811,149.811,0,0,0-1.365-17.07,29.858,29.858,0,0,0-.976-4.78,10.629,10.629,0,0,0-2.292-4.146,7.958,7.958,0,0,0-4.536-2.39,59.856,59.856,0,0,0-9.317-1.415,32.586,32.586,0,0,0-9.511.731,15.742,15.742,0,0,0-7.218,3.757,53.551,53.551,0,0,0-5.853,6.391M87.84,304.081a22.061,22.061,0,0,0,4.1-7.365,38.3,38.3,0,0,0,1.659-8.243,53.614,53.614,0,0,1-2.537,7.9q-1.562,3.8-3.22,7.707" transform="translate(-2.563 -210.336)" fill="#f2fe04"/>
  <path id="Path_34" data-name="Path 34" d="M129.016,324.417a23.118,23.118,0,0,1-4.194-1.023,14.875,14.875,0,0,1-4.2-2.293q-2.341-1.954-4.633-3.757a16.71,16.71,0,0,1-3.95-4.534,29.311,29.311,0,0,1-2.586-6,27.653,27.653,0,0,1-1.121-6.391v-.927a1.838,1.838,0,0,0-.2-.828,11.821,11.821,0,0,1-1.755-6.488q.095-3.367.389-6.682.292-3.608.39-7.171t.489-7.074q.487-4,1.316-7.95t1.513-7.852a.571.571,0,0,1,.1-.39q1.366-2.244,2.781-4.341a11.4,11.4,0,0,0,1.8-4.829,2.741,2.741,0,0,1,1.853-2,10.856,10.856,0,0,1,3.609-.876,4.481,4.481,0,0,1,3.024.632,3.665,3.665,0,0,1,1.61,2.342,4.857,4.857,0,0,1-.243,2.634,35.609,35.609,0,0,0-1.855,9.316q-.292,4.733-.487,9.513a56.512,56.512,0,0,1-.536,6.193q-.439,3.074-.636,6.195a56.48,56.48,0,0,0,.2,10.488,71.929,71.929,0,0,0,1.951,10.388,3.6,3.6,0,0,0,3.122,2.438,5.438,5.438,0,0,0,4.487-.975,15.771,15.771,0,0,0,4.585-5.8A25.021,25.021,0,0,0,137.8,289.3q.584-4.583,1.072-9.072t.586-8.977a73.83,73.83,0,0,1,.878-10.045q.78-4.975,2.049-9.853a3.58,3.58,0,0,1,1.463-2.341,7.393,7.393,0,0,1,2.439-.976q2.534-.487,2.975-1.074t.049-3.121a4.269,4.269,0,0,1,2.341-4.584c.325-.2.649-.389.976-.585a6.643,6.643,0,0,1,.975-.487q3.706-1.657,5.366-.587t1.463,5.073a3.118,3.118,0,0,0,.39,1.853q.388.49,1.852.293a2.836,2.836,0,0,1,2.439.586,2.04,2.04,0,0,1,.39,2.146,59.961,59.961,0,0,0-1.609,13.363q-.051,6.731.34,13.365a69.129,69.129,0,0,1-.292,11.024q-.585,5.464-1.269,10.925-.2,1.756-.34,3.56a17.139,17.139,0,0,1-.634,3.465,5.851,5.851,0,0,1-4.683,4.78,27.118,27.118,0,0,1-3.073.585,23.8,23.8,0,0,1-3.073.195q-2.538.2-2.927,2.244a3.327,3.327,0,0,1-1.463,2.537,16.69,16.69,0,0,0-3.56,3.171q-1.515,1.8-2.878,3.756a8.93,8.93,0,0,1-4.39,3.218,18.379,18.379,0,0,1-6.634.683M109.31,270.178a22.963,22.963,0,0,0-.78,5.952q0,3.024-.1,6.048a39.874,39.874,0,0,1-.634,5.852,12.784,12.784,0,0,0,.342,5.951,66.808,66.808,0,0,0,.878-11.9q-.1-5.951.293-11.9m.293,26.241q-.782,7.708,2.292,12.878a23.851,23.851,0,0,0,9.219,8.584,11.392,11.392,0,0,0,5.755,1.512q2.926-.049,5.952-.147a11.5,11.5,0,0,0,5.559-1.9,16.857,16.857,0,0,0,4.537-4.34,13.1,13.1,0,0,0,2.39-5.365,48.118,48.118,0,0,0,.634-5.707q.146-2.877.047-5.706,0-6.242.44-12.389t.829-12.29a3.542,3.542,0,0,1,.049-.587,3.69,3.69,0,0,1,.147-.585q1.07-5.364,2.487-10.535A59.406,59.406,0,0,1,153.7,249.79q1.265-2.339-1.366-1.951-1.562.293-3.073.585t-3.074.587a2.84,2.84,0,0,0-2.341,2.146q-1.367,4.587-2.293,9.266a48.66,48.66,0,0,0-.925,9.463q-.1,5.365-.684,10.73t-1.17,10.731a16.664,16.664,0,0,1-6.731,11.9,6.871,6.871,0,0,1-3.707,1.268,6.525,6.525,0,0,1-3.707-.879,4.463,4.463,0,0,1-2.145-2.731,77,77,0,0,1-2.146-10.877,44.22,44.22,0,0,1,0-10.975q.68-5.852.926-11.754t.927-11.755a16.478,16.478,0,0,0,.195-3.218,1.044,1.044,0,0,0-1.073-.976,27.761,27.761,0,0,0-3.317,0,5.97,5.97,0,0,0-4.876,2.146,9.368,9.368,0,0,0-1.855,4.779,34.245,34.245,0,0,0-.342,5.463q.047,2.731-.146,5.463-.293,6.926-.342,13.8a120.583,120.583,0,0,1-.829,13.413m6.146-47.7a2.114,2.114,0,0,0,.146,1.365,1.924,1.924,0,0,0,1.219.391,10.089,10.089,0,0,0,4.732-.44,2.628,2.628,0,0,0,1.9-2.291q.293-3.316-2.537-3.61-4.975-.487-5.462,4.585m24.191,69.359a20.238,20.238,0,0,1-4.78,1.8,33.588,33.588,0,0,1-4.78.732,35.629,35.629,0,0,1-4.535-.1,20.01,20.01,0,0,1-4.83-1.073,13.4,13.4,0,0,0,6.682,3.464,13.175,13.175,0,0,0,7.121-.487,9.364,9.364,0,0,0,5.122-4.341m8.682-42.435a122.377,122.377,0,0,0-1.023,13.315q-.146,6.682-.049,13.413.292-6.634.926-13.315a80.35,80.35,0,0,0,.146-13.413m.2,28.581q-.2,2.538.293,3.074t2.927.34q1.072-.2,2.146-.34t2.146-.343a5.221,5.221,0,0,0,4.194-4.293,55.283,55.283,0,0,0,.976-6.438q.292-3.218.682-6.536.487-4,.78-8.095a67.57,67.57,0,0,0,.1-8.1q-.392-6.341-.391-12.634a62.8,62.8,0,0,1,1.269-12.535q.585-3.22-2.537-2.342c-.717.261-1.431.505-2.146.732a16.006,16.006,0,0,1-2.244.538,1.5,1.5,0,0,0-1.169.975Q153.4,253.6,151.4,259.107a25.778,25.778,0,0,0-1.317,11.755q.193,2.438.34,4.876a36.451,36.451,0,0,1-.048,4.976q-.392,5.951-.586,11.852a115.287,115.287,0,0,1-.976,11.658m10.146-61.457q.193-3.415-1.025-4.2t-4.243.683a2.283,2.283,0,0,0-.586.391q-3.22,1.854-1.951,5.852.68,1.854,1.9,1.415a9.322,9.322,0,0,1,2.2-.536q2.536-.293,3.073-.879a4.836,4.836,0,0,0,.634-2.731" transform="translate(4.385 -209.12)" fill="#f2fe04"/>
  <path id="Path_35" data-name="Path 35" d="M164.966,292.6a44.148,44.148,0,0,1,.586-7.17q.585-3.559.975-7.171a63.154,63.154,0,0,0,.1-12.633q-.585-6.292-1.561-12.536a35.7,35.7,0,0,1,1.462-17.655,26.055,26.055,0,0,1,2.391-5.024,45.268,45.268,0,0,0,2.684-5.123,1.046,1.046,0,0,1,.779-.632,4.725,4.725,0,0,1,1.172-.147q3.119-.1,6.242.1a32.718,32.718,0,0,1,6.146.975,10.4,10.4,0,0,0,2.535.293,54.9,54.9,0,0,1,13.95,1.366A36.982,36.982,0,0,1,215.206,233a42.776,42.776,0,0,0,4.34,2.534q2.29,1.17,4.439,2.538a14.023,14.023,0,0,1,6.731,8.975q1.267,4.879,2.488,9.852a30.391,30.391,0,0,1,.732,10.145,22.932,22.932,0,0,1-2.292,8.389,15.583,15.583,0,0,1-6.1,6.342q-2.634,1.562-5.268,3.218a55.2,55.2,0,0,1-5.462,3.025,14.556,14.556,0,0,0-4.2,3.463q-1.854,2.2-3.8,4.146c-.39.39-.766.8-1.122,1.22a3.3,3.3,0,0,1-1.22.925,64.218,64.218,0,0,0-7.463,3.025q-3.657,1.757-7.413,3.122a29.15,29.15,0,0,1-7.951,1.658,24.871,24.871,0,0,1-7.9-.683,65.129,65.129,0,0,0-7.9-1.463,1.4,1.4,0,0,1-1.269-1.073,8.062,8.062,0,0,1-.2-1.756q.2-1.951.342-3.949t.244-4.05m3.805.2a23.832,23.832,0,0,1-.1,3.658q-.2,2-.487,3.95c-.066.456-.114.893-.146,1.317s.342.7,1.121.828q3.415.587,6.731,1.319a20.866,20.866,0,0,0,6.829.34,23.815,23.815,0,0,0,9.658-3.121q4.292-2.534,8.487-5.561a23.728,23.728,0,0,0,7.268-7.658,25.7,25.7,0,0,0,3.073-9.12,56.361,56.361,0,0,0,.487-9.949,33,33,0,0,0-4-14.536,45.893,45.893,0,0,0-9.559-11.9,28.323,28.323,0,0,0-12.34-6.83,42.163,42.163,0,0,0-14.1-.975q-3.316.293-3.316,3.708,0,5.072.243,10.193a98.916,98.916,0,0,1-.049,10.292,153.454,153.454,0,0,0,.147,16.876,144.394,144.394,0,0,1,.049,17.17M179.209,233q2.634.388,5.268.681t5.17.781a42.155,42.155,0,0,1,11.949,4.243,20.088,20.088,0,0,1,8.537,9.12,58.314,58.314,0,0,1,5.268,17.219,52.137,52.137,0,0,1-.683,18.193,5.64,5.64,0,0,1-.389,1.268.976.976,0,0,0,.194,1.172,1.066,1.066,0,0,0,1.121.147q.634-.244,1.317-.44a15.188,15.188,0,0,0,7.17-4.78,16.063,16.063,0,0,0,3.268-7.9,43.564,43.564,0,0,0-.585-15.949,58.856,58.856,0,0,0-5.659-14.877,12.855,12.855,0,0,0-4.047-4.88,17.817,17.817,0,0,0-6-2.634q-5.56-1.559-11.268-2.682a46.965,46.965,0,0,1-11.071-3.657,25.516,25.516,0,0,0-6.146-2.146,20.583,20.583,0,0,0-6.634-.293,6.358,6.358,0,0,0-3.707,1.512,6.016,6.016,0,0,0-1.268,3.757q0,2.144,2.048,2.047c1.039,0,2.065.018,3.073.049s2.032.051,3.074.051m3.22,13.362a23.058,23.058,0,0,1,19.021,11.511,21.013,21.013,0,0,1,2.829,10.732,15.965,15.965,0,0,1-2.1,7.8,21.693,21.693,0,0,1-5.706,6.634,20.813,20.813,0,0,1-8,3.9,54.264,54.264,0,0,1-7.51,1.463q-2.441.2-3.415-.681a4.5,4.5,0,0,1-1.073-3.221q-.2-6.339-.341-12.682t-.34-12.683q0-1.657.049-3.315a10.607,10.607,0,0,0-.44-3.317q-.78-2.828.146-4.293t3.951-1.855a11.756,11.756,0,0,1,1.8-.047c.553.033.927.047,1.123.047m20,24.1q.587-7.8-2.878-12.829a25.941,25.941,0,0,0-8.926-8.047,16.51,16.51,0,0,0-9.949-2.049,4.438,4.438,0,0,0-2.976,1.219q-.926,1.025-.438,3.268a11.076,11.076,0,0,1,.292,2.487c0,.815-.034,1.676-.1,2.586a87.739,87.739,0,0,0,.293,13.7,108.962,108.962,0,0,1,.487,13.8q-.2,2.926,2.828,2.34,2.146-.292,4.293-.683a30.089,30.089,0,0,0,4.194-1.072,19.852,19.852,0,0,0,9.024-5.8,16.412,16.412,0,0,0,3.853-8.926m-20.583.976a55.536,55.536,0,0,1-.244-6.243q.048-3.22-.049-6.586a23.915,23.915,0,0,0-1.17-6.682q-.392-1.265.439-1.364a12.567,12.567,0,0,1,1.415-.1,15.908,15.908,0,0,1,6.242.83,11.092,11.092,0,0,1,5.073,3.754q3.513,4.393,3.365,8.049t-3.56,8.146a15.012,15.012,0,0,1-3.61,3.561,22.787,22.787,0,0,1-4.487,2.39q-2.439.975-3.073.536t-.537-2.976q0-.584.05-1.315c.032-.489.08-1.154.146-2m3.317-19.414a2.976,2.976,0,0,0-1.708.1q-.731.293-.634,1.951.293,4.2.44,8.437t.243,8.537q.1,1.661.78,1.9a2.323,2.323,0,0,0,1.855-.439,24.012,24.012,0,0,0,4.047-3.074,13.923,13.923,0,0,0,2.975-4.145q.682-1.366,1.317-2.586a3.832,3.832,0,0,0,.243-2.779,9.95,9.95,0,0,0-3.56-5.123,11.621,11.621,0,0,0-6-2.78m7.218-24.876a9.852,9.852,0,0,0,3.268,1.707q2.488.93,5.609,1.806t6,1.415a26.122,26.122,0,0,0,4.439.536,20.745,20.745,0,0,0-9.365-4.1q-4.975-.78-9.951-1.366m20.291,36.095a41.254,41.254,0,0,0-2.2-10.39,26.354,26.354,0,0,0-5.316-9.122,16.3,16.3,0,0,0-8.877-5.072,57.346,57.346,0,0,1,10.39,11.071,38.223,38.223,0,0,1,6,13.513m-1.561,23.314a9.1,9.1,0,0,0,2.048-3.707,22.158,22.158,0,0,0,.976-5.169,12.345,12.345,0,0,0-.489-4.78q-.392,3.413-.878,6.876a35.145,35.145,0,0,1-1.658,6.781m10.242-48.093a86.688,86.688,0,0,1,4.39,9.365,55.7,55.7,0,0,1,2.828,9.56,60.506,60.506,0,0,1,.976,9.756,35.518,35.518,0,0,1-1.463,10.437,16.62,16.62,0,0,0,3.463-7.17,32.114,32.114,0,0,0,.732-9.315,41.071,41.071,0,0,0-1.706-9.609,30.8,30.8,0,0,0-3.756-8.146,12.883,12.883,0,0,0-5.463-4.879" transform="translate(11.975 -210.782)" fill="#f2fe04"/>
  <path id="Path_36" data-name="Path 36" d="M208.08,304.443h.164a2.63,2.63,0,0,0,.166,1.294,1.2,1.2,0,0,0-.166.632,43.821,43.821,0,0,1,.5,6.47c.11.311.219.468.33.468l-.165.826v1.761a12.935,12.935,0,0,0,.165,1.789l-.165.3a8.238,8.238,0,0,1,.165,1.46v1.789l.165.3h-.33v-.3h-.165v.3h-.165v-.468h.33c-.44-.275-.662-.494-.662-.66h-.164v.33a1.071,1.071,0,0,1-.634-1.129v-2.256a86.412,86.412,0,0,1,.634-11.452c0-.109-.046-.164-.138-.164a6.082,6.082,0,0,0,.138-1.294m3.413-32.784h.138q0,9.964.33,10.982H211.8a1.113,1.113,0,0,1,.166.5q-.276,1.762-.468,1.763l.138.33-.3,1.128v.5c-.111,0-.165.046-.165.137l-.166,1.46.166.329a8.022,8.022,0,0,0-.5,2.753h-.3q0-.66-.165-.66.165-1.6.3-1.6l-.138-.329v-.5c0-.111.045-.165.138-.165l-.138-.3q.137-1.652.138-2.589v-.164a.145.145,0,0,1,.164-.165l-.164-.331v-.165a1.205,1.205,0,0,1,.164-.632.146.146,0,0,0-.164-.166l.164-1.129v-1.926l.33-.5v-.329a1.219,1.219,0,0,0-.164-.634,1.26,1.26,0,0,0,.164-.66,1.106,1.106,0,0,0-.164-.468,3.963,3.963,0,0,0,.33-1.624L211,275.87c.111-.641.221-.964.331-.964l-.165-.329v-.8c.036-.219.146-.329.33-.329Zm-.5,56.676h.5a6.83,6.83,0,0,1,1.927.634c0-.313.21-.468.632-.468,0,.2.166.3.5.3a.293.293,0,0,1-.33.33h-1.763l-1.127.165a1.213,1.213,0,0,0-.331-.8Zm18.085-69.916,1.129.164h.965a1.479,1.479,0,0,0,.8-.164l.991.164h.964a1.2,1.2,0,0,0,.632-.164,1.253,1.253,0,0,0,.66.164h.166l.3-.164v.33h1.955a1.2,1.2,0,0,1,.632.165l.33-.165.964.165.5-.331v.331c.092,0,.137-.055.137-.165l.826.165h1.295a.145.145,0,0,1,.164.165,1.106,1.106,0,0,1,.468-.165l.33.165.33-.165.634.165a7.889,7.889,0,0,1,1.293-.165v.165l.33-.165h.3c.551.037.827.146.827.329l.962-.329a1.21,1.21,0,0,0,.633.165h.165l.66-.5q0,.553,1.432.66l.33-.164,1.459.164,1.129-.164.963.164.331-.164.962.164h.5q0,1.929-.33,1.928l.165.329v.634a.146.146,0,0,1-.165.165l.165.329a.146.146,0,0,1-.165.166.146.146,0,0,0,.165.165,24.541,24.541,0,0,1-.33,2.56,33.023,33.023,0,0,0,.5,5.835v1.129h.3v.3h-.468v.329l.165.8c-.219.036-.33.146-.33.329v1.79c0,.2-.11.3-.33.3a1.272,1.272,0,0,0-.467-.137l-.662.3v-.3l-.467.3a.146.146,0,0,1-.166-.165q-.5,0-.5.66l-.33-.164h-1.432a.438.438,0,0,1-.5.5V277a7.648,7.648,0,0,1-2.753.633v-.165l-.3.165h-.33a2.63,2.63,0,0,1,.166-1.294q-.166-1.349-.33-5.312a19.087,19.087,0,0,0,.164-2.092q0-.275-.962-.992h-.166q0,.248-.5.662a.146.146,0,0,1,.165.164h-.8a.145.145,0,0,1-.165-.164l-.33.164h-1.459l.165-.329-1.127.165H240.7l-.964-.165c-.532.11-.8.221-.8.329l-.824-.164h-.965a21.45,21.45,0,0,0-2.421.164,5.183,5.183,0,0,0-1.295-.164,1.082,1.082,0,0,1-.467.164V268.6l-.33.164h-.166a.144.144,0,0,1-.164-.164l-.33.164h-1.129a12.367,12.367,0,0,1-1.763-.164,52.5,52.5,0,0,1-7.431,1.127l.165,1.928-.331-.166.166,1.624v.964a79.166,79.166,0,0,0-.964,10.488,1.11,1.11,0,0,0,.165.5l-.662,2.092.166.962v.166a.147.147,0,0,1-.166.165.146.146,0,0,0,.166.164,14.775,14.775,0,0,1-.468,3.221l.138.331a15.233,15.233,0,0,1-.3,2.257c.183,0,.34.266.468.8-.311,0-.468.165-.468.5l.166.329a7.83,7.83,0,0,0-.166,1.295,4.047,4.047,0,0,0,.3,1.293c-.075.422-.175.633-.3.633a1.113,1.113,0,0,1,.166.5,16.3,16.3,0,0,0,.138,2.093l-.3,3.221.166.329a6.223,6.223,0,0,1-.33,1.624c.11,0,.164.046.164.139a.144.144,0,0,0-.164.164h.164a.145.145,0,0,1,.166-.164v.164a5.826,5.826,0,0,0-.33,1.459l.164.33a1.21,1.21,0,0,0-.164.633v.66h.33v2.257l-.33.468v.166a14.77,14.77,0,0,0,.33,2.918l-.166.964a1.2,1.2,0,0,1,.166.632h-.5v1.157q8.23.136,12.113.137h1.459q1.128,0,5.972-.632v-.165h-.494l-.662.165c-.092,0-.137-.055-.137-.165l-2.754.329-.33-.164a1.219,1.219,0,0,1-.632.164.146.146,0,0,1-.166-.164l-.33.164H229.88a.291.291,0,0,1-.33-.329h.33a1.119,1.119,0,0,0,.5.165q0-.275,2.421-.662a.146.146,0,0,1,.166.165,51.291,51.291,0,0,0,5.808-.632l.3.164.992-.164a1.109,1.109,0,0,1,.467.164l.964-.164h1.459l.166.632h-.166l-1.927.165v-.165a1.627,1.627,0,0,1-.826.165v.166h6.469v-.166q.165-2.256.5-2.257l-.164-.329v-.3l.3-.5H247a1.953,1.953,0,0,0,.3-.964q0-7.265.827-7.267a45.776,45.776,0,0,0,5.147-.494.146.146,0,0,0,.165.165c0-.2.055-.3.165-.3l.662.3c.017-.2.118-.3.3-.3h1.459a14.666,14.666,0,0,0-.468,2.725,1.464,1.464,0,0,1,.138.66q-.468,0-.632,7.735l-.166.331a1.2,1.2,0,0,1,.166.632v.165a.147.147,0,0,1-.166.166l.166.329v2.422a.146.146,0,0,0,.164.166q0,.962-1.293.962v-.165a45.394,45.394,0,0,1-8.4.8,13.565,13.565,0,0,1-4.046,1.293q-.192,0-8.7,1.624v-.164l-1.623.494a.146.146,0,0,1-.166-.165q-6.5,1.13-12.579,1.6v-.165l-.33.165h-4.047a3.431,3.431,0,0,1-1.761-2.422v-.166l-.33.166h-.33V323h-.3v-.632a.147.147,0,0,1,.165-.166,3.565,3.565,0,0,1-.33-1.459q.633-6.193,1.623-11.616a.144.144,0,0,0-.164-.164q.687-5.479.962-5.478a6.506,6.506,0,0,1-.33-1.46h.33v-.329c0-.331-.054-.5-.164-.5q.329-2.283.5-5.148l-.165-.329.165-.965v-.329a1.217,1.217,0,0,0-.165-.634c.072-.44.174-.66.3-.66l-.137-.3.137-.331c0-.219-.045-.329-.137-.329l.137-1.624v-2.56l.166-.331h-.3c0-.221.156-.329.467-.329l-.164-.331.164-1.926a.145.145,0,0,1-.164-.165h.164a.146.146,0,0,0-.164-.166l.164-.632c0-.221-.054-.331-.164-.331l.164-1.129v-2.257h-.33c.037-.221.147-.329.33-.329a.145.145,0,0,0-.164-.165,14.012,14.012,0,0,1,.33-2.258,1.2,1.2,0,0,1-.166-.633,1.357,1.357,0,0,1,.166-.66,1.086,1.086,0,0,1-.166-.468,1.27,1.27,0,0,1,.166-.5,4.492,4.492,0,0,1-.166-1.129l.166-.329a1.1,1.1,0,0,1-.166-.468l.166-.331-.166-.329q0-2.561.662-2.56a.292.292,0,0,0-.33-.33l.165-1.13V267.31a1.21,1.21,0,0,1,.165-.633,1.36,1.36,0,0,1-.165-.66v-.166l.3-.468-.137-1.129h.137l-.137-.329v-.166c0-.128.1-.724.3-1.789V260.7c.036-.221.147-.331.33-.331h2.256a30.9,30.9,0,0,1,6.773-1.458,1.106,1.106,0,0,1,.164.5q.991,0,.991-.66l.3.165c0-.221.054-.331.164-.331.33.111.5.221.5.331q2.256-.275,2.256-.5m-16.3.33c.147,0,.3.165.468.494v.166a2.634,2.634,0,0,1-.962,2.091v.166l-.33-.166-.166.331c.111,0,.166.046.166.137h-.33a6.546,6.546,0,0,1,1.155-3.22m-.33,32.289q0,1.349.166,1.458a.146.146,0,0,1-.166.165l.166.8v.329c-.33,0-.5.213-.5.634h-.164v-.634a6.325,6.325,0,0,1,.33-1.954,1.2,1.2,0,0,1-.166-.632Zm12.251,5.175v1.761l-.138.331h.632v.165h-.494V299.6c0,.109-.046.164-.138.164l.3.965a2.744,2.744,0,0,0-.3,1.293l.138,1.129c-.093,0-.138.055-.138.166h.138a.146.146,0,0,1,.164-.166v.468l-.3-.137a4.75,4.75,0,0,1-.166,1.129c0,.092.055.137.166.137l-.166.827.166.8-.33.165a51.308,51.308,0,0,0-.66-6.3q.329-4.018,1.129-4.018m-.3,18.717h.965q2.724.634,6.607,1.295,0,.468-2.561.468a18.186,18.186,0,0,1-4.706-.468v-.5l.494.33.166-.33q0-.468-.965-.468Zm3.387-40.518v.33q0,.221-.331,2.587v.633a.145.145,0,0,0,.165.164l-.165.331v.468a8.5,8.5,0,0,1-.165,1.624v1.129h-.165c0,.311.055.468.165.468l-.3,2.421c.092,0,.137.055.137.165-.092,0-.137.055-.137.166h.137l.33-.166v.166a5.9,5.9,0,0,0-.467,1.129l.137.826c-.2,0-.3-.111-.3-.331v-4.844a1.359,1.359,0,0,1,.165-.66l-.165-.3q.165-.5.3-.5a12.543,12.543,0,0,1-.3-1.926h.165l-.165-.33V277.8l.3.165V277.8a1.4,1.4,0,0,0-.137-.633,1.582,1.582,0,0,0,.137-.662v-.3l-.137-.331c.2,0,.3-.055.3-.164v-.5c.165-.53.33-.8.5-.8M239.569,256a1.114,1.114,0,0,0,.5.165,4.759,4.759,0,0,1,1.265-.165q0,.248-.467.494l-.331-.164a12.73,12.73,0,0,1-2.091.827l-.8-.166h-.166a8.169,8.169,0,0,0-1.459.166l-.33-.166a.147.147,0,0,0-.165.166l-.8-.166h-.331a2.845,2.845,0,0,0-1.294.3,1.228,1.228,0,0,0-.467-.137l-.66.137c-.111,0-.166-.046-.166-.137a6.935,6.935,0,0,0-1.6.3,1.281,1.281,0,0,0-.494-.164c-.533,0-.8.164-.8.5a1.732,1.732,0,0,0-.8-.331q0-.275,4.845-1.293v.165a1.1,1.1,0,0,1,.467-.165,1.281,1.281,0,0,1,.5.165l.962-.165h.633a1.27,1.27,0,0,1,.662.165,1.206,1.206,0,0,1,.632-.165c.33,0,.5.055.5.165Zm3.222,13.57a1.371,1.371,0,0,0,.66.164v.166c-.441,0-.66.11-.66.33a.147.147,0,0,1-.166-.165,11.114,11.114,0,0,1-1.761.468,1.113,1.113,0,0,0-.5-.166l-.964.5a.145.145,0,0,1-.165-.164q-.11,0-4.019.5v-.165l-.33.165h-.164v-.331a.608.608,0,0,0,.494-.329l.3.165a2.66,2.66,0,0,1,1.294-.331.147.147,0,0,0,.166.166q0-.58,5.174-.8v.166Zm14.533,56.814h1.129V328a9.415,9.415,0,0,0-2.092.33V328a7.422,7.422,0,0,1-2.918.5,1.091,1.091,0,0,0-.468-.166c0,.312-.219.468-.66.468v-.165l-.3.165h-.165a.146.146,0,0,1-.165-.165,22.7,22.7,0,0,1-4.678.66h-.5a.146.146,0,0,1-.165-.165,1.835,1.835,0,0,1-.963.331,1.265,1.265,0,0,1-.5-.166,1.834,1.834,0,0,1-.964.331h-1.127a9.643,9.643,0,0,0-1.46.137,1.384,1.384,0,0,0-.633-.137,5.614,5.614,0,0,0-1.762.3,11.877,11.877,0,0,0-2.283-.164v-.137a25.413,25.413,0,0,0,4.211-.992l4.678-.8a1.126,1.126,0,0,0,.5.164q2.231-.441,9.827-1.129a1.278,1.278,0,0,0,.5.165c0-.329.266-.5.8-.5a.147.147,0,0,0,.165.166Zm-15.5-11.285v.164l.33-.164h.8v.962h-.632l-1.955-.165v.331a8.072,8.072,0,0,0-1.6-.166c.017-.221.119-.33.3-.33a.146.146,0,0,1,.165.165,11.141,11.141,0,0,1,2.587-.8m4.211-44.868.8.137v.331q0,2.753-.33,2.753l.165.329v.139h-.33l.165.329a31.053,31.053,0,0,1-1.129,4.681.146.146,0,0,1-.165.165h-.33l-.3-.165q.466-2.422.8-6.138l-.165-.3a1.971,1.971,0,0,0,.33-.992v-.8q.275,0,.5-.468M244.882,306.7l1.624.165-.33.467.165.33a34.555,34.555,0,0,0-1.129,6.47,1.4,1.4,0,0,0-.632.137q.165-1.6.164-2.394v-.826l.138-.8c-.2,0-.3-.109-.3-.33a11.9,11.9,0,0,1,.3-1.294c0-.11-.046-.165-.138-.165l.138-.8Zm10.68-29.866h.138a.146.146,0,0,1,.165.164l.33-.164h.165V277q0,.911-1.459,1.46h-.165a.146.146,0,0,1-.165-.165,16.14,16.14,0,0,1-2.257.633h-1.927l-1.954.165v-.165l-.3.165h-.33v-.33h.33q1.595,0,1.6-.468l.33.165,1.459-.331a.147.147,0,0,0,.165.166c0-.166.156-.33.468-.5v.329A24.249,24.249,0,0,1,255.562,277Zm3.221-12.91h.33q-.165,1.762-.33,1.762a1.454,1.454,0,0,1,.165.824h-.165v.166h.33a4.965,4.965,0,0,1-.33,1.431l.33,1.129h-.33v.331l.165.33h-.33v.33a1.1,1.1,0,0,1,.33.632,4.873,4.873,0,0,0-.66,1.789l.33.634-.5,1.129a.146.146,0,0,0,.165.165,10.522,10.522,0,0,0-.33,2.421l.165.633-.3-.165q0,.5-.33.5h-.66v-.5l.165-.3a.147.147,0,0,1-.165-.166l.66-.5h.33q0-.8-.5-.8.166-.5.33-.5l-.165-.8c.018-.422.129-.634.33-.634l-.165-.329c.018-.533.12-.8.3-.8l-.138-.329v-.331l.138-.329h-.3a1.947,1.947,0,0,0,.3-.964V269.4l.33.165V269.4a1.1,1.1,0,0,1-.165-.468q.5,0,.5-2.753l-.165-.331a7.2,7.2,0,0,0,.33-1.926m-.964,41.977h.633l-.165,1.6v2.092a8.261,8.261,0,0,0,.165,1.46,1.274,1.274,0,0,0-.165.494c.22.037.33.148.33.331,0,.788-.165,1.211-.5,1.266q-.3-5.34-.3-7.24m1.129-45.858h.3a1.479,1.479,0,0,0,.165.8h-.3a1.274,1.274,0,0,0,.138.5q-.137,1.157-.138,1.293l.138,1.129a1.1,1.1,0,0,0-.468-.165.146.146,0,0,1,.165-.164l-.165-.8v-.164a.146.146,0,0,1,.165-.165,1.1,1.1,0,0,1-.165-.468l.165-.66-.165-.331.33-.632a.146.146,0,0,1-.165-.165" transform="translate(17.611 -206.657)" fill="#f2fe04"/>
  <path id="Path_37" data-name="Path 37" d="M248.048,247.737a8.643,8.643,0,0,0,.585,3.125h-.305a13.239,13.239,0,0,0,.305,2.667h-.153a3.493,3.493,0,0,1,.305,1.2q-.153,1.321-.153,1.5a18.151,18.151,0,0,1,.3,2.819,4.167,4.167,0,0,1-.152,1.042,4.7,4.7,0,0,1,.152,1.193v.305l-.152.89a1.156,1.156,0,0,1,.152.457h-.152l.152.278a.135.135,0,0,1-.152.154,5.114,5.114,0,0,1,.3,1.193h-.153l.153.3v.305a1.113,1.113,0,0,1-.153.585l.305.889h-.153a1.17,1.17,0,0,0-.61-.279v-3l-.153-.737h.153q-.254,0-.432-5.206l.153-.306a7.537,7.537,0,0,1-.153-1.345v-1.042a.135.135,0,0,1,.153-.154,6.847,6.847,0,0,1-.305-1.474h.153a.135.135,0,0,0-.153-.152,8.315,8.315,0,0,1,.153-.89l-.153-1.345h.153a5.1,5.1,0,0,1-.3-1.194.134.134,0,0,1,.152-.153l-.152-.736v-.61a.291.291,0,0,1,.3-.28m1.017,34.546h.3a.135.135,0,0,1-.152.154c.067.593.169.888.3.888q-.153,1.652-.3,1.652l.152.278q-.38,0-.736,6.706c-.1,0-.153.2-.153.61l-.305-.152a7.418,7.418,0,0,1,.458-2.541l-.153-.3.153-.585-.153-.3q.127-.584.305-.584l-.153-.305a.135.135,0,0,1,.153-.153l-.153-.305.585-4.318a1.109,1.109,0,0,1-.153-.584Zm.178-13.412h.279v.61l-.127.89a5.18,5.18,0,0,1,.279,1.93v.761h.3l-.3,1.169a.135.135,0,0,1,.153.153q-.433,0-.432.305h.279v.456H249.4l.127.28a1.363,1.363,0,0,1-.127.61l.279.584c-.068.594-.162.89-.279.89l.279.915-.153.584a17.559,17.559,0,0,1,.153,1.93H249.4a1.027,1.027,0,0,0-.153-.432.134.134,0,0,1,.153-.152l-.305-2.54a.135.135,0,0,1,.153-.154,7.234,7.234,0,0,1-.153-1.193q0-1.472.153-3.557a11.6,11.6,0,0,1-.153-1.651l.153-.305a1.007,1.007,0,0,1-.153-.432l.153-.3v-.457h.153l-.153-.28Zm1.778-37.237c.389.152.585.3.585.458a1.006,1.006,0,0,0-.432.152l.279,3.125-.153.889.153,1.042a1.177,1.177,0,0,1-.153.458,7.139,7.139,0,0,1,.153,1.32v.305a.135.135,0,0,1-.153.152l.153.305v.153c0,.085-.051.127-.153.127l.305,1.65H251.3l.153.305-.279,1.042a2.748,2.748,0,0,0,.432,1.473c-.1.712-.153,1.109-.153,1.193l.153.306a2.353,2.353,0,0,0-.305,1.193l.153.305c-.1.085-.153.482-.153,1.193h-.127a4.507,4.507,0,0,0-.153-1.193l.153-.305a7.247,7.247,0,0,1-.153-1.193.135.135,0,0,1,.153-.153l-.153-.889q0-.356-.305-6.1a.269.269,0,0,0-.3-.305l.153-.762V237.6l-.153-.3h.153l-.153-.305v-4.166h.153l-.153-.735v-.306a4.633,4.633,0,0,0,.61-.152m.279,33.224h.457v.432a.134.134,0,0,1-.152.154q.305,1.193.457,1.193l-.153.762v.128a15.12,15.12,0,0,1-.3,3.886,1.108,1.108,0,0,1,.152.583v1.042l.153.305h-.153l.153.305v.152h-.736v-.762c0-.287-.051-.432-.153-.432l.279-2.539a1.155,1.155,0,0,1-.127-.432h.127l-.127-.305a1.346,1.346,0,0,1,.127-.458,8.978,8.978,0,0,1-.127-1.345v-.737c0-.1.042-.153.127-.153,0-.1-.042-.152-.127-.152a5.906,5.906,0,0,1,.279-1.2,1,1,0,0,1-.153-.432m-.127-15.494h.127q.153,1.754.153,2.54l-.279.152Zm7.874-17.578c.508.1.762.2.762.306a5.622,5.622,0,0,1,1.93-.306l.153.306a1.153,1.153,0,0,0-.61.278h-.153a1.281,1.281,0,0,1-.584-.127l-.585.279-.305-.153a4.58,4.58,0,0,1-.61.153,1.113,1.113,0,0,0-.585-.153.27.27,0,0,1-.3.305.135.135,0,0,1-.153-.153l-.736.153h-.153a.27.27,0,0,1-.305-.305,1.006,1.006,0,0,1-.432.153l-.761-.153a4.418,4.418,0,0,1-1.168.153v.3a.269.269,0,0,1-.305-.3l-.762.457H253.1l-.153-.736v-.305h1.779a7.472,7.472,0,0,1,1.346.154,1.747,1.747,0,0,1,.889-.154,1.151,1.151,0,0,1,.457.154,1,1,0,0,1,.432-.154v.154Zm-5.208,2.973h.736l.306.152a.134.134,0,0,1,.152-.152,1.677,1.677,0,0,0,.153.889,1.25,1.25,0,0,0-.153.61l.153.736h-.3l.152.763v.126q0,1.271.153,3.734h-.153a6.22,6.22,0,0,1,.458,1.651q-.2,0-.61,1.321a1.179,1.179,0,0,1,.152.458c0,.491-.1.735-.3.735l.153.763a7.367,7.367,0,0,1-.153,1.168,11.375,11.375,0,0,1,.3,1.5c-.3,0-.458.1-.458.305v.3l.154.28h-.279v.152h.279a.135.135,0,0,1,.153-.152l.152.3v.457l-.584-.3v.153c.084.71.126,1.109.126,1.193a1.306,1.306,0,0,0-.126.584h-.305v-1.193a.135.135,0,0,1,.153-.152l-.305-1.779.153-.3-.153-.585a7.244,7.244,0,0,0,.153-1.194l-.153-.61c0-.084.051-.127.153-.127l-.153-1.8v-2.668a.134.134,0,0,1,.153-.152l-.305-.61.153-.279-.153-.915.153-.279a1.247,1.247,0,0,1-.153-.61l.153-.279a1.166,1.166,0,0,1-.153-.458h.153l-.153-.3v-.737c0-.305.051-.457.153-.457l-.153-.736Zm.458,22.048a1.017,1.017,0,0,0,.432.152v.152a.136.136,0,0,1-.154.154l.154.3v1.625a.135.135,0,0,0,.153.154l-.153.3v1.474a.246.246,0,0,1-.279-.279v-.762a1.3,1.3,0,0,1,.126-.585,8.473,8.473,0,0,1-.278-1.8h.153l-.153-.279Zm2.235,24.74h.128a1.113,1.113,0,0,0,.152.585.133.133,0,0,1-.152.151,14.058,14.058,0,0,0,.3,1.627l-.153.3.153.89v.152a.134.134,0,0,1-.153.153l.153.305v.432a11.592,11.592,0,0,1-.153,1.651.135.135,0,0,0,.153.152l-.153,1.042a14.432,14.432,0,0,0,.305,3.277,7.884,7.884,0,0,0-.153,1.5v.735a.134.134,0,0,1-.153.153l.153.279a4.509,4.509,0,0,1-.153,1.194l.153.61a7.742,7.742,0,0,1-.3,2.084,4.674,4.674,0,0,1,.3,1.345h-.153l.153.28v.3a7.567,7.567,0,0,1-.153,1.347,1.018,1.018,0,0,1,.153.457l-.3.127a.134.134,0,0,0,.152.153l-.152.611q.305,2.361.3,2.514a9.261,9.261,0,0,0-.153.914,4.42,4.42,0,0,1,.153,1.169h-.153l.153.3v2.235a1.254,1.254,0,0,1-.153.611,1.011,1.011,0,0,1,.153.432.135.135,0,0,0-.153.153c.2,0,.305.244.305.736h1.194a.134.134,0,0,1,.152.153.135.135,0,0,0,.153-.153q2.745.153,4.013.153h1.779a11.609,11.609,0,0,0,1.65-.153q1.042.2,1.042.457a5.786,5.786,0,0,0-1.651.305c-.085,0-.127-.051-.127-.153a17.3,17.3,0,0,1-3.149.431v-.126l-.279.126H260.24a3.555,3.555,0,0,0-1.625.306q-3.581,0-3.581-1.194v-1.779a.135.135,0,0,1,.153-.152l-.153-.305q0-.176.153-1.474l-.153-.3a3.633,3.633,0,0,0,.3-1.651v-.128a1.161,1.161,0,0,0-.152-.609l.152-.3a1,1,0,0,0-.152-.431l.152-.89c0-.305-.05-.457-.152-.457l.152-.736v-.763a1.106,1.106,0,0,0-.152-.583,8.142,8.142,0,0,0,.305-2.693h.278l-.152-.279a11.438,11.438,0,0,1,.61-2.693,1.154,1.154,0,0,0-.61-.153,58.893,58.893,0,0,0,.761-7.9l-.152-.278a1.252,1.252,0,0,0,.152-.61,6.49,6.49,0,0,0-.3-1.779.135.135,0,0,1,.153-.153l-.153-.737v-1.042a5.512,5.512,0,0,1,.457-2.235m33.5-47.22q5.487.889,6.122.889l.278-.153c.8.1,1.194.2,1.194.305l.305-.153h.432a.134.134,0,0,1,.153.153,1.149,1.149,0,0,1,.457-.153c.2,0,.3.05.3.153l1.042-.153h1.194c.085,0,.128.05.128.153l.3-.153a1.157,1.157,0,0,1,.458.153l.888-.153a20.6,20.6,0,0,1,5.513,1.929,10.28,10.28,0,0,1,2.972,2.084l1.8,2.236a9.315,9.315,0,0,1,.737,2.387q.965.685,1.5,3.429a17.214,17.214,0,0,1,1.042,4.319,1.591,1.591,0,0,0-.153.888q.483,0,.585,2.237h-.153l.153.3v1.347q0,1.776-.3,1.777a.135.135,0,0,0,.152.154q0,1.829-2.236,7.138a16.764,16.764,0,0,1-5.512,6.4q-3.988,4.013-6.1,4.47-5.969,3.276-7.595,3.276-1.5,1.2-5.054,1.2l-5.513.761c0,.1-.152.153-.457.153a1.026,1.026,0,0,0-.457-.153q0,.331-2.364.89l-.152.3q1.7.153,5.055,3.709a16.6,16.6,0,0,1,2.819,2.971q.407,0,.762,1.066a27.262,27.262,0,0,1,3.125,3.278q.305,0,1.5,1.625c.153,0,.4.3.736.889q.865.229,2.668,3.276,3.3,4.622,6.553,8.638.558.076,1.8,3.429a1.023,1.023,0,0,1-.61.3q-1.881-1.3-5.055-3.123c0-.237-.2-.492-.585-.762q0-.229-.762-.737,0-1.092-4.47-2.667a7.337,7.337,0,0,1-3.123-3.277q-.305,0-3.277-3.151-.178,0-1.194-1.04a97.85,97.85,0,0,0-7.442-7.138,17.516,17.516,0,0,1-1.626-2.971q-2.641-2.845-3.886-2.846l.152-.3-.457-.28h-.279a6.766,6.766,0,0,1-2.083.736l-.305-.153-2.691.763a1.022,1.022,0,0,0-.432-.154q-.712,0-1.5,3.862a3.292,3.292,0,0,0,.305,1.346c-.085.594-.187.889-.305.889l.153.305a6.627,6.627,0,0,1-.3,1.626l.152.761-.888,4.751a1.526,1.526,0,0,1,.152.762q-.458,0-.61,2.235l.152.889v.432l-.152.915c0,.084.051.127.152.127L265.321,307a1.167,1.167,0,0,0,.127.457q0,2.134-1.778,2.387a5.122,5.122,0,0,1-1.346.153h-.737v-.153a18.3,18.3,0,0,0-.3-3.429l.152-.3-.152-.737.152-.61a1.122,1.122,0,0,1-.152-.584l.152-.307a8.838,8.838,0,0,1-.3-1.32l.153-.305a.135.135,0,0,0-.153-.152q0-.305.153-.305l-.28-4.166c0-.1.043-.152.128-.152l-.128-.89q0-.863-.152-3.733H261a3.307,3.307,0,0,1-.3-1.042l.153-.737q-.153-.456-.3-.457l.152-1.042q0-.127-.152-1.194h.152a3.271,3.271,0,0,1-.305-1.042h.154l-.154-.278v-.305a23.154,23.154,0,0,0-.3-4.927l.152-.28a1.175,1.175,0,0,1-.152-.457h.152l-.735-4.9.152-.3a26.552,26.552,0,0,1-.61-5.512q.153-3.125.153-4.318l.153-.305a31.876,31.876,0,0,1-.737-5.208,1.163,1.163,0,0,0,.153-.457,1.016,1.016,0,0,0-.153-.432,1.159,1.159,0,0,1,.153-.61q-.305-5.259-.61-7.6a1.013,1.013,0,0,1,.153-.431,15.728,15.728,0,0,0-.458-2.693v-.153a.134.134,0,0,1,.153-.152l-.153-.305c0-.084.051-.127.153-.127l-.153-.305v-1.5a8.8,8.8,0,0,1-.432-2.514v-.458l-.3-.456q0-.483-.153-4.319,0-2.819.762-2.819a26.681,26.681,0,0,0,3.4-.61,35.981,35.981,0,0,1,8.357.762.136.136,0,0,0,.153-.153l.736.153q3.428-.305,4.013-.305v.153l.305-.153h.152a.135.135,0,0,1,.153.153.135.135,0,0,0,.153-.153l.736.153h1.194a.134.134,0,0,1,.152.153l.28-.153h1.193a.134.134,0,0,1,.153.153,34.125,34.125,0,0,1,4.776-.61.135.135,0,0,1,.153.152q5.995-.584,6.248-.584m-27.1-5.36.152.585a.27.27,0,0,1-.3-.305l-.305.153H261.13l.153-.3-.585.3-1.8-.153-1.321.153a1.163,1.163,0,0,0-.457-.153v-.152a2.068,2.068,0,0,0,.889-.128l.61.128a40.014,40.014,0,0,1,4.319-.128m3.581,2.362.279.152.3-.152a.135.135,0,0,1,.153.152l.737-.152h.61c.085,0,.127.051.127.152l.305-.152.61.152.279-.152a10.338,10.338,0,0,0,2.844.457,4.123,4.123,0,0,0,.585-.152l6.274.61a1.165,1.165,0,0,0,.279-.61H281.1l1.042-.154v.154a.134.134,0,0,0,.151-.154l.737.154.61-.154v.305h.153a.135.135,0,0,0,.153-.152,1.013,1.013,0,0,0,.431.152v.585h-.279l.128-.278-1.779.735q0-.329-.736-.457a5.129,5.129,0,0,1-1.346.305h-.89q0,.127-1.5.457,0-.609-2.819-.61v.153l-.305-.153h-.3l-.432.3v-.3q-2.236-.153-3.276-.153l-.306.153-.3-.153a7.246,7.246,0,0,1-1.193.153q-2.034-.278-2.236-.279v.127l-.279-.127h-.458c-.3,0-.457.043-.457.127a25.826,25.826,0,0,1-2.667-.278l-.305.152a1.113,1.113,0,0,0-.585-.152v-.458c.085,0,.128.051.128.152a20.357,20.357,0,0,1,4.344-.457m4.012,56.315h.306a.136.136,0,0,1-.153.153,23.349,23.349,0,0,1,.278,2.819l-.126.762a1.154,1.154,0,0,1,.126.432h-.126l.126.305a13.346,13.346,0,0,0-.278,1.651c0,.084.05.126.153.126a48.11,48.11,0,0,1-.915,6.859h-.279v.153c.185,0,.279.05.279.153a16.038,16.038,0,0,1-.279,2.235.269.269,0,0,1-.305-.3v-3.861l.153-.916a1.357,1.357,0,0,1-.153-.735v-.585l.585-1.651V292.57a17.947,17.947,0,0,0,.608-4.927m-.152,21.007q.305,0,.584,2.667l-.278.153h-.458v-.585a1.265,1.265,0,0,0-.152-.61,3.477,3.477,0,0,0,.3-1.625m3.429-19.229h.305a1.007,1.007,0,0,0,.432.153v.3a1.026,1.026,0,0,0-.305.61,47.157,47.157,0,0,1,.458,5.055l-.153.585c.136,1.117.236,1.813.3,2.082a12.035,12.035,0,0,0-.152,1.653v4.011l-.153.89a1.259,1.259,0,0,1,.153.61l-.153.305a.135.135,0,0,0,.153.152l-.153.737q0,1.474-.153,4.47h-.279v-2.693c0-.1.042-.152.127-.152l-.127-.28v-.761a2.124,2.124,0,0,0-.153-1.042,7.266,7.266,0,0,0,.153-1.347V300.75c0-.1.042-.153.127-.153,0-.1-.043-.152-.127-.152l.127-.584q0-1.45.153-3.126-.153-1.829-.153-3.58l-.127-.305a1.172,1.172,0,0,0,.127-.432l-.127-.3c0-.1.042-.154.127-.154a9.307,9.307,0,0,0-.432-2.54m.305-3.276a38.365,38.365,0,0,1,3.123,3.886,14.563,14.563,0,0,0,2.82,3.277,7.809,7.809,0,0,1,1.193,1.625v.153a54.114,54.114,0,0,1-4.47-4.47A7.758,7.758,0,0,1,275,288.989a3.876,3.876,0,0,1-1.042-2.539c.1,0,.153-.1.153-.305m2.082,12.064a3.994,3.994,0,0,1,1.042,1.653h-.3v1.193a8.931,8.931,0,0,0-.583,2.235q-.153,0-.154,1.347h-.152v-.915a23.876,23.876,0,0,0,.305-2.819,1.031,1.031,0,0,1-.154-.457h.154c0-.085-.052-.128-.154-.128l.154-.61a8.633,8.633,0,0,0-.305-1.042,1.018,1.018,0,0,0,.152-.458m1.932.154a.889.889,0,0,1,.584.762v.126h-.127c0-.168-.153-.415-.457-.735Zm.584.888c.2.052.407.305.611.763h-.153q-.331,0-.458-.763m.153,4.039h.305v.305a30.249,30.249,0,0,0,.3,5.055l-.152.3a7.234,7.234,0,0,1,.152,1.2,1,1,0,0,1-.152.43l.152.305a2.361,2.361,0,0,0-.3.89h-.153V310c0-.118-.1-.669-.305-1.651v-1.778a.135.135,0,0,1,.153-.153l-.153-.3v-.432a1.159,1.159,0,0,1,.153-.61l-.153-.305.153-.278-.153-.305Zm.305-6.248h.153a21.584,21.584,0,0,1,3.708,4.165q.3,0,1.651,1.779c.2,0,.4.244.585.736a11.47,11.47,0,0,1,2.108,2.236q1.625,1.8,1.625,2.236a2.328,2.328,0,0,1-1.042-.89l-1.778-1.346q-2.285-2.261-2.54-3.277a1.792,1.792,0,0,1-.889-1.042l-.305.153h-.153a2.364,2.364,0,0,0-1.193-1.929q0-.407-1.042-1.347a2.613,2.613,0,0,0-.889-1.474m2.691-2.109h.128a14.111,14.111,0,0,1,1.346,1.5q0,.2,1.347,1.347,2.768,3.428,3.125,3.428v.153l-.153.279a11.073,11.073,0,0,1,3.43,3.125q6.146,6.122,9.4,8.053l2.515,1.93v.3h-.153c-.085,0-.127-.051-.127-.152l-.762.152a1.021,1.021,0,0,1-.432-.152.135.135,0,0,0-.153.152q-1.167,0-3-2.083l-2.668-2.388q-1.65-1.371-1.651-1.777a1.867,1.867,0,0,1-1.321-1.347q-.66-.229-3.581-3.583-2.134-2.261-4.013-4.011a28.485,28.485,0,0,0-2.845-3.278c0-.118-.3-.466-.888-1.042v-.3q.456,0,.456-.305m1.474,10.745h.153l7.291,6.553v.153q-2.363-.356-2.362-.61c0-.254-.254-.406-.762-.458a5.031,5.031,0,0,1-1.474-1.93q-.483-.482-2.845-3.557Zm21.007-76.584.305.152.736-.152.153.3v.153a.269.269,0,0,1-.3.3v-.3a10.451,10.451,0,0,1-2.973.736h-.889q0,.153-.761.305c-.086,0-.128-.051-.128-.154l-.762.154q-2.236-.1-2.235-.305a.727.727,0,0,1-.889,0,5.057,5.057,0,0,0-1.194.305.719.719,0,0,0-.889,0q-3.252-.305-8.942-.584V229.7h.153q1.067.151,1.193.152c.035-.2.136-.3.305-.3l.736.3a1.036,1.036,0,0,1,.458-.152v.152l.279-.152h.762c.085,0,.127.051.127.152l.305-.152h.61a1.126,1.126,0,0,1,.585.152,1.028,1.028,0,0,1,.457-.152v.152l.279-.152h.305a.134.134,0,0,1,.152.152,3.627,3.627,0,0,1,1.651-.3h1.626a.134.134,0,0,1,.152.153,1.012,1.012,0,0,1,.458-.153l1.04.153.737-.153a1.022,1.022,0,0,0,.432.153l.762-.305a.134.134,0,0,0,.152.153v-.305h.153a.292.292,0,0,1,.279.305,1.171,1.171,0,0,1,.458-.153,1.016,1.016,0,0,1,.432.153l.914-.153c.085,0,.128.051.128.153l.3-.153,1.042.153c.9-.068,1.346-.169,1.346-.305Zm-9.829,55.272q.533,0,4.165,5.97c.1,0,.153.144.153.432h-.3a23.9,23.9,0,0,0-3.277-4.013l-1.626-2.083v-.153Zm2.083,7.443a4.668,4.668,0,0,1,1.93,1.8c.152,0,.457.348.914,1.042a4.461,4.461,0,0,1,1.321,1.321q3,3.048,3,3.43a17.688,17.688,0,0,1,2.362,2.387,15.777,15.777,0,0,1,2.54,3.735q1.929,2.387,1.93,2.97h-.153a37.158,37.158,0,0,1-5.512-6.248q-2.846-3.759-7.291-8.941a5.458,5.458,0,0,1-1.04-1.347Zm10.871,22.2h.153a1.191,1.191,0,0,1,.458.152l.888-.152.305.152c.085,0,.127-.05.127-.152l.762.152,1.347-.152q1.421,1.3,1.472,1.651h-.3l-.585-.153a.135.135,0,0,0-.152.153l-4.623-.61v-.432l.3-.458a.134.134,0,0,1-.153-.152m0-81.487h2.388q1.422,0,3.733,1.955.254.891.89.89v.152h-.458a2.958,2.958,0,0,0-1.346-.761q-1.271-.482-1.321-.737a19.227,19.227,0,0,1-3.734-1.346h-.153Zm5.817,55.121h.152v.153q-1.091.153-3,2.235v.889q.558,0,1.955,2.083h.28v.763a28.615,28.615,0,0,0,1.651,4.013,4.4,4.4,0,0,0,1.042,2.083c.1,0,.153.152.153.456h-.305q-.863-1.93-6.1-8.941a2.858,2.858,0,0,1-.762-1.5h.458q0-.176-1.043-.584l-.3-.458v-.152l.762.152a32.147,32.147,0,0,0,5.055-1.193m-.61-57.635h.457a1.36,1.36,0,0,1,.736.152l.915-.152q1.474.025,1.474.278l.305-.127a1.123,1.123,0,0,0,.432.127l.3-.127a2.879,2.879,0,0,0,1.346.278v.306h-3.123q-.509-.46-2.845-.458Zm4.775,36.932h.458q-1.752,4.015-2.54,4.013,0,.076-2.083,3c-.136.457-.339.7-.61.737v-.305a19.053,19.053,0,0,1,2.54-3.862q1.194-1.04,1.194-1.8c.2,0,.3-.093.3-.28l-.152-.3a2.032,2.032,0,0,1,.888-1.2m2.694,2.82v.152a4.617,4.617,0,0,1-1.652,3.278q-2.261,3.428-4.012,3.428a20.2,20.2,0,0,1,2.235-2.387l1.346-1.472q0-.789,1.474-2.237a.72.72,0,0,1,.611-.761m-4.319-36.325h.279q3.074.914,3.429,2.083h.153l-.153.28q.763,0,1.194,3.149l1.5,4.6-.153.305a7.686,7.686,0,0,1,.585,2.693,7.365,7.365,0,0,1-.153,1.168v.762h-.128v.153c.017.185.11.278.28.278v-.431h.152q.456,0,.61,2.668h-.152l.152.3v.154a7.651,7.651,0,0,1-.152,1.346l.3.737a10.211,10.211,0,0,0-.3,2.54v2.235a.136.136,0,0,1-.154.153c0,.085.052.128.154.128q-.129,1.652-.458,1.651l-.584-4.166q.151-1.574.152-2.54h.128a35.631,35.631,0,0,0-.737-4.9l.153-.3q-1.729-7.976-2.972-9.831a24.437,24.437,0,0,0-3.125-5.208m.279,8.636a30.948,30.948,0,0,1,1.194,2.973q-.407,0-1.473-2.82Zm1.042-3.276q.609.025,1.651,2.515h.153v.153a.135.135,0,0,1-.153.152,5.727,5.727,0,0,1,.585,1.779h-.28Zm2.236,47.958v.152q0,1.779-.28,1.779l.128.736v1.066a8.536,8.536,0,0,1-.128,1.322,1.76,1.76,0,0,1,.128.761c-.288,0-.432-.65-.432-1.955l.153-.279a7.844,7.844,0,0,1-.61-2.54q0-.28,1.042-1.042m1.346-27.408h.153q0,.583.153.583l-.153.762v1.194l-.153.278q.305.053.305.306-.712,2.234-1.651,2.235l-.28.152v-.152q.534-.558,1.322-4.623,0-.736.3-.736m2.083-27.713h.458c0,.406.142.61.431.61a1.167,1.167,0,0,1,.457-.152.292.292,0,0,0,.305.278c.1,0,.153-.042.153-.127a2.505,2.505,0,0,1,1.93,2.515q-.153,2.032-.153,2.844a1.021,1.021,0,0,1,.153.432q-.254,0-1.194-3.429a6.383,6.383,0,0,1-2.54-2.972" transform="translate(22.885 -210.195)" fill="#f2fe04"/>
  <path id="Path_38" data-name="Path 38" d="M307.368,322.566h.533a16.688,16.688,0,0,0,4.547,4.114v.28a27.448,27.448,0,0,1-5.08.406l-.128-.813v-1.244l.128-1.627a.246.246,0,0,1-.28-.278h.28Zm3.555-53.064a1.15,1.15,0,0,0,.432.127v.254q-.305,0-.432.559h-.279l.153.279a1.491,1.491,0,0,1-.686.839,2.692,2.692,0,0,1-.431,1.345v.712h-.254v.1l.153.279q-.687,0-1.245,1.677h-.153v.381l.279.432v.153l-.406-.305H307.9c-.153.915-.33,1.371-.533,1.371V277.3c0-.084.05-.127.152-.127a6.865,6.865,0,0,1-.279-2.057l.128-.686a4.375,4.375,0,0,1-.128-.965.967.967,0,0,1,.128-.406c0-.1-.043-.154-.128-.154a1.143,1.143,0,0,1,.128-.406q-.129-1.5-.128-2.616v-.254h3.149a1.08,1.08,0,0,0,.534-.127m-3.4,40.591h.1a6.04,6.04,0,0,0,.279,1.372,1.133,1.133,0,0,0-.127.559q.558.356.559,1.625l-.153.28a1.06,1.06,0,0,1,.153.558q0,.129-.153.129a5.235,5.235,0,0,1,.534,2.335c-.2,0-.423-.456-.66-1.371v-.432q-.229,0-.685-2.058h.152l-.152-.253q.151-1.854.152-2.743M331.8,269.223h.38c.1,0,.153.043.153.127a1,1,0,0,1,.407-.127,8.164,8.164,0,0,0,.838.127l.279-.127a.991.991,0,0,1,.381.127,18.774,18.774,0,0,1,1.93-.127,34.889,34.889,0,0,1,8.662,2.591l2.438,1.245-.128.278q1.83,0,7.7,5.208.991.458,2.592,3.149a11.138,11.138,0,0,0,1.523,3.277,92.932,92.932,0,0,1,.966,11.812l.127.279a1.242,1.242,0,0,0-.127.56v.278a4.422,4.422,0,0,0,.127,1.066q-.126,1.652-.28,1.651l.154.305a29.791,29.791,0,0,1-1.524,6.833,12.162,12.162,0,0,0-1.245,3.43,20.417,20.417,0,0,1-1.777,4.114q-3.686,4.98-4.8,5.487-5.055,3.252-6.706,4.116a5.711,5.711,0,0,1-2.209.965v.279h-.28a.112.112,0,0,1-.126-.128,25.158,25.158,0,0,1-3.71.813l-.685-.153h-2.616l-.66.153v-.153a1.537,1.537,0,0,1-.711.28.112.112,0,0,1-.127-.128l-.686.128h-.966q-7.543-1.476-7.544-2.465a28.389,28.389,0,0,1-5.054-3.3,13.2,13.2,0,0,1-2.362-2.463,17,17,0,0,1-2.058-3.963q-.151,0-.66-1.524-.356,0-.711-1.092a35.491,35.491,0,0,1-2.591-4.673l-.965-2.592q-.534-3-.534-3.43h.1c0-.1-.034-.152-.1-.152l.1-.965V299.4a19.374,19.374,0,0,1,.864-5.359v-1.652a.938.938,0,0,0-.153-.533,53.334,53.334,0,0,0,1.092-6.6,20.269,20.269,0,0,1,2.057-5.208q.2,0,1.092-1.5,1.523-1.065,1.524-1.651a66.5,66.5,0,0,1,9.855-6.578,5.9,5.9,0,0,1,2.21-.813c0-.1.042-.153.127-.153h.407q3.428.025,3.429.279c.389-.051.585-.185.585-.406m-22.124,40.59a46.316,46.316,0,0,0,2.616,4.522,2.241,2.241,0,0,0,.559,1.245v.126h-.406q-2.337-3.428-2.337-4.52c-.322-.727-.55-1.092-.685-1.092.033-.187.118-.28.254-.28m3.861-40.311v.253l-1.905,3.43a13.76,13.76,0,0,0-1.245,2.87h-.153a.247.247,0,0,1-.279-.279c.321-.44.509-.66.56-.66l-.128-.279a10.436,10.436,0,0,0,.813-1.931c.187,0,.279-.041.279-.126l-.127-.28a6.82,6.82,0,0,1,1.092-2.057q0-.94,1.092-.94m4.369-.153a6.609,6.609,0,0,0,1.244.153l-4.521,3.4q0,.458-1.091,1.245v-.278q1.727-4.37,3.149-4.37Zm28.273,55.96v.278h-.535v-.127a3.219,3.219,0,0,0,.535-.152m3.58-2.059v.28a12.594,12.594,0,0,1-3.3,1.779h-.278v-.128a11.688,11.688,0,0,0,2.616-1.5,2.5,2.5,0,0,0,.965-.432m9.88-1.777v.151q-.151,1.372-.152,2.057a14.305,14.305,0,0,1,.278,2.186v.406a.246.246,0,0,1-.278.279h-.813a1.068,1.068,0,0,1-.56-.153c-.085,0-.126.051-.126.153l-1.905-.279-1.4.127-1.371-.127-2.465.279c0-.1-.043-.153-.127-.153a.135.135,0,0,1-.154.153v-.279a11.818,11.818,0,0,0,1.932-1.219q2.158,0,5.487-2.489.991-1.094,1.65-1.092m-5.766-52.683H354l3.43.432.278-.153a12.778,12.778,0,0,0,3.024.559h.534l-.406,3.151v.838c0,.068-.043.1-.128.1l.128.279a8.552,8.552,0,0,0-.407,3.024H360.3q-.282-.051-1.219-2.592a11.423,11.423,0,0,1-2.057-2.616q-.46,0-.839-.966a16.16,16.16,0,0,1-2.313-2.057" transform="translate(30.651 -204.983)" fill="#f2fe04"/>
  <path id="Path_39" data-name="Path 39" d="M335.525,229.751l.585.128a1.177,1.177,0,0,1,.457-.128q.636,0,.89,2.211a.135.135,0,0,0-.154.153c.2.034.307.135.307.3v1.04q-.46,0-.762.737h-.127v.153a42.83,42.83,0,0,1,2.083,7.595,44.864,44.864,0,0,1,2.361,10.593,25.7,25.7,0,0,1,2.108,7.9q1.321,4.037,2.819,10.871a39.679,39.679,0,0,1,1.779,6.834,18.425,18.425,0,0,1,1.5,5.233,10.047,10.047,0,0,1,1.194,4.9c.167,0,.363.449.582,1.347h.764a4.124,4.124,0,0,0,1.471-2.388c.3,0,.56-.744.761-2.235a26.336,26.336,0,0,0,1.779-3.581q2.694-4.928,2.694-6.553c-.1,0-.153-.042-.153-.127h.432v-.915a10.824,10.824,0,0,0,1.039-2.667q.789,0,1.347-3.583.231,0,1.043-2.819a10.371,10.371,0,0,0,.89-2.236v-.61q.405,0,.911-1.93l.282-.152a1.026,1.026,0,0,1-.154-.458,86.527,86.527,0,0,0,3.43-8.763v-.152h.3a38.8,38.8,0,0,0,1.779,8.483,36.655,36.655,0,0,0,1.043,5.055,21.383,21.383,0,0,0,1.651,5.359,42.927,42.927,0,0,0,1.625,5.232,35.321,35.321,0,0,0,1.651,5.36c.15,0,.4.492.736,1.474v.3l-.154.305q.358.127.915,1.93.891.407.89.61V285q.431,0,.432,1.193h.761a17.894,17.894,0,0,1,.586-2.386.136.136,0,0,0-.154-.154l.154-.736v-1.93a5.3,5.3,0,0,0,1.347-3.581,28.611,28.611,0,0,0,1.775-5.969l-.15-.279,1.04-2.693a8.383,8.383,0,0,1,1.068-2.083l-.153-.305a4.5,4.5,0,0,1,.735-1.778q.611-5.359,1.044-5.36a62.588,62.588,0,0,0,3.122-6.121q.358,0,1.5-4.445l.582-5.08-.15-.305a5.108,5.108,0,0,1,3-3.125q.687,0,2.083-3.861c.424-1,.719-1.5.89-1.5a.27.27,0,0,0,.3-.306v-.126l-.153-.305q.584,0,1.347-1.651a13.146,13.146,0,0,1,2.818-1.042v.152a5.925,5.925,0,0,1,1.194-.432v.128a6.356,6.356,0,0,1-1.194,2.236q0,1.574-1.929,4.927a71.161,71.161,0,0,1-2.972,8.178,17.226,17.226,0,0,1-1.955,5.234l-.738,2.236a.135.135,0,0,1,.154.152q-.405,0-1.194,3.125a3.844,3.844,0,0,0-1.043,3.123,22.6,22.6,0,0,0-1.775,4.471,3.916,3.916,0,0,0-.915,2.388q-.333,0-.736,2.361h-.154l.154.305q-2.392,5.36-2.39,8.053a29,29,0,0,1-1.625,3.581,5.682,5.682,0,0,0-.458,2.083,27.807,27.807,0,0,1-1.625,3.428,32.772,32.772,0,0,0-2.237,5.361,16.624,16.624,0,0,1-2.082,4.469q-.329,0-1.8-2.539c-.7-1.524-1.236-2.371-1.626-2.54,0-.254-.306-.653-.915-1.2a40.435,40.435,0,0,0-3.4-6.984,51.067,51.067,0,0,0-2.387-5.513,29.876,29.876,0,0,1-1.653-4.191l-.582-.432c0-.1-.154-.152-.458-.152h-.735a44.462,44.462,0,0,0-2.848,6.1q-2.234,3-2.233,3.581a13.982,13.982,0,0,0-2.515,4.775,32.66,32.66,0,0,0-2.082,5.665q-3.611,5.082-3.888,5.664h-.432a26.309,26.309,0,0,0-1.8-4.344,34.571,34.571,0,0,0-2.387-6.1.136.136,0,0,1,.154-.154,56.225,56.225,0,0,1-2.39-5.943c-.15,0-.3-.348-.432-1.042q-2.387-5.131-2.387-6.553c-.389,0-.584-.357-.584-1.068A12.367,12.367,0,0,1,340,270.85q-.382,0-.61-1.5-.585-.633-1.5-4.6-.282,0-1.042-4.192-.587,0-1.2-3.276c-.235,0-.432-.491-.582-1.474q-.609-.278-1.2-3v-.279q-.405,0-1.5-3.735a15.542,15.542,0,0,1-1.474-3.581H330.6v-.127a.135.135,0,0,1,.154-.152c-.1-.406-.3-.61-.586-.61l.128-.737q-.356,0-.584-1.778h-.737l.128-.762v-.3c-.188-.593-.381-.89-.586-.89h-.15l.15-.737-.3.154a9.454,9.454,0,0,0-.889-2.972q-.431,0-.889-2.109a8.548,8.548,0,0,1-1.194-2.362v-.3q0-.433,1.194-.61a.135.135,0,0,1,.153.153,21.444,21.444,0,0,0,6.1-1.194c.305.1.456.2.456.3a5.656,5.656,0,0,1,2.388-.432m-2.235,35h.278q.536.1,1.8,4.751.305,0,1.347,3.886,0,.585,2.361,4.623a8.691,8.691,0,0,0,.915,3.4q0,1.016,1.779,4.318l.889,3a2.435,2.435,0,0,0,.3,1.193h-.3a8.98,8.98,0,0,0-1.347-2.693q-1.779-5.333-4.015-11.023ZM340,231.53h.128q.226.025.914,1.626a1.182,1.182,0,0,0-.153.457,9.7,9.7,0,0,1,.432,1.778h-.737q-.458-3.326-.584-3.861m.128,56.594q.735.407,2.233,4.47a4.044,4.044,0,0,0,.611,1.346v.737q.431,0,2.669,4.623v.3c-.291,0-.432-.152-.432-.457a1.687,1.687,0,0,0-.89.305l.126.305v.152a15.022,15.022,0,0,1-1.319-3l.15-.735v-.612a41.957,41.957,0,0,1-3.148-7.441m3.427-50.041q.205,0,.89,2.236c.222,0,.423,1.092.611,3.276.2,0,.3.245.3.737v1.346q.282.66,1.625,5.817a17.945,17.945,0,0,1,1.193,4.75,37.392,37.392,0,0,0,1.347,4.927l1.933,8.638v.305H351.3q0-.382-1.779-6.4a72.022,72.022,0,0,0-2.69-8.941,55.835,55.835,0,0,0-1.933-8.053q-.149,0-.3-.458a1,1,0,0,0,.154-.43,20.331,20.331,0,0,1-.889-4.015.133.133,0,0,0,.15-.153.269.269,0,0,1-.3-.3.135.135,0,0,1,.154-.153l-.154-.305a.135.135,0,0,1,.154-.152,3.448,3.448,0,0,1-.308-1.627ZM358.9,293.2v.279l-4.016,7.317h-.3v-.154a19.608,19.608,0,0,1,1.5-2.972,11.837,11.837,0,0,1,2.233-4.038Zm2.54-5.232v.153q-1.271,3.125-1.651,3.123v-.126q1.245-3.15,1.651-3.151m7.138-54.358h.3v.736l.457,1.8h-.3v.153l.3.432v.457q-1.423,0-1.8,1.626l-2.233,6.121q0,.482-1.322,1.474c0,.372-.346.677-1.043.914a10.547,10.547,0,0,1-1.347,4.6c-.2,0-.3.254-.3.763.1,0,.154.042.154.127-.389,0-.586.253-.586.762h-.3q.354-1.042.586-1.042a.135.135,0,0,0-.154-.153c0-.593.154-.889.458-.889v-.153l-.154-.3c.137,0,.287-.3.458-.89l-.154-.305a11.848,11.848,0,0,0,.89-2.818,36.591,36.591,0,0,0,1.347-3.734h.431v.61h.3l-.15-.305a6.228,6.228,0,0,0,.89-2.387q.482-.025,1.193-2.819h.3v-.458q.941-3.554,1.779-4.318m-.89,58.551a36.3,36.3,0,0,1,3.126,5.638,7.339,7.339,0,0,1,1.5,3.886l-.3.154h-.432c-.239,0-.39-.254-.458-.763.1,0,.15-.043.15-.127q-.809-.331-1.775-3.733a21.261,21.261,0,0,1-1.8-5.055m1.347-53.623q.456,0,.458,1.627h.278v.888l.154,1.5-.282.153h-.15c-.2,0-.355-.651-.458-1.955-.256,0-.406-.195-.457-.584a9.126,9.126,0,0,0,.457-1.627m.608,5.055h.432a3.619,3.619,0,0,0,.457,1.625,1.26,1.26,0,0,0-.15.612v.152q.584,1.523.582,1.625l-.15.305a5.514,5.514,0,0,1,.455,2.235.135.135,0,0,0-.15.153,10.357,10.357,0,0,1,1.193,3.43H372a12.227,12.227,0,0,0-.89-2.388,32.01,32.01,0,0,1-1.193-5.969c-.1,0-.154-.094-.154-.28h.154a1.925,1.925,0,0,1-.282-.915c0-.1.043-.152.128-.152l-.128-.28Zm2.211,49.609q1.142.787,3.43,5.791c.3.949.457,1.448.457,1.5h-.457q-1.194,0-1.779-3.43a5.693,5.693,0,0,1-1.04-2.819c-.406-.305-.611-.508-.611-.61Zm.611-55.121h.15a17.852,17.852,0,0,0,.736,3.734v1.473c.034.2.137.3.306.3l-.153,1.5a22.584,22.584,0,0,1,.735,3.862,1.191,1.191,0,0,1,.458,1.042q0,.331-.15,1.651a31.042,31.042,0,0,1,1.039,5.359,33.446,33.446,0,0,1,1.347,5.055q.3,0,.3.737v2.083l.736,4.469c-.1.611-.253.915-.455.915a21.755,21.755,0,0,1-1.628-7.011h.154a4.992,4.992,0,0,1-.458-1.651l.154-.278a23.88,23.88,0,0,1-.736-2.693h.152a12.249,12.249,0,0,1-.762-3.861l.154-.306a16.01,16.01,0,0,1-.586-2.691.113.113,0,0,1,.128-.127,12.707,12.707,0,0,0-.738-3.734,1.15,1.15,0,0,1,.154-.457,9.973,9.973,0,0,0-.458-2.515h.154a12.3,12.3,0,0,1-.432-3.887.268.268,0,0,1-.3-.3,1.1,1.1,0,0,1,.15-.584,7.544,7.544,0,0,1-.15-1.347ZM400.323,299.6c.287.1.432.4.432.89v1.65h-1.193a1.28,1.28,0,0,0-.586.129,1.324,1.324,0,0,0-.608-.129l-.735.129v-.129a12.971,12.971,0,0,1-1.651.28c-.086,0-.128-.051-.128-.152a42.061,42.061,0,0,1-5.359.3l-.915-.152-2.237.3v-.153a1,1,0,0,1-.432.153q-1.167,0-4.165.154v-.154q.456-1.043,2.668-1.042l.3.154a4.173,4.173,0,0,0,1.347-.763c0,.237.193.389.582.458a5.31,5.31,0,0,0,2.237-.585l.3.127,1.194-.278v.152a3.045,3.045,0,0,1,1.628-.305l-.154-.3,1.5.153h.154c.119,0,.659-.1,1.625-.305h1.8l.432-.279q.56,1.169,1.347,1.168h.3v-.736l.154-.305c-.1,0-.154-.043-.154-.127a.27.27,0,0,0,.3-.305m-9.55-23.242h.458v.152a11.686,11.686,0,0,1-.89,2.083,8.858,8.858,0,0,1-.915,2.54v.89q-.431,0-.736,2.083a10.587,10.587,0,0,1-1.929,3.733,2.85,2.85,0,0,1-.889,1.474v-.432q1.573-6.12,2.233-6.12a41.9,41.9,0,0,1,2.514-5.818Zm-1.779,12.954h.154v.458c0,.982-.1,1.472-.3,1.472a1.2,1.2,0,0,1,.15.458l-.15.3a1.133,1.133,0,0,1,.15.585q0,.405-1.347,1.651h-.3v-.305a19.028,19.028,0,0,1,1.347-3.86,1.742,1.742,0,0,0,.3-.763m5.513-9.982h.153q-.84,4.928-1.65,4.927l.15.305a7.5,7.5,0,0,0-.582,1.625c.081,0,.124.052.124.153q-.405,0-1.168,2.82l-.3.152v-.3a30.273,30.273,0,0,1,1.347-4.165,1.006,1.006,0,0,1-.154-.432q.256,0,.736-2.083.789-1.8,1.043-1.8v-.152a1.006,1.006,0,0,1-.154-.432c.154-.406.3-.61.458-.61m9.524-26.062v.305l-.15,1.042a1.032,1.032,0,0,1,.15.432h-.15a1.2,1.2,0,0,1,.15.456c0,.221-.1.967-.3,2.237a.135.135,0,0,0,.154.152l-.154.737v2.083h-.736l-.3-.154a24.455,24.455,0,0,0,.3-2.972.134.134,0,0,1-.153-.152h.153l.3.152.154-.3c-.2,0-.306-.144-.306-.432q.332-3.583.889-3.581m-.582,8.053h.278v1.929q0,.738.154,2.237h-.154l.154.3v.737a.135.135,0,0,1-.154.153l.154.305v.278H403.6l-.15-.736h.15l-.15-.305v-.152a1.792,1.792,0,0,1,.278-.89c-.085,0-.227-.195-.432-.583a1.175,1.175,0,0,1,.154-.457l-.154-2.083Z" transform="translate(33.026 -210.092)" fill="#f2fe04"/>
  <path id="Path_40" data-name="Path 40" d="M383.341,288.882l.305.152c-.1.712-.153,1.109-.153,1.2a2.025,2.025,0,0,0,.153,1.042q-.205,5.866-.458,7.9l.153.305q-.153.431-.3.431l.152.305-.3,2.972a.134.134,0,0,0,.153.152l-.305,2.083a.135.135,0,0,0,.153.153l-.153.737v2.108q-.433,4.37-.432,6.833c-.2.034-.3.136-.3.305a1.028,1.028,0,0,1,.152.457H382l.152.279c-.068.694-.169,1.04-.305,1.04a15.619,15.619,0,0,1,.305,2.083c-.169,0-.322.357-.457,1.068.1.051.152.4.152,1.042h-.152v.889q0,.305-.278.305a1.5,1.5,0,0,0-.154-.762,3.809,3.809,0,0,1,.279-1.042,13.712,13.712,0,0,1-.125-1.626l.125-1.04-.279-.153v.278h-.3a2.313,2.313,0,0,0,.583-1.32l-.125-.305a1.359,1.359,0,0,0,.125-.61c-.185,0-.279-.3-.279-.889a.247.247,0,0,0,.279-.279V311.54a7.885,7.885,0,0,0-.583-1.8h.3v-.279h-.3q0-.609.583-.61v-.737a9.129,9.129,0,0,0-.125-1.346c.084-.305.178-.457.278-.457l-.278-2.236h.278a1.023,1.023,0,0,1-.153-.431l.153-.306-.153-.3A66.686,66.686,0,0,0,382.884,295l-.153-.305v-.152q.458-2.287.457-2.388a.135.135,0,0,0-.152-.153l.3-2.362-.153-.3a1,1,0,0,0,.153-.457m-1.194.305v.61c0,.084-.051.127-.152.127a1.175,1.175,0,0,1,.152.457l-.152.3a1.032,1.032,0,0,1,.152.432,10.765,10.765,0,0,0-.305,2.388h-.152v-1.347a1.031,1.031,0,0,1,.152-.432l-.152-.3q.1-2.236.457-2.235m2.388-37.239v.153a8.777,8.777,0,0,1-.61,2.388,2.825,2.825,0,0,1,.153.889,1.126,1.126,0,0,1-.585.153,8.228,8.228,0,0,0-.153-.89q.354-2.539.737-2.54a1.182,1.182,0,0,1,.457-.153m.153,8.206a10.617,10.617,0,0,0,.126,1.625,1.363,1.363,0,0,0-.126.61,1.176,1.176,0,0,1,.126.432l-.278.152-.305-.888q0-1.93.458-1.93m.584-6.859.305.153.3-.153v1.473a.135.135,0,0,1-.152.153l.431,2.082-.279.153c.085.594.178.889.279.889l-.152.762V260l.3.432-.153.3a1.191,1.191,0,0,0,.153.458,19.161,19.161,0,0,1-.3,2.667,8.917,8.917,0,0,1,.3,1.8l-.153.278a7.912,7.912,0,0,1,.153,1.5l.305-.153v.153l-.154.305.154.736q-.305.051-.305.305v.152h.305v.127l-.305.458.152.737h-.152l.305.761c-.1,1.016-.154,1.8-.154,2.362l.154.762h-.154l.154.305v1.32a.269.269,0,0,1-.305.305h-.153v-.152l.153-.305a1.027,1.027,0,0,1-.153-.432h.153l-.153-.3v-.154q0-1.04-.152-3.276a.134.134,0,0,0,.152-.152q-.2,0-.431-.432a11,11,0,0,0,.279-1.932v-.152a1.344,1.344,0,0,0-.128-.61c0-.1.043-.154.128-.154l-.128-1.042v-.278a1.347,1.347,0,0,1,.128-.609q-.231-1.2-.586-5.665h.154l-.154-.279a1.159,1.159,0,0,1,.154-.61,4.529,4.529,0,0,1-.305-1.779.134.134,0,0,0,.152-.153.268.268,0,0,1-.3-.305,5.208,5.208,0,0,1,.152-1.345l-.3-2.083Zm.305,50.5h.153a11.637,11.637,0,0,0,.152,1.625l-.152.305a.135.135,0,0,0,.152.153l-.152,1.5v1.778a24.853,24.853,0,0,0,.152,2.668,24.318,24.318,0,0,0-.3,2.541h-.154q0-1.247-.152-1.347a8.674,8.674,0,0,0,.305-1.932c-.1-.879-.154-1.422-.154-1.625q0-.28.154-2.693c-.1-.526-.154-.821-.154-.889a10.538,10.538,0,0,0,.154-2.083m.153-6.706q.278,1.423.279,1.625a9.208,9.208,0,0,0-.128,1.194l.128.305a1.172,1.172,0,0,0-.128.457h-.152l-.153-1.042a.134.134,0,0,1,.153-.151,8.017,8.017,0,0,1-.306-2.236Zm.279-4.319a1.756,1.756,0,0,0,.152.889l-.431,1.931h-.153v-.736a.135.135,0,0,1,.153-.154l-.153-.3v-.153a1.108,1.108,0,0,1,.153-.585l-.153-.3c.153-.389.3-.585.432-.585m1.042-9.982a1.156,1.156,0,0,0,.152.457,1.113,1.113,0,0,0-.152.585l.152.305-.152.278a.135.135,0,0,0,.152.154,31.747,31.747,0,0,1-.584,3.125.134.134,0,0,0,.152.152,12.237,12.237,0,0,0-.305,1.8h-.3v-.151l.153-.762c-.2,0-.3-.094-.3-.279h.3v-.609c-.288,0-.432-.093-.432-.28v-.152l.432.28a1.778,1.778,0,0,1,.152-.89v-.432h.154v-.761l.152-.28h-.305a1.7,1.7,0,0,0,.458-1.042.269.269,0,0,1-.3-.305l.152-.3-.152-.305q.227-.583.432-.583m16.536-30.38,1.956.279a1.013,1.013,0,0,1,.431-.153c.694.085,1.043.188,1.043.305l.3-.153.737.457H410.6q2.059,0,7.138,2.388a3.8,3.8,0,0,1,3.149,2.082,8.247,8.247,0,0,1,3.4,4.166,25.425,25.425,0,0,1,2.109,4.013,32.015,32.015,0,0,0,2.819,4.776,37.3,37.3,0,0,0,1.626,6.859,7.946,7.946,0,0,1,.61,2.387l.305-.153h.152v.28H431.6v.3l.305-.153v.153a1.158,1.158,0,0,0-.152.61h.278v.153a8.5,8.5,0,0,0,.763,3.276c.286,1.541.432,2.43.432,2.667a1.024,1.024,0,0,0-.154.458c.406,0,.61.3.61.889a6.229,6.229,0,0,0,.305,1.626l-.305.152.305,1.2a1.145,1.145,0,0,0-.153.456.135.135,0,0,1,.153.154c-.1,0-.153.042-.153.125h.153c0-.084.051-.125.152-.125l.128,1.472v.3a1.275,1.275,0,0,1-.128.585c0,.1.043.153.128.153l-.128.762v2.362l-.152.3h.152c0-.1.043-.153.128-.153l-.128.762.128.889a32.843,32.843,0,0,0-.432,5.36c-.1,0-.153.1-.153.3h.305a15.868,15.868,0,0,0-1.042,3.278q-.227.025-.61,1.625c-.152,0-.348.4-.584,1.193q-.662.254-2.541,4.776c-.219,0-.771.491-1.65,1.472q-2.668,3.1-2.669,3.583l-.3-.153a20.236,20.236,0,0,1-3.123,2.541q0,.482-2.694,1.93,0,.609-5.64,2.54a13.389,13.389,0,0,0-2.082.432c-.1,0-.153-.043-.153-.128a11.091,11.091,0,0,1-2.54.28h-1.346a1.124,1.124,0,0,0-.586.152,1.168,1.168,0,0,0-.61-.152q-1.041.151-1.193.152l-.279-.152a1.265,1.265,0,0,1-.61.152l-.89-.152a15.482,15.482,0,0,1-1.929.3q-1.118-.3-1.194-.3l-.3.152-.89-.152a3.437,3.437,0,0,1-1.5.457c-.389-.085-.584-.188-.584-.305l-.306.152q-.558,0-3.123-.3a9.242,9.242,0,0,1-1.778.152.135.135,0,0,1-.154-.152.134.134,0,0,0-.152.152q-1.194-.1-1.193-.3l-.305.153c-.492,0-.736-.094-.736-.28l-.305.128h-.432a1.344,1.344,0,0,1-.61-.128,1.289,1.289,0,0,1-.585.128c-.2,0-.305-.094-.305-.279l.154-.609a2.361,2.361,0,0,1-.305-1.194v-.889l.305-1.779q0-.762-.154-2.235l.154-.61a4.53,4.53,0,0,1-.154-1.2l.305-.127-.152-.3.152-.306h-.305c.034-.2.137-.305.305-.305l-.152-.278V316.01a.134.134,0,0,1,.152-.153l-.152-.3v-.89l.3-.457v-.585h-.3v-.152a.133.133,0,0,1,.152-.152l-.152-.305v-.432c.2,0,.3-.052.3-.153a14.431,14.431,0,0,1,.128-1.651,13.787,13.787,0,0,1-.128-1.626l.128-.3a1.287,1.287,0,0,1-.128-.583v-.305l.279-.458a7.23,7.23,0,0,0-.152-1.32l.3-2.694-.153-.736a19.486,19.486,0,0,0,.153-2.235v-.611a1.119,1.119,0,0,0-.153-.585.135.135,0,0,1,.153-.151l-.153-.737a1.033,1.033,0,0,1,.153-.456,5.721,5.721,0,0,1-.3-1.5,24.076,24.076,0,0,1,.609-5.207h-.305q.329-.205.737-3.125c0-.1-.043-.154-.128-.154a39.212,39.212,0,0,1,.432-4.469c0-.085-.05-.483-.153-1.2l.153-.584q-.356-2.692-.585-2.693l.153-.737v-.152q-.305-2.516-.3-2.819v-.457a.135.135,0,0,1,.152-.154l-.152-.278v-.915l-.153-.89a1.442,1.442,0,0,0,.153-.735l-.153-.306q.405-2.387.585-2.386l-.128-.28q.1-.914.279-.915l-.152-.278a5.653,5.653,0,0,1,.3-1.5h-.3l.152-.306v-1.929a.135.135,0,0,1,.153-.153,6.954,6.954,0,0,1-.432-2.541h.128a42.687,42.687,0,0,1-.89-6.552h.153l-.153-.279v-.89a.135.135,0,0,1,.153-.152l-.153-.305v-.153c.084,0,.483-.051,1.194-.152v.152l.305-.152h3.276a25.273,25.273,0,0,0,2.693-.153l.585.153q1.65-.154,2.971-.153h1.652a.135.135,0,0,1,.153.153l.278-.153h2.54c.492,0,.737-.094.737-.279m-12.5-3.887q1.069.153,1.2.153a1.007,1.007,0,0,1,.432-.153v.153a.135.135,0,0,0,.152-.153l.736.153h2.108l1.042.153v.152a4.968,4.968,0,0,0-1.5.28l-.305-.128a29.806,29.806,0,0,1-5.206.431,5.419,5.419,0,0,1-2.083.612.135.135,0,0,0-.153-.154l.153-.761-.305-.432q.863,0,2.388-.153v.153a3.287,3.287,0,0,1,1.345-.305m0,2.388h.737v.152a28.009,28.009,0,0,1-3.733.432l-.128-.278a17.492,17.492,0,0,1,3.123-.305M388.7,329.271q2.236.049,2.235.278a.134.134,0,0,0,.152-.153l1.473.153H394.8a1.164,1.164,0,0,0,.609-.153,1,1,0,0,0,.432.153v.305h-.585c-.305,0-.457-.051-.457-.154q-1.854.205-2.237.305c-.084,0-.127-.051-.127-.152l-1.066.152h-.432a1.262,1.262,0,0,1-.61-.152,1.122,1.122,0,0,1-.584.152h-.153c-.491,0-.737-.1-.737-.305l-.3.154H388.4v-.305c.2,0,.305-.093.305-.278m4.623,2.514q.456,0,6.553.3a1.448,1.448,0,0,0-.153.737h-1.651a1.1,1.1,0,0,0-.585.153,9.955,9.955,0,0,0-2.54-.305l-.279.153-3.886-.585v-.153q2.387-.3,2.54-.3m20.549-2.972c.593.236.89.432.89.584v.153q-.129,0-3.581.152h-1.169v-.152a5.407,5.407,0,0,0,1.472-.153.135.135,0,0,0,.153.153.291.291,0,0,1,.305-.278l.279.126q1.65,0,1.651-.584m4.166-78.058q1.8.305,1.93.3v.432c-.188,0-.279.1-.279.305l-.3-.154a1.161,1.161,0,0,1-.611.154q0-.305-2.083-.584H415.5l-.28.152v-.305l.737-.152h.89a.134.134,0,0,1,.152.152,2.414,2.414,0,0,1,1.042-.3m6.248,74.477v.152a14.682,14.682,0,0,1-4.165,2.693l-1.194.89v.152a.135.135,0,0,1-.153-.152l-.736.152h-.432a70.935,70.935,0,0,1,6.68-3.886m.763-73.283.3.153h.584a12.053,12.053,0,0,1,3.125.585.135.135,0,0,1,.153-.153q0,.3,1.626.915h.152v-.305c.389.594.643.889.763.889.033-.2.127-.3.278-.3q0,.762.609.762a4.363,4.363,0,0,0,1.347,1.042.134.134,0,0,1,.152-.153q0,.407.737.888a18.8,18.8,0,0,1,1.194,4.32,1.161,1.161,0,0,0-.153.457h-.305q0-.458-1.193-1.5,0-.331-1.193-1.347l-2.237-2.973a9.116,9.116,0,0,0-3.125-1.777q-.151-.662-2.514-1.194h-.3Zm.3,10.136h.128q.278,0,1.651,2.235,1.04,0,2.082,4.471a2.59,2.59,0,0,1-.889-1.5,7.591,7.591,0,0,1-1.347-2.819,11.548,11.548,0,0,1-1.625-2.387m10.72,56.441h.151l-.151.761.151.585c-.1.305-.2.457-.3.457a.134.134,0,0,0,.153.153,5.213,5.213,0,0,1-.305,1.169.135.135,0,0,0,.153.152q0,2.692-.889,2.693h-.305v.154q0,.1.457.43l.28-.152h.152v.152q0,1.245-2.54,1.8l-.278-.153a32.267,32.267,0,0,0-3.278.736h-.3a9.426,9.426,0,0,1,1.931-1.93A8.98,8.98,0,0,0,432.8,323.3q.227,0,1.472-1.932a3.477,3.477,0,0,0,1.042-1.956Zm-3.125-65.993a1.006,1.006,0,0,0,.432.153.135.135,0,0,1,.152-.153,4.66,4.66,0,0,1,1.042,2.108c.221,0,.372.195.458.584h.152a1.13,1.13,0,0,0-.152.586h-.305c0-.085.051-.128.153-.128q-.051-.405-.737-.761c0-.221-.2-.364-.609-.432,0-.187-.346-.483-1.042-.89,0,.086-.051.128-.152.128,0-.389-.1-.585-.305-.585,0,.1-.043.153-.127.153v-.61a4.4,4.4,0,0,0,1.042-.153m-1.042,20.117,1.168.737q1.5,5.055,1.5,5.232v.585l-.152.305c.2.034.3.135.3.3h-.153a1.015,1.015,0,0,0-.584-.3l.152-.305a.8.8,0,0,1-.609-.585,1.235,1.235,0,0,0,.153-.61v-.151q-.331,0-.456-.737h-.154v-.736q0-1.067-.585-1.194l.153-.3-.153-.305a1,1,0,0,0,.153-.432q-.38,0-.736-1.5m5.055,7.748a35.07,35.07,0,0,1,.89,5.055H437.7a5.719,5.719,0,0,1,.305,1.5,19.339,19.339,0,0,0-.152,2.541l-.154.305q.305.025.305.278a9.246,9.246,0,0,0-.458,3.125h-.125l.125.305c0,.1-.042.152-.125.152,0,.1.041.154.125.154l-.125.888q-.636,0-.763-1.5a14.753,14.753,0,0,1,.305-2.361,5.491,5.491,0,0,1-.305-1.2.4.4,0,0,1,.458-.456v-.305c-.3,0-.458-.093-.458-.28v-.152c0-.3.051-.458.154-.458l-.586-4.9a1.349,1.349,0,0,0,.128-.457,1.178,1.178,0,0,1-.128-.458h.128l-.128-.28v-1.345a1.439,1.439,0,0,0,.737-.154m.3-10.288h.432l.61,3.149-.3.128a14.479,14.479,0,0,1-1.042-2.667v-.153c.2,0,.3-.153.3-.458" transform="translate(40.317 -207.636)" fill="#f2fe04"/>
</svg>
