<svg id="Group_1" data-name="Group 1" xmlns="http://www.w3.org/2000/svg" width="595.723" height="132.036" viewBox="0 0 595.723 132.036">
  <path id="Path_41" data-name="Path 41" d="M430.674,419.253a2.155,2.155,0,0,1-2.236-1.4,12.959,12.959,0,0,1-.559-4.051,30.51,30.51,0,0,0,.7-3.491c.7-11.034,1.258-21.926,1.816-32.821v-9.077h-3.214a8.31,8.31,0,0,1-5.445-1.537,2.823,2.823,0,0,1-1.258-1.956,1.679,1.679,0,0,1,.279-1.116,1.979,1.979,0,0,1,1.676-.978,3.376,3.376,0,0,1,1.815.56,6.534,6.534,0,0,0,3.911,1.255l2.515-.278c.139-2.514.279-5.167.279-7.821,0-7.682,0-15.363-.279-23.045a79.1,79.1,0,0,0-1.537-9.776,20.1,20.1,0,0,0-1.258-3.073,3.2,3.2,0,0,1-.417-1.537,2.708,2.708,0,0,1,2.374-2.233,3.066,3.066,0,0,1,1.815.559,10.13,10.13,0,0,0,3.213,1.675c5.446,1.258,10.755,2.654,16.2,3.353l1.677.14c2.654,0,5.446-.7,8.24-.978a6.251,6.251,0,0,1,2.794.559,2.179,2.179,0,0,1,.838,1.675v.279c0,.42-.978.839-1.537,1.118-.42.279-.838.139-1.4.279a45.958,45.958,0,0,1-7.542.7,62.471,62.471,0,0,1-15.224-2.1c-1.816-.559-3.631-.976-5.866-1.535a98,98,0,0,1,2.1,21.926l-.279,14.246.139,5.307h2.653l15.923-1.537a2.487,2.487,0,0,1,2.653,2.094v.279c0,1.537-1.116,2.1-2.932,2.236l-17.318.978-1.117.279c-.14,2.513-.279,5.028-.279,7.4-.56,10.894-1.258,21.648-1.677,32.542v1.117a54.254,54.254,0,0,0,.559,6.7v.56a2.148,2.148,0,0,1-1.675,2.374Z" transform="translate(47.126 -316.88)" fill="#fc07b3"/>
  <path id="Path_42" data-name="Path 42" d="M456.336,442.07h-.7a6.2,6.2,0,0,1-4.748-1.816,2.435,2.435,0,0,1-.978-1.954,3.069,3.069,0,0,1,.14-1.118,12.631,12.631,0,0,0,.559-3.909c0-9.917-.279-19.972-.279-30.029v-6.423a7.665,7.665,0,0,1-2.793-.559c-.838-.42-1.816-1.4-1.816-2.1s1.117-1.4,1.956-1.956a2.746,2.746,0,0,1,1.116-.138h1.4v-6.006a235.343,235.343,0,0,0-3.77-38.268,34.58,34.58,0,0,0-1.537-5.028l-.279-1.256a2.439,2.439,0,0,1,.978-1.955,2.224,2.224,0,0,1,1.4-.7,3.963,3.963,0,0,1,1.675.56c4.469,3.071,9.779,3.63,14.944,4.608a46.94,46.94,0,0,0,8.8.838c2.932,0,5.865-.279,8.8-.418a8.182,8.182,0,0,1,3.212.559,2.9,2.9,0,0,1,1.118,2.233,2.6,2.6,0,0,1-1.677,1.258h-9.917a63.921,63.921,0,0,1-13.687-1.117c-2.513-.559-5.167-1.258-7.681-1.956l-2.1-.557a269.9,269.9,0,0,1,3.911,44.832v2.235c1.816-.139,3.212-.418,4.609-.559l14.385-1.676,3.773-.7a2,2,0,0,1,2.094,1.816v.559c0,1.256-.978,2.094-2.653,2.235-2.236.139-4.469,0-6.7.279l-14.246,2.1-1.117.279v9.776l.418,25.977a6.775,6.775,0,0,0,.14,1.676c.559,2.932,1.537,3.911,4.05,3.911h.978c8.1-.42,16.2-.978,24.441-1.537a3.123,3.123,0,0,0,1.954-.417,2.077,2.077,0,0,1,1.258-.279,2.572,2.572,0,0,1,1.955,1.255,3.311,3.311,0,0,1,.42,1.677l-.139.838c-.56,1.256-1.816,1.256-3.074,1.256-2.094-.14-4.19-.278-6.424-.278l-2.793.138c-7.122.42-14.246,1.117-21.368,1.816" transform="translate(50.283 -314.004)" fill="#fc07b3"/>
  <path id="Path_43" data-name="Path 43" d="M471.125,421.79a3.806,3.806,0,0,1-2.233-.559,2.939,2.939,0,0,1-.978-1.956,2.691,2.691,0,0,1,.42-1.4,2.983,2.983,0,0,0,.418-1.677l.837-19.832-.279-1.116.14-.559c.139-.978.421-1.956,1.117-2.236a1.634,1.634,0,0,1,.978-.279,2.543,2.543,0,0,1,1.537.559,2.972,2.972,0,0,1,.976,2.1v.278c-1.116,5.028-1.116,10.2-1.116,15.085l.14,2.933-.14,3.071.14,1.118,9.5-1.4c1.4-.279,2.793-.559,4.05-.7,2.514-.419,2.653-.419,2.653-2.932l.14-2.655a78.038,78.038,0,0,1,.418-7.96c.42-2.792,1.118-5.586,1.816-8.38.978-3.212,1.4-4.888,2.235-8.24l1.258-4.609a5.96,5.96,0,0,0,.279-1.536v-.559h-.978c-5.865.418-11.871.7-17.877,1.256-.279,0-.42.14-.7.279a3.268,3.268,0,0,1-1.117.279h-.417a2.9,2.9,0,0,1-2.1-.559,3.678,3.678,0,0,1-.978-2.235v-.42a26.825,26.825,0,0,0,1.258-8.8l-.14-3.91c0-8.52-1.955-17.179-3.491-24.861l-.838-3.911a19.211,19.211,0,0,0-2.654-7.96,2.243,2.243,0,0,1-.42-1.258,2.012,2.012,0,0,1,.279-.977,2.255,2.255,0,0,1,1.955-.977c5.447,0,9.777-1.258,15.085-2.794,1.4-.418,2.792-.838,4.19-1.117a29.707,29.707,0,0,1,9.915-1.815h1.536c1.956.279,3.074.978,3.773,2.514a7.009,7.009,0,0,0,1.116,1.676,43.5,43.5,0,0,1,6.844,10.895l.279,1.255-.14.7a2.246,2.246,0,0,1-1.536,1.117h-.14a32.732,32.732,0,0,1-5.307,1.4,75.738,75.738,0,0,0-15.5,4.191c-.279.28-.7.28-1.117.56h-.559a1.939,1.939,0,0,1-1.956-1.677v-.559c0-1.117.838-1.4,1.677-1.675,5.866-1.4,11.872-2.934,17.6-4.469a13.47,13.47,0,0,0,2.375-.7l.42-.279-1.676-3.213-1.677-2.374-1.675-2.236a6.949,6.949,0,0,0-6.006-3.352,15.66,15.66,0,0,0-3.352.42l-14.943,4.05-6.006,1.537c.559,3.631,1.256,7.262,1.955,10.753,1.815,9.917,3.911,19.972,3.911,30.447l-.279,5.866h2.653l18.3-1.256a2.988,2.988,0,0,1,2.513.977,2.439,2.439,0,0,1,.559,1.677l-.139,1.116-1.956,6.983-2.653,10.195a42.4,42.4,0,0,0-1.257,8.1c-.279,3.073-.279,6.144-.418,9.079a15.63,15.63,0,0,0,.418,3.351l.14,1.118a4.044,4.044,0,0,1-.559,1.955,2.457,2.457,0,0,1-1.815.837,2.406,2.406,0,0,1-.978-.138,6.23,6.23,0,0,0-2.792-.559,26.889,26.889,0,0,0-3.493.417l-1.4.279c-2.236.279-4.47.838-6.565,1.258l-4.889.978Z" transform="translate(52.95 -316.658)" fill="#fc07b3"/>
  <path id="Path_44" data-name="Path 44" d="M504.7,445.419h-.279a4.406,4.406,0,0,1-2.374-.839,1.618,1.618,0,0,1-.838-1.535,4.981,4.981,0,0,1,.279-1.4,34.026,34.026,0,0,0,1.116-4.05c3.353-13.27,5.03-26.956,6.146-40.643,1.258-14.944,2.514-30.028,3.632-44.971v-3.213l-10.336.559c-3.632.279-7.4.42-11.173.42a18.863,18.863,0,0,1-3.91-.559,2.556,2.556,0,0,1-2.1-2.793l5.586-.14c1.956.14,3.773.7,5.727.7l14.386-.978c.418-.139,1.117-.279,1.4-.7q1.048-1.678,2.094-1.677a3.006,3.006,0,0,1,1.816.838,4.731,4.731,0,0,0,2.932.839l18.3-1.537c1.4,0,3.073,1.117,3.073,1.955v.14c0,1.117-1.117,1.676-2.933,1.676l-17.877.557-2.792.42c-.14,2.654-.42,5.168-.7,7.822-.7,9.357-1.4,18.854-2.236,28.351q-1.257,15.292-2.932,30.587c-.418,4.749-1.258,9.5-1.955,14.246-.42,2.794-1.256,5.587-1.815,8.38-.279,1.676-.279,3.353-.42,5.028,0,1.258-.559,2.375-1.816,2.515" transform="translate(55.552 -313.383)" fill="#fc07b3"/>
  <path id="Path_45" data-name="Path 45" d="M45.323,396.2q.879,0,1.755.049c.586.033,1.172.047,1.756.047q3.316-.095,3.122,3.122a89.7,89.7,0,0,0,.2,10.292A45.767,45.767,0,0,1,51.761,420c-.064.648-.163,1.3-.292,1.951s-.294,1.3-.489,1.951q-.782,2.728-1.658,3.218t-3.707-.489a22.09,22.09,0,0,0-5.512-1.219,24.9,24.9,0,0,0-5.61.147,23.475,23.475,0,0,1-2.633.049q-1.367-.049-2.731-.049-3.61-.2-7.171-.1a38.748,38.748,0,0,0-7.17.876q-3.026.682-4.244-.292t-1.415-4.2q-.489-8.386-1.267-16.876T6.986,387.9a54.549,54.549,0,0,1,.731-8.975q.733-4.388,1.317-8.877.587-4.877.976-9.8a54.45,54.45,0,0,1,1.658-9.707,28.965,28.965,0,0,1,1.513-4.486A19.165,19.165,0,0,0,14.5,341.47a2.265,2.265,0,0,1,1.073-1.61,5.724,5.724,0,0,1,1.853-.732q1.267-.2,2.535-.293t2.538-.195a3.313,3.313,0,0,1,.78.1.71.71,0,0,1,.487.294,3.4,3.4,0,0,0,1.853,1.9,4.866,4.866,0,0,0,2.292.147,15.109,15.109,0,0,1,2.391-.2,17.258,17.258,0,0,0,2.2-.145,16.586,16.586,0,0,1,2.194-.147,4.579,4.579,0,0,1,2.732.779,3.3,3.3,0,0,1,.78,2.538q-.1,5.852,0,11.656t-.39,11.658q-.293,3.9-.536,8a23.6,23.6,0,0,0,.926,8.1,18.332,18.332,0,0,1,.731,4.78q.049,2.438.05,4.975,0,2.047.487,2.488A4.732,4.732,0,0,0,42.1,396h1.609a12.893,12.893,0,0,0,1.61-.1ZM8.547,397.56a122.26,122.26,0,0,0,.879,12.974q.779,6.439,1.268,12.877c.063,1.039.423,1.659,1.073,1.855a3.986,3.986,0,0,0,2.145,0,33.778,33.778,0,0,1,7.951-1.172,54.489,54.489,0,0,1,7.95.389,21.5,21.5,0,0,0,4.341-.048q2.1-.244,4.243-.633a2.789,2.789,0,0,0,2.439-2.634q.193-3.611.439-7.171t.536-7.17Q42.1,403.9,39.274,404a21.018,21.018,0,0,1-4.291-.244,35.289,35.289,0,0,1-4.2-.926,6.591,6.591,0,0,1-3.073-1.609q-.636-.829-.536-3.365a37.536,37.536,0,0,1,1.169-7.561,50.823,50.823,0,0,0,1.366-7.559q.487-4.293.976-8.634a78.556,78.556,0,0,0,.487-8.731,65.449,65.449,0,0,0-.537-9.754,64.364,64.364,0,0,1-.536-9.66q0-.972-.049-1.9t-1.512-.925a12.014,12.014,0,0,0-2.634.1c-.911.131-1.463.779-1.659,1.951q-.292,1.954-1.365,2.389a5.212,5.212,0,0,1-2.634.244,16.028,16.028,0,0,1-1.756-.292,4,4,0,0,0-1.756,0,9.212,9.212,0,0,0-2,.439,2.13,2.13,0,0,0-1.317,1.8q-.293,1.367-.683,2.781a21.486,21.486,0,0,0-.586,2.878q-.684,7.023-1.755,14t-1.658,14a102.582,102.582,0,0,0-.2,14.145m10.535-51.018a3.412,3.412,0,0,1,1.9-.049,1.226,1.226,0,0,0,1.512-.732,19.515,19.515,0,0,0,.828-2.44,3.348,3.348,0,0,0-.34-2.535,1.59,1.59,0,0,0-1.61-.975q-1.025.1-2,.2a4.241,4.241,0,0,0-3.074,1.121,4.948,4.948,0,0,0-.927,3.365c.064.911.308,1.462.732,1.658a2.555,2.555,0,0,0,1.513.147,1.97,1.97,0,0,1,1.462.244m16.39,5.56q.095-2.051.146-4.1t.049-4.1q0-2.244-2.634-2.245-1.269.1-1.562.733A3.857,3.857,0,0,0,31.179,344q.2,2.149.342,4.2t.244,4.193q.485,6.929.487,13.9a90.739,90.739,0,0,1-1.073,13.9q-.684,4.39-1.366,8.781t-1.463,8.682a3.22,3.22,0,0,0,2.244,3.9,20.741,20.741,0,0,0,5.024,1.268,33.112,33.112,0,0,0,5.121.195,3.3,3.3,0,0,1,2.05.536q.68.538.487,2.1a3.02,3.02,0,0,0-.05.975c.032.391.211.587.537.587,1.039.063,2.081.114,3.121.145a9.351,9.351,0,0,0,3.122-.44c.323-.063.487-.388.487-.975v-3.365q0-1.7-.1-3.365c0-.715-.164-1.154-.489-1.316a2.646,2.646,0,0,0-1.561-.049q-2.341.489-4.634,1.073a14.808,14.808,0,0,1-4.828.39,4.239,4.239,0,0,1-2.537-.879,3.891,3.891,0,0,1-.781-2.537q-.1-2.534-.1-5.024a30.994,30.994,0,0,1,.39-4.925,18.776,18.776,0,0,0-.2-7.122,28.455,28.455,0,0,1-.682-7.023q.095-4.977.146-9.9t.342-9.8m6.535,68.188a14.74,14.74,0,0,0,.049,2.829,1.747,1.747,0,0,0,1.025,1.316,25.3,25.3,0,0,0,2.926,1.122q2.928.877,3.61-1.951A21.382,21.382,0,0,0,50.4,417.9a43.888,43.888,0,0,1,.389-5.8,6.535,6.535,0,0,0-.047-2.39q-.246-1.121-2.292-1.219a9.447,9.447,0,0,0-4.147.34c-.748.357-1.219,1.254-1.415,2.682a38.528,38.528,0,0,0-.536,4.439q-.146,2.293-.342,4.341" transform="translate(-6.986 -314.032)" fill="#fc07b3"/>
  <path id="Path_46" data-name="Path 46" d="M52.251,378.06a17.712,17.712,0,0,1,.683-10,71.123,71.123,0,0,1,4.194-8.926,83.79,83.79,0,0,1,4.877-7.854q2.633-3.752,5.17-7.657a25.387,25.387,0,0,1,9.853-8.975A23.253,23.253,0,0,1,90.393,332.6q1.756.1,3.512.343t3.512.439a10.981,10.981,0,0,1,6.487,2.634,13.157,13.157,0,0,1,3.658,6.145,40.065,40.065,0,0,1,1.415,7.463q.339,3.756.439,7.561.193,6.049.243,12.144a52,52,0,0,1-1.316,12.048,75.966,75.966,0,0,1-3.318,10.534,30.009,30.009,0,0,1-6.048,9.464q-.585.584-1.169,1.17a3.783,3.783,0,0,1-1.366.876,17.606,17.606,0,0,0-6.293,4.048q-2.684,2.685-5.121,5.512a13.463,13.463,0,0,1-6.927,4.633,21.725,21.725,0,0,1-8.389.44,7.41,7.41,0,0,1-4.537-2.195,36.393,36.393,0,0,1-3.17-3.853,42.955,42.955,0,0,1-5.315-9.756,31.982,31.982,0,0,1-2.1-11.12,20.615,20.615,0,0,0-1.267-6.584,17.105,17.105,0,0,1-1.073-6.488m38.922,4.1q-.1-1.559-.243-3.025a21.307,21.307,0,0,0-.537-3.023,41.835,41.835,0,0,0-2.194-7.17,42.3,42.3,0,0,1-2.2-7.074q-.587-2.828-1.218-5.462t-1.416-5.366a7.4,7.4,0,0,0-2.39-3.706,5.809,5.809,0,0,0-3.853-1.562,20.427,20.427,0,0,0-7.414,1.562,18.878,18.878,0,0,0-6.342,4.389,20.348,20.348,0,0,0-3.707,5.072q-1.464,2.831-3.121,5.56a25.027,25.027,0,0,0-3.511,10.878A29.636,29.636,0,0,0,54.495,384.5a126.2,126.2,0,0,0,5.8,14.826q3.367,7.223,6.391,14.536a3.581,3.581,0,0,0,.487.732,1.322,1.322,0,0,0,.684.44,20.284,20.284,0,0,0,8.828,0,11.191,11.191,0,0,0,7.071-5.269,54.765,54.765,0,0,0,6.1-13.169,36.169,36.169,0,0,0,1.317-14.438m-31.8,22.535a13.7,13.7,0,0,0-.633-5.415,23,23,0,0,0-2.391-4.829,23.625,23.625,0,0,0,.586,5.415,12.369,12.369,0,0,0,2.438,4.829m22.243-17.755a13.916,13.916,0,0,1,.1,4.925,31.377,31.377,0,0,1-1.269,5.22,7.35,7.35,0,0,1-3.413,4.34,12.952,12.952,0,0,1-6.146,1.806,5.822,5.822,0,0,1-4.293-1.317,10.3,10.3,0,0,1-2.535-3.757q-1.172-3.021-2.292-6.048a13.112,13.112,0,0,1-.733-6.243q.489-3.315.878-6.631a37.5,37.5,0,0,1,1.366-6.538,40.63,40.63,0,0,1,2.049-4.877,12.468,12.468,0,0,1,3.317-4.1,5.481,5.481,0,0,1,5.658-1.17,3.484,3.484,0,0,1,2.1,1.706,6.754,6.754,0,0,1,.733,2.682A26.592,26.592,0,0,0,78.2,372.89q.88,2.926,1.853,5.853.585,1.852,1.074,3.8a18.25,18.25,0,0,1,.487,4.391M64.641,412.886a13.6,13.6,0,0,0-1.219-3.561,29.228,29.228,0,0,0-1.9-3.17q.489,1.852,1.026,3.609a6.725,6.725,0,0,0,2.1,3.122m15.8-26.34q-.1-1.364-.243-2.634a14.223,14.223,0,0,0-.537-2.535q-1.17-3.608-2.243-7.17a54.659,54.659,0,0,1-1.659-7.269q-.392-3.121-2.341-3.657t-4.391,1.511a13.322,13.322,0,0,0-4.292,6.83q-.975,3.9-1.755,7.9-.39,2.146-.634,4.438A19.241,19.241,0,0,0,62.4,388.5a25.955,25.955,0,0,0,1.319,5.269,41.812,41.812,0,0,0,2.2,4.976,5.732,5.732,0,0,0,1.366,2,4.535,4.535,0,0,0,2.145,1.123,8.972,8.972,0,0,0,10.048-5.756,27.308,27.308,0,0,0,1.123-4.732,14.233,14.233,0,0,0-.148-4.829m8.877-18.534q-.1-1.464-.146-2.927a16.026,16.026,0,0,0-.343-2.829q-.78-3.608-1.559-7.121a25.114,25.114,0,0,0-2.635-6.828,9.25,9.25,0,0,0-4.1-4.049,9.8,9.8,0,0,0-5.072-.879,14.26,14.26,0,0,0-5.073,1.463,14.462,14.462,0,0,0-4.1,2.976,34.439,34.439,0,0,0,4.633-1.855,11.519,11.519,0,0,1,4.634-1.17,8.846,8.846,0,0,1,5.9,1.512,7.689,7.689,0,0,1,3.367,4.732q.485,2.536,1.025,5.072t1.121,5.073q.487,1.756.829,3.512a8.044,8.044,0,0,0,1.512,3.317M67.468,344.406a6.193,6.193,0,0,0,2.39-.391q.928-.388,1.709-.683,8.29-3.12,12.78,2.244a25.115,25.115,0,0,1,4.292,8.877,46.323,46.323,0,0,1,1.414,8.2,33.673,33.673,0,0,0,1.709,8.194c.195.65.372,1.364.536,2.146a6.386,6.386,0,0,1,.049,2.34,53.683,53.683,0,0,0-.294,7.269,26.769,26.769,0,0,0,1.172,7.167,11.259,11.259,0,0,1,.342,5.563,43.482,43.482,0,0,1-1.414,5.365c-.2.583-.424,1.17-.684,1.755a3.089,3.089,0,0,0-.1,2.049,18.651,18.651,0,0,0,3.56-1.463,11.258,11.258,0,0,0,2.879-2.245A31.8,31.8,0,0,0,104,391.179a52.1,52.1,0,0,0,3.171-10.876,82.573,82.573,0,0,0,1.365-16.975,150.07,150.07,0,0,0-1.365-17.07,29.983,29.983,0,0,0-.976-4.78,10.644,10.644,0,0,0-2.292-4.146,7.965,7.965,0,0,0-4.537-2.39,59.841,59.841,0,0,0-9.316-1.415,32.59,32.59,0,0,0-9.512.731,15.733,15.733,0,0,0-7.217,3.757,53.463,53.463,0,0,0-5.854,6.391m18.926,64.188a22.082,22.082,0,0,0,4.1-7.365,38.3,38.3,0,0,0,1.659-8.243,53.748,53.748,0,0,1-2.537,7.9q-1.562,3.8-3.22,7.707" transform="translate(-1.116 -314.849)" fill="#fc07b3"/>
  <path id="Path_47" data-name="Path 47" d="M127.569,428.929a23.11,23.11,0,0,1-4.194-1.023,14.875,14.875,0,0,1-4.2-2.293q-2.341-1.954-4.633-3.757a16.71,16.71,0,0,1-3.95-4.534,29.31,29.31,0,0,1-2.586-6,27.654,27.654,0,0,1-1.121-6.391V404a1.838,1.838,0,0,0-.2-.828,11.821,11.821,0,0,1-1.755-6.488q.095-3.367.389-6.682.292-3.608.39-7.171t.489-7.074q.487-4,1.316-7.95t1.513-7.852a.571.571,0,0,1,.1-.39q1.365-2.244,2.781-4.341a11.4,11.4,0,0,0,1.8-4.829,2.741,2.741,0,0,1,1.853-2,10.849,10.849,0,0,1,3.609-.876,4.482,4.482,0,0,1,3.024.632,3.665,3.665,0,0,1,1.61,2.342,4.857,4.857,0,0,1-.243,2.634,35.609,35.609,0,0,0-1.855,9.316q-.292,4.733-.487,9.513a56.516,56.516,0,0,1-.536,6.193q-.439,3.074-.636,6.195a56.48,56.48,0,0,0,.2,10.488,71.928,71.928,0,0,0,1.951,10.388,3.6,3.6,0,0,0,3.122,2.438,5.438,5.438,0,0,0,4.487-.975,15.771,15.771,0,0,0,4.585-5.8,25.022,25.022,0,0,0,1.952-7.072q.584-4.583,1.072-9.072t.586-8.977a73.833,73.833,0,0,1,.878-10.046q.78-4.975,2.049-9.852a3.58,3.58,0,0,1,1.463-2.342,7.393,7.393,0,0,1,2.439-.976q2.534-.487,2.975-1.074t.049-3.121a4.269,4.269,0,0,1,2.341-4.585c.325-.2.649-.389.976-.585a6.645,6.645,0,0,1,.975-.487q3.706-1.657,5.366-.587t1.463,5.073a3.118,3.118,0,0,0,.39,1.853q.388.49,1.852.293a2.836,2.836,0,0,1,2.439.586,2.043,2.043,0,0,1,.39,2.146,59.962,59.962,0,0,0-1.609,13.363q-.051,6.731.34,13.365a69.124,69.124,0,0,1-.292,11.024q-.585,5.464-1.269,10.925-.2,1.756-.34,3.56a17.139,17.139,0,0,1-.634,3.465,5.851,5.851,0,0,1-4.683,4.78,27.126,27.126,0,0,1-3.073.585,23.81,23.81,0,0,1-3.073.194q-2.538.2-2.927,2.244a3.327,3.327,0,0,1-1.463,2.536,16.689,16.689,0,0,0-3.56,3.171q-1.515,1.8-2.878,3.756a8.93,8.93,0,0,1-4.39,3.218,18.378,18.378,0,0,1-6.634.683M107.864,374.69a22.964,22.964,0,0,0-.78,5.952q0,3.025-.1,6.048a39.873,39.873,0,0,1-.634,5.852,12.784,12.784,0,0,0,.342,5.951,66.808,66.808,0,0,0,.878-11.9q-.1-5.951.293-11.9m.293,26.241q-.782,7.708,2.292,12.878a23.851,23.851,0,0,0,9.219,8.584,11.392,11.392,0,0,0,5.755,1.512q2.926-.049,5.952-.147a11.5,11.5,0,0,0,5.559-1.9,16.856,16.856,0,0,0,4.537-4.34,13.119,13.119,0,0,0,2.39-5.365,48.124,48.124,0,0,0,.634-5.707q.146-2.877.047-5.706,0-6.242.44-12.389t.829-12.29a3.545,3.545,0,0,1,.049-.587,3.687,3.687,0,0,1,.147-.585q1.07-5.364,2.487-10.535a59.4,59.4,0,0,1,3.757-10.049q1.265-2.339-1.366-1.951-1.562.293-3.073.585t-3.074.587a2.84,2.84,0,0,0-2.341,2.146q-1.367,4.587-2.293,9.266a48.662,48.662,0,0,0-.926,9.463q-.1,5.365-.683,10.73t-1.17,10.731a16.663,16.663,0,0,1-6.731,11.9,6.87,6.87,0,0,1-3.707,1.268,6.525,6.525,0,0,1-3.707-.879,4.463,4.463,0,0,1-2.145-2.731,77.006,77.006,0,0,1-2.146-10.877,44.222,44.222,0,0,1,0-10.975q.68-5.852.926-11.754t.927-11.755a16.478,16.478,0,0,0,.194-3.218,1.043,1.043,0,0,0-1.073-.975,27.243,27.243,0,0,0-3.317,0,5.966,5.966,0,0,0-4.876,2.145,9.367,9.367,0,0,0-1.855,4.779,34.247,34.247,0,0,0-.342,5.463q.048,2.731-.146,5.463-.293,6.926-.342,13.8a120.584,120.584,0,0,1-.829,13.413m6.146-47.7a2.114,2.114,0,0,0,.146,1.365,1.924,1.924,0,0,0,1.219.391,10.089,10.089,0,0,0,4.732-.44,2.628,2.628,0,0,0,1.9-2.291q.293-3.315-2.537-3.61-4.975-.487-5.462,4.585m24.191,69.359a20.239,20.239,0,0,1-4.78,1.8,33.6,33.6,0,0,1-4.78.732,35.635,35.635,0,0,1-4.535-.1,20.013,20.013,0,0,1-4.83-1.073,13.4,13.4,0,0,0,6.682,3.464,13.176,13.176,0,0,0,7.121-.487,9.364,9.364,0,0,0,5.122-4.341m8.682-42.435a122.372,122.372,0,0,0-1.023,13.315q-.146,6.682-.049,13.413.292-6.634.926-13.315a80.346,80.346,0,0,0,.146-13.413m.2,28.581q-.2,2.538.293,3.074t2.927.34q1.072-.2,2.146-.34t2.146-.343a5.221,5.221,0,0,0,4.194-4.293,55.527,55.527,0,0,0,.976-6.438q.292-3.218.682-6.536.487-4,.78-8.095a67.576,67.576,0,0,0,.1-8.1q-.392-6.341-.391-12.634a62.8,62.8,0,0,1,1.269-12.535q.585-3.22-2.537-2.342c-.717.261-1.431.505-2.146.732a16.012,16.012,0,0,1-2.244.538,1.5,1.5,0,0,0-1.169.975q-2.441,5.365-4.439,10.877a25.778,25.778,0,0,0-1.317,11.755q.193,2.438.34,4.876a36.276,36.276,0,0,1-.049,4.976q-.39,5.951-.585,11.851a115.29,115.29,0,0,1-.976,11.658m10.146-61.457q.193-3.415-1.025-4.2t-4.243.683a2.282,2.282,0,0,0-.586.391q-3.22,1.854-1.951,5.852.68,1.854,1.9,1.415a9.323,9.323,0,0,1,2.2-.536q2.536-.293,3.073-.879a4.836,4.836,0,0,0,.634-2.731" transform="translate(5.832 -313.634)" fill="#fc07b3"/>
  <path id="Path_48" data-name="Path 48" d="M163.519,397.117a44.15,44.15,0,0,1,.586-7.17q.585-3.559.975-7.171a63.068,63.068,0,0,0,.1-12.633q-.585-6.292-1.561-12.536a35.7,35.7,0,0,1,1.462-17.655,26.057,26.057,0,0,1,2.391-5.024,45.268,45.268,0,0,0,2.684-5.123,1.046,1.046,0,0,1,.779-.632,4.723,4.723,0,0,1,1.172-.147q3.119-.1,6.242.1a32.718,32.718,0,0,1,6.146.975,10.4,10.4,0,0,0,2.535.293,54.9,54.9,0,0,1,13.95,1.366,36.981,36.981,0,0,1,12.78,5.756,42.776,42.776,0,0,0,4.34,2.534q2.29,1.17,4.439,2.538a14.024,14.024,0,0,1,6.731,8.973q1.267,4.88,2.488,9.853a30.392,30.392,0,0,1,.732,10.145,22.931,22.931,0,0,1-2.292,8.389,15.584,15.584,0,0,1-6.1,6.342q-2.634,1.562-5.268,3.218a55.2,55.2,0,0,1-5.462,3.025,14.554,14.554,0,0,0-4.2,3.463q-1.854,2.2-3.8,4.146c-.39.39-.766.8-1.122,1.22a3.3,3.3,0,0,1-1.22.925,64.226,64.226,0,0,0-7.463,3.025q-3.657,1.757-7.413,3.122a29.151,29.151,0,0,1-7.951,1.658,24.871,24.871,0,0,1-7.9-.683,65.123,65.123,0,0,0-7.9-1.463,1.4,1.4,0,0,1-1.269-1.073,8.062,8.062,0,0,1-.2-1.756q.2-1.951.343-3.949t.243-4.05m3.805.2a23.834,23.834,0,0,1-.1,3.658q-.2,2-.487,3.95c-.066.456-.114.893-.146,1.317s.342.7,1.121.828q3.415.587,6.731,1.319a20.865,20.865,0,0,0,6.829.34,23.814,23.814,0,0,0,9.658-3.121q4.292-2.534,8.487-5.561a23.728,23.728,0,0,0,7.268-7.658,25.7,25.7,0,0,0,3.073-9.12,56.357,56.357,0,0,0,.487-9.949,33,33,0,0,0-4-14.536,45.892,45.892,0,0,0-9.559-11.9,28.323,28.323,0,0,0-12.34-6.83,42.164,42.164,0,0,0-14.1-.975q-3.316.293-3.316,3.708,0,5.072.243,10.193a98.924,98.924,0,0,1-.049,10.292,153.458,153.458,0,0,0,.147,16.876,144.39,144.39,0,0,1,.049,17.17m10.438-59.8q2.634.389,5.268.681t5.17.781a42.175,42.175,0,0,1,11.95,4.243,20.091,20.091,0,0,1,8.536,9.12,58.315,58.315,0,0,1,5.268,17.219,52.137,52.137,0,0,1-.683,18.193,5.638,5.638,0,0,1-.389,1.268.976.976,0,0,0,.194,1.172,1.066,1.066,0,0,0,1.121.147q.634-.244,1.317-.44a15.189,15.189,0,0,0,7.17-4.78,16.063,16.063,0,0,0,3.268-7.9,43.565,43.565,0,0,0-.585-15.949,58.856,58.856,0,0,0-5.659-14.876,12.855,12.855,0,0,0-4.047-4.88,17.817,17.817,0,0,0-6-2.634q-5.56-1.559-11.268-2.682a46.965,46.965,0,0,1-11.071-3.657,25.517,25.517,0,0,0-6.146-2.146,20.585,20.585,0,0,0-6.634-.293,6.359,6.359,0,0,0-3.707,1.512,6.016,6.016,0,0,0-1.268,3.757q0,2.144,2.048,2.047c1.039,0,2.065.018,3.073.049s2.032.051,3.074.051m3.22,13.362A23.058,23.058,0,0,1,200,362.388a21.013,21.013,0,0,1,2.829,10.732,15.966,15.966,0,0,1-2.1,7.8,21.692,21.692,0,0,1-5.706,6.634,20.813,20.813,0,0,1-8,3.9,54.268,54.268,0,0,1-7.51,1.463q-2.441.2-3.415-.681a4.5,4.5,0,0,1-1.073-3.221q-.2-6.339-.342-12.682t-.34-12.683q0-1.657.049-3.315a10.6,10.6,0,0,0-.44-3.317q-.78-2.828.146-4.293t3.951-1.855a11.748,11.748,0,0,1,1.8-.047c.553.033.927.047,1.123.047m20,24.1q.587-7.8-2.878-12.829a25.941,25.941,0,0,0-8.926-8.047,16.51,16.51,0,0,0-9.949-2.049,4.438,4.438,0,0,0-2.976,1.219q-.926,1.025-.438,3.268a11.075,11.075,0,0,1,.292,2.487c0,.815-.034,1.676-.1,2.586a87.742,87.742,0,0,0,.293,13.7,108.959,108.959,0,0,1,.487,13.8q-.2,2.926,2.828,2.34,2.146-.292,4.293-.683A30.085,30.085,0,0,0,188.1,389.7a19.852,19.852,0,0,0,9.024-5.8,16.411,16.411,0,0,0,3.853-8.926m-20.583.976a55.533,55.533,0,0,1-.244-6.243q.047-3.22-.049-6.586a23.916,23.916,0,0,0-1.17-6.682q-.392-1.265.439-1.364a12.569,12.569,0,0,1,1.415-.1,15.908,15.908,0,0,1,6.242.83,11.092,11.092,0,0,1,5.073,3.754q3.513,4.393,3.365,8.049t-3.56,8.146a15.011,15.011,0,0,1-3.61,3.561,22.786,22.786,0,0,1-4.487,2.39q-2.439.975-3.073.536t-.537-2.976q0-.584.05-1.315c.032-.489.08-1.154.146-2m3.317-19.414a2.976,2.976,0,0,0-1.708.1q-.731.293-.634,1.951.293,4.2.44,8.437t.243,8.537q.1,1.661.78,1.9a2.324,2.324,0,0,0,1.855-.439,24.014,24.014,0,0,0,4.047-3.074,13.923,13.923,0,0,0,2.975-4.145q.682-1.366,1.317-2.586a3.832,3.832,0,0,0,.243-2.779,9.95,9.95,0,0,0-3.56-5.123,11.621,11.621,0,0,0-6-2.78m7.218-24.876a9.852,9.852,0,0,0,3.268,1.707q2.489.93,5.609,1.806t6,1.415a26.123,26.123,0,0,0,4.439.536,20.744,20.744,0,0,0-9.365-4.1q-4.975-.78-9.951-1.366m20.291,36.095a41.254,41.254,0,0,0-2.2-10.39,26.354,26.354,0,0,0-5.316-9.122,16.3,16.3,0,0,0-8.877-5.072,57.346,57.346,0,0,1,10.39,11.071,38.223,38.223,0,0,1,6,13.513m-1.561,23.314a9.1,9.1,0,0,0,2.048-3.707,22.157,22.157,0,0,0,.976-5.169,12.345,12.345,0,0,0-.489-4.78q-.392,3.413-.878,6.876a35.143,35.143,0,0,1-1.658,6.781M219.9,342.976a86.683,86.683,0,0,1,4.39,9.365,55.69,55.69,0,0,1,2.828,9.56,60.508,60.508,0,0,1,.976,9.756,35.516,35.516,0,0,1-1.463,10.437,16.619,16.619,0,0,0,3.463-7.17,32.113,32.113,0,0,0,.732-9.315A41.069,41.069,0,0,0,229.123,356a30.806,30.806,0,0,0-3.756-8.146,12.883,12.883,0,0,0-5.463-4.879" transform="translate(13.422 -315.295)" fill="#fc07b3"/>
  <path id="Path_49" data-name="Path 49" d="M206.634,408.956h.164a2.631,2.631,0,0,0,.166,1.294,1.2,1.2,0,0,0-.166.632,43.825,43.825,0,0,1,.5,6.47c.11.311.219.468.33.468l-.165.826v1.761a12.938,12.938,0,0,0,.165,1.789l-.165.3a8.237,8.237,0,0,1,.165,1.46v1.789l.165.3h-.33v-.3h-.165v.3h-.165v-.468h.33c-.44-.275-.662-.494-.662-.66h-.164v.33a1.071,1.071,0,0,1-.634-1.129v-2.256a86.418,86.418,0,0,1,.634-11.452c0-.109-.046-.164-.138-.164a6.083,6.083,0,0,0,.138-1.294m3.413-32.784h.138q0,9.964.33,10.982h-.166a1.113,1.113,0,0,1,.166.5q-.277,1.762-.468,1.763l.138.33-.3,1.128v.5c-.111,0-.165.046-.165.137l-.166,1.46.166.329a8.02,8.02,0,0,0-.5,2.753h-.3q0-.66-.165-.66.165-1.6.3-1.6l-.138-.329v-.5c0-.111.045-.165.138-.165l-.138-.3q.137-1.652.138-2.589v-.164a.145.145,0,0,1,.164-.165l-.164-.331v-.165a1.205,1.205,0,0,1,.164-.632.146.146,0,0,0-.164-.166l.164-1.129v-1.926l.33-.5V384.4a1.219,1.219,0,0,0-.164-.634,1.26,1.26,0,0,0,.164-.66,1.105,1.105,0,0,0-.164-.468,3.963,3.963,0,0,0,.33-1.624l-.166-.633c.111-.641.221-.964.331-.964l-.165-.329v-.8q.054-.329.33-.329Zm-.5,56.676h.5a6.83,6.83,0,0,1,1.927.634c0-.313.21-.468.632-.468,0,.2.166.3.5.3a.292.292,0,0,1-.33.33H211.01l-1.127.165a1.213,1.213,0,0,0-.331-.8Zm18.085-69.916,1.129.164h.965a1.472,1.472,0,0,0,.8-.164l.992.164h.964a1.2,1.2,0,0,0,.632-.164,1.253,1.253,0,0,0,.66.164h.166l.3-.164v.33H236.2a1.2,1.2,0,0,1,.632.165l.33-.165.963.165.5-.331v.331c.092,0,.137-.055.137-.165l.826.165h1.295a.145.145,0,0,1,.164.165,1.106,1.106,0,0,1,.468-.165l.33.165.33-.165.633.165a7.914,7.914,0,0,1,1.294-.165v.165l.33-.165h.3c.551.037.827.146.827.329l.962-.329a1.21,1.21,0,0,0,.633.165h.165l.66-.5q0,.553,1.432.66l.33-.164,1.459.164,1.129-.164.963.164.331-.164.962.164h.5q0,1.929-.33,1.928l.165.329v.634a.146.146,0,0,1-.165.165l.165.329a.146.146,0,0,1-.165.166.146.146,0,0,0,.165.165,24.543,24.543,0,0,1-.33,2.56,33.027,33.027,0,0,0,.5,5.835V377h.3v.3h-.468v.329l.165.8c-.219.036-.33.146-.33.329v1.79c0,.2-.11.3-.33.3a1.271,1.271,0,0,0-.467-.137l-.662.3v-.3l-.467.3a.146.146,0,0,1-.166-.165q-.5,0-.5.66l-.33-.164H250.4a.438.438,0,0,1-.5.5v-.331a7.649,7.649,0,0,1-2.753.633v-.165l-.3.165h-.33a2.63,2.63,0,0,1,.166-1.294q-.166-1.349-.33-5.312a19.093,19.093,0,0,0,.164-2.092q0-.275-.962-.992h-.166q0,.248-.5.662a.146.146,0,0,1,.165.164h-.8a.145.145,0,0,1-.165-.164l-.33.164h-1.459l.165-.329-1.127.165h-2.093l-.964-.165c-.532.11-.8.221-.8.329l-.826-.164H235.7a21.448,21.448,0,0,0-2.421.164,5.183,5.183,0,0,0-1.295-.164,1.082,1.082,0,0,1-.467.164v-.164l-.33.164h-.166a.144.144,0,0,1-.164-.164l-.331.164H229.4a12.365,12.365,0,0,1-1.763-.164,52.49,52.49,0,0,1-7.431,1.127l.165,1.928-.331-.166.166,1.624v.964a79.175,79.175,0,0,0-.964,10.488,1.114,1.114,0,0,0,.165.5l-.662,2.092.166.962v.166a.147.147,0,0,1-.166.165.146.146,0,0,0,.166.164,14.775,14.775,0,0,1-.468,3.221l.138.331a15.238,15.238,0,0,1-.3,2.257c.183,0,.34.266.468.8-.311,0-.468.165-.468.5l.166.329a7.83,7.83,0,0,0-.166,1.295,4.048,4.048,0,0,0,.3,1.293c-.075.422-.175.633-.3.633a1.113,1.113,0,0,1,.166.5,16.3,16.3,0,0,0,.138,2.093l-.3,3.221.166.329a6.224,6.224,0,0,1-.33,1.624c.11,0,.164.046.164.139a.144.144,0,0,0-.164.164h.164a.145.145,0,0,1,.166-.164v.164a5.825,5.825,0,0,0-.33,1.459l.164.33a1.209,1.209,0,0,0-.164.633v.66h.33v2.257l-.33.468v.166a14.768,14.768,0,0,0,.33,2.918l-.166.964a1.2,1.2,0,0,1,.166.632h-.5v1.157q8.23.136,12.113.137h1.459q1.128,0,5.972-.632v-.165H237l-.662.165c-.092,0-.137-.055-.137-.165l-2.754.329-.33-.164a1.219,1.219,0,0,1-.632.164.146.146,0,0,1-.166-.164l-.33.164h-3.551a.291.291,0,0,1-.33-.329h.33a1.118,1.118,0,0,0,.5.165q0-.275,2.421-.662a.146.146,0,0,1,.166.165,51.285,51.285,0,0,0,5.808-.632l.3.164.992-.164a1.108,1.108,0,0,1,.467.164l.964-.164h1.459l.166.632h-.166l-1.927.165V422.5a1.627,1.627,0,0,1-.826.165v.166h6.469v-.166q.165-2.256.5-2.257l-.164-.329v-.3l.3-.5h-.3a1.953,1.953,0,0,0,.3-.964q0-7.265.827-7.267a45.782,45.782,0,0,0,5.147-.494.146.146,0,0,0,.165.165c0-.2.055-.3.165-.3l.662.3c.017-.2.118-.3.3-.3h1.459a14.667,14.667,0,0,0-.468,2.725,1.464,1.464,0,0,1,.138.66q-.468,0-.632,7.735l-.166.331a1.2,1.2,0,0,1,.166.632v.165a.147.147,0,0,1-.166.166l.166.329v2.422a.146.146,0,0,0,.164.166q0,.962-1.293.962v-.165a45.4,45.4,0,0,1-8.4.8,13.563,13.563,0,0,1-4.046,1.293q-.192,0-8.7,1.624V430.1l-1.623.494a.146.146,0,0,1-.166-.165q-6.5,1.13-12.579,1.6v-.165l-.33.165h-4.047a3.432,3.432,0,0,1-1.761-2.422v-.166l-.33.166h-.33v-2.092h-.3v-.632a.147.147,0,0,1,.165-.166,3.565,3.565,0,0,1-.33-1.459q.633-6.193,1.623-11.616a.144.144,0,0,0-.164-.164q.687-5.479.962-5.478a6.5,6.5,0,0,1-.33-1.46h.33V406.2c0-.331-.054-.5-.164-.5q.329-2.283.5-5.148l-.165-.329.165-.965v-.329a1.217,1.217,0,0,0-.165-.634c.072-.44.174-.66.3-.66l-.137-.3.137-.331c0-.219-.045-.329-.137-.329l.137-1.624V392.5l.166-.331h-.3c0-.221.156-.329.467-.329l-.164-.331.164-1.926a.145.145,0,0,1-.164-.165h.164a.146.146,0,0,0-.164-.166l.164-.632c0-.221-.054-.331-.164-.331l.164-1.129V384.9h-.33c.037-.221.147-.329.33-.329a.145.145,0,0,0-.164-.165,14.019,14.019,0,0,1,.33-2.258,1.2,1.2,0,0,1-.166-.633,1.357,1.357,0,0,1,.166-.66,1.087,1.087,0,0,1-.166-.468,1.271,1.271,0,0,1,.166-.5,4.494,4.494,0,0,1-.166-1.129l.166-.329a1.1,1.1,0,0,1-.166-.468l.166-.331-.166-.329q0-2.561.662-2.56a.292.292,0,0,0-.33-.33l.165-1.13v-1.458a1.21,1.21,0,0,1,.165-.633,1.359,1.359,0,0,1-.165-.66v-.166l.3-.468-.137-1.129h.137l-.137-.329v-.166q0-.192.3-1.789v-1.265c.036-.221.148-.331.331-.331h2.256a30.9,30.9,0,0,1,6.773-1.458,1.107,1.107,0,0,1,.164.5q.991,0,.991-.66l.3.165c0-.221.054-.331.164-.331.33.111.5.221.5.331q2.256-.275,2.256-.5m-16.3.33c.147,0,.3.165.468.494v.166a2.634,2.634,0,0,1-.962,2.091v.166l-.33-.166-.166.331c.111,0,.166.046.166.137h-.33a6.546,6.546,0,0,1,1.155-3.22m-.33,32.288q0,1.349.166,1.458a.146.146,0,0,1-.166.165l.166.8v.329c-.33,0-.5.213-.5.634h-.164V398.3a6.325,6.325,0,0,1,.33-1.954,1.2,1.2,0,0,1-.166-.632Zm12.251,5.175v1.761l-.138.331h.632v.165h-.494v1.129c0,.109-.046.164-.138.164l.3.965a2.744,2.744,0,0,0-.3,1.293l.138,1.129c-.093,0-.138.055-.138.166h.138a.146.146,0,0,1,.164-.166v.468l-.3-.137a4.748,4.748,0,0,1-.166,1.129c0,.092.055.137.166.137l-.166.827.166.8-.33.165a51.306,51.306,0,0,0-.66-6.3q.329-4.019,1.129-4.018m-.3,18.717h.965q2.724.635,6.605,1.295,0,.468-2.56.468a18.183,18.183,0,0,1-4.706-.468v-.5l.494.33.166-.33q0-.468-.965-.468Zm3.387-40.518v.33q0,.221-.331,2.587v.633a.145.145,0,0,0,.165.164l-.165.331v.468a8.5,8.5,0,0,1-.165,1.624v1.129h-.165c0,.311.055.468.165.468l-.3,2.421c.092,0,.137.055.137.165-.092,0-.137.055-.137.166h.137l.33-.166v.166a5.9,5.9,0,0,0-.467,1.129l.137.826q-.3,0-.3-.331v-4.844a1.359,1.359,0,0,1,.165-.66l-.165-.3q.165-.5.3-.5a12.545,12.545,0,0,1-.3-1.926h.165l-.165-.33v-.165l.3.165v-.165a1.4,1.4,0,0,0-.137-.633,1.582,1.582,0,0,0,.137-.662v-.3l-.137-.331c.2,0,.3-.055.3-.164v-.5c.165-.53.33-.8.5-.8m11.78-18.415a1.114,1.114,0,0,0,.5.165,4.758,4.758,0,0,1,1.265-.165q0,.248-.467.494l-.331-.164a12.732,12.732,0,0,1-2.091.827l-.8-.166h-.166a8.17,8.17,0,0,0-1.459.166l-.33-.166a.147.147,0,0,0-.165.166l-.8-.166h-.331a2.846,2.846,0,0,0-1.294.3,1.228,1.228,0,0,0-.467-.137l-.662.137c-.11,0-.165-.046-.165-.137a6.938,6.938,0,0,0-1.6.3,1.281,1.281,0,0,0-.494-.164c-.533,0-.8.164-.8.5a1.732,1.732,0,0,0-.8-.331q0-.275,4.845-1.293v.165a1.1,1.1,0,0,1,.467-.165,1.281,1.281,0,0,1,.5.165l.962-.165h.633a1.271,1.271,0,0,1,.662.165,1.206,1.206,0,0,1,.632-.165c.33,0,.5.055.5.165Zm3.222,13.57a1.371,1.371,0,0,0,.66.164v.166c-.441,0-.66.11-.66.33a.147.147,0,0,1-.166-.165,11.12,11.12,0,0,1-1.761.468,1.113,1.113,0,0,0-.5-.166l-.964.5a.145.145,0,0,1-.165-.164q-.11,0-4.019.5v-.165l-.33.165h-.164v-.331a.608.608,0,0,0,.494-.329l.3.165a2.66,2.66,0,0,1,1.294-.331.147.147,0,0,0,.166.166q0-.58,5.174-.8v.166Zm14.533,56.814h1.129v1.624a9.41,9.41,0,0,0-2.092.33v-.33a7.422,7.422,0,0,1-2.918.5,1.091,1.091,0,0,0-.468-.166c0,.312-.219.468-.66.468v-.165l-.3.165H250.4a.146.146,0,0,1-.165-.165,22.7,22.7,0,0,1-4.678.66h-.5a.146.146,0,0,1-.165-.165,1.835,1.835,0,0,1-.964.331,1.265,1.265,0,0,1-.5-.166,1.835,1.835,0,0,1-.964.331h-1.127a9.65,9.65,0,0,0-1.46.137,1.384,1.384,0,0,0-.633-.137,5.615,5.615,0,0,0-1.762.3,11.878,11.878,0,0,0-2.283-.164v-.137a25.413,25.413,0,0,0,4.211-.992l4.678-.8a1.125,1.125,0,0,0,.5.164q2.231-.441,9.827-1.129a1.278,1.278,0,0,0,.5.165c0-.329.266-.5.8-.5a.147.147,0,0,0,.165.166Zm-15.5-11.285v.164l.33-.164h.8v.962h-.632l-1.955-.165v.331a8.077,8.077,0,0,0-1.6-.166c.017-.221.119-.33.3-.33a.146.146,0,0,1,.165.165,11.138,11.138,0,0,1,2.587-.8m4.211-44.868.8.137v.331q0,2.751-.33,2.753l.165.329v.139h-.33l.165.329a31.043,31.043,0,0,1-1.129,4.681.146.146,0,0,1-.165.165h-.33l-.3-.165q.466-2.422.8-6.138l-.165-.3a1.971,1.971,0,0,0,.33-.992v-.8q.275,0,.5-.468m-1.156,36.473,1.624.165-.33.467.165.33a34.549,34.549,0,0,0-1.129,6.47,1.394,1.394,0,0,0-.632.137q.165-1.6.164-2.394v-.826l.138-.8c-.2,0-.3-.109-.3-.33a11.9,11.9,0,0,1,.3-1.294c0-.11-.046-.165-.138-.165l.138-.8Zm10.68-29.866h.138a.146.146,0,0,1,.165.164l.33-.164h.165v.164q0,.911-1.459,1.46h-.165a.146.146,0,0,1-.165-.165,16.141,16.141,0,0,1-2.257.633h-1.927l-1.954.165v-.165l-.3.165h-.33v-.33h.33q1.595,0,1.6-.468l.33.165,1.459-.331a.147.147,0,0,0,.165.166c0-.166.156-.33.468-.5v.329a24.247,24.247,0,0,1,3.413-1.129Zm3.221-12.91h.33q-.165,1.762-.33,1.762a1.454,1.454,0,0,1,.165.824h-.165v.166h.33a4.967,4.967,0,0,1-.33,1.43l.33,1.129h-.33v.331l.165.33h-.33v.33a1.1,1.1,0,0,1,.33.632,4.873,4.873,0,0,0-.66,1.789l.33.634-.5,1.129a.146.146,0,0,0,.165.165,10.522,10.522,0,0,0-.33,2.421l.165.633-.3-.165q0,.5-.33.5h-.66v-.5l.165-.3a.147.147,0,0,1-.165-.166l.66-.5h.33q0-.8-.5-.8.166-.5.33-.5l-.165-.8c.018-.422.129-.634.33-.634l-.165-.329c.018-.533.12-.8.3-.8l-.138-.329V376.5l.138-.329h-.3a1.947,1.947,0,0,0,.3-.963v-1.294l.33.165v-.165a1.1,1.1,0,0,1-.165-.468q.5,0,.5-2.753l-.165-.331a7.2,7.2,0,0,0,.33-1.926m-.964,41.977h.633l-.165,1.6V414.1a8.259,8.259,0,0,0,.165,1.46,1.274,1.274,0,0,0-.165.494c.221.037.33.148.33.331,0,.788-.165,1.211-.5,1.265q-.3-5.34-.3-7.24m1.129-45.858h.3a1.478,1.478,0,0,0,.165.8h-.3a1.274,1.274,0,0,0,.138.5q-.137,1.157-.138,1.293l.138,1.129a1.1,1.1,0,0,0-.468-.165.146.146,0,0,1,.165-.164l-.165-.8v-.164a.146.146,0,0,1,.165-.165,1.107,1.107,0,0,1-.165-.468l.165-.66-.165-.331.33-.632a.146.146,0,0,1-.165-.165" transform="translate(19.058 -311.17)" fill="#fc07b3"/>
  <path id="Path_50" data-name="Path 50" d="M246.6,352.25a8.643,8.643,0,0,0,.585,3.125h-.305a13.238,13.238,0,0,0,.305,2.667h-.153a3.492,3.492,0,0,1,.305,1.2q-.153,1.321-.153,1.5a18.15,18.15,0,0,1,.3,2.819,4.168,4.168,0,0,1-.152,1.042,4.7,4.7,0,0,1,.152,1.193v.305l-.152.89a1.156,1.156,0,0,1,.152.457h-.152l.152.278a.135.135,0,0,1-.152.154,5.114,5.114,0,0,1,.3,1.193h-.153l.153.3v.305a1.114,1.114,0,0,1-.153.585l.305.889h-.153a1.17,1.17,0,0,0-.61-.279v-3l-.153-.737h.153q-.254,0-.432-5.207l.153-.306a7.534,7.534,0,0,1-.153-1.345v-1.042a.135.135,0,0,1,.153-.154,6.845,6.845,0,0,1-.305-1.474h.153a.135.135,0,0,0-.153-.151,8.313,8.313,0,0,1,.153-.89l-.153-1.345h.153a5.1,5.1,0,0,1-.3-1.194.134.134,0,0,1,.152-.153l-.152-.736v-.61a.291.291,0,0,1,.3-.28m1.017,34.546h.3a.135.135,0,0,1-.152.154c.067.593.168.888.3.888q-.153,1.652-.3,1.652l.152.278q-.38,0-.736,6.706-.153,0-.153.61l-.305-.152a7.419,7.419,0,0,1,.458-2.541l-.153-.3.153-.585-.153-.3q.127-.583.305-.583l-.153-.305a.135.135,0,0,1,.153-.153l-.153-.305.585-4.318a1.109,1.109,0,0,1-.153-.584Zm.178-13.412h.279v.61l-.127.89a5.18,5.18,0,0,1,.279,1.93v.761h.3l-.3,1.169a.135.135,0,0,1,.153.153q-.433,0-.432.305h.279v.456h-.279l.127.28a1.363,1.363,0,0,1-.127.61l.279.583c-.068.594-.162.89-.279.89l.279.915-.153.583a17.57,17.57,0,0,1,.153,1.93h-.279a1.027,1.027,0,0,0-.153-.432.134.134,0,0,1,.153-.151l-.305-2.54a.135.135,0,0,1,.153-.154,7.232,7.232,0,0,1-.153-1.193q0-1.472.153-3.557a11.6,11.6,0,0,1-.153-1.651l.153-.305a1.007,1.007,0,0,1-.153-.432l.153-.3v-.457h.153l-.153-.28Zm1.778-37.237c.389.151.585.3.585.458a1,1,0,0,0-.432.152l.279,3.125-.153.889.153,1.042a1.177,1.177,0,0,1-.153.458,7.139,7.139,0,0,1,.153,1.32v.305a.135.135,0,0,1-.153.152l.153.305v.153c0,.085-.051.127-.153.127l.305,1.65h-.305l.153.305-.279,1.042a2.749,2.749,0,0,0,.432,1.474c-.1.712-.153,1.109-.153,1.193l.153.306a2.354,2.354,0,0,0-.305,1.193l.153.305c-.1.085-.153.482-.153,1.193h-.127a4.507,4.507,0,0,0-.153-1.193l.153-.305a7.247,7.247,0,0,1-.153-1.193.134.134,0,0,1,.153-.153l-.153-.889q0-.356-.305-6.1a.269.269,0,0,0-.3-.305l.153-.762v-.279l-.153-.3h.153l-.153-.305V337.34h.153l-.153-.735V336.3a4.633,4.633,0,0,0,.61-.151m.279,33.224h.457v.432a.134.134,0,0,1-.152.154q.305,1.192.457,1.193l-.153.761v.129a15.118,15.118,0,0,1-.3,3.886,1.108,1.108,0,0,1,.152.583v1.042l.153.305h-.153l.153.305v.152h-.736v-.762c0-.287-.051-.432-.153-.432l.279-2.539a1.155,1.155,0,0,1-.127-.432h.127l-.127-.305a1.346,1.346,0,0,1,.127-.458,8.979,8.979,0,0,1-.127-1.345V371.3c0-.1.042-.153.127-.153,0-.1-.042-.152-.127-.152a5.909,5.909,0,0,1,.279-1.2,1,1,0,0,1-.153-.432m-.127-15.494h.127q.153,1.754.153,2.54l-.279.152ZM257.6,336.3c.508.1.762.2.762.306a5.621,5.621,0,0,1,1.93-.306l.153.306a1.153,1.153,0,0,0-.61.278h-.153a1.281,1.281,0,0,1-.584-.127l-.585.279-.305-.153a4.58,4.58,0,0,1-.61.153,1.113,1.113,0,0,0-.585-.153.27.27,0,0,1-.3.305.135.135,0,0,1-.153-.153l-.736.153h-.153a.27.27,0,0,1-.305-.305,1.007,1.007,0,0,1-.432.153l-.761-.153a4.42,4.42,0,0,1-1.168.153v.3a.269.269,0,0,1-.305-.3l-.762.457h-.279l-.153-.736v-.305h1.779a7.471,7.471,0,0,1,1.346.154,1.747,1.747,0,0,1,.889-.154,1.151,1.151,0,0,1,.457.154,1,1,0,0,1,.432-.154v.154Zm-5.208,2.973h.736l.306.151a.134.134,0,0,1,.152-.151,1.677,1.677,0,0,0,.153.889,1.25,1.25,0,0,0-.153.61l.153.736h-.3l.152.763v.126q0,1.27.153,3.734h-.153a6.221,6.221,0,0,1,.458,1.651q-.2,0-.61,1.321a1.178,1.178,0,0,1,.152.458c0,.491-.1.735-.3.735l.153.763a7.363,7.363,0,0,1-.153,1.168,11.367,11.367,0,0,1,.3,1.5c-.3,0-.458.1-.458.305v.3l.154.28H253v.152h.279a.135.135,0,0,1,.153-.152l.152.3v.457l-.584-.3v.153c.084.71.126,1.109.126,1.193A1.306,1.306,0,0,0,253,357H252.7v-1.193a.135.135,0,0,1,.153-.152l-.305-1.779.153-.3-.153-.585a7.243,7.243,0,0,0,.153-1.194l-.153-.61c0-.084.051-.127.153-.127l-.153-1.8v-2.668a.134.134,0,0,1,.153-.152l-.305-.61.153-.279-.153-.915.153-.279a1.247,1.247,0,0,1-.153-.61l.153-.279a1.166,1.166,0,0,1-.153-.458h.153l-.153-.3v-.737c0-.305.051-.457.153-.457l-.153-.736Zm.458,22.048a1.017,1.017,0,0,0,.432.152v.152a.136.136,0,0,1-.154.154l.154.3v1.625a.135.135,0,0,0,.153.154l-.153.3v1.474a.246.246,0,0,1-.279-.279V364.6a1.3,1.3,0,0,1,.126-.585,8.474,8.474,0,0,1-.278-1.8H253l-.153-.279Zm2.235,24.74h.128a1.113,1.113,0,0,0,.152.585.133.133,0,0,1-.152.152,14.066,14.066,0,0,0,.3,1.627l-.153.3.153.89v.152a.135.135,0,0,1-.153.153l.153.305v.432a11.6,11.6,0,0,1-.153,1.651.135.135,0,0,0,.153.152l-.153,1.042a14.429,14.429,0,0,0,.305,3.277,7.877,7.877,0,0,0-.153,1.5v.735a.135.135,0,0,1-.153.153l.153.279a4.51,4.51,0,0,1-.153,1.194l.153.609a7.742,7.742,0,0,1-.3,2.084,4.673,4.673,0,0,1,.3,1.345h-.153l.153.28v.3a7.57,7.57,0,0,1-.153,1.347,1.018,1.018,0,0,1,.153.457l-.3.127a.134.134,0,0,0,.152.153l-.152.611q.305,2.361.3,2.514a9.26,9.26,0,0,0-.153.914,4.421,4.421,0,0,1,.153,1.169h-.153l.153.3v2.235a1.255,1.255,0,0,1-.153.611,1.011,1.011,0,0,1,.153.432.135.135,0,0,0-.153.153c.2,0,.305.244.305.736h1.194a.134.134,0,0,1,.152.153.135.135,0,0,0,.153-.153q2.745.153,4.013.153h1.779a11.607,11.607,0,0,0,1.65-.153q1.042.2,1.042.457a5.786,5.786,0,0,0-1.651.305c-.085,0-.127-.051-.127-.153a17.294,17.294,0,0,1-3.149.431v-.125l-.279.125h-1.652a3.555,3.555,0,0,0-1.625.307q-3.581,0-3.581-1.194V415.4a.135.135,0,0,1,.153-.152l-.153-.305q0-.176.153-1.474l-.153-.3a3.634,3.634,0,0,0,.3-1.651v-.128a1.161,1.161,0,0,0-.152-.61l.152-.3a1,1,0,0,0-.152-.431l.152-.89c0-.305-.05-.457-.152-.457l.152-.736v-.763a1.105,1.105,0,0,0-.152-.583,8.143,8.143,0,0,0,.305-2.693h.278l-.152-.28a11.445,11.445,0,0,1,.61-2.691,1.154,1.154,0,0,0-.61-.153,58.886,58.886,0,0,0,.761-7.9l-.152-.278a1.253,1.253,0,0,0,.152-.61,6.489,6.489,0,0,0-.3-1.779.135.135,0,0,1,.153-.153l-.153-.737v-1.042a5.513,5.513,0,0,1,.457-2.235m33.5-47.22q5.487.889,6.122.889l.278-.153c.8.1,1.194.2,1.194.305l.305-.153h.432a.134.134,0,0,1,.153.153,1.149,1.149,0,0,1,.457-.153c.2,0,.3.05.3.153l1.042-.153h1.194c.085,0,.128.05.128.153l.3-.153a1.158,1.158,0,0,1,.458.153l.888-.153a20.606,20.606,0,0,1,5.513,1.929,10.281,10.281,0,0,1,2.972,2.084l1.8,2.236a9.314,9.314,0,0,1,.737,2.387q.965.685,1.5,3.429a17.211,17.211,0,0,1,1.042,4.319,1.591,1.591,0,0,0-.153.888q.483,0,.585,2.237h-.153l.153.3v1.347q0,1.776-.3,1.777a.135.135,0,0,0,.152.154q0,1.829-2.236,7.138a16.766,16.766,0,0,1-5.512,6.4q-3.988,4.013-6.1,4.47-5.969,3.276-7.595,3.276-1.5,1.2-5.054,1.2l-5.513.761c0,.1-.151.153-.457.153a1.026,1.026,0,0,0-.457-.153q0,.331-2.364.89l-.152.3q1.7.153,5.055,3.709a16.6,16.6,0,0,1,2.819,2.971q.407,0,.762,1.066a27.26,27.26,0,0,1,3.125,3.278q.305,0,1.5,1.625c.153,0,.4.3.736.889q.865.229,2.668,3.276,3.3,4.622,6.553,8.638.558.076,1.8,3.429a1.023,1.023,0,0,1-.61.3q-1.881-1.3-5.055-3.123,0-.356-.585-.762,0-.229-.762-.737,0-1.092-4.47-2.667a7.345,7.345,0,0,1-3.125-3.277q-.3,0-3.276-3.151-.178,0-1.194-1.04a97.832,97.832,0,0,0-7.442-7.138,17.52,17.52,0,0,1-1.626-2.971q-2.643-2.845-3.886-2.846l.152-.3-.457-.28h-.279a6.768,6.768,0,0,1-2.083.736l-.305-.153-2.691.763a1.022,1.022,0,0,0-.432-.154q-.713,0-1.5,3.862a3.293,3.293,0,0,0,.305,1.346c-.085.594-.187.889-.305.889l.153.305a6.628,6.628,0,0,1-.3,1.626l.152.761-.888,4.751a1.524,1.524,0,0,1,.151.761q-.458,0-.61,2.236l.152.889v.432l-.152.915c0,.084.051.127.152.127l-.583,3.277a1.168,1.168,0,0,0,.127.457q0,2.134-1.778,2.387a5.122,5.122,0,0,1-1.346.153h-.737v-.153a18.3,18.3,0,0,0-.3-3.429l.152-.3-.152-.737.152-.61a1.122,1.122,0,0,1-.152-.584l.152-.306a8.839,8.839,0,0,1-.3-1.32l.153-.305a.135.135,0,0,0-.153-.152q0-.305.153-.305l-.28-4.166c0-.1.043-.152.128-.152l-.128-.89q0-.863-.152-3.733h.152a3.307,3.307,0,0,1-.3-1.042l.153-.737q-.153-.456-.3-.457l.152-1.042q0-.127-.152-1.194h.152a3.271,3.271,0,0,1-.305-1.042h.154l-.154-.278v-.305a23.152,23.152,0,0,0-.3-4.927l.151-.28a1.175,1.175,0,0,1-.151-.457h.151l-.735-4.9.152-.3a26.55,26.55,0,0,1-.61-5.512q.153-3.125.153-4.318l.153-.305a31.867,31.867,0,0,1-.737-5.208,1.163,1.163,0,0,0,.153-.457,1.017,1.017,0,0,0-.153-.432,1.158,1.158,0,0,1,.153-.61q-.305-5.259-.61-7.6a1.012,1.012,0,0,1,.153-.431,15.726,15.726,0,0,0-.458-2.693v-.153a.134.134,0,0,1,.153-.152l-.153-.305c0-.084.051-.127.153-.127l-.153-.305v-1.5a8.805,8.805,0,0,1-.432-2.514v-.458l-.3-.456q0-.483-.153-4.319,0-2.819.762-2.819a26.679,26.679,0,0,0,3.4-.609,35.982,35.982,0,0,1,8.357.762.136.136,0,0,0,.153-.153l.736.153q3.428-.305,4.013-.305v.153l.305-.153h.152a.135.135,0,0,1,.153.153.135.135,0,0,0,.153-.153l.736.153h1.194a.134.134,0,0,1,.152.153l.28-.153h1.193a.135.135,0,0,1,.153.153,34.135,34.135,0,0,1,4.776-.609.135.135,0,0,1,.153.151q5.995-.584,6.248-.584m-27.1-5.36.152.585a.27.27,0,0,1-.3-.305l-.305.153h-1.346l.153-.3-.585.3-1.8-.153-1.321.153a1.162,1.162,0,0,0-.457-.153v-.152a2.069,2.069,0,0,0,.889-.128l.61.128a40.009,40.009,0,0,1,4.319-.128m3.581,2.362.279.152.3-.152a.135.135,0,0,1,.153.152l.737-.152h.61c.085,0,.127.051.127.152l.305-.152.61.152.279-.152a10.335,10.335,0,0,0,2.844.457,4.12,4.12,0,0,0,.585-.151l6.274.61a1.165,1.165,0,0,0,.279-.61h1.194l1.042-.154v.154a.135.135,0,0,0,.152-.154l.737.154.61-.154v.305h.153a.135.135,0,0,0,.153-.151,1.014,1.014,0,0,0,.431.151v.585h-.279l.128-.278-1.779.735q0-.329-.736-.457a5.132,5.132,0,0,1-1.346.305h-.89q0,.127-1.5.457,0-.609-2.819-.61v.153l-.305-.153h-.3l-.432.3v-.3q-2.236-.153-3.276-.153l-.306.153-.3-.153a7.247,7.247,0,0,1-1.193.153q-2.034-.278-2.236-.279v.127l-.279-.127h-.458c-.3,0-.457.043-.457.127a25.833,25.833,0,0,1-2.667-.278l-.305.152a1.112,1.112,0,0,0-.585-.152v-.458c.085,0,.128.051.128.151a20.276,20.276,0,0,1,4.344-.457m4.012,56.315h.306a.136.136,0,0,1-.153.153,23.354,23.354,0,0,1,.278,2.819l-.126.762a1.153,1.153,0,0,1,.126.432h-.126l.126.305a13.346,13.346,0,0,0-.278,1.651c0,.084.05.126.153.126a48.114,48.114,0,0,1-.915,6.859h-.279v.153c.185,0,.279.05.279.153a16.04,16.04,0,0,1-.279,2.235.269.269,0,0,1-.305-.3v-3.862l.153-.915a1.357,1.357,0,0,1-.153-.735V401.4l.585-1.651v-2.668a17.949,17.949,0,0,0,.608-4.927m-.152,21.007q.305,0,.584,2.667l-.278.153h-.458V415.4a1.265,1.265,0,0,0-.152-.61,3.476,3.476,0,0,0,.3-1.625m3.429-19.229h.305a1.006,1.006,0,0,0,.432.153v.3a1.026,1.026,0,0,0-.305.61,47.165,47.165,0,0,1,.458,5.055l-.153.585c.136,1.117.236,1.813.3,2.082a12.041,12.041,0,0,0-.152,1.653v4.011l-.153.89a1.26,1.26,0,0,1,.153.61l-.153.305a.135.135,0,0,0,.153.152l-.153.737q0,1.474-.153,4.47h-.279v-2.693c0-.1.042-.152.127-.152l-.127-.28v-.761a2.123,2.123,0,0,0-.153-1.042,7.264,7.264,0,0,0,.153-1.347v-4.013c0-.1.042-.153.127-.153,0-.1-.043-.152-.127-.152l.127-.584q0-1.45.153-3.126-.153-1.829-.153-3.58l-.127-.305a1.172,1.172,0,0,0,.127-.432l-.127-.3c0-.1.042-.154.127-.154a9.31,9.31,0,0,0-.432-2.54m.305-3.276a38.367,38.367,0,0,1,3.123,3.886,14.562,14.562,0,0,0,2.82,3.277,7.811,7.811,0,0,1,1.193,1.625v.153a53.892,53.892,0,0,1-4.47-4.47,7.757,7.757,0,0,1-1.778-1.626,3.876,3.876,0,0,1-1.042-2.539c.1,0,.153-.1.153-.305m2.082,12.064a3.994,3.994,0,0,1,1.042,1.653h-.3v1.193a8.928,8.928,0,0,0-.584,2.235q-.153,0-.154,1.347h-.152v-.915a23.872,23.872,0,0,0,.305-2.819,1.031,1.031,0,0,1-.154-.457h.154c0-.085-.052-.128-.154-.128l.154-.61a8.63,8.63,0,0,0-.305-1.042,1.017,1.017,0,0,0,.152-.458m1.932.154q.584.305.584.761v.127h-.127c0-.169-.153-.415-.457-.735Zm.584.888c.2.052.407.305.611.763h-.153q-.331,0-.458-.763m.153,4.039h.305v.305a30.249,30.249,0,0,0,.3,5.055l-.152.3a7.237,7.237,0,0,1,.152,1.2,1,1,0,0,1-.152.43l.152.305a2.36,2.36,0,0,0-.3.89h-.153v-1.779c0-.118-.1-.669-.305-1.651V411.08a.135.135,0,0,1,.153-.153l-.153-.3v-.432a1.159,1.159,0,0,1,.153-.61l-.153-.305.153-.278-.153-.305Zm.305-6.248h.153a21.587,21.587,0,0,1,3.708,4.165q.3,0,1.651,1.779c.2,0,.4.244.585.736a11.47,11.47,0,0,1,2.108,2.236q1.625,1.8,1.625,2.236a2.328,2.328,0,0,1-1.042-.89l-1.778-1.346q-2.285-2.261-2.54-3.277a1.792,1.792,0,0,1-.889-1.042l-.305.153h-.153a2.364,2.364,0,0,0-1.193-1.929q0-.407-1.042-1.347a2.613,2.613,0,0,0-.889-1.474m2.691-2.109h.128a14.113,14.113,0,0,1,1.346,1.5q0,.2,1.347,1.347,2.768,3.428,3.125,3.428v.153l-.153.279a11.075,11.075,0,0,1,3.43,3.125q6.146,6.122,9.4,8.053l2.515,1.93v.3h-.153c-.085,0-.127-.051-.127-.153l-.762.153a1.012,1.012,0,0,1-.432-.153.135.135,0,0,0-.153.153q-1.167,0-3-2.083l-2.668-2.388q-1.651-1.371-1.651-1.777a1.867,1.867,0,0,1-1.321-1.347q-.66-.229-3.581-3.583-2.134-2.261-4.013-4.011a28.487,28.487,0,0,0-2.845-3.278c0-.118-.3-.466-.888-1.042v-.3q.456,0,.456-.305m1.474,10.745h.153l7.291,6.553v.153q-2.363-.356-2.362-.61c0-.254-.254-.406-.762-.458a5.031,5.031,0,0,1-1.474-1.93q-.483-.482-2.845-3.557Zm21.007-76.584.305.152.736-.152.153.3v.153a.269.269,0,0,1-.3.3v-.3a10.451,10.451,0,0,1-2.973.736h-.889q0,.153-.761.305c-.086,0-.128-.051-.128-.154l-.762.154q-2.236-.1-2.235-.305a.727.727,0,0,1-.889,0,5.057,5.057,0,0,0-1.194.305.719.719,0,0,0-.889,0q-3.252-.305-8.942-.584v-.305h.153q1.067.151,1.193.152c.035-.2.136-.3.305-.3l.736.3a1.036,1.036,0,0,1,.458-.152v.152l.279-.152h.762c.084,0,.127.051.127.152l.305-.152h.61a1.129,1.129,0,0,1,.585.152,1.028,1.028,0,0,1,.457-.152v.152l.279-.152h.3a.135.135,0,0,1,.153.152,3.626,3.626,0,0,1,1.651-.3H294.1a.134.134,0,0,1,.152.153,1.011,1.011,0,0,1,.458-.153l1.04.153.737-.153a1.023,1.023,0,0,0,.432.153l.762-.305a.134.134,0,0,0,.152.153v-.305h.153a.292.292,0,0,1,.279.305,1.172,1.172,0,0,1,.458-.153,1.016,1.016,0,0,1,.432.153l.914-.153c.085,0,.128.051.128.153l.3-.153,1.042.153c.9-.068,1.346-.169,1.346-.305Zm-9.829,55.272q.533,0,4.165,5.97c.1,0,.153.144.153.432h-.3a23.9,23.9,0,0,0-3.277-4.013l-1.626-2.083v-.153Zm2.083,7.443a4.668,4.668,0,0,1,1.93,1.8c.152,0,.457.348.914,1.042a4.461,4.461,0,0,1,1.321,1.321q3,3.048,3,3.43a17.7,17.7,0,0,1,2.362,2.387,15.779,15.779,0,0,1,2.54,3.735q1.929,2.387,1.93,2.97h-.153a37.156,37.156,0,0,1-5.512-6.248q-2.846-3.759-7.291-8.941a5.462,5.462,0,0,1-1.04-1.347Zm10.871,22.2h.153a1.19,1.19,0,0,1,.458.152l.888-.152.305.152c.085,0,.127-.05.127-.152l.762.152,1.347-.152q1.421,1.3,1.472,1.651h-.3l-.585-.153a.135.135,0,0,0-.152.153l-4.624-.609v-.432l.305-.458a.134.134,0,0,1-.153-.152m0-81.487H308.4q1.421,0,3.733,1.955.254.891.89.89v.152h-.458a2.958,2.958,0,0,0-1.346-.761q-1.271-.482-1.321-.737a19.229,19.229,0,0,1-3.734-1.346h-.153Zm5.817,55.121h.152v.153q-1.091.153-3,2.235v.889q.558,0,1.955,2.083h.28v.763a28.615,28.615,0,0,0,1.651,4.013,4.4,4.4,0,0,0,1.042,2.083c.1,0,.153.152.153.456h-.305q-.863-1.93-6.1-8.941a2.857,2.857,0,0,1-.762-1.5h.458q0-.176-1.043-.584l-.3-.458V393.2l.762.152a32.139,32.139,0,0,0,5.055-1.193m-.61-57.635h.457a1.36,1.36,0,0,1,.736.152l.915-.152q1.474.025,1.474.278l.305-.127a1.124,1.124,0,0,0,.432.127l.3-.127a2.879,2.879,0,0,0,1.346.278v.306h-3.123q-.509-.46-2.845-.458ZM316,371.454h.458q-1.752,4.015-2.54,4.013,0,.076-2.083,3c-.136.457-.339.7-.61.737V378.9a19.055,19.055,0,0,1,2.54-3.862q1.194-1.04,1.194-1.8c.2,0,.3-.093.3-.28l-.152-.3a2.032,2.032,0,0,1,.888-1.2m2.694,2.82v.152a4.618,4.618,0,0,1-1.652,3.278q-2.261,3.428-4.012,3.428a20.2,20.2,0,0,1,2.235-2.387l1.346-1.472q0-.789,1.474-2.237a.72.72,0,0,1,.611-.761m-4.319-36.325h.279q3.074.914,3.429,2.083h.153l-.153.28q.763,0,1.194,3.149l1.5,4.6-.153.305a7.685,7.685,0,0,1,.585,2.693,7.27,7.27,0,0,1-.154,1.168v.762h-.127v.153c.017.185.11.278.28.278v-.431h.152q.456,0,.61,2.668h-.152l.152.3v.154a7.646,7.646,0,0,1-.152,1.346l.3.737a10.211,10.211,0,0,0-.3,2.54v2.235a.136.136,0,0,1-.154.153c0,.085.052.128.154.128q-.129,1.652-.458,1.651l-.583-4.166q.151-1.574.152-2.54h.127a35.515,35.515,0,0,0-.736-4.9l.153-.3q-1.729-7.976-2.972-9.831a24.436,24.436,0,0,0-3.125-5.208m.279,8.636a30.951,30.951,0,0,1,1.194,2.973q-.407,0-1.474-2.82Zm1.042-3.276q.609.025,1.651,2.515h.153v.153a.135.135,0,0,1-.153.152,5.726,5.726,0,0,1,.585,1.779h-.28Zm2.236,47.958v.152q0,1.779-.28,1.779l.128.736V395a8.537,8.537,0,0,1-.128,1.322,1.759,1.759,0,0,1,.128.761c-.288,0-.432-.65-.432-1.955l.153-.279a7.845,7.845,0,0,1-.61-2.54q0-.28,1.042-1.042m1.346-27.408h.153q0,.584.153.584l-.153.762V366.4l-.153.278c.2.035.305.137.305.306q-.712,2.234-1.651,2.235l-.28.152v-.152q.534-.558,1.322-4.623,0-.736.3-.736m2.083-27.713h.458c0,.406.143.61.431.61a1.166,1.166,0,0,1,.457-.152.292.292,0,0,0,.305.278c.1,0,.153-.042.153-.127a2.505,2.505,0,0,1,1.93,2.515q-.153,2.032-.153,2.844a1.021,1.021,0,0,1,.153.432q-.254,0-1.194-3.429a6.383,6.383,0,0,1-2.54-2.972" transform="translate(24.331 -314.708)" fill="#fc07b3"/>
  <path id="Path_51" data-name="Path 51" d="M305.921,427.079h.533A16.688,16.688,0,0,0,311,431.193v.28a27.44,27.44,0,0,1-5.08.406l-.128-.813v-1.244l.128-1.627a.246.246,0,0,1-.28-.278h.28Zm3.555-53.064a1.15,1.15,0,0,0,.432.127v.254q-.305,0-.432.559H309.2l.153.279a1.491,1.491,0,0,1-.686.839,2.692,2.692,0,0,1-.431,1.345v.712h-.254v.1l.153.279q-.687,0-1.245,1.677h-.153v.381l.279.432v.153l-.406-.305h-.153c-.153.915-.33,1.371-.533,1.371v-.406c0-.084.05-.127.152-.127a6.863,6.863,0,0,1-.279-2.057l.128-.686a4.372,4.372,0,0,1-.128-.965.966.966,0,0,1,.128-.406c0-.1-.043-.154-.128-.154a1.142,1.142,0,0,1,.128-.406q-.129-1.5-.128-2.616v-.254h3.149a1.08,1.08,0,0,0,.534-.127m-3.4,40.591h.1a6.043,6.043,0,0,0,.279,1.372,1.133,1.133,0,0,0-.127.559q.558.356.559,1.625l-.153.28a1.06,1.06,0,0,1,.153.558q0,.129-.153.129a5.235,5.235,0,0,1,.534,2.335c-.2,0-.423-.456-.66-1.371v-.432q-.229,0-.685-2.057h.152l-.152-.254q.151-1.854.152-2.743m24.284-40.871h.38c.1,0,.153.043.153.127a1,1,0,0,1,.407-.127,8.166,8.166,0,0,0,.838.127l.279-.127a.991.991,0,0,1,.381.127,18.775,18.775,0,0,1,1.93-.127,34.888,34.888,0,0,1,8.662,2.591l2.438,1.245-.128.278q1.83,0,7.7,5.208.992.458,2.592,3.15a11.137,11.137,0,0,0,1.523,3.277,92.928,92.928,0,0,1,.966,11.812l.127.279a1.242,1.242,0,0,0-.127.56v.278a4.422,4.422,0,0,0,.127,1.066q-.126,1.652-.28,1.651l.154.305a29.792,29.792,0,0,1-1.524,6.833,12.163,12.163,0,0,0-1.245,3.43,20.42,20.42,0,0,1-1.777,4.114q-3.684,4.98-4.8,5.487-5.055,3.252-6.706,4.116a5.711,5.711,0,0,1-2.209.965v.279h-.28a.112.112,0,0,1-.126-.128,25.168,25.168,0,0,1-3.71.813l-.685-.153H332.8l-.66.153v-.153a1.537,1.537,0,0,1-.711.28.112.112,0,0,1-.127-.128l-.686.128h-.966Q322.1,430,322.1,429.008a28.389,28.389,0,0,1-5.054-3.3,13.2,13.2,0,0,1-2.362-2.463,17,17,0,0,1-2.058-3.963q-.151,0-.66-1.524-.356,0-.711-1.092a35.491,35.491,0,0,1-2.591-4.673L307.7,409.4q-.534-3-.534-3.43h.1c0-.1-.034-.152-.1-.152l.1-.965v-.941a19.375,19.375,0,0,1,.864-5.359V396.9a.938.938,0,0,0-.153-.533,53.336,53.336,0,0,0,1.092-6.6,20.269,20.269,0,0,1,2.057-5.208q.2,0,1.092-1.5,1.523-1.065,1.524-1.651a66.5,66.5,0,0,1,9.855-6.578,5.9,5.9,0,0,1,2.21-.813c0-.1.042-.153.127-.153h.407q3.428.025,3.429.279c.389-.051.585-.185.585-.406m-22.124,40.59a46.329,46.329,0,0,0,2.616,4.522,2.242,2.242,0,0,0,.559,1.245v.126H311q-2.338-3.428-2.338-4.52c-.322-.727-.55-1.092-.685-1.092.033-.187.118-.28.254-.28m3.861-40.311v.253l-1.905,3.43a13.762,13.762,0,0,0-1.245,2.87h-.153a.247.247,0,0,1-.279-.279c.321-.44.509-.66.56-.66l-.128-.279a10.438,10.438,0,0,0,.813-1.931c.187,0,.279-.041.279-.126l-.127-.28A6.818,6.818,0,0,1,311,374.955q0-.94,1.092-.94m4.369-.153a6.612,6.612,0,0,0,1.244.153l-4.521,3.4q0,.458-1.091,1.245v-.278q1.727-4.37,3.149-4.37Zm28.273,55.96v.278H344.2v-.127a3.216,3.216,0,0,0,.535-.151m3.58-2.059v.28a12.6,12.6,0,0,1-3.3,1.779h-.278v-.128a11.689,11.689,0,0,0,2.616-1.5,2.5,2.5,0,0,0,.965-.432m9.88-1.777v.152q-.151,1.372-.152,2.057a14.311,14.311,0,0,1,.278,2.186v.406a.246.246,0,0,1-.278.279h-.813a1.067,1.067,0,0,1-.56-.153c-.085,0-.126.051-.126.153l-1.906-.279-1.4.127-1.371-.127-2.465.279c0-.1-.043-.153-.127-.153a.135.135,0,0,1-.154.153v-.279a11.818,11.818,0,0,0,1.932-1.219q2.158,0,5.487-2.489.991-1.094,1.65-1.092M352.429,373.3h.128l3.43.432.278-.153a12.779,12.779,0,0,0,3.024.559h.534l-.406,3.151v.838c0,.068-.043.1-.128.1l.128.279a8.55,8.55,0,0,0-.407,3.024h-.153q-.282-.051-1.219-2.592a11.422,11.422,0,0,1-2.057-2.616q-.46,0-.839-.966a16.154,16.154,0,0,1-2.313-2.057" transform="translate(32.098 -309.496)" fill="#fc07b3"/>
  <path id="Path_52" data-name="Path 52" d="M334.079,334.264l.585.128a1.167,1.167,0,0,1,.457-.128q.636,0,.89,2.211a.135.135,0,0,0-.154.153c.2.034.305.135.305.3v1.04q-.458,0-.761.737h-.127v.153a42.749,42.749,0,0,1,2.082,7.595,44.867,44.867,0,0,1,2.362,10.593,25.665,25.665,0,0,1,2.107,7.9q1.323,4.037,2.82,10.871a39.781,39.781,0,0,1,1.779,6.834,18.436,18.436,0,0,1,1.5,5.233,10.036,10.036,0,0,1,1.2,4.9c.167,0,.363.449.582,1.347h.764a4.127,4.127,0,0,0,1.47-2.388q.458,0,.762-2.235a26.256,26.256,0,0,0,1.778-3.581q2.7-4.928,2.695-6.553c-.1,0-.153-.042-.153-.127h.431v-.915a10.758,10.758,0,0,0,1.04-2.667q.789,0,1.347-3.583.229,0,1.043-2.819a10.333,10.333,0,0,0,.889-2.236v-.61q.407,0,.911-1.93l.283-.152a1.026,1.026,0,0,1-.154-.458,86.8,86.8,0,0,0,3.429-8.763v-.152h.305a38.733,38.733,0,0,0,1.779,8.483,36.657,36.657,0,0,0,1.043,5.055,21.338,21.338,0,0,0,1.651,5.359,42.938,42.938,0,0,0,1.625,5.233,35.394,35.394,0,0,0,1.65,5.36c.152,0,.4.492.736,1.474v.3l-.153.305q.358.127.915,1.93.889.407.89.61v.432q.431,0,.432,1.193h.761a17.9,17.9,0,0,1,.586-2.386.137.137,0,0,0-.155-.154l.155-.736V385.5a5.294,5.294,0,0,0,1.346-3.581,28.533,28.533,0,0,0,1.777-5.969l-.15-.279,1.04-2.693a8.336,8.336,0,0,1,1.068-2.083l-.153-.305a4.5,4.5,0,0,1,.735-1.778q.611-5.359,1.044-5.36a62.322,62.322,0,0,0,3.121-6.121q.358,0,1.5-4.445l.582-5.08-.15-.305a5.108,5.108,0,0,1,3-3.125q.687,0,2.083-3.861c.424-1,.719-1.5.89-1.5a.27.27,0,0,0,.3-.306v-.126l-.154-.305q.585,0,1.348-1.651a13.144,13.144,0,0,1,2.818-1.042v.151a5.9,5.9,0,0,1,1.194-.432v.128a6.356,6.356,0,0,1-1.194,2.236q0,1.574-1.929,4.927a71.052,71.052,0,0,1-2.973,8.178,17.167,17.167,0,0,1-1.955,5.234l-.737,2.236a.135.135,0,0,1,.153.152q-.4,0-1.194,3.125a3.848,3.848,0,0,0-1.043,3.123,22.6,22.6,0,0,0-1.774,4.471,3.916,3.916,0,0,0-.915,2.388q-.332,0-.737,2.361h-.153l.153.305q-2.392,5.36-2.388,8.053a29,29,0,0,1-1.625,3.581,5.659,5.659,0,0,0-.458,2.083,27.8,27.8,0,0,1-1.625,3.428,32.778,32.778,0,0,0-2.237,5.361,16.622,16.622,0,0,1-2.082,4.469q-.329,0-1.8-2.539-1.045-2.287-1.627-2.54c0-.254-.306-.652-.914-1.2a40.423,40.423,0,0,0-3.405-6.984,50.879,50.879,0,0,0-2.386-5.513,30.019,30.019,0,0,1-1.654-4.191l-.581-.432c0-.1-.155-.152-.458-.152h-.735a44.461,44.461,0,0,0-2.848,6.1q-2.236,3-2.233,3.581a13.982,13.982,0,0,0-2.515,4.774,32.568,32.568,0,0,0-2.082,5.664q-3.611,5.082-3.888,5.665h-.433a26.191,26.191,0,0,0-1.8-4.344,34.49,34.49,0,0,0-2.386-6.1.136.136,0,0,1,.154-.154,55.928,55.928,0,0,1-2.39-5.943c-.15,0-.3-.348-.433-1.042q-2.385-5.131-2.386-6.553c-.389,0-.584-.357-.584-1.068a12.411,12.411,0,0,1-1.043-2.82q-.38,0-.608-1.5-.585-.633-1.5-4.6-.282,0-1.042-4.192-.587,0-1.2-3.276c-.235,0-.433-.491-.583-1.474q-.607-.278-1.194-3v-.279q-.405,0-1.5-3.735a15.542,15.542,0,0,1-1.475-3.581h-.3v-.127a.135.135,0,0,1,.153-.152c-.1-.406-.3-.609-.585-.609l.127-.737q-.355,0-.582-1.778h-.738l.129-.762v-.3c-.189-.593-.382-.89-.586-.89h-.15l.15-.737-.3.154a9.455,9.455,0,0,0-.889-2.972q-.431,0-.89-2.109a8.582,8.582,0,0,1-1.194-2.362v-.3c0-.288.4-.491,1.194-.61a.135.135,0,0,1,.154.153,21.433,21.433,0,0,0,6.1-1.194c.306.1.457.2.457.3a5.646,5.646,0,0,1,2.388-.432m-2.236,35h.279q.536.1,1.8,4.751c.2,0,.649,1.295,1.347,3.886q0,.585,2.361,4.623a8.706,8.706,0,0,0,.914,3.4q0,1.016,1.78,4.318l.889,3a2.436,2.436,0,0,0,.3,1.193h-.3a9.041,9.041,0,0,0-1.347-2.693q-1.779-5.333-4.015-11.023Zm6.706-33.225h.128q.227.025.915,1.626a1.183,1.183,0,0,0-.153.457,9.7,9.7,0,0,1,.432,1.778h-.737q-.458-3.326-.585-3.861m.128,56.594q.736.407,2.235,4.47a4.021,4.021,0,0,0,.611,1.346v.737q.431,0,2.668,4.623v.3c-.29,0-.431-.152-.431-.457a1.687,1.687,0,0,0-.89.305l.126.305v.152a15.057,15.057,0,0,1-1.32-3l.15-.735v-.612a42.124,42.124,0,0,1-3.148-7.441M342.1,342.6q.205,0,.891,2.236.331,0,.611,3.276c.2,0,.3.245.3.737v1.346q.282.66,1.625,5.817a17.99,17.99,0,0,1,1.193,4.75,37.387,37.387,0,0,0,1.347,4.927l1.933,8.638v.305h-.154q0-.382-1.779-6.4a72.221,72.221,0,0,0-2.69-8.941,55.832,55.832,0,0,0-1.933-8.053c-.1,0-.2-.153-.305-.458a1,1,0,0,0,.155-.43,20.25,20.25,0,0,1-.889-4.015.133.133,0,0,0,.149-.153.268.268,0,0,1-.3-.3.134.134,0,0,1,.154-.153l-.154-.305a.135.135,0,0,1,.154-.152,3.446,3.446,0,0,1-.309-1.627Zm15.345,55.121V398l-4.015,7.317h-.3v-.154a19.5,19.5,0,0,1,1.5-2.972,11.817,11.817,0,0,1,2.233-4.038Zm2.54-5.232v.153q-1.269,3.125-1.65,3.123v-.126q1.245-3.15,1.65-3.151m7.139-54.358h.3v.736l.458,1.8h-.3v.153l.3.432v.457q-1.425,0-1.8,1.626l-2.233,6.121q0,.482-1.322,1.474c0,.372-.346.677-1.043.914a10.543,10.543,0,0,1-1.348,4.6c-.2,0-.3.254-.3.763.1,0,.153.042.153.127-.388,0-.586.253-.586.762h-.3c.235-.694.432-1.042.586-1.042a.135.135,0,0,0-.154-.153c0-.593.154-.889.457-.889v-.153l-.153-.3c.137,0,.287-.3.458-.89l-.155-.305a11.844,11.844,0,0,0,.891-2.818,36.6,36.6,0,0,0,1.347-3.734h.431v.61h.3l-.15-.305a6.228,6.228,0,0,0,.89-2.387q.482-.025,1.193-2.819h.3v-.458q.941-3.554,1.779-4.318m-.891,58.551a36.152,36.152,0,0,1,3.127,5.639,7.338,7.338,0,0,1,1.5,3.886l-.305.154h-.43c-.24,0-.39-.254-.458-.763.1,0,.15-.043.15-.127q-.809-.331-1.775-3.733a21.233,21.233,0,0,1-1.806-5.055m1.348-53.623q.456,0,.458,1.627h.278v.888l.154,1.5-.283.153h-.149c-.2,0-.355-.651-.458-1.955-.256,0-.407-.194-.457-.583a9.234,9.234,0,0,0,.457-1.627m.607,5.055h.433a3.618,3.618,0,0,0,.457,1.625,1.261,1.261,0,0,0-.15.612v.152a17.06,17.06,0,0,1,.581,1.625l-.149.305a5.533,5.533,0,0,1,.455,2.235.134.134,0,0,0-.15.153,10.387,10.387,0,0,1,1.193,3.43h-.305a12.221,12.221,0,0,0-.888-2.388,31.905,31.905,0,0,1-1.193-5.969c-.1,0-.154-.094-.154-.28h.154a1.928,1.928,0,0,1-.283-.915c0-.1.043-.152.129-.152l-.129-.28Zm2.212,49.609q1.142.787,3.43,5.791c.3.949.456,1.447.456,1.5h-.456q-1.2,0-1.779-3.43a5.683,5.683,0,0,1-1.04-2.819c-.406-.305-.611-.508-.611-.61Zm.611-55.121h.15a17.78,17.78,0,0,0,.736,3.734V347.8c.034.2.137.3.306.3l-.153,1.5a22.463,22.463,0,0,1,.734,3.862,1.188,1.188,0,0,1,.458,1.042q0,.331-.149,1.651a31.033,31.033,0,0,1,1.039,5.359,33.45,33.45,0,0,1,1.347,5.055q.3,0,.3.737V369.4l.736,4.469c-.1.611-.253.915-.456.915a21.776,21.776,0,0,1-1.627-7.011h.154a4.964,4.964,0,0,1-.458-1.651l.153-.278a23.879,23.879,0,0,1-.736-2.693h.152a12.274,12.274,0,0,1-.761-3.861l.154-.306a16.1,16.1,0,0,1-.587-2.691.114.114,0,0,1,.129-.127,12.705,12.705,0,0,0-.738-3.734,1.15,1.15,0,0,1,.154-.457,9.974,9.974,0,0,0-.458-2.515h.153a12.339,12.339,0,0,1-.431-3.887.268.268,0,0,1-.3-.3,1.094,1.094,0,0,1,.15-.583,7.441,7.441,0,0,1-.15-1.347Zm27.863,61.521c.286.1.432.4.432.89v1.651h-1.194a1.278,1.278,0,0,0-.585.128,1.326,1.326,0,0,0-.61-.128l-.734.128v-.128a13.326,13.326,0,0,1-1.651.279c-.086,0-.128-.051-.128-.152a42.086,42.086,0,0,1-5.359.3l-.915-.151-2.237.3v-.153a1,1,0,0,1-.432.153q-1.169,0-4.165.154v-.154q.456-1.042,2.668-1.042l.3.154a4.172,4.172,0,0,0,1.347-.763c0,.237.193.389.582.458a5.316,5.316,0,0,0,2.237-.585l.3.127,1.194-.278v.152a3.043,3.043,0,0,1,1.628-.305l-.154-.3,1.5.153h.153c.12,0,.66-.1,1.626-.305h1.8l.431-.279q.561,1.169,1.348,1.168h.3v-.736l.154-.305c-.1,0-.154-.043-.154-.127a.27.27,0,0,0,.3-.305m-9.551-23.242h.459v.152a11.686,11.686,0,0,1-.89,2.083,8.93,8.93,0,0,1-.915,2.54v.89c-.287,0-.535.694-.736,2.083a10.587,10.587,0,0,1-1.929,3.733,2.85,2.85,0,0,1-.889,1.474V393.4q1.572-6.12,2.233-6.12a41.6,41.6,0,0,1,2.514-5.818Zm-1.779,12.954h.155v.458c0,.982-.1,1.472-.305,1.472a1.178,1.178,0,0,1,.15.458l-.15.3a1.123,1.123,0,0,1,.15.585q0,.405-1.346,1.651h-.3v-.305a18.94,18.94,0,0,1,1.347-3.86,1.75,1.75,0,0,0,.3-.763m5.513-9.982h.154q-.84,4.928-1.65,4.927l.15.305a7.5,7.5,0,0,0-.582,1.625c.081,0,.124.052.124.153q-.405,0-1.169,2.82l-.3.152v-.3a30.277,30.277,0,0,1,1.347-4.165.991.991,0,0,1-.154-.432q.256,0,.736-2.083.789-1.8,1.043-1.8v-.153a1.006,1.006,0,0,1-.155-.432c.155-.406.305-.61.458-.61m9.525-26.062v.305l-.152,1.042a1.022,1.022,0,0,1,.152.432h-.152a1.183,1.183,0,0,1,.152.456c0,.221-.1.967-.3,2.237a.134.134,0,0,0,.153.152l-.153.737v2.083h-.736l-.3-.154a24.453,24.453,0,0,0,.3-2.972.135.135,0,0,1-.154-.152h.154l.3.152.154-.3q-.307,0-.306-.432.331-3.583.889-3.581M402,365.839h.278v1.929q0,.738.153,2.237h-.153l.153.3v.737a.135.135,0,0,1-.153.153l.153.305v.278h-.28l-.15-.736h.15l-.15-.305v-.152a1.781,1.781,0,0,1,.278-.89c-.086,0-.227-.194-.432-.583a1.175,1.175,0,0,1,.154-.457l-.154-2.083Z" transform="translate(34.473 -314.605)" fill="#fc07b3"/>
  <path id="Path_53" data-name="Path 53" d="M381.9,393.395l.305.151c-.1.713-.153,1.109-.153,1.2a2.026,2.026,0,0,0,.153,1.042q-.205,5.866-.458,7.9l.153.305c-.1.287-.2.431-.3.431l.152.305-.3,2.972a.134.134,0,0,0,.153.152l-.305,2.083a.134.134,0,0,0,.153.153l-.153.737v2.108q-.433,4.37-.432,6.833c-.2.034-.3.136-.3.305a1.029,1.029,0,0,1,.152.457h-.152l.152.279c-.068.694-.168,1.042-.305,1.042a15.551,15.551,0,0,1,.305,2.082c-.168,0-.322.357-.457,1.068.1.051.152.4.152,1.042h-.152v.889q0,.305-.278.305a1.5,1.5,0,0,0-.154-.762,3.809,3.809,0,0,1,.279-1.042,13.713,13.713,0,0,1-.126-1.626l.126-1.04-.279-.153v.278h-.3a2.313,2.313,0,0,0,.584-1.32l-.126-.305a1.36,1.36,0,0,0,.126-.609c-.185,0-.279-.3-.279-.889a.247.247,0,0,0,.279-.279v-3.429a7.885,7.885,0,0,0-.584-1.8h.3v-.279h-.3q0-.609.584-.609v-.737a9.134,9.134,0,0,0-.126-1.346c.084-.305.178-.457.278-.457l-.278-2.236h.278a1.023,1.023,0,0,1-.153-.431l.153-.306-.153-.3a66.693,66.693,0,0,0,1.347-8.028l-.153-.305v-.152q.458-2.287.457-2.388a.134.134,0,0,0-.152-.151l.3-2.364-.153-.3a1,1,0,0,0,.153-.457m-1.194.305v.61c0,.084-.051.127-.152.127a1.175,1.175,0,0,1,.152.457l-.152.3a1.032,1.032,0,0,1,.152.432,10.775,10.775,0,0,0-.305,2.388h-.152v-1.347a1.032,1.032,0,0,1,.152-.432l-.152-.3q.1-2.236.457-2.235m2.388-37.239v.153a8.776,8.776,0,0,1-.61,2.388,2.825,2.825,0,0,1,.153.889,1.127,1.127,0,0,1-.585.153,8.211,8.211,0,0,0-.153-.89q.355-2.539.737-2.54a1.182,1.182,0,0,1,.457-.153m.153,8.206a10.617,10.617,0,0,0,.126,1.625,1.363,1.363,0,0,0-.126.61,1.176,1.176,0,0,1,.126.432l-.278.152-.305-.888q0-1.93.458-1.93m.584-6.859.305.153.3-.153v1.474a.135.135,0,0,1-.152.153l.431,2.082-.279.153c.085.594.178.889.279.889l-.152.762v1.194l.3.432-.153.3a1.191,1.191,0,0,0,.153.458,19.169,19.169,0,0,1-.3,2.667,8.91,8.91,0,0,1,.3,1.8l-.153.278a7.91,7.91,0,0,1,.153,1.5l.305-.153v.153l-.154.305.154.736q-.305.051-.305.305v.152h.305v.127l-.305.458.152.737h-.152l.305.761c-.1,1.016-.154,1.8-.154,2.362l.154.762h-.154l.154.305v1.32a.269.269,0,0,1-.305.305h-.153v-.152l.153-.305a1.027,1.027,0,0,1-.153-.432h.153l-.153-.3v-.154q0-1.04-.152-3.276a.134.134,0,0,0,.152-.152q-.2,0-.431-.432a11,11,0,0,0,.279-1.932V373.3a1.344,1.344,0,0,0-.128-.61c0-.1.043-.154.128-.154l-.128-1.042v-.278a1.348,1.348,0,0,1,.128-.61q-.231-1.2-.586-5.664h.154l-.154-.279a1.159,1.159,0,0,1,.154-.61,4.527,4.527,0,0,1-.305-1.779.134.134,0,0,0,.152-.153.268.268,0,0,1-.3-.305,5.209,5.209,0,0,1,.152-1.345l-.3-2.083Zm.305,50.5h.153a11.648,11.648,0,0,0,.152,1.625l-.152.305a.135.135,0,0,0,.152.153l-.152,1.5v1.778a24.869,24.869,0,0,0,.152,2.668,24.32,24.32,0,0,0-.3,2.541h-.154q0-1.247-.152-1.347a8.674,8.674,0,0,0,.305-1.931c-.1-.879-.154-1.422-.154-1.625q0-.28.154-2.693c-.1-.526-.154-.821-.154-.889a10.541,10.541,0,0,0,.154-2.083m.153-6.706q.278,1.423.279,1.625a9.214,9.214,0,0,0-.128,1.194l.128.305a1.173,1.173,0,0,0-.128.457h-.152l-.153-1.042a.134.134,0,0,1,.153-.151,8.017,8.017,0,0,1-.306-2.236Zm.279-4.319a1.756,1.756,0,0,0,.152.889l-.431,1.932h-.153v-.736a.135.135,0,0,1,.153-.154l-.153-.3v-.153a1.109,1.109,0,0,1,.153-.585l-.153-.3c.153-.389.3-.585.432-.585M385.6,387.3a1.156,1.156,0,0,0,.152.457,1.113,1.113,0,0,0-.152.585l.152.305-.152.278a.135.135,0,0,0,.152.154,31.75,31.75,0,0,1-.584,3.125.134.134,0,0,0,.152.151,12.226,12.226,0,0,0-.305,1.8h-.3V394l.153-.762c-.2,0-.3-.094-.3-.279h.3v-.61c-.288,0-.432-.093-.432-.28v-.152l.432.281a1.777,1.777,0,0,1,.152-.89v-.432h.154v-.761l.152-.28h-.305a1.7,1.7,0,0,0,.458-1.042.269.269,0,0,1-.3-.305l.152-.3-.152-.305q.227-.583.432-.583m16.536-30.38,1.956.279a1.012,1.012,0,0,1,.431-.153c.694.085,1.043.188,1.043.305l.3-.153.737.457h2.539q2.059,0,7.138,2.388a3.8,3.8,0,0,1,3.149,2.082,8.248,8.248,0,0,1,3.4,4.166,25.426,25.426,0,0,1,2.109,4.013,32.005,32.005,0,0,0,2.819,4.776,37.267,37.267,0,0,0,1.626,6.859,7.943,7.943,0,0,1,.61,2.387l.305-.153h.152v.28h-.305v.3l.305-.153v.153a1.158,1.158,0,0,0-.152.609h.278v.153a8.5,8.5,0,0,0,.763,3.276c.286,1.541.432,2.43.432,2.667a1.025,1.025,0,0,0-.154.458c.406,0,.609.3.609.889a6.23,6.23,0,0,0,.305,1.626l-.305.152.305,1.2a1.145,1.145,0,0,0-.153.456.135.135,0,0,1,.153.154c-.1,0-.153.042-.153.127h.153c0-.085.051-.127.152-.127l.128,1.472v.3a1.275,1.275,0,0,1-.128.585c0,.1.043.153.128.153l-.128.762v2.362l-.152.3h.152c0-.1.043-.153.128-.153l-.128.762.128.889a32.864,32.864,0,0,0-.432,5.36c-.1,0-.153.1-.153.3h.305a15.879,15.879,0,0,0-1.042,3.278q-.227.025-.609,1.625c-.152,0-.348.4-.584,1.193q-.662.254-2.541,4.776c-.219,0-.771.491-1.65,1.474q-2.668,3.1-2.669,3.581l-.3-.153a20.234,20.234,0,0,1-3.123,2.541q0,.482-2.694,1.93,0,.609-5.64,2.54a13.406,13.406,0,0,0-2.082.432c-.1,0-.153-.043-.153-.128a11.089,11.089,0,0,1-2.54.281H405.57a1.124,1.124,0,0,0-.586.151,1.169,1.169,0,0,0-.61-.151q-1.042.151-1.193.151l-.279-.151a1.265,1.265,0,0,1-.61.151l-.89-.151a15.479,15.479,0,0,1-1.929.3q-1.118-.3-1.194-.3l-.3.151-.89-.151a3.436,3.436,0,0,1-1.5.457c-.389-.085-.585-.188-.585-.305l-.305.152q-.558,0-3.123-.3a9.24,9.24,0,0,1-1.778.151.135.135,0,0,1-.154-.151.134.134,0,0,0-.152.151q-1.194-.1-1.193-.3l-.305.153c-.492,0-.736-.094-.736-.281l-.305.128h-.432a1.344,1.344,0,0,1-.61-.128,1.289,1.289,0,0,1-.585.128c-.2,0-.305-.094-.305-.279l.154-.609a2.361,2.361,0,0,1-.305-1.194v-.889l.305-1.779c0-.507-.051-1.253-.154-2.235l.154-.609a4.53,4.53,0,0,1-.154-1.2l.305-.127-.152-.3.152-.305h-.305c.034-.2.137-.306.305-.306l-.152-.278v-2.083a.134.134,0,0,1,.152-.153l-.152-.3v-.89l.3-.457v-.585h-.3v-.152a.133.133,0,0,1,.152-.152l-.152-.305v-.432c.2,0,.3-.052.3-.153a14.446,14.446,0,0,1,.128-1.651,13.805,13.805,0,0,1-.128-1.626l.128-.3a1.288,1.288,0,0,1-.128-.583v-.305l.279-.458a7.222,7.222,0,0,0-.152-1.32l.3-2.694-.153-.736a19.477,19.477,0,0,0,.153-2.235v-.611a1.119,1.119,0,0,0-.153-.585.135.135,0,0,1,.153-.151l-.153-.737a1.033,1.033,0,0,1,.153-.456,5.725,5.725,0,0,1-.3-1.5,24.079,24.079,0,0,1,.61-5.206h-.305q.329-.205.737-3.125c0-.1-.043-.154-.128-.154a39.21,39.21,0,0,1,.432-4.469c0-.085-.05-.483-.153-1.2l.153-.584q-.356-2.692-.585-2.693l.153-.737v-.152q-.305-2.516-.3-2.819V379.4a.135.135,0,0,1,.152-.154l-.152-.278v-.915l-.153-.89a1.442,1.442,0,0,0,.153-.735l-.153-.306q.405-2.387.585-2.386l-.128-.28q.1-.914.279-.915l-.152-.278a5.652,5.652,0,0,1,.3-1.5h-.3l.152-.307v-1.929a.135.135,0,0,1,.153-.153,6.955,6.955,0,0,1-.432-2.541h.128a42.7,42.7,0,0,1-.89-6.552h.153l-.153-.279v-.89a.135.135,0,0,1,.153-.151l-.153-.305V357.5c.084,0,.483-.051,1.194-.151v.151l.305-.151h3.276a25.279,25.279,0,0,0,2.693-.153l.585.153q1.651-.154,2.971-.153h1.652a.135.135,0,0,1,.153.153l.278-.153h2.54q.738,0,.737-.279m-12.5-3.887q1.069.153,1.2.153a1.006,1.006,0,0,1,.432-.153v.153a.135.135,0,0,0,.152-.153l.736.153h2.108l1.042.153v.152a4.971,4.971,0,0,0-1.5.28l-.305-.128a29.808,29.808,0,0,1-5.207.432,5.433,5.433,0,0,1-2.083.611.135.135,0,0,0-.153-.154l.153-.761-.305-.432q.863,0,2.388-.153v.153a3.287,3.287,0,0,1,1.345-.305m0,2.388h.737v.152a28.02,28.02,0,0,1-3.733.432l-.128-.278a17.493,17.493,0,0,1,3.123-.305m-2.386,78.363q2.236.049,2.235.278a.134.134,0,0,0,.152-.153l1.474.153h2.237a1.164,1.164,0,0,0,.61-.153,1,1,0,0,0,.432.153v.305h-.585c-.305,0-.457-.051-.457-.154q-1.854.205-2.237.305c-.084,0-.127-.051-.127-.152l-1.066.152h-.432a1.262,1.262,0,0,1-.61-.152,1.121,1.121,0,0,1-.583.152h-.153c-.491,0-.737-.1-.737-.305l-.3.154h-.153v-.305c.2,0,.305-.093.305-.278m4.623,2.514q.456,0,6.553.3a1.448,1.448,0,0,0-.153.737h-1.651a1.1,1.1,0,0,0-.585.153,9.957,9.957,0,0,0-2.54-.305l-.279.153-3.886-.585V436.6q2.387-.3,2.54-.3m20.549-2.972c.593.236.89.432.89.584v.153q-.129,0-3.581.152h-1.169v-.152a5.406,5.406,0,0,0,1.472-.153.135.135,0,0,0,.153.153.291.291,0,0,1,.305-.278l.279.125q1.651,0,1.651-.584m4.166-78.058q1.8.305,1.93.3V356c-.188,0-.279.1-.279.305l-.3-.154a1.161,1.161,0,0,1-.611.154q0-.305-2.083-.583h-1.193l-.28.151v-.305l.737-.152h.89a.134.134,0,0,1,.152.152,2.414,2.414,0,0,1,1.042-.3m6.248,74.477v.151a14.682,14.682,0,0,1-4.165,2.693l-1.194.89v.151a.135.135,0,0,1-.153-.151l-.736.151h-.432a70.954,70.954,0,0,1,6.68-3.886m.763-73.284.3.153h.584a12.049,12.049,0,0,1,3.125.585.135.135,0,0,1,.153-.153c0,.2.542.509,1.626.915h.152v-.305c.389.594.643.889.763.889.033-.2.127-.3.278-.3q0,.762.609.762a4.365,4.365,0,0,0,1.347,1.042.134.134,0,0,1,.152-.153q0,.407.737.888a18.8,18.8,0,0,1,1.194,4.32,1.163,1.163,0,0,0-.153.457h-.305q0-.458-1.193-1.5,0-.331-1.193-1.347l-2.237-2.973a9.115,9.115,0,0,0-3.125-1.777q-.151-.662-2.514-1.194h-.3Zm.3,10.136h.128q.278,0,1.651,2.235,1.04,0,2.082,4.471a2.591,2.591,0,0,1-.889-1.5,7.592,7.592,0,0,1-1.347-2.819,11.549,11.549,0,0,1-1.625-2.387m10.72,56.442h.152l-.152.761.152.585c-.1.305-.2.457-.3.457a.134.134,0,0,0,.153.153,5.21,5.21,0,0,1-.305,1.169.135.135,0,0,0,.153.152q0,2.692-.889,2.693h-.305v.154q0,.1.457.43l.28-.152h.152v.152q0,1.245-2.54,1.8l-.278-.153a32.285,32.285,0,0,0-3.278.736h-.3a9.391,9.391,0,0,1,1.931-1.93,8.983,8.983,0,0,0,1.651-2.235q.227,0,1.472-1.932a3.476,3.476,0,0,0,1.042-1.956ZM431.5,357.046a1.007,1.007,0,0,0,.432.153.135.135,0,0,1,.152-.153,4.66,4.66,0,0,1,1.042,2.108c.22,0,.372.195.458.584h.152a1.13,1.13,0,0,0-.152.586h-.305c0-.085.051-.128.153-.128q-.051-.405-.737-.761c0-.221-.2-.364-.61-.432,0-.187-.346-.483-1.042-.89,0,.086-.051.128-.152.128,0-.389-.1-.585-.305-.585,0,.1-.043.153-.127.153V357.2a4.4,4.4,0,0,0,1.042-.153m-1.042,20.117,1.168.737q1.5,5.055,1.5,5.232v.585l-.152.305c.2.034.3.135.3.3h-.153a1.015,1.015,0,0,0-.584-.3l.152-.305a.8.8,0,0,1-.61-.585,1.235,1.235,0,0,0,.153-.61v-.151q-.331,0-.456-.737h-.154V380.9q0-1.067-.585-1.194l.153-.3-.153-.305a1,1,0,0,0,.153-.432q-.38,0-.736-1.5m5.055,7.748a35.067,35.067,0,0,1,.89,5.055h-.154a5.72,5.72,0,0,1,.305,1.5,19.34,19.34,0,0,0-.152,2.541l-.154.305q.305.025.305.278a9.244,9.244,0,0,0-.458,3.125h-.126l.126.305c0,.1-.042.151-.126.151,0,.1.041.154.126.154l-.126.888q-.636,0-.763-1.5a14.754,14.754,0,0,1,.305-2.361,5.491,5.491,0,0,1-.305-1.2.4.4,0,0,1,.458-.456v-.305c-.3,0-.458-.093-.458-.28v-.152c0-.3.051-.458.154-.458l-.586-4.9a1.35,1.35,0,0,0,.128-.457,1.173,1.173,0,0,1-.128-.458h.128l-.128-.28v-1.345a1.438,1.438,0,0,0,.737-.154m.3-10.287h.432l.61,3.149-.3.128a14.478,14.478,0,0,1-1.042-2.667v-.153c.2,0,.3-.153.3-.458" transform="translate(41.764 -312.149)" fill="#fc07b3"/>
</svg>
