<svg id="Group_3" data-name="Group 3" xmlns="http://www.w3.org/2000/svg" width="595.723" height="132.036" viewBox="0 0 595.723 132.036">
  <path id="Path_15" data-name="Path 15" d="M423.688,212.612a2.155,2.155,0,0,1-2.236-1.4,12.959,12.959,0,0,1-.559-4.051,30.5,30.5,0,0,0,.7-3.491c.7-11.034,1.258-21.926,1.816-32.821v-9.077h-3.214a8.309,8.309,0,0,1-5.445-1.537,2.823,2.823,0,0,1-1.258-1.956,1.679,1.679,0,0,1,.279-1.116,1.979,1.979,0,0,1,1.676-.978,3.376,3.376,0,0,1,1.815.56A6.534,6.534,0,0,0,421.173,158l2.515-.278c.139-2.514.279-5.167.279-7.821,0-7.682,0-15.363-.279-23.045a79.089,79.089,0,0,0-1.537-9.776,20.089,20.089,0,0,0-1.258-3.073,3.2,3.2,0,0,1-.417-1.537,2.708,2.708,0,0,1,2.374-2.233,3.067,3.067,0,0,1,1.815.559,10.13,10.13,0,0,0,3.213,1.675c5.446,1.258,10.754,2.654,16.2,3.353l1.677.14c2.654,0,5.446-.7,8.239-.978a6.252,6.252,0,0,1,2.794.559,2.179,2.179,0,0,1,.838,1.675v.279c0,.42-.978.839-1.537,1.118-.42.279-.838.139-1.4.279a45.963,45.963,0,0,1-7.542.7,62.469,62.469,0,0,1-15.224-2.1c-1.816-.559-3.631-.976-5.866-1.535a98.005,98.005,0,0,1,2.1,21.926l-.279,14.245.139,5.307h2.653l15.923-1.537A2.488,2.488,0,0,1,449.247,158v.279c0,1.537-1.117,2.1-2.933,2.236L429,161.5l-1.117.279c-.14,2.513-.279,5.028-.279,7.4-.56,10.894-1.258,21.648-1.677,32.542v1.117a54.271,54.271,0,0,0,.559,6.7v.56a2.148,2.148,0,0,1-1.675,2.374Z" transform="translate(54.112 -110.239)" fill="#2ffe04"/>
  <path id="Path_16" data-name="Path 16" d="M449.35,235.43h-.7a6.2,6.2,0,0,1-4.748-1.816,2.435,2.435,0,0,1-.978-1.954,3.069,3.069,0,0,1,.14-1.118,12.625,12.625,0,0,0,.559-3.909c0-9.917-.279-19.972-.279-30.029v-6.423a7.618,7.618,0,0,1-2.793-.559c-.838-.42-1.816-1.4-1.816-2.1s1.117-1.4,1.956-1.956a2.75,2.75,0,0,1,1.117-.138h1.4v-6.006a235.341,235.341,0,0,0-3.77-38.269,34.575,34.575,0,0,0-1.537-5.028l-.279-1.256a2.439,2.439,0,0,1,.978-1.955,2.224,2.224,0,0,1,1.4-.7,3.963,3.963,0,0,1,1.675.56c4.469,3.071,9.779,3.63,14.944,4.608a46.935,46.935,0,0,0,8.8.838c2.932,0,5.865-.279,8.8-.418a8.182,8.182,0,0,1,3.212.559,2.9,2.9,0,0,1,1.118,2.233,2.6,2.6,0,0,1-1.677,1.258h-9.917a63.917,63.917,0,0,1-13.687-1.117c-2.513-.559-5.167-1.258-7.681-1.956l-2.1-.557a269.9,269.9,0,0,1,3.91,44.832v2.235c1.816-.139,3.212-.418,4.609-.559l14.385-1.676,3.773-.7a2,2,0,0,1,2.094,1.816v.559c0,1.258-.978,2.094-2.653,2.235-2.236.139-4.469,0-6.7.279l-14.246,2.1-1.117.279V199.4l.418,25.977a6.774,6.774,0,0,0,.14,1.676c.559,2.932,1.537,3.911,4.05,3.911h.978c8.1-.42,16.2-.978,24.441-1.537a3.122,3.122,0,0,0,1.954-.417,2.077,2.077,0,0,1,1.258-.279,2.572,2.572,0,0,1,1.955,1.255,3.312,3.312,0,0,1,.42,1.677l-.139.838c-.56,1.256-1.816,1.256-3.074,1.256-2.094-.14-4.19-.278-6.424-.278l-2.793.138c-7.122.42-14.245,1.117-21.368,1.816" transform="translate(57.269 -107.363)" fill="#2ffe04"/>
  <path id="Path_17" data-name="Path 17" d="M464.139,215.15a3.806,3.806,0,0,1-2.233-.559,2.939,2.939,0,0,1-.978-1.956,2.692,2.692,0,0,1,.42-1.4,2.983,2.983,0,0,0,.418-1.677l.837-19.832-.279-1.116.14-.559c.139-.978.421-1.956,1.117-2.236a1.634,1.634,0,0,1,.978-.279,2.543,2.543,0,0,1,1.537.559,2.972,2.972,0,0,1,.976,2.1v.278c-1.116,5.028-1.116,10.2-1.116,15.085l.14,2.933-.14,3.071.14,1.118,9.5-1.4c1.4-.279,2.793-.559,4.05-.7,2.514-.42,2.653-.42,2.653-2.932l.14-2.655a78.03,78.03,0,0,1,.418-7.96c.42-2.792,1.118-5.586,1.816-8.38.978-3.212,1.4-4.888,2.235-8.239l1.258-4.609a5.961,5.961,0,0,0,.279-1.536v-.559h-.978c-5.865.418-11.871.7-17.877,1.256-.279,0-.42.14-.7.279a3.267,3.267,0,0,1-1.117.279h-.417a2.9,2.9,0,0,1-2.1-.559,3.678,3.678,0,0,1-.978-2.235v-.42a26.826,26.826,0,0,0,1.258-8.8l-.14-3.911c0-8.52-1.955-17.179-3.491-24.861l-.838-3.911a19.211,19.211,0,0,0-2.654-7.96,2.244,2.244,0,0,1-.42-1.258,2.012,2.012,0,0,1,.279-.977,2.254,2.254,0,0,1,1.955-.977c5.447,0,9.777-1.258,15.085-2.794,1.4-.418,2.792-.838,4.19-1.117a29.708,29.708,0,0,1,9.915-1.815h1.536c1.956.279,3.074.978,3.773,2.514a7.009,7.009,0,0,0,1.116,1.676,43.5,43.5,0,0,1,6.844,10.895l.279,1.255-.14.7a2.247,2.247,0,0,1-1.536,1.117h-.14a32.733,32.733,0,0,1-5.307,1.4,75.734,75.734,0,0,0-15.5,4.191c-.279.28-.7.28-1.117.56h-.559a1.939,1.939,0,0,1-1.956-1.677V134c0-1.117.838-1.4,1.677-1.675,5.866-1.4,11.872-2.933,17.6-4.469a13.471,13.471,0,0,0,2.375-.7l.42-.279L497.1,123.67l-1.677-2.374-1.675-2.236a6.949,6.949,0,0,0-6.006-3.352,15.659,15.659,0,0,0-3.352.42l-14.943,4.05-6.006,1.537c.559,3.631,1.256,7.262,1.955,10.753,1.815,9.917,3.91,19.972,3.91,30.447l-.279,5.866h2.653l18.3-1.256a2.988,2.988,0,0,1,2.513.977,2.439,2.439,0,0,1,.559,1.677l-.139,1.116-1.956,6.983L488.3,188.473a42.407,42.407,0,0,0-1.258,8.1c-.279,3.073-.279,6.144-.418,9.079a15.632,15.632,0,0,0,.418,3.351l.14,1.118a4.044,4.044,0,0,1-.559,1.955,2.457,2.457,0,0,1-1.815.837,2.4,2.4,0,0,1-.978-.138,6.23,6.23,0,0,0-2.792-.559,26.892,26.892,0,0,0-3.493.417l-1.4.279c-2.236.279-4.47.838-6.565,1.257l-4.889.978Z" transform="translate(59.935 -110.017)" fill="#2ffe04"/>
  <path id="Path_18" data-name="Path 18" d="M497.71,238.778h-.279a4.406,4.406,0,0,1-2.374-.839,1.617,1.617,0,0,1-.838-1.535,4.981,4.981,0,0,1,.279-1.4,34.032,34.032,0,0,0,1.116-4.05c3.353-13.27,5.03-26.956,6.146-40.643,1.258-14.944,2.514-30.028,3.632-44.971V142.13l-10.336.559c-3.632.279-7.4.42-11.173.42a18.862,18.862,0,0,1-3.911-.559,2.557,2.557,0,0,1-2.1-2.793l5.586-.14c1.956.14,3.771.7,5.727.7l14.386-.978c.418-.139,1.117-.279,1.4-.7q1.048-1.678,2.094-1.677a3.006,3.006,0,0,1,1.816.838,4.731,4.731,0,0,0,2.932.839l18.3-1.537c1.4,0,3.073,1.117,3.073,1.955v.14c0,1.117-1.117,1.676-2.933,1.676l-17.877.557-2.792.42c-.14,2.654-.42,5.168-.7,7.822-.7,9.357-1.4,18.854-2.236,28.351q-1.257,15.292-2.932,30.586c-.418,4.749-1.258,9.5-1.955,14.246-.42,2.794-1.256,5.586-1.815,8.38-.279,1.676-.279,3.353-.42,5.028,0,1.258-.559,2.375-1.816,2.515" transform="translate(62.538 -106.742)" fill="#2ffe04"/>
  <path id="Path_19" data-name="Path 19" d="M38.337,189.555q.879,0,1.755.049c.586.033,1.172.047,1.756.047q3.316-.095,3.122,3.122a89.7,89.7,0,0,0,.2,10.292,45.7,45.7,0,0,1-.391,10.292c-.064.648-.163,1.3-.292,1.951s-.294,1.3-.489,1.951q-.782,2.728-1.658,3.218t-3.707-.488a22.091,22.091,0,0,0-5.512-1.219,24.894,24.894,0,0,0-5.61.147,23.486,23.486,0,0,1-2.633.049q-1.367-.049-2.731-.049-3.61-.2-7.171-.1a38.744,38.744,0,0,0-7.17.876q-3.026.682-4.244-.292t-1.415-4.2q-.489-8.386-1.267-16.876T0,181.263a54.549,54.549,0,0,1,.731-8.975q.733-4.388,1.317-8.877.587-4.877.976-9.8A54.451,54.451,0,0,1,4.682,143.9a28.965,28.965,0,0,1,1.513-4.486,19.165,19.165,0,0,0,1.316-4.585,2.265,2.265,0,0,1,1.073-1.61,5.724,5.724,0,0,1,1.853-.732q1.267-.2,2.535-.293T15.511,132a3.311,3.311,0,0,1,.78.1.71.71,0,0,1,.487.294,3.4,3.4,0,0,0,1.853,1.9,4.866,4.866,0,0,0,2.292.147,15.107,15.107,0,0,1,2.391-.2,17.258,17.258,0,0,0,2.2-.145,16.589,16.589,0,0,1,2.194-.147,4.578,4.578,0,0,1,2.732.779,3.3,3.3,0,0,1,.78,2.538q-.1,5.852,0,11.656t-.39,11.658q-.293,3.9-.536,8a23.6,23.6,0,0,0,.926,8.1,18.332,18.332,0,0,1,.731,4.78Q32,183.9,32,186.433q0,2.047.487,2.488a4.731,4.731,0,0,0,2.634.439h1.609a12.9,12.9,0,0,0,1.61-.1ZM1.561,190.919a122.26,122.26,0,0,0,.879,12.974q.779,6.439,1.268,12.877c.063,1.039.423,1.659,1.073,1.855a3.986,3.986,0,0,0,2.145,0,33.777,33.777,0,0,1,7.951-1.172,54.492,54.492,0,0,1,7.95.389,21.508,21.508,0,0,0,4.341-.047q2.1-.244,4.243-.633a2.789,2.789,0,0,0,2.439-2.634q.193-3.611.439-7.171t.536-7.17q.293-2.926-2.537-2.829A21.017,21.017,0,0,1,28,197.114a35.3,35.3,0,0,1-4.2-.926,6.591,6.591,0,0,1-3.073-1.609q-.636-.829-.536-3.365a37.536,37.536,0,0,1,1.169-7.561,50.82,50.82,0,0,0,1.366-7.559q.487-4.293.976-8.634a78.557,78.557,0,0,0,.487-8.731,65.449,65.449,0,0,0-.537-9.754,64.364,64.364,0,0,1-.536-9.66q0-.972-.049-1.9t-1.512-.925a12.016,12.016,0,0,0-2.634.1c-.911.131-1.463.779-1.659,1.951q-.292,1.954-1.365,2.389a5.212,5.212,0,0,1-2.634.244,16.021,16.021,0,0,1-1.756-.292,4,4,0,0,0-1.756,0,9.21,9.21,0,0,0-2,.439,2.13,2.13,0,0,0-1.317,1.8q-.293,1.367-.683,2.781a21.487,21.487,0,0,0-.586,2.878q-.684,7.023-1.755,14t-1.658,14a102.582,102.582,0,0,0-.2,14.145M12.1,139.9a3.412,3.412,0,0,1,1.9-.049,1.226,1.226,0,0,0,1.512-.732,19.516,19.516,0,0,0,.828-2.44,3.348,3.348,0,0,0-.34-2.535,1.59,1.59,0,0,0-1.61-.975q-1.025.1-2,.2a4.241,4.241,0,0,0-3.074,1.121,4.948,4.948,0,0,0-.927,3.365c.064.911.308,1.462.732,1.658a2.555,2.555,0,0,0,1.513.147,1.969,1.969,0,0,1,1.462.244m16.39,5.56q.095-2.051.146-4.1t.049-4.1q0-2.244-2.634-2.245-1.269.1-1.562.733a3.857,3.857,0,0,0-.292,1.608q.2,2.149.342,4.2t.244,4.193q.485,6.929.487,13.9a90.739,90.739,0,0,1-1.073,13.9q-.684,4.39-1.366,8.781t-1.463,8.682a3.22,3.22,0,0,0,2.244,3.9,20.742,20.742,0,0,0,5.024,1.268,33.112,33.112,0,0,0,5.121.195,3.3,3.3,0,0,1,2.05.536q.68.538.487,2.1a3.02,3.02,0,0,0-.05.975c.032.391.211.587.537.587,1.039.063,2.081.114,3.121.145a9.351,9.351,0,0,0,3.122-.44c.323-.063.487-.388.487-.975v-3.365q0-1.7-.1-3.365c0-.715-.164-1.153-.489-1.316a2.646,2.646,0,0,0-1.561-.049q-2.341.489-4.634,1.073a14.808,14.808,0,0,1-4.828.39,4.239,4.239,0,0,1-2.537-.879,3.891,3.891,0,0,1-.781-2.537q-.1-2.534-.1-5.024a30.993,30.993,0,0,1,.39-4.925,18.776,18.776,0,0,0-.2-7.122A28.455,28.455,0,0,1,28,165.167q.095-4.977.146-9.9t.342-9.8m6.535,68.188a14.74,14.74,0,0,0,.049,2.829,1.747,1.747,0,0,0,1.025,1.316,25.324,25.324,0,0,0,2.926,1.122q2.928.877,3.61-1.951a21.383,21.383,0,0,0,.781-5.707,43.7,43.7,0,0,1,.39-5.8,6.559,6.559,0,0,0-.049-2.39q-.246-1.121-2.292-1.219a9.448,9.448,0,0,0-4.147.34c-.748.357-1.219,1.254-1.415,2.682a38.53,38.53,0,0,0-.536,4.439q-.146,2.293-.342,4.341" transform="translate(0 -107.391)" fill="#2ffe04"/>
  <path id="Path_20" data-name="Path 20" d="M45.266,171.419a17.732,17.732,0,0,1,.682-10,71.445,71.445,0,0,1,4.194-8.926,83.561,83.561,0,0,1,4.879-7.854q2.633-3.752,5.169-7.657a25.4,25.4,0,0,1,9.853-8.975,23.255,23.255,0,0,1,13.363-2.049q1.757.1,3.514.343t3.511.439a10.979,10.979,0,0,1,6.487,2.634,13.138,13.138,0,0,1,3.658,6.145,39.882,39.882,0,0,1,1.415,7.463q.341,3.756.439,7.561.2,6.049.244,12.144a51.937,51.937,0,0,1-1.317,12.048A75.959,75.959,0,0,1,98.04,185.27a30.029,30.029,0,0,1-6.048,9.464q-.585.584-1.17,1.17a3.783,3.783,0,0,1-1.366.876,17.6,17.6,0,0,0-6.292,4.048q-2.684,2.685-5.121,5.512a13.479,13.479,0,0,1-6.927,4.633,21.73,21.73,0,0,1-8.39.44,7.4,7.4,0,0,1-4.536-2.195,36.108,36.108,0,0,1-3.17-3.853,42.958,42.958,0,0,1-5.316-9.756,31.982,31.982,0,0,1-2.1-11.12,20.586,20.586,0,0,0-1.268-6.584,17.082,17.082,0,0,1-1.072-6.488m38.922,4.1q-.1-1.559-.244-3.025a21.149,21.149,0,0,0-.537-3.023,41.733,41.733,0,0,0-2.194-7.17,42.3,42.3,0,0,1-2.2-7.074q-.587-2.828-1.219-5.462T76.384,144.4a7.416,7.416,0,0,0-2.39-3.706,5.814,5.814,0,0,0-3.854-1.562,20.438,20.438,0,0,0-7.414,1.562,18.873,18.873,0,0,0-6.341,4.389,20.319,20.319,0,0,0-3.707,5.072q-1.464,2.831-3.122,5.56a25.027,25.027,0,0,0-3.511,10.878,29.681,29.681,0,0,0,1.463,11.268,126.009,126.009,0,0,0,5.8,14.826q3.365,7.223,6.389,14.536a3.631,3.631,0,0,0,.487.732,1.327,1.327,0,0,0,.684.44,20.285,20.285,0,0,0,8.828,0,11.188,11.188,0,0,0,7.072-5.269,54.809,54.809,0,0,0,6.1-13.169,36.149,36.149,0,0,0,1.317-14.438m-31.8,22.535a13.746,13.746,0,0,0-.633-5.415,23,23,0,0,0-2.391-4.829,23.563,23.563,0,0,0,.586,5.415,12.354,12.354,0,0,0,2.438,4.829M74.628,180.3a13.838,13.838,0,0,1,.1,4.925,31.26,31.26,0,0,1-1.268,5.22,7.356,7.356,0,0,1-3.414,4.34,12.948,12.948,0,0,1-6.146,1.806,5.821,5.821,0,0,1-4.292-1.317,10.3,10.3,0,0,1-2.537-3.757q-1.172-3.021-2.292-6.048a13.125,13.125,0,0,1-.732-6.243q.487-3.315.878-6.631a37.6,37.6,0,0,1,1.365-6.538,40.813,40.813,0,0,1,2.049-4.877,12.5,12.5,0,0,1,3.317-4.1,5.481,5.481,0,0,1,5.658-1.17,3.489,3.489,0,0,1,2.1,1.706,6.753,6.753,0,0,1,.732,2.682,26.658,26.658,0,0,0,1.073,5.952q.879,2.926,1.853,5.853.585,1.852,1.073,3.8a18.193,18.193,0,0,1,.487,4.391M57.655,206.245a13.6,13.6,0,0,0-1.219-3.561,29.216,29.216,0,0,0-1.9-3.17q.487,1.852,1.025,3.609a6.734,6.734,0,0,0,2.1,3.122m15.8-26.34q-.1-1.364-.244-2.634a14.22,14.22,0,0,0-.536-2.535q-1.172-3.608-2.244-7.17a54.658,54.658,0,0,1-1.659-7.269q-.39-3.121-2.341-3.657t-4.39,1.511a13.315,13.315,0,0,0-4.292,6.83q-.977,3.9-1.756,7.9-.39,2.146-.633,4.438a19.181,19.181,0,0,0,.047,4.536,25.952,25.952,0,0,0,1.317,5.269,41.993,41.993,0,0,0,2.2,4.976,5.732,5.732,0,0,0,1.366,2,4.539,4.539,0,0,0,2.146,1.123,8.969,8.969,0,0,0,10.047-5.756,27.2,27.2,0,0,0,1.123-4.732,14.261,14.261,0,0,0-.147-4.829m8.877-18.534q-.1-1.464-.147-2.927a16.133,16.133,0,0,0-.342-2.829q-.78-3.608-1.561-7.121a25.147,25.147,0,0,0-2.634-6.828,9.261,9.261,0,0,0-4.1-4.049,9.8,9.8,0,0,0-5.072-.879A14.248,14.248,0,0,0,63.41,138.2a14.452,14.452,0,0,0-4.1,2.976,34.387,34.387,0,0,0,4.633-1.855,11.523,11.523,0,0,1,4.634-1.17,8.847,8.847,0,0,1,5.9,1.512,7.687,7.687,0,0,1,3.365,4.732q.487,2.536,1.025,5.072t1.122,5.073q.485,1.756.829,3.512a8.029,8.029,0,0,0,1.512,3.317M60.483,137.765a6.2,6.2,0,0,0,2.39-.391q.926-.388,1.708-.683,8.29-3.12,12.78,2.244a25.115,25.115,0,0,1,4.292,8.877,46.015,46.015,0,0,1,1.414,8.2,33.725,33.725,0,0,0,1.709,8.194c.195.65.373,1.364.536,2.146a6.336,6.336,0,0,1,.049,2.34,53.871,53.871,0,0,0-.293,7.269,26.813,26.813,0,0,0,1.17,7.167,11.247,11.247,0,0,1,.343,5.563,43.683,43.683,0,0,1-1.415,5.365c-.2.584-.424,1.17-.684,1.755a3.1,3.1,0,0,0-.1,2.049,18.662,18.662,0,0,0,3.561-1.463,11.271,11.271,0,0,0,2.878-2.245,31.8,31.8,0,0,0,6.195-9.609,52.024,52.024,0,0,0,3.17-10.876,82.415,82.415,0,0,0,1.365-16.975,149.807,149.807,0,0,0-1.365-17.07,29.857,29.857,0,0,0-.976-4.78,10.63,10.63,0,0,0-2.292-4.146,7.958,7.958,0,0,0-4.536-2.39,59.853,59.853,0,0,0-9.317-1.415,32.586,32.586,0,0,0-9.511.731,15.743,15.743,0,0,0-7.218,3.757,53.552,53.552,0,0,0-5.853,6.391m18.925,64.188a22.061,22.061,0,0,0,4.1-7.365,38.3,38.3,0,0,0,1.659-8.243,53.618,53.618,0,0,1-2.537,7.9q-1.562,3.8-3.22,7.707" transform="translate(5.87 -108.208)" fill="#2ffe04"/>
  <path id="Path_21" data-name="Path 21" d="M120.583,222.289a23.113,23.113,0,0,1-4.194-1.023,14.874,14.874,0,0,1-4.2-2.293q-2.341-1.954-4.633-3.757a16.709,16.709,0,0,1-3.95-4.534,29.309,29.309,0,0,1-2.586-6,27.654,27.654,0,0,1-1.121-6.391v-.927a1.838,1.838,0,0,0-.2-.828,11.821,11.821,0,0,1-1.755-6.488q.095-3.367.389-6.682.292-3.608.39-7.171t.489-7.074q.487-4,1.316-7.95t1.513-7.852a.571.571,0,0,1,.1-.39q1.365-2.244,2.781-4.341a11.4,11.4,0,0,0,1.8-4.829,2.741,2.741,0,0,1,1.853-2,10.856,10.856,0,0,1,3.609-.876,4.481,4.481,0,0,1,3.024.632,3.665,3.665,0,0,1,1.61,2.342,4.857,4.857,0,0,1-.243,2.634,35.609,35.609,0,0,0-1.855,9.316q-.292,4.733-.487,9.513a56.515,56.515,0,0,1-.536,6.193q-.439,3.074-.636,6.195a56.48,56.48,0,0,0,.2,10.488,71.928,71.928,0,0,0,1.951,10.388,3.6,3.6,0,0,0,3.122,2.438,5.437,5.437,0,0,0,4.487-.975,15.77,15.77,0,0,0,4.585-5.8,25.022,25.022,0,0,0,1.952-7.072q.584-4.583,1.072-9.072t.586-8.977a73.827,73.827,0,0,1,.878-10.045q.78-4.975,2.049-9.853a3.581,3.581,0,0,1,1.463-2.341,7.392,7.392,0,0,1,2.439-.976q2.534-.487,2.975-1.074t.049-3.121a4.269,4.269,0,0,1,2.341-4.585c.325-.2.649-.389.976-.585a6.533,6.533,0,0,1,.975-.487q3.706-1.657,5.366-.587T152,140.541a3.118,3.118,0,0,0,.39,1.854q.388.49,1.852.293a2.836,2.836,0,0,1,2.439.586,2.041,2.041,0,0,1,.39,2.146,59.961,59.961,0,0,0-1.609,13.363q-.051,6.731.34,13.365a69.13,69.13,0,0,1-.292,11.024q-.585,5.464-1.269,10.925-.2,1.756-.34,3.56a17.14,17.14,0,0,1-.634,3.465,5.851,5.851,0,0,1-4.683,4.78,27.12,27.12,0,0,1-3.073.585,23.8,23.8,0,0,1-3.073.195q-2.538.2-2.927,2.244a3.327,3.327,0,0,1-1.463,2.537,16.69,16.69,0,0,0-3.56,3.171q-1.515,1.8-2.878,3.756a8.93,8.93,0,0,1-4.39,3.218,18.378,18.378,0,0,1-6.634.683M100.878,168.05A22.964,22.964,0,0,0,100.1,174q0,3.024-.1,6.048a39.874,39.874,0,0,1-.634,5.852,12.784,12.784,0,0,0,.342,5.951,66.808,66.808,0,0,0,.878-11.9q-.1-5.951.293-11.9m.293,26.241q-.782,7.708,2.292,12.878a23.851,23.851,0,0,0,9.219,8.584,11.393,11.393,0,0,0,5.755,1.512q2.926-.049,5.952-.147a11.5,11.5,0,0,0,5.559-1.9,16.857,16.857,0,0,0,4.537-4.34,13.1,13.1,0,0,0,2.389-5.365,48.118,48.118,0,0,0,.634-5.707q.146-2.877.048-5.706,0-6.242.44-12.389t.829-12.29a3.544,3.544,0,0,1,.049-.587,3.689,3.689,0,0,1,.147-.585q1.07-5.364,2.487-10.535a59.407,59.407,0,0,1,3.757-10.049q1.265-2.339-1.366-1.951-1.562.293-3.073.585t-3.074.587a2.84,2.84,0,0,0-2.341,2.146q-1.367,4.587-2.293,9.266a48.658,48.658,0,0,0-.925,9.463q-.1,5.365-.684,10.73t-1.17,10.731a16.664,16.664,0,0,1-6.731,11.9,6.871,6.871,0,0,1-3.707,1.268,6.525,6.525,0,0,1-3.707-.879,4.463,4.463,0,0,1-2.145-2.731A77.007,77.007,0,0,1,111.9,187.9a44.223,44.223,0,0,1,0-10.975q.68-5.852.926-11.754t.927-11.755a16.478,16.478,0,0,0,.194-3.218,1.044,1.044,0,0,0-1.073-.976,27.748,27.748,0,0,0-3.317,0,5.97,5.97,0,0,0-4.876,2.146,9.367,9.367,0,0,0-1.855,4.779,34.248,34.248,0,0,0-.342,5.463q.048,2.731-.146,5.463-.293,6.926-.342,13.8a120.579,120.579,0,0,1-.829,13.413m6.146-47.7a2.115,2.115,0,0,0,.146,1.365,1.924,1.924,0,0,0,1.219.391,10.089,10.089,0,0,0,4.732-.44,2.628,2.628,0,0,0,1.9-2.291q.293-3.316-2.537-3.61-4.975-.487-5.462,4.585m24.191,69.359a20.24,20.24,0,0,1-4.78,1.8,33.589,33.589,0,0,1-4.78.732,35.632,35.632,0,0,1-4.535-.1,20.013,20.013,0,0,1-4.83-1.073,13.4,13.4,0,0,0,6.682,3.464,13.175,13.175,0,0,0,7.121-.487,9.363,9.363,0,0,0,5.122-4.341m8.682-42.436a122.408,122.408,0,0,0-1.023,13.316q-.146,6.682-.049,13.413.292-6.634.926-13.315a80.362,80.362,0,0,0,.146-13.414m.2,28.583q-.2,2.538.293,3.074t2.927.34q1.072-.2,2.146-.34t2.146-.343a5.221,5.221,0,0,0,4.194-4.293,55.288,55.288,0,0,0,.976-6.438q.292-3.218.682-6.536.487-4,.78-8.095a67.573,67.573,0,0,0,.1-8.1q-.392-6.341-.391-12.634a62.8,62.8,0,0,1,1.269-12.535q.585-3.22-2.537-2.342c-.717.261-1.431.505-2.146.732a16.013,16.013,0,0,1-2.244.538,1.5,1.5,0,0,0-1.169.975q-2.441,5.365-4.439,10.877a25.778,25.778,0,0,0-1.317,11.755q.193,2.438.34,4.876a36.449,36.449,0,0,1-.047,4.976q-.392,5.951-.586,11.851a115.286,115.286,0,0,1-.976,11.658m10.146-61.457q.193-3.415-1.025-4.2t-4.243.683a2.283,2.283,0,0,0-.586.391q-3.22,1.854-1.951,5.852.68,1.854,1.9,1.415a9.324,9.324,0,0,1,2.2-.536q2.536-.293,3.073-.879a4.836,4.836,0,0,0,.634-2.731" transform="translate(12.818 -106.992)" fill="#2ffe04"/>
  <path id="Path_22" data-name="Path 22" d="M156.533,190.477a44.151,44.151,0,0,1,.587-7.17q.584-3.559.975-7.171a63.239,63.239,0,0,0,.1-12.633q-.585-6.292-1.559-12.536a35.673,35.673,0,0,1,1.462-17.655,25.924,25.924,0,0,1,2.391-5.024,45.443,45.443,0,0,0,2.684-5.123,1.043,1.043,0,0,1,.778-.632,4.732,4.732,0,0,1,1.172-.147q3.119-.1,6.242.1a32.72,32.72,0,0,1,6.146.975,10.407,10.407,0,0,0,2.537.293,54.9,54.9,0,0,1,13.949,1.366,36.972,36.972,0,0,1,12.78,5.756,42.805,42.805,0,0,0,4.341,2.534q2.288,1.17,4.438,2.538a14.022,14.022,0,0,1,6.732,8.973q1.267,4.88,2.488,9.853a30.421,30.421,0,0,1,.732,10.145,22.91,22.91,0,0,1-2.293,8.389,15.573,15.573,0,0,1-6.1,6.342q-2.634,1.562-5.269,3.218a54.951,54.951,0,0,1-5.462,3.025,14.55,14.55,0,0,0-4.194,3.463q-1.856,2.195-3.8,4.146-.585.585-1.123,1.22a3.3,3.3,0,0,1-1.219.925,64.218,64.218,0,0,0-7.463,3.025q-3.659,1.757-7.414,3.122a29.134,29.134,0,0,1-7.951,1.658,24.875,24.875,0,0,1-7.9-.683,65.039,65.039,0,0,0-7.9-1.463,1.4,1.4,0,0,1-1.269-1.073,8.061,8.061,0,0,1-.195-1.756q.2-1.951.34-3.949t.244-4.05m3.806.2a23.7,23.7,0,0,1-.1,3.658q-.193,2-.486,3.95c-.066.456-.114.893-.146,1.317s.342.7,1.12.828q3.416.587,6.731,1.319a20.867,20.867,0,0,0,6.829.34,23.819,23.819,0,0,0,9.659-3.121q4.292-2.534,8.486-5.56a23.716,23.716,0,0,0,7.268-7.658,25.679,25.679,0,0,0,3.074-9.12,56.465,56.465,0,0,0,.487-9.949,33,33,0,0,0-4-14.536,45.941,45.941,0,0,0-9.559-11.9,28.32,28.32,0,0,0-12.341-6.83,42.16,42.16,0,0,0-14.1-.975q-3.316.293-3.315,3.708,0,5.072.243,10.192a98.925,98.925,0,0,1-.049,10.292,153.175,153.175,0,0,0,.147,16.876,144.63,144.63,0,0,1,.049,17.17m10.438-59.8q2.633.388,5.268.681t5.169.781a42.15,42.15,0,0,1,11.95,4.243,20.1,20.1,0,0,1,8.537,9.12,58.314,58.314,0,0,1,5.268,17.219,52.164,52.164,0,0,1-.683,18.193,5.588,5.588,0,0,1-.39,1.268.978.978,0,0,0,.2,1.172,1.065,1.065,0,0,0,1.121.147q.633-.244,1.316-.44a15.183,15.183,0,0,0,7.17-4.78,16.054,16.054,0,0,0,3.269-7.9,43.588,43.588,0,0,0-.586-15.949,58.813,58.813,0,0,0-5.659-14.877,12.853,12.853,0,0,0-4.046-4.88,17.813,17.813,0,0,0-6-2.634q-5.56-1.559-11.267-2.682a46.988,46.988,0,0,1-11.072-3.657,25.5,25.5,0,0,0-6.146-2.146,20.579,20.579,0,0,0-6.633-.293,6.355,6.355,0,0,0-3.707,1.512,6.023,6.023,0,0,0-1.269,3.757q0,2.144,2.049,2.047c1.038,0,2.065.018,3.071.049s2.032.051,3.075.051M174,144.237a23.062,23.062,0,0,1,19.021,11.511,21.013,21.013,0,0,1,2.829,10.732,15.967,15.967,0,0,1-2.1,7.8,21.689,21.689,0,0,1-5.705,6.634,20.813,20.813,0,0,1-8,3.9,54.28,54.28,0,0,1-7.511,1.463q-2.441.2-3.414-.681a4.494,4.494,0,0,1-1.073-3.221q-.2-6.339-.343-12.682t-.339-12.683q0-1.657.049-3.315a10.572,10.572,0,0,0-.441-3.317q-.779-2.828.146-4.293t3.951-1.855a11.772,11.772,0,0,1,1.806-.048c.553.033.926.048,1.123.048m20,24.1q.587-7.8-2.877-12.829a25.955,25.955,0,0,0-8.927-8.047,16.507,16.507,0,0,0-9.949-2.049,4.433,4.433,0,0,0-2.975,1.219q-.928,1.025-.439,3.268a11.014,11.014,0,0,1,.293,2.487c0,.815-.034,1.676-.1,2.586a87.464,87.464,0,0,0,.293,13.7,109.169,109.169,0,0,1,.487,13.8q-.2,2.926,2.828,2.34,2.146-.292,4.293-.683a30.072,30.072,0,0,0,4.194-1.072,19.858,19.858,0,0,0,9.024-5.8,16.419,16.419,0,0,0,3.852-8.926m-20.583.976a55.53,55.53,0,0,1-.244-6.244q.049-3.22-.049-6.586a23.875,23.875,0,0,0-1.169-6.682q-.392-1.265.439-1.364a12.533,12.533,0,0,1,1.414-.1,15.914,15.914,0,0,1,6.244.83,11.1,11.1,0,0,1,5.073,3.754q3.511,4.393,3.365,8.049t-3.561,8.146a14.971,14.971,0,0,1-3.61,3.561,22.743,22.743,0,0,1-4.486,2.39q-2.439.975-3.074.536c-.424-.292-.6-1.282-.537-2.976,0-.389.016-.828.05-1.315s.08-1.153.146-2m3.318-19.414a2.976,2.976,0,0,0-1.708.1c-.487.2-.7.846-.636,1.951q.293,4.2.441,8.437t.242,8.537q.1,1.661.781,1.9a2.324,2.324,0,0,0,1.855-.439,24,24,0,0,0,4.046-3.074,13.926,13.926,0,0,0,2.976-4.145q.682-1.366,1.317-2.586a3.832,3.832,0,0,0,.242-2.779,9.954,9.954,0,0,0-3.559-5.123,11.624,11.624,0,0,0-6-2.78m7.218-24.876a9.827,9.827,0,0,0,3.268,1.706q2.489.93,5.608,1.806t6,1.415a26.108,26.108,0,0,0,4.439.536,20.75,20.75,0,0,0-9.365-4.1q-4.975-.78-9.951-1.366m20.29,36.095a41.2,41.2,0,0,0-2.2-10.39,26.318,26.318,0,0,0-5.316-9.122,16.3,16.3,0,0,0-8.876-5.072,57.345,57.345,0,0,1,10.39,11.071,38.241,38.241,0,0,1,6,13.513m-1.561,23.314a9.1,9.1,0,0,0,2.048-3.707,22.1,22.1,0,0,0,.977-5.169,12.322,12.322,0,0,0-.49-4.78q-.392,3.413-.878,6.876a35.06,35.06,0,0,1-1.658,6.781m10.243-48.093a86.893,86.893,0,0,1,4.39,9.365,55.689,55.689,0,0,1,2.827,9.56,60.377,60.377,0,0,1,.977,9.756,35.481,35.481,0,0,1-1.464,10.437,16.608,16.608,0,0,0,3.464-7.17,32.073,32.073,0,0,0,.731-9.315,41.067,41.067,0,0,0-1.705-9.609,30.842,30.842,0,0,0-3.757-8.146,12.881,12.881,0,0,0-5.462-4.879" transform="translate(20.408 -108.654)" fill="#2ffe04"/>
  <path id="Path_23" data-name="Path 23" d="M199.648,202.316h.164a2.63,2.63,0,0,0,.166,1.294,1.2,1.2,0,0,0-.166.632,43.825,43.825,0,0,1,.5,6.47c.11.311.219.468.33.468l-.165.826v1.761a12.939,12.939,0,0,0,.165,1.789l-.165.3a8.239,8.239,0,0,1,.165,1.46v1.789l.165.3h-.33v-.3h-.165v.3h-.165v-.468h.33c-.44-.275-.662-.494-.662-.66h-.164v.33a1.071,1.071,0,0,1-.634-1.129v-2.256a86.42,86.42,0,0,1,.634-11.452c0-.109-.046-.164-.138-.164a6.085,6.085,0,0,0,.138-1.294m3.413-32.784h.138q0,9.964.33,10.982h-.166a1.113,1.113,0,0,1,.166.5q-.277,1.762-.468,1.763l.138.33-.3,1.127v.5c-.111,0-.165.046-.165.137l-.166,1.46.166.329a8.022,8.022,0,0,0-.5,2.753h-.3q0-.66-.165-.66.165-1.6.3-1.6l-.138-.329v-.5c0-.111.045-.165.138-.165l-.138-.3q.137-1.652.138-2.589V183.1a.145.145,0,0,1,.164-.165l-.164-.331v-.165a1.205,1.205,0,0,1,.164-.632.146.146,0,0,0-.164-.166l.164-1.129v-1.926l.33-.5v-.329a1.219,1.219,0,0,0-.164-.634,1.261,1.261,0,0,0,.164-.66A1.111,1.111,0,0,0,202.4,176a3.963,3.963,0,0,0,.33-1.624l-.166-.633c.111-.641.221-.963.331-.963l-.165-.329v-.8c.036-.219.146-.329.33-.329Zm-.5,56.676h.5a6.83,6.83,0,0,1,1.927.634c0-.313.21-.468.632-.468,0,.2.166.3.5.3a.292.292,0,0,1-.33.33h-1.763l-1.127.165a1.213,1.213,0,0,0-.331-.8Zm18.085-69.916,1.129.164h.965a1.479,1.479,0,0,0,.8-.164l.991.164h.964a1.2,1.2,0,0,0,.632-.164,1.253,1.253,0,0,0,.66.164h.166l.3-.164v.33h1.955a1.2,1.2,0,0,1,.632.165l.33-.165.964.165.5-.331v.331c.092,0,.137-.055.137-.165l.826.165h1.295a.145.145,0,0,1,.164.165,1.106,1.106,0,0,1,.468-.165l.33.165.33-.165.634.165a7.888,7.888,0,0,1,1.293-.165v.165l.33-.165h.3c.551.037.827.146.827.329l.962-.329a1.21,1.21,0,0,0,.633.165h.165l.66-.5q0,.553,1.432.66l.33-.164,1.459.164,1.129-.164.964.164.331-.164.962.164h.5q0,1.929-.33,1.928l.165.329v.634a.146.146,0,0,1-.165.165l.165.329a.146.146,0,0,1-.165.166.146.146,0,0,0,.165.165,24.543,24.543,0,0,1-.33,2.56,33.019,33.019,0,0,0,.5,5.835v1.129h.3v.3h-.468v.329l.165.8c-.219.036-.33.146-.33.329v1.79c0,.2-.11.3-.33.3a1.271,1.271,0,0,0-.467-.137l-.662.3v-.3l-.467.3a.146.146,0,0,1-.166-.165q-.5,0-.5.66l-.33-.164h-1.432a.438.438,0,0,1-.5.5v-.331a7.648,7.648,0,0,1-2.753.633v-.165l-.3.165h-.33a2.631,2.631,0,0,1,.166-1.294q-.166-1.349-.33-5.312a19.09,19.09,0,0,0,.164-2.092q0-.275-.962-.992H238.4q0,.248-.5.662a.146.146,0,0,1,.165.164h-.8a.145.145,0,0,1-.165-.164l-.33.164h-1.459l.165-.329-1.127.165h-2.093l-.964-.165c-.532.11-.8.221-.8.329l-.824-.164h-.965a21.456,21.456,0,0,0-2.421.164,5.184,5.184,0,0,0-1.295-.164,1.082,1.082,0,0,1-.467.164v-.164l-.33.164h-.166a.144.144,0,0,1-.164-.164l-.33.164h-1.129a12.37,12.37,0,0,1-1.763-.164,52.5,52.5,0,0,1-7.431,1.127l.165,1.928-.331-.166.166,1.624v.964a79.169,79.169,0,0,0-.963,10.488,1.11,1.11,0,0,0,.165.5l-.662,2.092.166.962v.166a.147.147,0,0,1-.166.165.146.146,0,0,0,.166.164,14.774,14.774,0,0,1-.468,3.221l.138.331a15.24,15.24,0,0,1-.3,2.257c.183,0,.34.266.468.8-.311,0-.468.165-.468.5l.166.329a7.829,7.829,0,0,0-.166,1.295,4.047,4.047,0,0,0,.3,1.293c-.075.422-.175.633-.3.633a1.114,1.114,0,0,1,.166.5,16.3,16.3,0,0,0,.138,2.093l-.3,3.221.166.329a6.226,6.226,0,0,1-.33,1.624c.11,0,.164.046.164.139a.144.144,0,0,0-.164.164h.164a.145.145,0,0,1,.166-.164v.164a5.824,5.824,0,0,0-.33,1.459l.164.33a1.209,1.209,0,0,0-.164.633v.66h.33v2.257l-.33.468v.166a14.767,14.767,0,0,0,.33,2.918l-.166.963a1.2,1.2,0,0,1,.166.633h-.5v1.156q8.23.136,12.113.137h1.459q1.128,0,5.972-.632v-.165h-.494l-.662.165c-.092,0-.137-.055-.137-.165l-2.754.329-.33-.164a1.219,1.219,0,0,1-.632.164.146.146,0,0,1-.166-.164l-.33.164h-3.551a.291.291,0,0,1-.33-.329h.33a1.118,1.118,0,0,0,.5.165q0-.275,2.421-.66a.145.145,0,0,1,.166.164,51.3,51.3,0,0,0,5.808-.632l.3.164.992-.164a1.109,1.109,0,0,1,.467.164l.963-.164h1.459l.166.632h-.166l-1.927.165v-.165a1.627,1.627,0,0,1-.826.165v.166h6.469v-.166q.165-2.256.5-2.257l-.164-.329v-.3l.3-.5h-.3a1.953,1.953,0,0,0,.3-.964q0-7.265.827-7.267a45.778,45.778,0,0,0,5.147-.494.146.146,0,0,0,.165.165c0-.2.055-.3.165-.3l.662.3c.017-.2.118-.3.3-.3H247.6a14.671,14.671,0,0,0-.468,2.725,1.464,1.464,0,0,1,.138.66q-.468,0-.632,7.735l-.166.331a1.2,1.2,0,0,1,.166.632v.165a.147.147,0,0,1-.166.166l.166.329v2.422a.146.146,0,0,0,.164.166q0,.962-1.293.962V219.9a45.4,45.4,0,0,1-8.4.8A13.566,13.566,0,0,1,233.064,222q-.192,0-8.7,1.624v-.164l-1.623.494a.146.146,0,0,1-.166-.165q-6.5,1.13-12.579,1.6v-.165l-.33.165h-4.047a3.431,3.431,0,0,1-1.761-2.422v-.166l-.33.166h-.33v-2.092h-.3v-.632a.147.147,0,0,1,.165-.166,3.564,3.564,0,0,1-.33-1.459q.633-6.193,1.623-11.616a.144.144,0,0,0-.164-.164q.687-5.479.962-5.478a6.505,6.505,0,0,1-.33-1.46h.33v-.329c0-.331-.054-.5-.164-.5q.329-2.283.5-5.148l-.165-.329.165-.965V192.3a1.217,1.217,0,0,0-.165-.634c.072-.44.174-.66.3-.66l-.137-.3.137-.331c0-.219-.045-.329-.137-.329l.137-1.624v-2.56l.166-.331h-.3c0-.221.156-.329.467-.329l-.164-.331.164-1.926a.145.145,0,0,1-.164-.165h.164a.146.146,0,0,0-.164-.166l.164-.632c0-.221-.054-.331-.164-.331l.164-1.129v-2.257h-.33c.037-.221.147-.329.33-.329a.145.145,0,0,0-.164-.165,14.017,14.017,0,0,1,.33-2.258,1.2,1.2,0,0,1-.166-.633,1.358,1.358,0,0,1,.166-.66,1.087,1.087,0,0,1-.166-.468,1.271,1.271,0,0,1,.166-.5,4.5,4.5,0,0,1-.166-1.129l.166-.329a1.1,1.1,0,0,1-.166-.468l.166-.331-.166-.329q0-2.561.662-2.56a.292.292,0,0,0-.33-.33l.165-1.13v-1.458a1.21,1.21,0,0,1,.165-.633,1.359,1.359,0,0,1-.165-.66v-.166l.3-.468-.137-1.127h.137l-.137-.33v-.166c0-.128.1-.724.3-1.789v-1.265c.035-.221.147-.331.33-.331H209.5a30.894,30.894,0,0,1,6.773-1.458,1.107,1.107,0,0,1,.164.5q.991,0,.991-.66l.3.165c0-.221.054-.331.164-.331.33.111.5.221.5.331q2.256-.275,2.256-.5m-16.3.33c.147,0,.3.165.468.494v.166a2.634,2.634,0,0,1-.962,2.091v.166l-.33-.166-.166.331c.111,0,.166.046.166.137h-.33a6.546,6.546,0,0,1,1.155-3.22m-.33,32.288q0,1.349.166,1.458a.146.146,0,0,1-.166.165l.166.8v.329c-.33,0-.5.213-.5.634h-.164v-.634a6.326,6.326,0,0,1,.33-1.954,1.2,1.2,0,0,1-.166-.632Zm12.251,5.175v1.761l-.138.331h.632v.165h-.494v1.129c0,.109-.046.164-.138.164l.3.965a2.744,2.744,0,0,0-.3,1.293l.138,1.129c-.093,0-.138.055-.138.166h.138a.146.146,0,0,1,.164-.166v.468l-.3-.137a4.749,4.749,0,0,1-.166,1.129c0,.092.055.137.166.137l-.166.827.166.8-.33.165a51.307,51.307,0,0,0-.66-6.3q.329-4.019,1.129-4.018m-.3,18.717h.965q2.724.634,6.607,1.295,0,.468-2.561.468a18.183,18.183,0,0,1-4.706-.468v-.5l.494.33.166-.33q0-.468-.965-.468Zm3.387-40.518v.33q0,.221-.331,2.587v.633a.145.145,0,0,0,.165.164l-.165.331v.468a8.5,8.5,0,0,1-.165,1.624v1.129H218.7c0,.311.055.468.165.468l-.3,2.421c.092,0,.137.055.137.165-.092,0-.137.055-.137.166h.137l.33-.166v.166a5.9,5.9,0,0,0-.467,1.129l.137.826c-.2,0-.3-.111-.3-.331v-4.844a1.359,1.359,0,0,1,.165-.66l-.165-.3q.165-.5.3-.5a12.539,12.539,0,0,1-.3-1.926h.165l-.165-.33v-.165l.3.165v-.165a1.4,1.4,0,0,0-.137-.633,1.582,1.582,0,0,0,.137-.662v-.3l-.137-.331c.2,0,.3-.055.3-.164v-.5c.165-.53.33-.8.5-.8m11.78-18.415a1.114,1.114,0,0,0,.5.165,4.758,4.758,0,0,1,1.265-.165q0,.248-.467.494l-.331-.164a12.734,12.734,0,0,1-2.091.827l-.8-.166h-.166a8.171,8.171,0,0,0-1.459.166l-.33-.166a.147.147,0,0,0-.165.166l-.8-.166h-.331a2.845,2.845,0,0,0-1.294.3,1.228,1.228,0,0,0-.467-.137l-.66.137c-.111,0-.166-.046-.166-.137a6.937,6.937,0,0,0-1.6.3,1.281,1.281,0,0,0-.494-.164c-.533,0-.8.164-.8.5a1.732,1.732,0,0,0-.8-.331q0-.275,4.845-1.293v.165a1.1,1.1,0,0,1,.467-.165,1.281,1.281,0,0,1,.5.165l.962-.165h.633a1.271,1.271,0,0,1,.662.165,1.206,1.206,0,0,1,.632-.165c.33,0,.5.055.5.165Zm3.222,13.57a1.371,1.371,0,0,0,.66.164v.166c-.441,0-.66.11-.66.33a.147.147,0,0,1-.166-.165,11.115,11.115,0,0,1-1.761.468,1.113,1.113,0,0,0-.5-.166l-.964.5a.145.145,0,0,1-.165-.164q-.11,0-4.019.5V168.9l-.33.165h-.164v-.331a.608.608,0,0,0,.494-.329l.3.165a2.661,2.661,0,0,1,1.294-.331.147.147,0,0,0,.166.166q0-.58,5.174-.8v.166Zm14.533,56.814h1.129v1.624a9.413,9.413,0,0,0-2.092.33v-.33a7.422,7.422,0,0,1-2.918.5,1.091,1.091,0,0,0-.468-.166c0,.312-.219.468-.66.468v-.165l-.3.165h-.165a.146.146,0,0,1-.165-.165,22.7,22.7,0,0,1-4.678.66h-.5a.146.146,0,0,1-.165-.165,1.834,1.834,0,0,1-.964.331,1.264,1.264,0,0,1-.5-.166,1.834,1.834,0,0,1-.964.331h-1.127a9.645,9.645,0,0,0-1.46.137,1.384,1.384,0,0,0-.633-.137,5.615,5.615,0,0,0-1.762.3,11.877,11.877,0,0,0-2.283-.164V227.5a25.415,25.415,0,0,0,4.211-.992l4.678-.8a1.125,1.125,0,0,0,.5.164q2.231-.441,9.827-1.129a1.278,1.278,0,0,0,.5.165c0-.329.266-.5.8-.5a.147.147,0,0,0,.165.166Zm-15.5-11.285v.164l.33-.164h.8v.962h-.632l-1.955-.165v.331a8.073,8.073,0,0,0-1.6-.166c.017-.221.119-.33.3-.33a.146.146,0,0,1,.165.165,11.14,11.14,0,0,1,2.587-.8m4.211-44.868.8.137v.331q0,2.753-.33,2.753l.165.329v.139h-.33l.165.329a31.049,31.049,0,0,1-1.129,4.681.146.146,0,0,1-.165.165h-.33l-.3-.165q.467-2.422.8-6.138l-.165-.3a1.971,1.971,0,0,0,.33-.992v-.8q.275,0,.5-.468m-1.156,36.473,1.624.165-.33.467.165.33a34.552,34.552,0,0,0-1.129,6.47,1.394,1.394,0,0,0-.632.137q.165-1.6.164-2.394v-.826l.138-.8c-.2,0-.3-.109-.3-.33a11.916,11.916,0,0,1,.3-1.294c0-.11-.046-.165-.138-.165l.138-.8Zm10.68-29.866h.138a.146.146,0,0,1,.165.164l.33-.164h.165v.164q0,.911-1.459,1.46H246.3a.146.146,0,0,1-.165-.165,16.132,16.132,0,0,1-2.257.633h-1.927l-1.954.165V176.8l-.3.165h-.33v-.33h.33q1.595,0,1.6-.468l.33.165,1.459-.331a.147.147,0,0,0,.165.166c0-.166.156-.33.468-.5V176a24.247,24.247,0,0,1,3.413-1.129Zm3.221-12.91h.33q-.165,1.762-.33,1.762a1.454,1.454,0,0,1,.165.824h-.165v.166h.33a4.968,4.968,0,0,1-.33,1.431l.33,1.129h-.33v.331l.165.33h-.33v.33a1.1,1.1,0,0,1,.33.632,4.873,4.873,0,0,0-.66,1.789l.33.634-.5,1.129a.146.146,0,0,0,.165.165,10.523,10.523,0,0,0-.33,2.421l.165.633-.3-.165q0,.5-.33.5h-.66v-.5l.165-.3a.147.147,0,0,1-.165-.166l.66-.5h.33q0-.8-.5-.8.166-.5.33-.5l-.165-.8c.018-.422.129-.634.33-.634l-.165-.329c.018-.533.12-.8.3-.8l-.138-.329v-.331l.138-.329h-.3a1.947,1.947,0,0,0,.3-.964v-1.294l.33.165v-.165a1.1,1.1,0,0,1-.165-.468q.5,0,.5-2.753l-.165-.331a7.2,7.2,0,0,0,.33-1.926m-.964,41.977h.633l-.165,1.6v2.092a8.26,8.26,0,0,0,.165,1.46,1.274,1.274,0,0,0-.165.494c.221.037.33.148.33.331,0,.788-.165,1.211-.5,1.265q-.3-5.34-.3-7.24m1.129-45.858h.3a1.479,1.479,0,0,0,.165.8h-.3a1.274,1.274,0,0,0,.138.5q-.137,1.157-.138,1.293l.138,1.129a1.1,1.1,0,0,0-.468-.165.146.146,0,0,1,.165-.164l-.165-.8v-.164a.146.146,0,0,1,.165-.165,1.1,1.1,0,0,1-.165-.468l.165-.66-.165-.331.33-.632a.146.146,0,0,1-.165-.165" transform="translate(26.044 -104.529)" fill="#2ffe04"/>
  <path id="Path_24" data-name="Path 24" d="M239.616,145.61a8.643,8.643,0,0,0,.585,3.125H239.9a13.237,13.237,0,0,0,.305,2.667h-.153a3.493,3.493,0,0,1,.305,1.2q-.153,1.321-.153,1.5a18.153,18.153,0,0,1,.3,2.819,4.168,4.168,0,0,1-.152,1.042,4.7,4.7,0,0,1,.152,1.193v.305l-.152.89a1.156,1.156,0,0,1,.152.457h-.152l.152.278a.135.135,0,0,1-.152.154,5.115,5.115,0,0,1,.3,1.193h-.153l.153.3v.305a1.113,1.113,0,0,1-.153.585l.305.889h-.153a1.17,1.17,0,0,0-.61-.279v-3l-.153-.737h.153q-.254,0-.432-5.207l.153-.306a7.538,7.538,0,0,1-.153-1.345V152.6a.135.135,0,0,1,.153-.154,6.848,6.848,0,0,1-.305-1.474h.153a.135.135,0,0,0-.153-.152,8.313,8.313,0,0,1,.153-.89l-.153-1.345h.153a5.106,5.106,0,0,1-.3-1.194.134.134,0,0,1,.152-.153l-.152-.736v-.61a.291.291,0,0,1,.3-.28m1.017,34.546h.3a.135.135,0,0,1-.152.154c.067.593.168.888.3.888q-.153,1.652-.3,1.652l.152.278q-.38,0-.736,6.706-.153,0-.153.61l-.305-.152a7.419,7.419,0,0,1,.458-2.541l-.153-.3.153-.585-.153-.3q.127-.584.305-.584l-.153-.305a.135.135,0,0,1,.153-.153l-.153-.305.585-4.318a1.109,1.109,0,0,1-.153-.584Zm.178-13.412h.279v.61l-.127.89a5.181,5.181,0,0,1,.279,1.93v.761h.3l-.3,1.169a.135.135,0,0,1,.153.153q-.433,0-.432.305h.279v.456h-.279l.127.28a1.363,1.363,0,0,1-.127.61l.279.584c-.068.594-.162.889-.279.889l.279.916-.153.584a17.569,17.569,0,0,1,.153,1.93h-.279a1.027,1.027,0,0,0-.153-.432.134.134,0,0,1,.153-.152l-.305-2.54a.135.135,0,0,1,.153-.154,7.247,7.247,0,0,1-.153-1.193q0-1.474.153-3.557a11.6,11.6,0,0,1-.153-1.651l.153-.305a1.007,1.007,0,0,1-.153-.432l.153-.3v-.457h.153l-.153-.28Zm1.778-37.237c.389.152.585.3.585.458a.991.991,0,0,0-.432.152l.279,3.125-.153.889.153,1.042a1.168,1.168,0,0,1-.153.457,7.161,7.161,0,0,1,.153,1.321v.305a.135.135,0,0,1-.153.152l.153.305v.153c0,.085-.051.126-.153.126l.305,1.651h-.305l.153.305-.279,1.042a2.749,2.749,0,0,0,.432,1.474c-.1.712-.153,1.109-.153,1.193l.153.306a2.354,2.354,0,0,0-.305,1.193l.153.305q-.153.127-.153,1.193h-.127a4.507,4.507,0,0,0-.153-1.193l.153-.305a7.248,7.248,0,0,1-.153-1.193.135.135,0,0,1,.153-.153l-.153-.889q0-.356-.305-6.1a.269.269,0,0,0-.3-.305l.153-.762v-.279l-.153-.3h.153l-.153-.305V130.7h.153l-.153-.735v-.306a4.633,4.633,0,0,0,.61-.152m.279,33.224h.457v.432a.135.135,0,0,1-.152.154q.305,1.192.457,1.193l-.153.761v.129a15.118,15.118,0,0,1-.3,3.886,1.109,1.109,0,0,1,.152.584v1.042l.153.305h-.153l.153.305v.152h-.736v-.762c0-.287-.051-.432-.153-.432l.279-2.539a1.155,1.155,0,0,1-.127-.432h.127l-.127-.305a1.345,1.345,0,0,1,.127-.458,8.976,8.976,0,0,1-.127-1.345v-.737c0-.1.042-.153.127-.153,0-.1-.042-.152-.127-.152a5.906,5.906,0,0,1,.279-1.2,1.007,1.007,0,0,1-.153-.432m-.127-15.494h.127q.153,1.754.153,2.54l-.279.152Zm7.874-17.578c.508.1.762.2.762.306a5.623,5.623,0,0,1,1.93-.306l.153.306a1.153,1.153,0,0,0-.61.278H252.7a1.281,1.281,0,0,1-.584-.127l-.585.279-.305-.153a4.58,4.58,0,0,1-.61.153,1.113,1.113,0,0,0-.585-.153.27.27,0,0,1-.3.305.135.135,0,0,1-.153-.153l-.736.153h-.153a.27.27,0,0,1-.305-.305,1.006,1.006,0,0,1-.432.153l-.761-.153a4.418,4.418,0,0,1-1.168.153v.3a.269.269,0,0,1-.305-.3l-.762.457h-.279l-.153-.736v-.305H246.3a7.47,7.47,0,0,1,1.346.154,1.747,1.747,0,0,1,.889-.154,1.15,1.15,0,0,1,.457.154,1,1,0,0,1,.432-.154v.154Zm-5.208,2.973h.736l.306.152a.134.134,0,0,1,.152-.152,1.68,1.68,0,0,0,.153.889,1.25,1.25,0,0,0-.153.61l.153.736h-.3l.152.762v.127q0,1.271.153,3.734H246.6a6.221,6.221,0,0,1,.458,1.651q-.2,0-.61,1.321a1.178,1.178,0,0,1,.152.458c0,.491-.1.735-.3.735l.153.763a7.363,7.363,0,0,1-.153,1.168,11.372,11.372,0,0,1,.3,1.5c-.3,0-.458.1-.458.305v.3l.154.28h-.279v.152h.279a.135.135,0,0,1,.153-.152l.152.3v.457l-.584-.3v.153c.084.71.126,1.109.126,1.193a1.3,1.3,0,0,0-.126.584h-.305v-1.193a.135.135,0,0,1,.153-.152l-.305-1.779.153-.3-.153-.585a7.242,7.242,0,0,0,.153-1.194l-.153-.61c0-.084.051-.127.153-.127l-.153-1.8v-2.668a.134.134,0,0,1,.153-.152l-.305-.61.153-.279-.153-.916.153-.278a1.247,1.247,0,0,1-.153-.61l.153-.279a1.166,1.166,0,0,1-.153-.458h.153l-.153-.3v-.737c0-.305.051-.457.153-.457l-.153-.736Zm.458,22.048a1.017,1.017,0,0,0,.432.152v.152a.136.136,0,0,1-.154.154l.154.3v1.625a.135.135,0,0,0,.153.154l-.153.3V159a.246.246,0,0,1-.279-.279v-.762a1.3,1.3,0,0,1,.126-.585,8.477,8.477,0,0,1-.278-1.8h.153l-.153-.279Zm2.235,24.74h.128a1.113,1.113,0,0,0,.152.585.133.133,0,0,1-.152.152,14.067,14.067,0,0,0,.3,1.627l-.153.3.153.89v.152a.134.134,0,0,1-.153.153l.153.305v.432a11.6,11.6,0,0,1-.153,1.651.135.135,0,0,0,.153.152l-.153,1.042a14.428,14.428,0,0,0,.305,3.277,7.88,7.88,0,0,0-.153,1.5v.735a.135.135,0,0,1-.153.153l.153.279a4.517,4.517,0,0,1-.153,1.194l.153.61a7.744,7.744,0,0,1-.3,2.084,4.675,4.675,0,0,1,.3,1.345h-.153l.153.28v.3a7.571,7.571,0,0,1-.153,1.347,1.018,1.018,0,0,1,.153.457l-.3.127a.134.134,0,0,0,.152.153l-.152.611q.305,2.361.3,2.514a9.262,9.262,0,0,0-.153.914,4.421,4.421,0,0,1,.153,1.169h-.153l.153.3v2.235a1.255,1.255,0,0,1-.153.611,1.011,1.011,0,0,1,.153.432.135.135,0,0,0-.153.153c.2,0,.305.244.305.736h1.194a.134.134,0,0,1,.152.153.135.135,0,0,0,.153-.153q2.745.153,4.013.153h1.779a11.61,11.61,0,0,0,1.65-.153q1.042.2,1.042.457a5.787,5.787,0,0,0-1.651.305c-.085,0-.127-.051-.127-.153a17.3,17.3,0,0,1-3.149.431V211.3l-.279.126h-1.652a3.555,3.555,0,0,0-1.625.306q-3.581,0-3.581-1.194v-1.779a.135.135,0,0,1,.153-.152l-.153-.305q0-.176.153-1.473l-.153-.3a3.633,3.633,0,0,0,.3-1.651v-.128a1.161,1.161,0,0,0-.152-.61l.152-.3a1.006,1.006,0,0,0-.152-.432l.152-.889c0-.305-.05-.458-.152-.458l.152-.735v-.763a1.106,1.106,0,0,0-.152-.584,8.143,8.143,0,0,0,.305-2.693h.278l-.152-.28a11.445,11.445,0,0,1,.61-2.691,1.153,1.153,0,0,0-.61-.153,58.885,58.885,0,0,0,.761-7.9l-.152-.278a1.253,1.253,0,0,0,.152-.61,6.49,6.49,0,0,0-.3-1.779.135.135,0,0,1,.153-.153l-.153-.737v-1.042a5.512,5.512,0,0,1,.457-2.235m33.5-47.22q5.488.889,6.123.889l.278-.154c.8.1,1.194.2,1.194.306l.305-.153h.432a.135.135,0,0,1,.153.153,1.149,1.149,0,0,1,.457-.153c.2,0,.3.05.3.153l1.042-.153h1.194c.085,0,.128.05.128.153l.3-.153a1.158,1.158,0,0,1,.458.153l.888-.153a20.564,20.564,0,0,1,5.513,1.929,10.281,10.281,0,0,1,2.972,2.084l1.8,2.236a9.315,9.315,0,0,1,.737,2.387q.965.685,1.5,3.429a17.211,17.211,0,0,1,1.042,4.319,1.591,1.591,0,0,0-.153.888q.483,0,.585,2.237h-.153l.153.3v1.347q0,1.776-.3,1.777a.135.135,0,0,0,.152.154q0,1.829-2.236,7.138a16.766,16.766,0,0,1-5.512,6.4q-3.988,4.013-6.1,4.47-5.969,3.276-7.595,3.276-1.5,1.2-5.054,1.2l-5.513.761c0,.1-.152.153-.457.153a1.026,1.026,0,0,0-.457-.153q0,.331-2.364.89l-.152.3q1.7.153,5.055,3.709a16.6,16.6,0,0,1,2.819,2.971q.407,0,.762,1.066a27.263,27.263,0,0,1,3.125,3.278q.305,0,1.5,1.625c.153,0,.4.3.736.889q.865.229,2.668,3.276,3.3,4.622,6.553,8.638.558.076,1.8,3.429a1.023,1.023,0,0,1-.61.3q-1.881-1.3-5.055-3.123,0-.356-.585-.762,0-.229-.762-.737,0-1.092-4.47-2.667a7.337,7.337,0,0,1-3.123-3.277q-.305,0-3.277-3.151-.178,0-1.194-1.04a97.855,97.855,0,0,0-7.442-7.138,17.522,17.522,0,0,1-1.626-2.971q-2.641-2.845-3.886-2.846l.152-.3-.457-.28h-.279a6.769,6.769,0,0,1-2.083.736l-.305-.153-2.691.763a1.022,1.022,0,0,0-.432-.154q-.712,0-1.5,3.862a3.292,3.292,0,0,0,.305,1.346c-.085.594-.187.889-.305.889l.153.305a6.631,6.631,0,0,1-.3,1.626l.152.761-.888,4.751a1.521,1.521,0,0,1,.152.761q-.458,0-.61,2.236l.152.889v.432l-.152.915c0,.084.051.127.152.127l-.584,3.277a1.168,1.168,0,0,0,.127.457q0,2.134-1.778,2.387a5.122,5.122,0,0,1-1.346.153h-.737v-.153a18.3,18.3,0,0,0-.3-3.429l.152-.3-.152-.737.152-.61a1.123,1.123,0,0,1-.152-.585l.152-.305a8.845,8.845,0,0,1-.3-1.32l.153-.305a.135.135,0,0,0-.153-.152q0-.305.153-.305l-.28-4.166c0-.1.043-.152.128-.152l-.128-.89q0-.863-.152-3.733h.152a3.306,3.306,0,0,1-.3-1.042l.153-.737q-.153-.456-.3-.457l.152-1.042q0-.127-.152-1.194h.152a3.271,3.271,0,0,1-.305-1.042h.154l-.154-.278v-.305a23.147,23.147,0,0,0-.3-4.927l.152-.28a1.175,1.175,0,0,1-.152-.457h.152l-.735-4.9.152-.3a26.552,26.552,0,0,1-.61-5.512q.153-3.125.153-4.318l.153-.305a31.876,31.876,0,0,1-.737-5.208,1.163,1.163,0,0,0,.153-.457,1.016,1.016,0,0,0-.153-.432,1.159,1.159,0,0,1,.153-.61q-.305-5.259-.61-7.6a1.012,1.012,0,0,1,.153-.431,15.728,15.728,0,0,0-.458-2.693v-.153a.134.134,0,0,1,.153-.152l-.153-.305c0-.084.051-.127.153-.127l-.153-.305v-1.5a8.8,8.8,0,0,1-.432-2.514v-.458l-.3-.456q0-.483-.153-4.319,0-2.819.762-2.819a26.678,26.678,0,0,0,3.4-.61,35.983,35.983,0,0,1,8.357.762.136.136,0,0,0,.153-.153l.736.153q3.428-.305,4.013-.306v.154l.305-.154h.152a.136.136,0,0,1,.153.154.135.135,0,0,0,.153-.154l.736.154h1.194a.134.134,0,0,1,.152.153l.28-.153h1.193a.134.134,0,0,1,.153.153,33.929,33.929,0,0,1,4.776-.61.135.135,0,0,1,.153.152q5.995-.584,6.248-.584m-27.1-5.36.152.585a.27.27,0,0,1-.3-.305l-.305.153H252.7l.153-.3-.585.3-1.8-.153-1.321.153a1.162,1.162,0,0,0-.457-.153v-.152a2.068,2.068,0,0,0,.889-.128l.61.128a40,40,0,0,1,4.319-.128m3.581,2.362.279.152.3-.152a.135.135,0,0,1,.153.152l.737-.152h.609c.085,0,.127.051.127.152l.305-.152.61.152.279-.152a10.338,10.338,0,0,0,2.844.457,4.12,4.12,0,0,0,.585-.152l6.274.61a1.165,1.165,0,0,0,.279-.61h1.194l1.042-.154v.154a.135.135,0,0,0,.152-.154l.737.154.61-.154v.305h.153a.135.135,0,0,0,.153-.152,1.013,1.013,0,0,0,.431.152v.585h-.279l.128-.278-1.779.735q0-.329-.736-.457a5.129,5.129,0,0,1-1.346.305h-.89q0,.127-1.5.457,0-.609-2.819-.61v.153l-.305-.153h-.3l-.432.3v-.3q-2.236-.153-3.276-.153l-.306.153-.3-.153a7.246,7.246,0,0,1-1.193.153q-2.034-.278-2.236-.279v.127l-.279-.127h-.458c-.3,0-.457.043-.457.127a26.186,26.186,0,0,1-2.667-.278l-.305.152a1.1,1.1,0,0,0-.585-.152v-.458c.085,0,.128.051.128.152a20.276,20.276,0,0,1,4.344-.457m4.012,56.315h.306a.136.136,0,0,1-.153.153,23.353,23.353,0,0,1,.278,2.819l-.126.762a1.154,1.154,0,0,1,.126.432H262.4l.126.305a13.344,13.344,0,0,0-.278,1.651c0,.084.05.126.153.126a48.1,48.1,0,0,1-.915,6.859h-.279v.153c.185,0,.279.05.279.153a16.037,16.037,0,0,1-.279,2.235.269.269,0,0,1-.305-.3V197l.153-.915a1.356,1.356,0,0,1-.153-.735v-.585l.585-1.651v-2.668a17.948,17.948,0,0,0,.608-4.927m-.152,21.007q.305,0,.583,2.667l-.278.153h-.458v-.585a1.265,1.265,0,0,0-.152-.61,3.477,3.477,0,0,0,.3-1.625m3.429-19.229h.305a1.007,1.007,0,0,0,.432.153v.3a1.026,1.026,0,0,0-.305.61,47.174,47.174,0,0,1,.458,5.055l-.153.585c.136,1.117.236,1.813.3,2.082a12.037,12.037,0,0,0-.152,1.653v4.011l-.153.89a1.26,1.26,0,0,1,.153.61l-.153.305a.135.135,0,0,0,.153.152l-.153.737q0,1.472-.153,4.47h-.279v-2.693c0-.1.042-.152.127-.152l-.127-.28v-.761a2.123,2.123,0,0,0-.153-1.042,7.264,7.264,0,0,0,.153-1.347v-4.013c0-.1.042-.153.127-.153,0-.1-.043-.152-.127-.152l.127-.584q0-1.45.153-3.126-.153-1.829-.153-3.58l-.127-.305a1.172,1.172,0,0,0,.127-.432l-.127-.3c0-.1.042-.154.127-.154a9.308,9.308,0,0,0-.432-2.54m.305-3.276A38.382,38.382,0,0,1,268.8,187.9a14.562,14.562,0,0,0,2.82,3.277,7.81,7.81,0,0,1,1.193,1.625v.153a54.112,54.112,0,0,1-4.47-4.47,7.758,7.758,0,0,1-1.778-1.626,3.876,3.876,0,0,1-1.042-2.539c.1,0,.153-.1.153-.305m2.082,12.064a3.994,3.994,0,0,1,1.042,1.653h-.3v1.193a8.93,8.93,0,0,0-.584,2.235q-.153,0-.154,1.347h-.152v-.915a23.876,23.876,0,0,0,.305-2.819,1.031,1.031,0,0,1-.154-.457h.154c0-.086-.052-.128-.154-.128l.154-.61a8.633,8.633,0,0,0-.305-1.042,1.017,1.017,0,0,0,.152-.458m1.932.154c.389.2.583.458.583.761v.127h-.127c0-.169-.153-.415-.457-.735Zm.583.888c.2.052.407.305.611.763h-.153q-.331,0-.458-.763m.153,4.039h.305v.305a30.249,30.249,0,0,0,.3,5.055l-.152.3a7.236,7.236,0,0,1,.152,1.2,1,1,0,0,1-.152.43l.152.305a2.36,2.36,0,0,0-.3.89h-.153v-1.779c0-.118-.1-.669-.305-1.651V204.44a.135.135,0,0,1,.153-.153l-.153-.3v-.432a1.159,1.159,0,0,1,.153-.61l-.153-.305.153-.278-.153-.306Zm.305-6.248h.153a21.586,21.586,0,0,1,3.708,4.165q.3,0,1.651,1.779c.2,0,.4.244.585.736a11.47,11.47,0,0,1,2.108,2.236q1.625,1.8,1.625,2.236a2.328,2.328,0,0,1-1.042-.89l-1.778-1.346q-2.285-2.261-2.54-3.277a1.792,1.792,0,0,1-.889-1.042l-.305.153h-.153a2.364,2.364,0,0,0-1.193-1.929q0-.407-1.042-1.347a2.613,2.613,0,0,0-.889-1.474m2.691-2.109h.128a14.107,14.107,0,0,1,1.346,1.5q0,.2,1.347,1.347,2.768,3.428,3.125,3.428v.153l-.153.279a11.059,11.059,0,0,1,3.43,3.125q6.146,6.122,9.4,8.053l2.515,1.93v.3h-.153c-.085,0-.127-.051-.127-.153l-.762.153a1.011,1.011,0,0,1-.432-.153.135.135,0,0,0-.153.153q-1.167,0-3-2.083l-2.668-2.388q-1.651-1.371-1.651-1.777a1.867,1.867,0,0,1-1.321-1.347q-.66-.229-3.581-3.583-2.134-2.261-4.013-4.011a28.48,28.48,0,0,0-2.845-3.278c0-.118-.3-.466-.888-1.042v-.3q.456,0,.456-.305m1.474,10.745h.153l7.291,6.553v.153q-2.363-.356-2.362-.61c0-.254-.254-.406-.762-.458a5.031,5.031,0,0,1-1.474-1.93q-.483-.482-2.845-3.557Zm21.007-76.584.305.152.736-.152.153.3v.153a.269.269,0,0,1-.3.3v-.3a10.449,10.449,0,0,1-2.973.736h-.889q0,.153-.761.305c-.086,0-.128-.051-.128-.154l-.762.154q-2.236-.1-2.235-.305a.727.727,0,0,1-.889,0,5.057,5.057,0,0,0-1.194.305.719.719,0,0,0-.889,0q-3.252-.305-8.942-.584v-.305h.153q1.067.151,1.193.152c.035-.2.136-.3.305-.3l.736.3a1.036,1.036,0,0,1,.458-.152v.152l.279-.152h.762c.085,0,.127.051.127.152l.305-.152h.61a1.126,1.126,0,0,1,.585.152,1.028,1.028,0,0,1,.457-.152v.152l.279-.152h.305a.134.134,0,0,1,.152.152,3.626,3.626,0,0,1,1.651-.3h1.626a.134.134,0,0,1,.152.153,1.012,1.012,0,0,1,.458-.153l1.04.153.737-.153a1.022,1.022,0,0,0,.432.153l.762-.305a.134.134,0,0,0,.151.153v-.305H291a.292.292,0,0,1,.279.305,1.172,1.172,0,0,1,.458-.153,1.016,1.016,0,0,1,.432.153l.914-.153c.085,0,.128.051.128.153l.3-.153,1.042.153c.9-.068,1.346-.168,1.346-.305Zm-9.829,55.272q.533,0,4.165,5.97c.1,0,.153.144.153.432h-.3a23.9,23.9,0,0,0-3.277-4.013l-1.626-2.083v-.153Zm2.083,7.443a4.669,4.669,0,0,1,1.93,1.8c.151,0,.457.348.914,1.042a4.461,4.461,0,0,1,1.321,1.321q3,3.048,3,3.43a17.688,17.688,0,0,1,2.362,2.387,15.787,15.787,0,0,1,2.54,3.734q1.929,2.388,1.93,2.971H302a37.16,37.16,0,0,1-5.512-6.248q-2.846-3.759-7.291-8.941a5.463,5.463,0,0,1-1.04-1.347Zm10.871,22.2h.153a1.19,1.19,0,0,1,.458.152l.888-.152.305.152c.085,0,.127-.05.127-.152l.762.152,1.347-.152q1.421,1.3,1.472,1.651h-.3l-.585-.153a.135.135,0,0,0-.152.153l-4.623-.61v-.432l.3-.458a.134.134,0,0,1-.153-.152m0-81.487h2.388q1.421,0,3.733,1.955.254.891.89.89v.152h-.458a2.958,2.958,0,0,0-1.346-.761q-1.271-.482-1.321-.737a19.229,19.229,0,0,1-3.734-1.346h-.153Zm5.817,55.121H305v.153q-1.091.153-3,2.235v.889q.558,0,1.955,2.083h.28v.763a28.618,28.618,0,0,0,1.651,4.013,4.4,4.4,0,0,0,1.042,2.083c.1,0,.153.151.153.456h-.305q-.863-1.93-6.1-8.941a2.857,2.857,0,0,1-.762-1.5h.458q0-.176-1.043-.584l-.3-.458v-.152l.762.152a32.146,32.146,0,0,0,5.055-1.193m-.61-57.635h.457a1.36,1.36,0,0,1,.736.152l.915-.152c.983.017,1.473.109,1.473.278l.305-.127a1.124,1.124,0,0,0,.432.127l.3-.127a2.879,2.879,0,0,0,1.346.278v.306h-3.123q-.509-.46-2.845-.458Zm4.775,36.932h.458q-1.752,4.015-2.54,4.013,0,.076-2.083,3c-.136.457-.339.7-.61.737v-.305a19.052,19.052,0,0,1,2.54-3.862q1.194-1.04,1.194-1.8c.2,0,.3-.093.3-.28l-.152-.3a2.033,2.033,0,0,1,.888-1.194m2.694,2.82v.152a4.617,4.617,0,0,1-1.652,3.278q-2.261,3.428-4.012,3.428a20.193,20.193,0,0,1,2.235-2.387l1.346-1.472q0-.789,1.474-2.237a.72.72,0,0,1,.611-.761m-4.319-36.325h.279q3.074.914,3.429,2.083h.153l-.153.28q.763,0,1.194,3.149l1.5,4.6-.153.305a7.686,7.686,0,0,1,.585,2.693,7.363,7.363,0,0,1-.153,1.168v.762h-.128v.153c.017.185.11.278.28.278v-.431h.152q.456,0,.61,2.668h-.152l.152.3v.154a7.649,7.649,0,0,1-.152,1.346l.3.737a10.211,10.211,0,0,0-.3,2.54v2.235a.136.136,0,0,1-.154.153c0,.085.052.128.154.128q-.129,1.652-.458,1.651l-.584-4.166q.151-1.574.152-2.54h.128a35.634,35.634,0,0,0-.737-4.9l.153-.3q-1.729-7.976-2.972-9.831a24.435,24.435,0,0,0-3.125-5.208m.279,8.636a30.958,30.958,0,0,1,1.194,2.973q-.407,0-1.474-2.82Zm1.042-3.276q.609.025,1.651,2.515h.153v.153a.135.135,0,0,1-.153.152,5.727,5.727,0,0,1,.585,1.779h-.28Zm2.236,47.958v.152q0,1.779-.28,1.779l.128.736v1.066a8.538,8.538,0,0,1-.128,1.322,1.759,1.759,0,0,1,.128.761c-.288,0-.432-.65-.432-1.955l.153-.279a7.847,7.847,0,0,1-.61-2.54q0-.28,1.042-1.042m1.346-27.408h.153q0,.584.153.584l-.153.762v1.194l-.153.278c.2.035.305.137.305.306q-.712,2.234-1.651,2.235l-.28.152v-.152q.534-.558,1.322-4.623,0-.736.3-.736m2.083-27.713h.458c0,.406.143.61.431.61a1.148,1.148,0,0,1,.457-.152.292.292,0,0,0,.305.278c.1,0,.153-.042.153-.127a2.505,2.505,0,0,1,1.93,2.515q-.153,2.032-.153,2.844a1.022,1.022,0,0,1,.153.432q-.254,0-1.194-3.429a6.383,6.383,0,0,1-2.54-2.972" transform="translate(31.318 -108.067)" fill="#2ffe04"/>
  <path id="Path_25" data-name="Path 25" d="M298.935,220.438h.533a16.689,16.689,0,0,0,4.547,4.114v.28a27.451,27.451,0,0,1-5.08.406l-.128-.813v-1.244l.128-1.627a.246.246,0,0,1-.28-.278h.28Zm3.555-53.064a1.15,1.15,0,0,0,.432.127v.254q-.305,0-.432.559h-.279l.153.279a1.491,1.491,0,0,1-.686.839,2.692,2.692,0,0,1-.431,1.345v.712h-.254v.1l.153.279q-.687,0-1.245,1.677h-.153v.381l.279.432v.153l-.406-.305h-.153c-.153.915-.33,1.371-.533,1.371v-.406c0-.084.05-.127.152-.127a6.862,6.862,0,0,1-.279-2.057l.128-.686a4.374,4.374,0,0,1-.128-.965.963.963,0,0,1,.128-.406c0-.1-.043-.154-.128-.154a1.143,1.143,0,0,1,.128-.406q-.129-1.5-.128-2.616V167.5h3.149a1.08,1.08,0,0,0,.534-.127m-3.4,40.591h.1a6.042,6.042,0,0,0,.279,1.372,1.133,1.133,0,0,0-.127.559q.558.356.559,1.625l-.153.28a1.06,1.06,0,0,1,.153.558q0,.129-.153.129a5.234,5.234,0,0,1,.534,2.335c-.2,0-.423-.456-.66-1.371v-.432q-.229,0-.685-2.058h.152l-.152-.253q.151-1.854.152-2.743M323.371,167.1h.38c.1,0,.153.043.153.127a1,1,0,0,1,.407-.127,8.164,8.164,0,0,0,.838.127l.279-.127a.991.991,0,0,1,.381.127,18.772,18.772,0,0,1,1.93-.127,34.889,34.889,0,0,1,8.662,2.591l2.438,1.245-.128.278q1.83,0,7.7,5.208.991.458,2.592,3.149a11.141,11.141,0,0,0,1.523,3.277,92.932,92.932,0,0,1,.966,11.812l.127.279a1.242,1.242,0,0,0-.127.56v.278a4.422,4.422,0,0,0,.127,1.066q-.126,1.652-.28,1.651l.154.305a29.792,29.792,0,0,1-1.524,6.833,12.163,12.163,0,0,0-1.245,3.43,20.42,20.42,0,0,1-1.777,4.114q-3.686,4.98-4.8,5.487-5.055,3.252-6.706,4.116a5.71,5.71,0,0,1-2.209.965v.279h-.28a.112.112,0,0,1-.125-.128,25.153,25.153,0,0,1-3.71.813l-.685-.153h-2.616l-.66.153v-.153a1.537,1.537,0,0,1-.711.28.112.112,0,0,1-.127-.128l-.686.128h-.966q-7.543-1.476-7.544-2.465a28.391,28.391,0,0,1-5.054-3.3A13.2,13.2,0,0,1,307.7,216.6a17,17,0,0,1-2.058-3.963q-.151,0-.66-1.524-.356,0-.711-1.092a35.494,35.494,0,0,1-2.591-4.673l-.965-2.592q-.534-3-.534-3.43h.1c0-.1-.034-.152-.1-.152l.1-.965v-.941a19.375,19.375,0,0,1,.864-5.359V190.26a.937.937,0,0,0-.153-.533,53.324,53.324,0,0,0,1.092-6.6,20.272,20.272,0,0,1,2.057-5.208q.2,0,1.092-1.5,1.523-1.067,1.524-1.651a66.505,66.505,0,0,1,9.855-6.578,5.9,5.9,0,0,1,2.21-.813c0-.1.042-.153.127-.153h.407q3.428.025,3.429.279c.389-.051.585-.185.585-.406m-22.124,40.59a46.324,46.324,0,0,0,2.616,4.522,2.242,2.242,0,0,0,.559,1.245v.126h-.406q-2.338-3.428-2.338-4.52c-.322-.727-.55-1.092-.685-1.092.033-.187.118-.28.254-.28m3.861-40.311v.253l-1.906,3.43a13.764,13.764,0,0,0-1.245,2.87H301.8a.247.247,0,0,1-.279-.279c.321-.44.509-.66.56-.66l-.128-.279a10.437,10.437,0,0,0,.813-1.932c.187,0,.279-.041.279-.127l-.127-.279a6.819,6.819,0,0,1,1.092-2.057q0-.94,1.092-.94m4.369-.153a6.608,6.608,0,0,0,1.244.153l-4.521,3.4q0,.458-1.091,1.245v-.278q1.727-4.37,3.149-4.37Zm28.273,55.96v.278h-.535v-.127a3.218,3.218,0,0,0,.535-.152m3.58-2.059v.28a12.6,12.6,0,0,1-3.3,1.779h-.278v-.128a11.686,11.686,0,0,0,2.616-1.5,2.5,2.5,0,0,0,.965-.432m9.88-1.777v.152q-.151,1.372-.152,2.057a14.306,14.306,0,0,1,.278,2.186v.406a.246.246,0,0,1-.278.279h-.813a1.068,1.068,0,0,1-.56-.153c-.085,0-.125.051-.125.153l-1.906-.279-1.4.127-1.371-.127-2.465.279c0-.1-.043-.153-.127-.153a.135.135,0,0,1-.154.153v-.279a11.813,11.813,0,0,0,1.931-1.219q2.158,0,5.487-2.489.991-1.094,1.65-1.092m-5.766-52.682h.128l3.43.432.278-.153a12.779,12.779,0,0,0,3.024.559h.534l-.406,3.149v.839c0,.068-.043.1-.128.1l.128.279a8.551,8.551,0,0,0-.407,3.024h-.153q-.282-.051-1.219-2.592a11.422,11.422,0,0,1-2.057-2.616q-.46,0-.839-.966a16.157,16.157,0,0,1-2.313-2.057" transform="translate(39.084 -102.855)" fill="#2ffe04"/>
  <path id="Path_26" data-name="Path 26" d="M327.093,127.624l.585.129a1.163,1.163,0,0,1,.457-.129q.636,0,.89,2.211a.135.135,0,0,0-.154.153c.2.034.306.135.306.3v1.04q-.46,0-.762.737h-.127v.153a42.833,42.833,0,0,1,2.083,7.595,44.861,44.861,0,0,1,2.361,10.593,25.7,25.7,0,0,1,2.108,7.9q1.322,4.037,2.819,10.871a39.682,39.682,0,0,1,1.779,6.834,18.424,18.424,0,0,1,1.5,5.233,10.047,10.047,0,0,1,1.194,4.9c.167,0,.363.449.582,1.347h.764a4.124,4.124,0,0,0,1.471-2.388c.3,0,.56-.744.761-2.235a26.327,26.327,0,0,0,1.779-3.581q2.694-4.928,2.694-6.553c-.1,0-.153-.042-.153-.127h.432V171.7a10.824,10.824,0,0,0,1.039-2.667q.789,0,1.347-3.583.231,0,1.043-2.819a10.369,10.369,0,0,0,.89-2.236v-.61q.406,0,.911-1.93l.282-.152a1.026,1.026,0,0,1-.154-.458,86.526,86.526,0,0,0,3.43-8.763v-.152h.3a38.8,38.8,0,0,0,1.779,8.483,36.655,36.655,0,0,0,1.043,5.055,21.386,21.386,0,0,0,1.651,5.359,42.94,42.94,0,0,0,1.625,5.233,35.325,35.325,0,0,0,1.651,5.36c.15,0,.4.492.736,1.474v.3l-.154.305q.358.127.915,1.93.891.407.89.61v.432q.431,0,.432,1.193h.761a17.9,17.9,0,0,1,.586-2.386.136.136,0,0,0-.154-.154l.154-.736v-1.93a5.3,5.3,0,0,0,1.347-3.581,28.608,28.608,0,0,0,1.775-5.969l-.15-.279,1.04-2.693a8.385,8.385,0,0,1,1.068-2.083l-.153-.305a4.5,4.5,0,0,1,.735-1.778q.611-5.359,1.044-5.36a62.586,62.586,0,0,0,3.122-6.121q.358,0,1.5-4.445l.582-5.08-.15-.305a5.108,5.108,0,0,1,3-3.125q.687,0,2.083-3.861c.424-1,.719-1.5.89-1.5a.27.27,0,0,0,.3-.306v-.126l-.153-.305q.584,0,1.347-1.651a13.146,13.146,0,0,1,2.818-1.042v.152a5.926,5.926,0,0,1,1.194-.432v.128a6.356,6.356,0,0,1-1.194,2.236q0,1.574-1.929,4.927a71.182,71.182,0,0,1-2.972,8.178,17.227,17.227,0,0,1-1.955,5.234l-.738,2.236a.135.135,0,0,1,.154.152q-.405,0-1.194,3.125A3.844,3.844,0,0,0,383.838,158a22.6,22.6,0,0,0-1.775,4.471,3.916,3.916,0,0,0-.915,2.388q-.332,0-.736,2.361h-.154l.154.305q-2.392,5.36-2.389,8.053a29,29,0,0,1-1.625,3.581,5.681,5.681,0,0,0-.458,2.083,27.807,27.807,0,0,1-1.625,3.428,32.777,32.777,0,0,0-2.237,5.361A16.622,16.622,0,0,1,370,194.506q-.329,0-1.8-2.539c-.7-1.524-1.236-2.371-1.626-2.54,0-.254-.306-.653-.915-1.2a40.433,40.433,0,0,0-3.4-6.984,51.067,51.067,0,0,0-2.387-5.513,29.871,29.871,0,0,1-1.653-4.191l-.582-.432c0-.1-.154-.152-.458-.152h-.735a44.458,44.458,0,0,0-2.848,6.1q-2.234,3-2.233,3.581a13.983,13.983,0,0,0-2.515,4.775,32.658,32.658,0,0,0-2.082,5.664q-3.611,5.082-3.888,5.665h-.432a26.306,26.306,0,0,0-1.8-4.344,34.561,34.561,0,0,0-2.387-6.1.136.136,0,0,1,.154-.154,56.232,56.232,0,0,1-2.389-5.943c-.15,0-.3-.348-.432-1.042q-2.387-5.131-2.387-6.553c-.389,0-.584-.357-.584-1.068a12.37,12.37,0,0,1-1.042-2.82q-.382,0-.61-1.5-.585-.633-1.5-4.6-.282,0-1.042-4.192-.587,0-1.2-3.276c-.235,0-.432-.491-.582-1.474q-.609-.278-1.2-3v-.279q-.405,0-1.5-3.734a15.575,15.575,0,0,1-1.474-3.583h-.305v-.127a.135.135,0,0,1,.154-.152c-.1-.406-.3-.61-.586-.61l.128-.737q-.356,0-.584-1.778h-.737l.128-.762v-.3c-.188-.593-.381-.89-.586-.89h-.15l.15-.737-.3.154a9.455,9.455,0,0,0-.889-2.972q-.431,0-.889-2.109a8.547,8.547,0,0,1-1.194-2.362v-.3q0-.433,1.194-.61a.135.135,0,0,1,.153.153,21.475,21.475,0,0,0,6.1-1.193c.305.1.456.2.456.3a5.656,5.656,0,0,1,2.388-.432m-2.235,35h.278q.536.1,1.8,4.751.305,0,1.347,3.886,0,.585,2.361,4.623a8.69,8.69,0,0,0,.915,3.4q0,1.016,1.779,4.318l.889,3a2.435,2.435,0,0,0,.3,1.193h-.3a8.983,8.983,0,0,0-1.347-2.693q-1.779-5.333-4.015-11.023Zm6.706-33.225h.128q.226.025.914,1.626a1.181,1.181,0,0,0-.153.457,9.7,9.7,0,0,1,.432,1.778h-.737q-.458-3.326-.584-3.861M331.692,186q.734.407,2.233,4.47a4.043,4.043,0,0,0,.611,1.346v.737q.431,0,2.669,4.623v.3c-.291,0-.432-.152-.432-.457a1.687,1.687,0,0,0-.89.305l.126.305v.152a15.015,15.015,0,0,1-1.319-3l.15-.735v-.612A41.958,41.958,0,0,1,331.692,186m3.427-50.041q.205,0,.89,2.236c.222,0,.423,1.092.611,3.276.2,0,.3.245.3.737v1.346q.282.66,1.625,5.817a17.945,17.945,0,0,1,1.193,4.75,37.384,37.384,0,0,0,1.347,4.927l1.933,8.638v.305h-.154q0-.382-1.779-6.4a72.036,72.036,0,0,0-2.69-8.941,55.834,55.834,0,0,0-1.933-8.053q-.149,0-.3-.458a.994.994,0,0,0,.154-.43,20.337,20.337,0,0,1-.889-4.015.133.133,0,0,0,.15-.153.269.269,0,0,1-.3-.3.135.135,0,0,1,.154-.153l-.154-.305a.135.135,0,0,1,.154-.152,3.448,3.448,0,0,1-.308-1.627Zm15.345,55.121v.279l-4.016,7.317h-.3v-.154a19.6,19.6,0,0,1,1.5-2.972,11.838,11.838,0,0,1,2.233-4.038Zm2.54-5.233V186q-1.271,3.125-1.651,3.123v-.126q1.245-3.15,1.651-3.151m7.138-54.358h.3v.736l.457,1.8h-.3v.153l.3.432v.457c-.949,0-1.548.542-1.8,1.626l-2.233,6.121q0,.482-1.322,1.474c0,.372-.346.677-1.043.914a10.547,10.547,0,0,1-1.347,4.6c-.2,0-.3.254-.3.763.1,0,.154.042.154.127-.389,0-.586.253-.586.762h-.3q.354-1.042.586-1.042a.135.135,0,0,0-.154-.153c0-.593.154-.889.458-.889v-.153l-.154-.3c.137,0,.287-.3.458-.89l-.154-.305a11.849,11.849,0,0,0,.89-2.818,36.611,36.611,0,0,0,1.347-3.734h.431v.61h.3l-.15-.305a6.227,6.227,0,0,0,.89-2.387q.482-.025,1.193-2.819h.3V135.8q.941-3.554,1.779-4.318m-.89,58.551a36.3,36.3,0,0,1,3.126,5.639,7.339,7.339,0,0,1,1.5,3.886l-.3.154h-.432c-.239,0-.39-.254-.458-.763.1,0,.15-.043.15-.127q-.809-.331-1.775-3.733a21.261,21.261,0,0,1-1.8-5.055m1.347-53.623q.456,0,.458,1.627h.278v.888l.154,1.5-.282.153h-.15c-.2,0-.355-.651-.458-1.955-.256,0-.406-.195-.457-.584a9.129,9.129,0,0,0,.457-1.627m.608,5.055h.432a3.618,3.618,0,0,0,.457,1.625,1.26,1.26,0,0,0-.15.612v.152q.584,1.523.582,1.625l-.15.305a5.513,5.513,0,0,1,.455,2.235.135.135,0,0,0-.15.153,10.359,10.359,0,0,1,1.193,3.43h-.3a12.229,12.229,0,0,0-.89-2.388,32,32,0,0,1-1.193-5.969c-.1,0-.154-.094-.154-.28h.154a1.925,1.925,0,0,1-.282-.915c0-.1.043-.152.128-.152l-.128-.28Zm2.211,49.609q1.142.787,3.43,5.791c.3.949.457,1.448.457,1.5h-.457q-1.194,0-1.779-3.43a5.694,5.694,0,0,1-1.04-2.819c-.406-.305-.611-.508-.611-.61Zm.611-55.121h.15a17.854,17.854,0,0,0,.736,3.734v1.474c.034.2.137.3.306.3l-.153,1.5a22.581,22.581,0,0,1,.735,3.862,1.191,1.191,0,0,1,.458,1.042q0,.331-.15,1.651a31.035,31.035,0,0,1,1.039,5.359,33.451,33.451,0,0,1,1.347,5.055q.3,0,.3.737v2.083l.736,4.469c-.1.611-.253.915-.455.915a21.754,21.754,0,0,1-1.628-7.011h.154a4.992,4.992,0,0,1-.458-1.651l.154-.278a23.882,23.882,0,0,1-.736-2.693h.152a12.25,12.25,0,0,1-.762-3.861l.154-.306a16.011,16.011,0,0,1-.586-2.691.113.113,0,0,1,.128-.127,12.706,12.706,0,0,0-.738-3.734,1.15,1.15,0,0,1,.154-.457,9.975,9.975,0,0,0-.458-2.515h.154a12.3,12.3,0,0,1-.432-3.887.268.268,0,0,1-.3-.3,1.1,1.1,0,0,1,.15-.584,7.545,7.545,0,0,1-.15-1.347Zm27.863,61.521c.287.1.432.4.432.89v1.651H391.13a1.28,1.28,0,0,0-.586.128,1.324,1.324,0,0,0-.608-.128l-.735.128v-.128a13.279,13.279,0,0,1-1.651.279c-.086,0-.128-.051-.128-.152a42.057,42.057,0,0,1-5.359.3l-.915-.152-2.237.3v-.153a1,1,0,0,1-.432.153q-1.167,0-4.165.154V200.6q.456-1.042,2.668-1.042l.3.154a4.173,4.173,0,0,0,1.347-.763c0,.237.193.389.582.458a5.31,5.31,0,0,0,2.237-.585l.3.127,1.194-.278v.152a3.046,3.046,0,0,1,1.628-.305l-.154-.3,1.5.153h.154c.119,0,.659-.1,1.625-.305h1.8l.432-.279q.56,1.169,1.347,1.168h.3v-.736l.154-.305c-.1,0-.154-.043-.154-.127a.27.27,0,0,0,.3-.305m-9.55-23.242h.458v.152a11.687,11.687,0,0,1-.89,2.083,8.862,8.862,0,0,1-.915,2.54v.89q-.431,0-.736,2.083a10.588,10.588,0,0,1-1.929,3.733,2.85,2.85,0,0,1-.889,1.474v-.432q1.572-6.12,2.233-6.12a41.879,41.879,0,0,1,2.514-5.818Zm-1.779,12.954h.154v.458c0,.982-.1,1.472-.3,1.472a1.2,1.2,0,0,1,.15.458l-.15.3a1.133,1.133,0,0,1,.15.585q0,.405-1.347,1.651h-.3v-.305a19.029,19.029,0,0,1,1.347-3.86,1.742,1.742,0,0,0,.3-.763m5.513-9.982h.153q-.84,4.928-1.65,4.927l.15.305a7.5,7.5,0,0,0-.582,1.625c.081,0,.124.052.124.153q-.405,0-1.168,2.82l-.3.152v-.3a30.271,30.271,0,0,1,1.347-4.165,1,1,0,0,1-.154-.432q.256,0,.736-2.083.789-1.8,1.043-1.8v-.152a1.006,1.006,0,0,1-.154-.432c.154-.406.3-.61.458-.61m9.524-26.062v.305l-.15,1.042a1.032,1.032,0,0,1,.15.432h-.15a1.2,1.2,0,0,1,.15.456c0,.221-.1.967-.3,2.237a.135.135,0,0,0,.154.152l-.154.737v2.083h-.736l-.3-.154a24.46,24.46,0,0,0,.3-2.972.134.134,0,0,1-.153-.152h.153l.3.152.154-.3q-.307,0-.306-.432.332-3.583.889-3.581m-.582,8.053h.278v1.929q0,.738.154,2.237H395.3l.154.3v.737a.135.135,0,0,1-.154.153l.154.305v.278h-.282l-.15-.736h.15l-.15-.305v-.152a1.793,1.793,0,0,1,.278-.89c-.085,0-.227-.195-.432-.584a1.175,1.175,0,0,1,.154-.457l-.154-2.083Z" transform="translate(41.459 -107.964)" fill="#2ffe04"/>
  <path id="Path_27" data-name="Path 27" d="M374.909,186.754l.305.152c-.1.712-.153,1.109-.153,1.2a2.025,2.025,0,0,0,.153,1.042q-.205,5.866-.458,7.9l.153.305q-.153.431-.3.431l.152.305-.3,2.972a.134.134,0,0,0,.153.152l-.305,2.083a.134.134,0,0,0,.153.153l-.153.737v2.108q-.433,4.37-.432,6.833c-.2.034-.3.136-.3.305a1.028,1.028,0,0,1,.152.457h-.152l.152.279c-.068.694-.169,1.04-.305,1.04a15.6,15.6,0,0,1,.305,2.083c-.169,0-.322.357-.457,1.068.1.051.152.4.152,1.042h-.152v.889q0,.305-.278.305a1.5,1.5,0,0,0-.154-.762,3.81,3.81,0,0,1,.279-1.042,13.713,13.713,0,0,1-.126-1.626l.126-1.04-.279-.153v.278h-.3a2.313,2.313,0,0,0,.584-1.32l-.126-.305a1.36,1.36,0,0,0,.126-.61c-.185,0-.279-.3-.279-.889a.247.247,0,0,0,.279-.279v-3.429a7.884,7.884,0,0,0-.584-1.8h.3v-.279h-.3q0-.609.584-.61v-.737a9.134,9.134,0,0,0-.126-1.346c.084-.305.178-.457.278-.457l-.278-2.236h.278a1.024,1.024,0,0,1-.153-.431l.153-.306-.153-.3a66.707,66.707,0,0,0,1.347-8.028l-.153-.305v-.152q.458-2.287.457-2.388a.135.135,0,0,0-.152-.153l.3-2.362-.153-.3a1,1,0,0,0,.153-.457m-1.194.305v.61c0,.084-.051.127-.152.127a1.175,1.175,0,0,1,.152.457l-.152.3a1.031,1.031,0,0,1,.152.432,10.764,10.764,0,0,0-.305,2.388h-.152V190.03a1.031,1.031,0,0,1,.152-.432l-.152-.3q.1-2.236.457-2.235M376.1,149.82v.154a8.8,8.8,0,0,1-.61,2.388,2.812,2.812,0,0,1,.153.888,1.116,1.116,0,0,1-.585.153,8.229,8.229,0,0,0-.153-.889q.355-2.541.737-2.54a1.169,1.169,0,0,1,.457-.154m.153,8.207a10.615,10.615,0,0,0,.125,1.624,1.37,1.37,0,0,0-.125.61,1.182,1.182,0,0,1,.125.432l-.278.152-.305-.887q0-1.93.458-1.93m.583-6.859.305.152.3-.152v1.472a.135.135,0,0,1-.152.153l.431,2.082-.279.154c.085.593.178.888.279.888l-.152.762v1.194l.3.432-.153.3a1.187,1.187,0,0,0,.153.458,19.128,19.128,0,0,1-.3,2.667,8.929,8.929,0,0,1,.3,1.8l-.153.278a7.909,7.909,0,0,1,.153,1.5l.305-.153v.153l-.154.305.154.736c-.2.034-.305.137-.305.305v.153h.305v.127l-.305.457.152.737h-.152l.305.761c-.1,1.016-.154,1.8-.154,2.363l.154.761h-.154l.154.306v1.319a.269.269,0,0,1-.305.305h-.153V173.8l.153-.305a1.03,1.03,0,0,1-.153-.431h.153l-.153-.305v-.153q0-1.042-.152-3.277a.134.134,0,0,0,.152-.152q-.2,0-.431-.432a10.978,10.978,0,0,0,.279-1.93v-.153a1.344,1.344,0,0,0-.128-.61c0-.1.043-.154.128-.154l-.128-1.042v-.278a1.347,1.347,0,0,1,.128-.61q-.231-1.2-.586-5.664h.154l-.154-.278a1.153,1.153,0,0,1,.154-.61,4.535,4.535,0,0,1-.305-1.78.134.134,0,0,0,.152-.153.268.268,0,0,1-.3-.305,5.208,5.208,0,0,1,.152-1.345l-.3-2.082Zm.305,50.5h.153a11.641,11.641,0,0,0,.152,1.625l-.152.305a.135.135,0,0,0,.152.153l-.152,1.5v1.778a24.861,24.861,0,0,0,.152,2.668,24.317,24.317,0,0,0-.3,2.541h-.154q0-1.247-.152-1.347a8.674,8.674,0,0,0,.305-1.932c-.1-.879-.154-1.421-.154-1.625q0-.28.154-2.693c-.1-.526-.154-.821-.154-.889a10.54,10.54,0,0,0,.154-2.083m.153-6.706q.278,1.423.279,1.625a9.208,9.208,0,0,0-.128,1.194l.128.305a1.172,1.172,0,0,0-.128.457H377.3l-.153-1.042a.134.134,0,0,1,.153-.152,8.014,8.014,0,0,1-.306-2.236Zm.279-4.319a1.756,1.756,0,0,0,.152.889l-.431,1.932h-.153v-.736a.135.135,0,0,1,.153-.154l-.153-.3v-.153a1.108,1.108,0,0,1,.153-.585l-.153-.3c.153-.389.3-.585.432-.585m1.042-9.982a1.15,1.15,0,0,0,.152.457,1.113,1.113,0,0,0-.152.585l.152.305-.152.278a.134.134,0,0,0,.152.154,31.742,31.742,0,0,1-.583,3.125.134.134,0,0,0,.152.152,12.233,12.233,0,0,0-.305,1.8h-.3v-.152l.153-.762c-.2,0-.3-.094-.3-.279h.3v-.61c-.288,0-.432-.093-.432-.28v-.152l.432.28a1.777,1.777,0,0,1,.152-.89v-.432h.154v-.761l.152-.28h-.305a1.7,1.7,0,0,0,.458-1.042.269.269,0,0,1-.3-.305l.152-.3-.152-.305c.152-.388.3-.584.432-.584m16.536-30.38,1.956.28a1.018,1.018,0,0,1,.431-.154q1.042.129,1.043.305l.3-.152.737.456h2.539q2.059,0,7.138,2.388a3.8,3.8,0,0,1,3.15,2.082,8.252,8.252,0,0,1,3.4,4.166,25.412,25.412,0,0,1,2.109,4.013,32.01,32.01,0,0,0,2.819,4.776,37.3,37.3,0,0,0,1.626,6.859,7.955,7.955,0,0,1,.61,2.387l.305-.152h.152v.279h-.305v.305l.305-.154v.154a1.152,1.152,0,0,0-.152.61h.278v.152a8.5,8.5,0,0,0,.763,3.276c.286,1.541.432,2.43.432,2.667a1.024,1.024,0,0,0-.154.458c.406,0,.61.3.61.889a6.23,6.23,0,0,0,.305,1.626l-.305.152.305,1.2a1.146,1.146,0,0,0-.153.456.135.135,0,0,1,.153.154c-.1,0-.153.042-.153.126h.153c0-.084.051-.126.152-.126l.128,1.472v.3a1.275,1.275,0,0,1-.128.585c0,.1.043.153.128.153l-.128.762v2.362l-.152.3h.152c0-.1.043-.153.128-.153l-.128.762.128.889a32.841,32.841,0,0,0-.432,5.36c-.1,0-.153.1-.153.3h.305a15.869,15.869,0,0,0-1.042,3.278q-.227.025-.609,1.625c-.152,0-.348.4-.584,1.193q-.662.254-2.541,4.776c-.219,0-.771.491-1.65,1.472q-2.668,3.1-2.669,3.583l-.3-.153a20.232,20.232,0,0,1-3.123,2.541q0,.482-2.694,1.93,0,.609-5.64,2.54a13.39,13.39,0,0,0-2.082.432c-.1,0-.153-.043-.153-.128a11.094,11.094,0,0,1-2.54.28h-1.346a1.124,1.124,0,0,0-.586.152,1.169,1.169,0,0,0-.61-.152q-1.042.151-1.193.152l-.279-.152a1.265,1.265,0,0,1-.61.152l-.89-.152a15.474,15.474,0,0,1-1.929.3q-1.118-.3-1.194-.3l-.3.152-.89-.152a3.436,3.436,0,0,1-1.5.457c-.389-.085-.584-.188-.584-.305l-.306.152q-.558,0-3.123-.3a9.237,9.237,0,0,1-1.778.152.135.135,0,0,1-.154-.152.134.134,0,0,0-.152.152q-1.194-.1-1.193-.3l-.305.153c-.492,0-.736-.094-.736-.28l-.305.128h-.432a1.345,1.345,0,0,1-.61-.128,1.29,1.29,0,0,1-.585.128c-.2,0-.305-.094-.305-.279l.154-.61a2.361,2.361,0,0,1-.305-1.194V223.1l.305-1.779q0-.762-.154-2.235l.154-.61a4.53,4.53,0,0,1-.154-1.2l.305-.127-.152-.3.152-.306h-.305c.034-.2.137-.305.305-.305l-.152-.278v-2.083a.134.134,0,0,1,.152-.153l-.152-.3v-.89l.3-.457v-.585h-.3v-.152a.133.133,0,0,1,.152-.152l-.152-.305v-.432c.2,0,.3-.052.3-.153a14.45,14.45,0,0,1,.128-1.651,13.807,13.807,0,0,1-.128-1.626l.128-.3a1.288,1.288,0,0,1-.128-.584v-.305l.279-.458a7.22,7.22,0,0,0-.152-1.32l.3-2.694-.153-.736a19.478,19.478,0,0,0,.153-2.235v-.611a1.119,1.119,0,0,0-.153-.585.135.135,0,0,1,.153-.152l-.153-.737a1.033,1.033,0,0,1,.153-.456,5.726,5.726,0,0,1-.3-1.5,24.08,24.08,0,0,1,.61-5.207h-.305q.329-.205.737-3.125c0-.1-.043-.154-.128-.154a39.217,39.217,0,0,1,.432-4.469c0-.084-.05-.483-.153-1.2l.153-.584q-.356-2.692-.585-2.691l.153-.738v-.152c-.2-1.677-.3-2.615-.3-2.819v-.457a.134.134,0,0,1,.152-.153l-.152-.278v-.916l-.153-.89a1.441,1.441,0,0,0,.153-.735l-.153-.305q.405-2.388.585-2.387l-.128-.279q.1-.916.279-.916l-.151-.278a5.65,5.65,0,0,1,.3-1.5h-.3l.151-.306v-1.929a.135.135,0,0,1,.153-.153,6.954,6.954,0,0,1-.432-2.541h.128a42.669,42.669,0,0,1-.89-6.552h.153l-.153-.278v-.891a.135.135,0,0,1,.153-.152l-.153-.305v-.153c.084,0,.483-.051,1.194-.152v.152l.305-.152h3.276a25.565,25.565,0,0,0,2.693-.152l.585.152c1.1-.1,2.091-.152,2.971-.152h1.652a.134.134,0,0,1,.153.152l.278-.152h2.54c.492,0,.737-.095.737-.28m-12.5-3.887q1.069.153,1.2.153a1.007,1.007,0,0,1,.432-.153v.153a.135.135,0,0,0,.152-.153l.736.153h2.108l1.042.153v.153a4.964,4.964,0,0,0-1.5.279l-.305-.128a29.807,29.807,0,0,1-5.207.431,5.419,5.419,0,0,1-2.083.612.136.136,0,0,0-.153-.154l.153-.761-.305-.432q.863,0,2.388-.153v.153a3.287,3.287,0,0,1,1.345-.305m0,2.388h.737v.152a28.075,28.075,0,0,1-3.733.433l-.128-.279a17.5,17.5,0,0,1,3.123-.305m-2.386,78.363q2.236.049,2.235.278a.134.134,0,0,0,.152-.153l1.474.153h2.237a1.164,1.164,0,0,0,.61-.153,1,1,0,0,0,.432.153v.305h-.585c-.305,0-.457-.051-.457-.154q-1.854.205-2.237.305c-.084,0-.127-.051-.127-.152l-1.066.152H382.5a1.262,1.262,0,0,1-.61-.152,1.122,1.122,0,0,1-.584.152h-.153c-.491,0-.737-.1-.737-.305l-.3.154h-.153v-.305c.2,0,.305-.093.305-.278m4.623,2.514q.456,0,6.553.3a1.448,1.448,0,0,0-.153.737h-1.651a1.1,1.1,0,0,0-.585.153,9.951,9.951,0,0,0-2.54-.305l-.279.153-3.886-.585v-.153q2.387-.3,2.54-.3m20.549-2.972c.593.236.89.432.89.584v.153q-.129,0-3.581.152h-1.169v-.152a5.408,5.408,0,0,0,1.472-.153.135.135,0,0,0,.153.153.291.291,0,0,1,.305-.278l.279.126q1.65,0,1.651-.584m4.166-78.058q1.8.305,1.93.3v.433c-.188,0-.279.1-.279.3l-.3-.153a1.171,1.171,0,0,1-.611.153q0-.305-2.083-.584h-1.193l-.28.153v-.306l.737-.152h.89a.134.134,0,0,1,.152.152,2.414,2.414,0,0,1,1.042-.3m6.248,74.477v.152a14.682,14.682,0,0,1-4.165,2.693l-1.194.89v.152a.135.135,0,0,1-.153-.152l-.736.152h-.432a70.959,70.959,0,0,1,6.68-3.886m.763-73.283.3.154h.583a11.954,11.954,0,0,1,3.125.585.136.136,0,0,1,.153-.154q0,.3,1.626.915h.152v-.305q.584.891.763.89c.033-.2.127-.305.278-.305,0,.508.2.763.61.763a4.374,4.374,0,0,0,1.347,1.04.134.134,0,0,1,.152-.153c0,.273.247.567.737.888a18.8,18.8,0,0,1,1.194,4.32,1.163,1.163,0,0,0-.153.457h-.305q0-.458-1.193-1.5,0-.332-1.193-1.348l-2.237-2.973a9.116,9.116,0,0,0-3.125-1.777q-.151-.662-2.514-1.194h-.3Zm.3,10.137h.128q.278,0,1.651,2.233,1.04,0,2.082,4.471a2.591,2.591,0,0,1-.889-1.5,7.591,7.591,0,0,1-1.347-2.819,11.573,11.573,0,0,1-1.625-2.386m10.72,56.44h.152l-.152.761.152.585c-.1.305-.2.457-.3.457a.135.135,0,0,0,.153.153,5.208,5.208,0,0,1-.305,1.169.135.135,0,0,0,.153.152q0,2.692-.889,2.693H426.3v.154q0,.1.457.43l.28-.152h.152v.152q0,1.245-2.54,1.8l-.278-.153a32.265,32.265,0,0,0-3.278.736h-.3a9.422,9.422,0,0,1,1.932-1.93,8.982,8.982,0,0,0,1.651-2.235q.227,0,1.472-1.932a3.477,3.477,0,0,0,1.042-1.956ZM424.518,150.4a1.012,1.012,0,0,0,.432.154.135.135,0,0,1,.152-.154,4.656,4.656,0,0,1,1.042,2.109c.221,0,.372.195.458.582h.152a1.131,1.131,0,0,0-.152.587H426.3q0-.129.153-.129-.051-.405-.737-.761c0-.221-.2-.364-.61-.431,0-.188-.346-.484-1.042-.891,0,.087-.051.128-.152.128,0-.389-.1-.585-.305-.585,0,.1-.043.154-.127.154v-.61a4.41,4.41,0,0,0,1.042-.154m-1.042,20.117,1.168.738q1.5,5.053,1.5,5.231v.585l-.152.306c.2.034.3.133.3.3h-.153a1.012,1.012,0,0,0-.583-.3l.152-.306a.8.8,0,0,1-.61-.585,1.235,1.235,0,0,0,.153-.61v-.152q-.331,0-.456-.736h-.154v-.736c0-.711-.195-1.111-.585-1.194l.153-.305-.153-.3a1,1,0,0,0,.153-.433c-.253,0-.5-.5-.736-1.5m5.055,7.748a35.05,35.05,0,0,1,.89,5.055h-.154a5.717,5.717,0,0,1,.305,1.5,19.339,19.339,0,0,0-.152,2.541l-.154.305q.305.025.305.278a9.245,9.245,0,0,0-.458,3.125h-.126l.126.305c0,.1-.042.152-.126.152,0,.1.041.154.126.154l-.126.888q-.636,0-.763-1.5a14.773,14.773,0,0,1,.305-2.361,5.492,5.492,0,0,1-.305-1.2.4.4,0,0,1,.458-.456v-.305c-.3,0-.458-.093-.458-.28v-.152c0-.3.051-.458.154-.458l-.586-4.9a1.341,1.341,0,0,0,.128-.458,1.168,1.168,0,0,1-.128-.456h.128l-.128-.282v-1.345a1.438,1.438,0,0,0,.737-.154m.3-10.287h.432l.61,3.149-.3.129a14.507,14.507,0,0,1-1.042-2.668v-.153c.2,0,.3-.153.3-.458" transform="translate(48.75 -105.508)" fill="#2ffe04"/>
</svg>
